<svg width="195" height="210" xmlns="http://www.w3.org/2000/svg" xmlns:xlink="http://www.w3.org/1999/xlink" overflow="hidden"><defs><clipPath id="clip0"><rect x="225" y="115" width="195" height="210"/></clipPath></defs><g clip-path="url(#clip0)" transform="translate(-225 -115)"><text font-family="Consolas,Consolas_MSFontService,sans-serif" font-weight="400" font-size="24" transform="translate(331.021 146)">S<tspan font-size="24" x="0" y="52">S</tspan><tspan font-size="24" x="-60.4792" y="52">S</tspan><tspan font-size="24" x="60.4792" y="52">*</tspan><tspan font-size="24" x="-60.4792" y="106">S</tspan><tspan font-size="24" x="-30.2396" y="106">+</tspan><tspan font-size="24" x="0" y="106">a</tspan><tspan font-size="24" x="-90.7188" y="106">S</tspan><tspan font-size="24" x="-60.4792" y="158">S</tspan><tspan font-size="24" x="-90.7188" y="158">S</tspan></text><path d="M0 0 60.4792 13.1687" stroke="#000000" stroke-width="2" stroke-miterlimit="8" fill="none" fill-rule="evenodd" transform="matrix(-1 0 0 1 337.479 157)"/><path d="M338 157 338 170.169" stroke="#000000" stroke-width="2" stroke-miterlimit="8" fill="none" fill-rule="evenodd"/><path d="M338 157 398.479 170.169" stroke="#000000" stroke-width="2" stroke-miterlimit="8" fill="none" fill-rule="evenodd"/><path d="M0 0 30.2396 15.1198" stroke="#000000" stroke-width="2" stroke-miterlimit="8" fill="none" fill-rule="evenodd" transform="matrix(-1 0 0 1 277.24 209)"/><path d="M277 209 277 224.12" stroke="#000000" stroke-width="2" stroke-miterlimit="8" fill="none" fill-rule="evenodd"/><path d="M277 209 307.24 224.12" stroke="#000000" stroke-width="2" stroke-miterlimit="8" fill="none" fill-rule="evenodd"/><path d="M338 209 338 224.12" stroke="#000000" stroke-width="2" stroke-miterlimit="8" fill="none" fill-rule="evenodd"/><path d="M247 263 247 276.169" stroke="#000000" stroke-width="2" stroke-miterlimit="8" fill="none" fill-rule="evenodd"/><path d="M277 263 277 276.169" stroke="#000000" stroke-width="2" stroke-miterlimit="8" fill="none" fill-rule="evenodd"/></g></svg>