<svg width="472" height="393" xmlns="http://www.w3.org/2000/svg" xmlns:xlink="http://www.w3.org/1999/xlink" overflow="hidden"><defs><clipPath id="clip0"><rect x="487" y="115" width="472" height="393"/></clipPath></defs><g clip-path="url(#clip0)" transform="translate(-487 -115)"><text font-family="Consolas,Consolas_MSFontService,sans-serif" font-weight="400" font-size="24" transform="translate(683.474 146)">expr.t=+<tspan font-size="24" x="105.333" y="0">-</tspan><tspan font-size="24" x="118.5" y="0">952</tspan><tspan font-size="24" x="-95.7023" y="66">e</tspan><tspan font-size="24" x="-82.5356" y="66">xpr.t=</tspan>-<tspan font-size="24" x="9.63104" y="66">95</tspan><tspan font-size="24" x="72.4164" y="66">+</tspan></text><path d="M0 0 108.869 27.313" stroke="#000000" stroke-width="2" stroke-miterlimit="8" fill="none" fill-rule="evenodd" transform="matrix(-1 0 0 1 762.869 157)"/><path d="M0 0 0.000314961 27.313" stroke="#000000" stroke-width="2" stroke-miterlimit="8" fill="none" fill-rule="evenodd" transform="matrix(-1 0 0 1 762 157)"/><text font-family="Consolas,Consolas_MSFontService,sans-serif" font-weight="400" font-size="24" transform="translate(825.03 213)">term.t=2</text><path d="M762 157 877.223 185.288" stroke="#000000" stroke-width="2" stroke-miterlimit="8" fill="none" fill-rule="evenodd"/><text font-family="Consolas,Consolas_MSFontService,sans-serif" font-weight="400" font-size="24" transform="translate(515.074 281)">expr<tspan font-size="24" x="52.6667" y="0">.t=9</tspan><tspan font-size="24" x="131.947" y="0">-</tspan></text><path d="M0 0 85.8639 30.2396" stroke="#000000" stroke-width="2" stroke-miterlimit="8" fill="none" fill-rule="evenodd" transform="matrix(-1 0 0 1 653.864 223)"/><path d="M0 0 0.000314961 30.2396" stroke="#000000" stroke-width="2" stroke-miterlimit="8" fill="none" fill-rule="evenodd" transform="matrix(-1 0 0 1 654 223)"/><text font-family="Consolas,Consolas_MSFontService,sans-serif" font-weight="400" font-size="24" transform="translate(689.832 282)">term<tspan font-size="24" x="52.6667" y="0">.t=5</tspan></text><path d="M654 223 742.894 254.215" stroke="#000000" stroke-width="2" stroke-miterlimit="8" fill="none" fill-rule="evenodd"/><text font-family="Consolas,Consolas_MSFontService,sans-serif" font-weight="400" font-size="24" transform="translate(871.113 350)">2</text><path d="M878 293 878 322.264" stroke="#000000" stroke-width="2" stroke-miterlimit="8" fill="none" fill-rule="evenodd"/><text font-family="Consolas,Consolas_MSFontService,sans-serif" font-weight="400" font-size="24" transform="translate(811.863 282)">factor.t=2</text><path d="M0 0 0.000209974 30.2396" stroke="#000000" stroke-width="2" stroke-miterlimit="8" fill="none" fill-rule="evenodd" transform="matrix(-1 0 0 1 878 224)"/><text font-family="Consolas,Consolas_MSFontService,sans-serif" font-weight="400" font-size="24" transform="translate(515.074 350)">term<tspan font-size="24" x="52.6667" y="0">.t=9</tspan><tspan font-size="24" x="46.0833" y="137">9</tspan></text><path d="M0 0 0.000209974 29.264" stroke="#000000" stroke-width="2" stroke-miterlimit="8" fill="none" fill-rule="evenodd" transform="matrix(-1 0 0 1 568 430)"/><text font-family="Consolas,Consolas_MSFontService,sans-serif" font-weight="400" font-size="24" transform="translate(501.908 419)">factor.t=9</text><path d="M568 361 568 391.24" stroke="#000000" stroke-width="2" stroke-miterlimit="8" fill="none" fill-rule="evenodd"/><path d="M568 292 568 322.24" stroke="#000000" stroke-width="2" stroke-miterlimit="8" fill="none" fill-rule="evenodd"/><text font-family="Consolas,Consolas_MSFontService,sans-serif" font-weight="400" font-size="24" transform="translate(735.915 418)">5</text><path d="M0 0 0.000209974 29.264" stroke="#000000" stroke-width="2" stroke-miterlimit="8" fill="none" fill-rule="evenodd" transform="matrix(-1 0 0 1 742 361)"/><text font-family="Consolas,Consolas_MSFontService,sans-serif" font-weight="400" font-size="24" transform="translate(676.666 350)">factor.t=5</text><path d="M742 293 742 322.264" stroke="#000000" stroke-width="2" stroke-miterlimit="8" fill="none" fill-rule="evenodd"/></g></svg>