<svg width="511" height="393" xmlns="http://www.w3.org/2000/svg" xmlns:xlink="http://www.w3.org/1999/xlink" overflow="hidden"><defs><clipPath id="clip0"><rect x="552" y="115" width="511" height="393"/></clipPath></defs><g clip-path="url(#clip0)" transform="translate(-552 -115)"><text font-family="Consolas,Consolas_MSFontService,sans-serif" font-weight="400" font-size="24" transform="translate(683.474 146)">expr.t=<tspan font-size="24" x="92.1667" y="0">-</tspan><tspan font-size="24" x="105.333" y="0">9*52</tspan><tspan font-size="24" x="143.445" y="66">e</tspan><tspan font-size="24" x="156.612" y="66">xpr.t=*52</tspan><tspan font-size="24" x="72.4164" y="66">-</tspan></text><path d="M762 157 892.279 184.313" stroke="#000000" stroke-width="2" stroke-miterlimit="8" fill="none" fill-rule="evenodd"/><path d="M0 0 0.000314961 27.313" stroke="#000000" stroke-width="2" stroke-miterlimit="8" fill="none" fill-rule="evenodd" transform="matrix(-1 0 0 1 762 157)"/><text font-family="Consolas,Consolas_MSFontService,sans-serif" font-weight="400" font-size="24" transform="translate(580.345 213)">term.t=9</text><path d="M0 0 129.462 28.2885" stroke="#000000" stroke-width="2" stroke-miterlimit="8" fill="none" fill-rule="evenodd" transform="matrix(-1 0 0 1 762.462 157)"/><text font-family="Consolas,Consolas_MSFontService,sans-serif" font-weight="400" font-size="24" transform="translate(754.222 281)">expr<tspan font-size="24" x="52.6667" y="0">.t=5</tspan><tspan font-size="24" x="131.947" y="0">*</tspan></text><path d="M0 0 85.8639 30.2396" stroke="#000000" stroke-width="2" stroke-miterlimit="8" fill="none" fill-rule="evenodd" transform="matrix(-1 0 0 1 892.864 223)"/><path d="M0 0 0.000314961 30.2396" stroke="#000000" stroke-width="2" stroke-miterlimit="8" fill="none" fill-rule="evenodd" transform="matrix(-1 0 0 1 893 223)"/><text font-family="Consolas,Consolas_MSFontService,sans-serif" font-weight="400" font-size="24" transform="translate(928.98 282)">term<tspan font-size="24" x="52.6667" y="0">.t=2</tspan></text><path d="M893 223 981.894 254.215" stroke="#000000" stroke-width="2" stroke-miterlimit="8" fill="none" fill-rule="evenodd"/><text font-family="Consolas,Consolas_MSFontService,sans-serif" font-weight="400" font-size="24" transform="translate(626.428 350)">9</text><path d="M633 293 633 322.264" stroke="#000000" stroke-width="2" stroke-miterlimit="8" fill="none" fill-rule="evenodd"/><text font-family="Consolas,Consolas_MSFontService,sans-serif" font-weight="400" font-size="24" transform="translate(567.178 282)">factor.t=9</text><path d="M0 0 0.000209974 30.2396" stroke="#000000" stroke-width="2" stroke-miterlimit="8" fill="none" fill-rule="evenodd" transform="matrix(-1 0 0 1 633 224)"/><text font-family="Consolas,Consolas_MSFontService,sans-serif" font-weight="400" font-size="24" transform="translate(754.222 350)">term<tspan font-size="24" x="52.6667" y="0">.t=5</tspan><tspan font-size="24" x="46.0833" y="137">5</tspan></text><path d="M0 0 0.000209974 29.264" stroke="#000000" stroke-width="2" stroke-miterlimit="8" fill="none" fill-rule="evenodd" transform="matrix(-1 0 0 1 807 430)"/><text font-family="Consolas,Consolas_MSFontService,sans-serif" font-weight="400" font-size="24" transform="translate(741.055 419)">factor.t=5</text><path d="M807 361 807 391.24" stroke="#000000" stroke-width="2" stroke-miterlimit="8" fill="none" fill-rule="evenodd"/><path d="M807 292 807 322.24" stroke="#000000" stroke-width="2" stroke-miterlimit="8" fill="none" fill-rule="evenodd"/><text font-family="Consolas,Consolas_MSFontService,sans-serif" font-weight="400" font-size="24" transform="translate(975.063 418)">2</text><path d="M0 0 0.000209974 29.264" stroke="#000000" stroke-width="2" stroke-miterlimit="8" fill="none" fill-rule="evenodd" transform="matrix(-1 0 0 1 982 361)"/><text font-family="Consolas,Consolas_MSFontService,sans-serif" font-weight="400" font-size="24" transform="translate(915.813 350)">factor.t=2</text><path d="M982 293 982 322.264" stroke="#000000" stroke-width="2" stroke-miterlimit="8" fill="none" fill-rule="evenodd"/></g></svg>