<svg width="948" height="547" xmlns="http://www.w3.org/2000/svg" xmlns:xlink="http://www.w3.org/1999/xlink" overflow="hidden"><defs><clipPath id="clip0"><rect x="431" y="544" width="948" height="547"/></clipPath></defs><g clip-path="url(#clip0)" transform="translate(-431 -544)"><path d="M695.654 665.191 1000.05 665.191" stroke="#000000" stroke-width="2" stroke-linejoin="round" stroke-miterlimit="10" stroke-dasharray="8 6" fill="none" fill-rule="evenodd"/><path d="M695.654 725.664 1000.05 725.664" stroke="#000000" stroke-width="2" stroke-linejoin="round" stroke-miterlimit="10" stroke-dasharray="8 6" fill="none" fill-rule="evenodd"/><path d="M695.654 786.136 1000.05 786.136" stroke="#000000" stroke-width="2" stroke-linejoin="round" stroke-miterlimit="10" stroke-dasharray="8 6" fill="none" fill-rule="evenodd"/><path d="M695.654 846.609 1000.05 846.609" stroke="#000000" stroke-width="2" stroke-linejoin="round" stroke-miterlimit="10" fill="none" fill-rule="evenodd"/><path d="M695.654 907.081 1000.05 907.081" stroke="#000000" stroke-width="2" stroke-linejoin="round" stroke-miterlimit="10" stroke-dasharray="8 6" fill="none" fill-rule="evenodd"/><path d="M695.654 967.553 1000.05 967.553" stroke="#000000" stroke-width="2" stroke-linejoin="round" stroke-miterlimit="10" stroke-dasharray="8 6" fill="none" fill-rule="evenodd"/><path d="M695.654 1028.03 1000.05 1028.03" stroke="#000000" stroke-width="2" stroke-linejoin="round" stroke-miterlimit="10" stroke-dasharray="8 6" fill="none" fill-rule="evenodd"/><path d="M696.654 603.719 696.654 1089.5" stroke="#000000" stroke-width="2" stroke-linejoin="round" stroke-miterlimit="10" fill="none" fill-rule="evenodd"/><path d="M999.049 603.719 999.049 1089.5" stroke="#000000" stroke-width="2" stroke-linejoin="round" stroke-miterlimit="10" fill="none" fill-rule="evenodd"/><path d="M695.654 604.719 1000.05 604.719" stroke="#000000" stroke-width="2" stroke-linejoin="round" stroke-miterlimit="10" fill="none" fill-rule="evenodd"/><path d="M695.654 1088.5 1000.05 1088.5" stroke="#000000" stroke-width="2" stroke-linejoin="round" stroke-miterlimit="10" fill="none" fill-rule="evenodd"/><text font-family="Consolas,Consolas_MSFontService,sans-serif" font-weight="400" font-size="24" transform="translate(814.935 644)">int y<tspan font-size="24" x="6.58331" y="60">g(y)</tspan><tspan font-size="24" x="-79" y="120">control link of g</tspan><tspan font-size="24" x="0" y="181">int j</tspan><tspan font-size="24" x="0" y="241">int x</tspan><tspan font-size="24" x="6.58331" y="302">f(x)</tspan><tspan font-size="24" x="-79" y="362">control link of f</tspan><tspan font-size="24" x="0" y="423">int </tspan><tspan font-size="24" x="52.6666" y="423">i</tspan></text><path d="M696.134 998.896 692.589 998.174 689.021 996.02 685.631 992.565 682.364 988.081 679.255 982.497 676.223 975.991 673.451 968.558 670.812 960.39 668.363 951.471 666.229 941.997 664.286 931.964 662.654 921.482 660.399 899.558 659.771 888.265 659.583 876.917 659.771 865.571 660.336 854.279 662.528 832.418 664.097 821.938 665.978 811.906 668.048 802.371 670.371 793.518 672.885 785.348 675.593 777.916 678.497 771.414 681.48 765.83 684.647 761.304 688.306 758.134 689.616 759.646 686.051 762.735 686.215 762.553 683.153 766.928 683.215 766.825 680.278 772.325 680.309 772.262 677.434 778.699 677.46 778.634 674.773 786.009 674.789 785.961 672.289 794.086 672.301 794.045 669.988 802.858 669.998 802.816 667.936 812.316 667.941 812.288 666.066 822.288 666.072 822.252 664.51 832.69 664.516 832.641 662.328 854.454 662.332 854.404 661.77 865.654 661.771 865.621 661.583 876.933 661.583 876.9 661.771 888.213 661.769 888.174 662.394 899.424 662.391 899.377 664.641 921.252 664.634 921.2 666.259 931.638 666.253 931.601 668.19 941.601 668.184 941.572 670.309 951.009 670.298 950.964 672.735 959.839 672.722 959.797 675.347 967.922 675.333 967.88 678.083 975.255 678.052 975.182 681.052 981.619 681.02 981.555 684.082 987.055 684.017 986.953 687.204 991.328 687.11 991.216 690.36 994.529 690.163 994.373 693.475 996.373 693.158 996.249 696.533 996.937ZM686.015 755.873 694.958 755.979 689.507 763.071Z"/><path d="M636 847C629.649 847 624.5 842.752 624.5 837.511L624.5 735.489C624.5 730.248 619.351 726 613 726 619.351 726 624.5 721.752 624.5 716.511L624.5 614.489C624.5 609.248 629.649 605 636 605" stroke="#000000" stroke-width="2" stroke-miterlimit="8" fill="none" fill-rule="evenodd"/><path d="M636 1089C629.649 1089 624.5 1084.75 624.5 1079.51L624.5 977.489C624.5 972.248 619.351 968 613 968 619.351 968 624.5 963.752 624.5 958.511L624.5 856.489C624.5 851.248 629.649 847 636 847" stroke="#000000" stroke-width="2" stroke-miterlimit="8" fill="none" fill-rule="evenodd"/><text font-family="Consolas,Consolas_MSFontService,sans-serif" font-weight="400" font-size="24" transform="translate(499.243 705)">g's<tspan font-size="24" x="-46.08" y="28">activation</tspan><tspan font-size="24" x="-19.7467" y="57">record</tspan><tspan font-size="24" x="0" y="242">f's</tspan><tspan font-size="24" x="-46.08" y="270">activation</tspan><tspan font-size="24" x="-19.7467" y="299">record</tspan></text><path d="M696.187 756.427 692.665 755.905 689.127 754.236 685.731 751.689 682.443 748.272 679.319 744.063 676.272 739.177 673.488 733.608 670.841 727.432 668.384 720.753 666.245 713.581 664.297 706.039 662.66 698.17 660.401 681.73 659.772 673.235 659.583 664.688 659.772 656.143 660.338 647.65 662.534 631.211 664.107 623.343 665.993 615.802 668.068 608.633 670.398 601.957 672.921 595.839 675.64 590.276 678.558 585.327 681.558 581.178 684.751 577.725 688.2 575.544 689.269 577.234 685.93 579.345 686.13 579.179 683.068 582.491 683.144 582.398 680.206 586.461 680.257 586.383 677.382 591.258 677.419 591.189 674.732 596.689 674.758 596.631 672.258 602.694 672.277 602.642 669.965 609.267 669.981 609.216 667.919 616.341 667.928 616.305 666.053 623.805 666.064 623.759 664.501 631.571 664.512 631.507 662.325 647.882 662.331 647.817 661.769 656.254 661.771 656.21 661.583 664.71 661.583 664.665 661.771 673.165 661.768 673.114 662.393 681.551 662.386 681.489 664.637 697.864 664.625 697.796 666.25 705.609 666.239 705.562 668.177 713.062 668.167 713.027 670.292 720.152 670.272 720.092 672.709 726.717 672.69 726.669 675.315 732.794 675.29 732.74 678.04 738.24 677.994 738.159 680.994 742.971 680.949 742.904 684.011 747.029 683.929 746.932 687.116 750.244 686.996 750.138 690.246 752.575 690.072 752.471 693.385 754.033 693.105 753.948 696.48 754.448ZM686.056 573.133 694.958 574 688.923 580.601Z"/><path d="M20 242C14.4772 242 10 238.306 10 233.749L10 129.251C10 124.694 5.52285 121-1.92562e-15 121 5.52285 121 10 117.306 10 112.749L10 8.25087C10 3.69404 14.4772-1.92561e-15 20-1.92561e-15" stroke="#000000" stroke-width="2" stroke-miterlimit="8" fill="none" fill-rule="evenodd" transform="matrix(-1 0 0 1 1208 786)"/><text font-family="Consolas,Consolas_MSFontService,sans-serif" font-weight="400" font-size="24" transform="translate(1039.05 644)">g's caller<tspan font-size="24" x="59.2499" y="60">g</tspan><tspan font-size="24" x="0" y="121">g's caller</tspan><tspan font-size="24" x="59.2499" y="181">g</tspan><tspan font-size="24" x="59.2499" y="241">g</tspan><tspan font-size="24" x="59.2499" y="302">f</tspan><tspan font-size="24" x="59.2499" y="362">g</tspan><tspan font-size="24" x="59.2499" y="423">f</tspan><tspan font-size="24" x="0" y="-61">written by</tspan></text><path d="M15 60C10.8579 60 7.5 57.2294 7.5 53.8117L7.5 36.1883C7.5 32.7706 4.14214 30 -9.5485e-16 30 4.14214 30 7.5 27.2294 7.5 23.8117L7.5 6.18825C7.5 2.77058 10.8579 0 15 0" stroke="#000000" stroke-width="2" stroke-miterlimit="8" fill="none" fill-rule="evenodd" transform="matrix(-1 0 0 1 1014 605)"/><path d="M15 61C10.8579 61 7.5 58.2294 7.5 54.8117L7.5 36.6883C7.5 33.2706 4.14214 30.5 -9.70766e-16 30.5 4.14214 30.5 7.5 27.7294 7.5 24.3117L7.5 6.18826C7.5 2.77058 10.8579-1.94153e-15 15-1.94153e-15" stroke="#000000" stroke-width="2" stroke-miterlimit="8" fill="none" fill-rule="evenodd" transform="matrix(-1 0 0 1 1014 665)"/><path d="M15 60C10.8579 60 7.5 57.2294 7.5 53.8117L7.5 36.1883C7.5 32.7706 4.14214 30 -9.5485e-16 30 4.14214 30 7.5 27.2294 7.5 23.8117L7.5 6.18825C7.5 2.77058 10.8579 0 15 0" stroke="#000000" stroke-width="2" stroke-miterlimit="8" fill="none" fill-rule="evenodd" transform="matrix(-1 0 0 1 1014 726)"/><path d="M15 61C10.8579 61 7.5 58.2294 7.5 54.8117L7.5 36.6883C7.5 33.2706 4.14214 30.5 -9.70766e-16 30.5 4.14214 30.5 7.5 27.7294 7.5 24.3117L7.5 6.18826C7.5 2.77058 10.8579-1.94153e-15 15-1.94153e-15" stroke="#000000" stroke-width="2" stroke-miterlimit="8" fill="none" fill-rule="evenodd" transform="matrix(-1 0 0 1 1014 786)"/><path d="M15 60C10.8579 60 7.5 57.2294 7.5 53.8117L7.5 36.1883C7.5 32.7706 4.14214 30 -9.5485e-16 30 4.14214 30 7.5 27.2294 7.5 23.8117L7.5 6.18825C7.5 2.77058 10.8579 0 15 0" stroke="#000000" stroke-width="2" stroke-miterlimit="8" fill="none" fill-rule="evenodd" transform="matrix(-1 0 0 1 1014 847)"/><path d="M15 61C10.8579 61 7.5 58.2294 7.5 54.8117L7.5 36.6883C7.5 33.2706 4.14214 30.5 -9.70766e-16 30.5 4.14214 30.5 7.5 27.7294 7.5 24.3117L7.5 6.18826C7.5 2.77058 10.8579-1.94153e-15 15-1.94153e-15" stroke="#000000" stroke-width="2" stroke-miterlimit="8" fill="none" fill-rule="evenodd" transform="matrix(-1 0 0 1 1014 907)"/><path d="M15 60C10.8579 60 7.5 57.2294 7.5 53.8117L7.5 36.1883C7.5 32.7706 4.14214 30 -9.5485e-16 30 4.14214 30 7.5 27.2294 7.5 23.8117L7.5 6.18825C7.5 2.77058 10.8579 0 15 0" stroke="#000000" stroke-width="2" stroke-miterlimit="8" fill="none" fill-rule="evenodd" transform="matrix(-1 0 0 1 1014 968)"/><path d="M15 61C10.8579 61 7.5 58.2294 7.5 54.8117L7.5 36.6883C7.5 33.2706 4.14214 30.5 -9.70766e-16 30.5 4.14214 30.5 7.5 27.7294 7.5 24.3117L7.5 6.18826C7.5 2.77058 10.8579-1.94153e-15 15-1.94153e-15" stroke="#000000" stroke-width="2" stroke-miterlimit="8" fill="none" fill-rule="evenodd" transform="matrix(-1 0 0 1 1014 1028)"/><path d="M20 181C14.4772 181 10 177.306 10 172.749L10 98.7509C10 94.1941 5.52285 90.5-1.44024e-15 90.5 5.52285 90.5 10 86.8059 10 82.2491L10 8.2509C10 3.69405 14.4772-1.44023e-15 20 0" stroke="#000000" stroke-width="2" stroke-miterlimit="8" fill="none" fill-rule="evenodd" transform="matrix(-1 0 0 1 1208 605)"/><path d="M19.9999 61C14.4771 61 9.99997 57.3059 9.99997 52.7491L9.99997 38.7509C9.99997 34.1941 5.52283 30.5-1.94153e-15 30.5 5.52283 30.5 9.99997 26.8059 9.99997 22.2491L9.99997 8.25094C9.99997 3.69407 14.4771-2.91229e-15 19.9999-1.94153e-15" stroke="#000000" stroke-width="2" stroke-miterlimit="8" fill="none" fill-rule="evenodd" transform="matrix(-1 0 0 1 1208 1028)"/><text font-family="Consolas,Consolas_MSFontService,sans-serif" font-weight="400" font-size="24" transform="translate(1231.83 583)">created by<tspan font-size="24" x="0" y="121">g's caller</tspan><tspan font-size="24" x="59.25" y="333">g</tspan><tspan font-size="24" x="59.25" y="484">f</tspan></text></g></svg>