<svg width="321" height="1093" xmlns="http://www.w3.org/2000/svg" xmlns:xlink="http://www.w3.org/1999/xlink" overflow="hidden"><defs><clipPath id="clip0"><rect x="279" y="13" width="321" height="1093"/></clipPath></defs><g clip-path="url(#clip0)" transform="translate(-279 -13)"><path d="M279.859 151.11 470.857 151.11" stroke="#000000" stroke-width="2" stroke-linejoin="round" stroke-miterlimit="10" fill="none" fill-rule="evenodd"/><path d="M279.859 196.464 470.857 196.464" stroke="#000000" stroke-width="2" stroke-linejoin="round" stroke-miterlimit="10" stroke-dasharray="8 6" fill="none" fill-rule="evenodd"/><path d="M279.859 241.819 470.857 241.819" stroke="#000000" stroke-width="2" stroke-linejoin="round" stroke-miterlimit="10" stroke-dasharray="8 6" fill="none" fill-rule="evenodd"/><path d="M279.859 287.173 470.857 287.173" stroke="#000000" stroke-width="2" stroke-linejoin="round" stroke-miterlimit="10" fill="none" fill-rule="evenodd"/><path d="M279.859 332.527 470.857 332.527" stroke="#000000" stroke-width="2" stroke-linejoin="round" stroke-miterlimit="10" stroke-dasharray="8 6" fill="none" fill-rule="evenodd"/><path d="M279.859 377.882 470.857 377.882" stroke="#000000" stroke-width="2" stroke-linejoin="round" stroke-miterlimit="10" stroke-dasharray="8 6" fill="none" fill-rule="evenodd"/><path d="M279.859 423.236 470.857 423.236" stroke="#000000" stroke-width="2" stroke-linejoin="round" stroke-miterlimit="10" fill="none" fill-rule="evenodd"/><path d="M279.859 468.59 470.857 468.59" stroke="#000000" stroke-width="2" stroke-linejoin="round" stroke-miterlimit="10" stroke-dasharray="8 6" fill="none" fill-rule="evenodd"/><path d="M279.859 513.945 470.857 513.945" stroke="#000000" stroke-width="2" stroke-linejoin="round" stroke-miterlimit="10" stroke-dasharray="8 6" fill="none" fill-rule="evenodd"/><path d="M279.859 559.299 470.857 559.299" stroke="#000000" stroke-width="2" stroke-linejoin="round" stroke-miterlimit="10" fill="none" fill-rule="evenodd"/><path d="M279.859 604.653 470.857 604.653" stroke="#000000" stroke-width="2" stroke-linejoin="round" stroke-miterlimit="10" stroke-dasharray="8 6" fill="none" fill-rule="evenodd"/><path d="M279.859 650.008 470.857 650.008" stroke="#000000" stroke-width="2" stroke-linejoin="round" stroke-miterlimit="10" stroke-dasharray="8 6" fill="none" fill-rule="evenodd"/><path d="M279.859 695.362 470.857 695.362" stroke="#000000" stroke-width="2" stroke-linejoin="round" stroke-miterlimit="10" fill="none" fill-rule="evenodd"/><path d="M279.859 740.716 470.857 740.716" stroke="#000000" stroke-width="2" stroke-linejoin="round" stroke-miterlimit="10" stroke-dasharray="8 6" fill="none" fill-rule="evenodd"/><path d="M279.859 786.071 470.857 786.071" stroke="#000000" stroke-width="2" stroke-linejoin="round" stroke-miterlimit="10" stroke-dasharray="8 6" fill="none" fill-rule="evenodd"/><path d="M279.859 831.425 470.857 831.425" stroke="#000000" stroke-width="2" stroke-linejoin="round" stroke-miterlimit="10" fill="none" fill-rule="evenodd"/><path d="M279.859 876.779 470.857 876.779" stroke="#000000" stroke-width="2" stroke-linejoin="round" stroke-miterlimit="10" stroke-dasharray="8 6" fill="none" fill-rule="evenodd"/><path d="M279.859 922.134 470.857 922.134" stroke="#000000" stroke-width="2" stroke-linejoin="round" stroke-miterlimit="10" stroke-dasharray="8 6" fill="none" fill-rule="evenodd"/><path d="M279.859 967.488 470.857 967.488" stroke="#000000" stroke-width="2" stroke-linejoin="round" stroke-miterlimit="10" fill="none" fill-rule="evenodd"/><path d="M279.859 1012.84 470.857 1012.84" stroke="#000000" stroke-width="2" stroke-linejoin="round" stroke-miterlimit="10" stroke-dasharray="8 6" fill="none" fill-rule="evenodd"/><path d="M279.859 1058.2 470.857 1058.2" stroke="#000000" stroke-width="2" stroke-linejoin="round" stroke-miterlimit="10" stroke-dasharray="8 6" fill="none" fill-rule="evenodd"/><path d="M280.859 14.0469 280.859 1104.55" stroke="#000000" stroke-width="2" stroke-linejoin="round" stroke-miterlimit="10" fill="none" fill-rule="evenodd"/><path d="M469.857 14.0469 469.857 1104.55" stroke="#000000" stroke-width="2" stroke-linejoin="round" stroke-miterlimit="10" fill="none" fill-rule="evenodd"/><path d="M279.859 15.0469 470.857 15.0469" stroke="#000000" stroke-width="2" stroke-linejoin="round" stroke-miterlimit="10" fill="none" fill-rule="evenodd"/><path d="M279.859 1103.55 470.857 1103.55" stroke="#000000" stroke-width="2" stroke-linejoin="round" stroke-miterlimit="10" fill="none" fill-rule="evenodd"/><text font-family="Consolas,Consolas_MSFontService,sans-serif" font-weight="400" font-size="24" transform="translate(349.025 46)">main<tspan font-size="24" x="-19.75" y="136">fib0(4)</tspan><tspan font-size="24" x="-46.0833" y="182">access link</tspan><tspan font-size="24" x="-19.75" y="272">fib1(4)</tspan><tspan font-size="24" x="-46.0833" y="318">access link</tspan><tspan font-size="24" x="-19.75" y="409">fib2(4)</tspan><tspan font-size="24" x="-46.0833" y="454">access link</tspan><tspan font-size="24" x="-19.75" y="545">fib1(3)</tspan><tspan font-size="24" x="-46.0833" y="590">access link</tspan><tspan font-size="24" x="-19.75" y="681">fib0(2)</tspan><tspan font-size="24" x="-46.0833" y="726">access link</tspan><tspan font-size="24" x="-19.75" y="817">fib1(2)</tspan><tspan font-size="24" x="-46.0833" y="862">access link</tspan><tspan font-size="24" x="-19.75" y="953">fib0(1)</tspan><tspan font-size="24" x="-46.0833" y="998">access link</tspan></text><path d="M0.137568-0.990492 2.51544-0.660232 4.98912 0.370465 7.32998 2.04251 9.55302 4.20017 11.6851 6.84915 13.7339 9.98638 15.6444 13.489 17.427 17.3723 20.5212 26.0236 22.92 35.7449 24.4336 46.0883 25.0013 56.747 24.4967 67.4058 23.0464 77.7468 20.7753 87.3993 17.8707 96.0498 16.1535 99.9295 14.3733 103.426 12.4522 106.564 10.4045 109.272 7.92019 111.191 6.69785 109.608 9.07633 107.771 8.88984 107.959 10.8273 105.397 10.7721 105.478 12.6471 102.415 12.6088 102.484 14.3588 99.0463 14.3356 99.0953 16.0231 95.2828 15.9895 95.3692 18.8645 86.8067 18.8391 86.896 21.0891 77.3335 21.0722 77.4236 22.5097 67.1736 22.5011 67.2652 23.0011 56.7027 23.0014 56.8032 22.4389 46.2407 22.448 46.3323 20.948 36.0823 20.9666 36.1771 18.5916 26.5521 18.6209 26.6493 15.5584 18.0868 15.5912 18.1672 13.8412 14.3547 13.8721 14.4164 11.9971 10.9789 12.0377 11.0468 10.0377 7.98429 10.096 8.06451 8.03349 5.50201 8.11602 5.59258 5.99102 3.53008 6.10626 3.62623 3.91876 2.06373 4.11538 2.17308 1.86538 1.23558 2.11243 1.30299-0.137568 0.990492ZM10.3189 113.352 1.375 113.437 6.67279 106.231Z" transform="matrix(1 0 0 -1 470 219.398)"/><path d="M0.137568-0.990492 2.51544-0.660232 4.98912 0.370465 7.32998 2.04251 9.55302 4.20017 11.6851 6.84915 13.7339 9.98638 15.6444 13.489 17.427 17.3723 20.5212 26.0236 22.92 35.7449 24.4336 46.0883 25.0013 56.747 24.4967 67.4058 23.0464 77.7468 20.7753 87.3993 17.8707 96.0498 16.1535 99.9295 14.3733 103.426 12.4522 106.564 10.4045 109.272 7.92019 111.191 6.69785 109.608 9.07633 107.771 8.88984 107.959 10.8273 105.397 10.7721 105.478 12.6471 102.415 12.6088 102.484 14.3588 99.0463 14.3356 99.0953 16.0231 95.2828 15.9895 95.3692 18.8645 86.8067 18.8391 86.896 21.0891 77.3335 21.0722 77.4236 22.5097 67.1736 22.5011 67.2652 23.0011 56.7027 23.0014 56.8032 22.4389 46.2407 22.448 46.3323 20.948 36.0823 20.9666 36.1771 18.5916 26.5521 18.6209 26.6493 15.5584 18.0868 15.5912 18.1672 13.8412 14.3547 13.8721 14.4164 11.9971 10.9789 12.0377 11.0468 10.0377 7.98429 10.096 8.06451 8.03349 5.50201 8.11602 5.59258 5.99102 3.53008 6.10626 3.62623 3.91876 2.06373 4.11538 2.17308 1.86538 1.23558 2.11243 1.30299-0.137568 0.990492ZM10.3189 113.352 1.375 113.437 6.67279 106.231Z" transform="matrix(1 0 0 -1 470 355.398)"/><path d="M0.137568-0.990492 2.51544-0.660232 4.98912 0.370465 7.32998 2.04251 9.55302 4.20017 11.6851 6.84915 13.7339 9.98638 15.6444 13.489 17.427 17.3723 20.5212 26.0236 22.92 35.7449 24.4336 46.0883 25.0013 56.747 24.4967 67.4058 23.0464 77.7468 20.7753 87.3993 17.8707 96.0498 16.1535 99.9295 14.3733 103.426 12.4522 106.564 10.4045 109.272 7.92019 111.191 6.69785 109.608 9.07633 107.771 8.88984 107.959 10.8273 105.397 10.7721 105.478 12.6471 102.415 12.6088 102.484 14.3588 99.0463 14.3356 99.0953 16.0231 95.2828 15.9895 95.3692 18.8645 86.8067 18.8391 86.896 21.0891 77.3335 21.0722 77.4236 22.5097 67.1736 22.5011 67.2652 23.0011 56.7027 23.0014 56.8032 22.4389 46.2407 22.448 46.3323 20.948 36.0823 20.9666 36.1771 18.5916 26.5521 18.6209 26.6493 15.5584 18.0868 15.5912 18.1672 13.8412 14.3547 13.8721 14.4164 11.9971 10.9789 12.0377 11.0468 10.0377 7.98429 10.096 8.06451 8.03349 5.50201 8.11602 5.59258 5.99102 3.53008 6.10626 3.62623 3.91876 2.06373 4.11538 2.17308 1.86538 1.23558 2.11243 1.30299-0.137568 0.990492ZM10.3189 113.352 1.375 113.437 6.67279 106.231Z" transform="matrix(1 0 0 -1 470 491.398)"/><path d="M0.107482-0.994207 2.55158-0.72998 4.99279 0.219381 7.44643 1.61199 9.81044 3.58199 12.1334 6.03402 14.4346 8.9744 16.6601 12.2808 18.8785 16.0839 21.0244 20.3125 23.1673 24.9134 25.1822 29.8878 27.1935 35.2932 31.0823 47.0222 34.6567 60.003 37.9779 74.165 40.9218 89.2605 43.5515 105.227 45.8057 121.882 47.5587 139.162 48.8732 156.813 49.7497 174.719 50.0001 192.812 49.7497 210.905 48.9358 228.81 47.6214 246.461 45.9311 263.676 43.7396 280.395 41.1725 296.298 38.2916 311.454 35.0958 325.553 31.5851 338.593 27.883 350.327 25.8709 355.671 23.9216 360.639 21.8419 365.24 19.7593 369.468 17.6065 373.267 15.4422 376.641 13.2013 379.522 10.9015 382.019 8.08718 383.861 6.99186 382.187 9.70234 380.413 9.51445 380.573 11.702 378.198 11.6481 378.261 13.8356 375.449 13.7833 375.523 15.9083 372.21 15.88 372.257 18.005 368.507 17.9779 368.558 20.0404 364.371 20.0263 364.401 22.0888 359.838 22.0691 359.885 24.0066 354.947 24.0016 354.96 26.0016 349.648 25.9838 349.699 29.6713 338.012 29.6594 338.053 33.1594 325.053 33.1497 325.091 36.3372 311.029 36.3301 311.063 39.2051 295.938 39.2003 295.966 41.7628 280.091 41.7585 280.12 43.946 263.433 43.9423 263.465 45.6298 246.277 45.6278 246.301 46.9403 228.676 46.9385 228.705 47.751 210.83 47.7501 210.861 48.0001 192.799 48.0001 192.826 47.7501 174.764 47.7512 174.799 46.8762 156.924 46.8778 156.949 45.5653 139.324 45.5676 139.351 43.8176 122.101 43.8215 122.134 41.5715 105.509 41.5758 105.538 38.9508 89.6 38.956 89.6289 36.0185 74.5664 36.0264 74.6033 32.7139 60.4783 32.7234 60.5155 29.1609 47.578 29.1758 47.6272 25.3008 35.9397 25.3128 35.9737 23.3128 30.5987 23.3231 30.6254 21.3231 25.6879 21.3435 25.7347 19.2185 21.1722 19.2333 21.2025 17.1083 17.015 17.1362 17.0664 14.9487 13.3164 14.9829 13.3709 12.7954 10.1209 12.8375 10.1788 10.5875 7.30381 10.649 7.37524 8.39905 5.00024 8.48482 5.08072 6.23482 3.20572 6.38139 3.30719 4.06889 1.99469 4.20005 2.057 1.95005 1.182 2.20502 1.24421-0.107482 0.994207ZM10.2954 386.215 1.375 385.562 7.24941 378.818Z" transform="matrix(1 0 0 -1 470 627.555)"/><path d="M0.130034-0.991509 4.0499-0.477429 8.05822 0.968194 12.0208 3.37175 15.941 6.64925 19.7659 10.7929 23.5036 15.671 27.2287 21.3532 30.8842 27.782 34.4054 34.95 37.9196 42.7943 41.3705 51.2646 44.6938 60.3568 47.9525 70.0701 51.0844 80.3429 54.1526 91.1755 57.0955 102.508 59.9124 114.34 62.6041 126.609 65.1071 139.312 67.5478 152.391 71.9272 179.606 75.6185 208.011 78.5589 237.351 80.7484 267.441 82.1246 298.032 82.6251 328.874 82.1872 359.717 80.8109 390.245 78.684 420.398 75.7437 449.738 72.115 478.142 67.7984 505.355 65.4201 518.436 62.917 531.139 60.2884 543.406 57.5342 555.237 54.654 566.569 51.6477 577.404 48.5158 587.677 45.3208 597.388 42.0602 606.48 38.6722 614.95 35.2193 622.797 31.7 629.961 28.1721 636.387 24.506 642.076 20.7684 646.954 17.0123 651.092 13.1907 654.395 8.28717 656.951 7.36281 655.177 12.1628 652.676 11.971 652.806 15.6585 649.618 15.572 649.703 19.2595 645.64 19.2062 645.704 22.8937 640.892 22.8469 640.958 26.4719 635.333 26.4359 635.394 29.9359 629.019 29.9149 629.059 33.4149 621.934 33.3972 621.972 36.8347 614.16 36.8215 614.191 40.1965 605.754 40.1837 605.787 43.4337 596.725 43.4251 596.75 46.6126 587.062 46.606 587.083 49.731 576.833 49.7239 576.858 52.7239 566.045 52.7183 566.066 55.5933 554.754 55.5885 554.773 58.3385 542.961 58.3347 542.978 60.9597 530.728 60.9564 530.744 63.4564 518.057 63.4536 518.071 65.8286 505.009 65.8248 505.031 70.1373 477.843 70.1331 477.873 73.7581 449.498 73.755 449.525 76.6925 420.213 76.69 420.242 78.815 390.117 78.8135 390.142 80.1885 359.642 80.1876 359.673 80.6251 328.861 80.6251 328.891 80.1251 298.079 80.126 298.107 78.751 267.545 78.7526 267.573 76.5651 237.51 76.5675 237.537 73.63 208.225 73.6333 208.254 69.9458 179.879 69.9502 179.909 65.5752 152.721 65.5795 152.746 63.142 139.683 63.1439 139.693 60.6439 127.006 60.6482 127.027 57.9607 114.777 57.9647 114.794 55.1522 102.982 55.1571 103.001 52.2196 91.6888 52.2253 91.71 49.1628 80.8975 49.1685 80.9166 46.0435 70.6666 46.0519 70.6931 42.8019 61.0056 42.8108 61.0308 39.4983 51.9683 39.5114 52.0023 36.0739 43.5648 36.0874 43.5963 32.5874 35.7838 32.6024 35.8159 29.1024 28.6909 29.1307 28.7443 25.5057 22.3693 25.5387 22.4232 21.8512 16.7982 21.8937 16.8582 18.2062 12.0457 18.2652 12.1158 14.5152 8.05328 14.6086 8.14219 10.7961 4.95469 10.9189 5.04251 7.10639 2.73001 7.28573 2.81569 3.47323 1.44069 3.68247 1.49151-0.130034 0.991509ZM10.1265 659.597 1.375 657.75 8.1035 651.857Z" transform="matrix(1 0 0 -1 470 763.711)"/><path d="M0.137568-0.990492 2.51544-0.660232 4.98912 0.370465 7.32998 2.04251 9.55302 4.20017 11.6851 6.84915 13.7339 9.98638 15.6444 13.489 17.427 17.3723 20.5212 26.0236 22.92 35.7449 24.4336 46.0883 25.0013 56.747 24.4967 67.4058 23.0464 77.7468 20.7753 87.3993 17.8707 96.0498 16.1535 99.9295 14.3733 103.426 12.4522 106.564 10.4045 109.272 7.92019 111.191 6.69785 109.608 9.07633 107.771 8.88984 107.959 10.8273 105.397 10.7721 105.478 12.6471 102.415 12.6088 102.484 14.3588 99.0463 14.3356 99.0953 16.0231 95.2828 15.9895 95.3692 18.8645 86.8067 18.8391 86.896 21.0891 77.3335 21.0722 77.4236 22.5097 67.1736 22.5011 67.2652 23.0011 56.7027 23.0014 56.8032 22.4389 46.2407 22.448 46.3323 20.948 36.0823 20.9666 36.1771 18.5916 26.5521 18.6209 26.6493 15.5584 18.0868 15.5912 18.1672 13.8412 14.3547 13.8721 14.4164 11.9971 10.9789 12.0377 11.0468 10.0377 7.98429 10.096 8.06451 8.03349 5.50201 8.11602 5.59258 5.99102 3.53008 6.10626 3.62623 3.91876 2.06373 4.11538 2.17308 1.86538 1.23558 2.11243 1.30299-0.137568 0.990492ZM10.3189 113.352 1.375 113.437 6.67279 106.231Z" transform="matrix(1 0 0 -1 470 899.398)"/><path d="M0.113838-0.993499 6.21737-0.294137 12.4014 1.76721 18.4825 5.09584 24.5272 9.67701 30.4814 15.4412 36.3503 22.383 42.1409 30.3765 47.861 39.4281 53.4477 49.5343 58.9674 60.5737 64.295 72.6079 69.5569 85.4494 74.6299 99.1653 79.5754 113.689 84.3955 129.025 88.9646 145.049 93.3443 161.754 97.5986 179.084 101.603 196.979 105.356 215.496 108.922 234.45 112.175 253.967 115.24 273.857 117.992 294.126 122.683 335.591 126.123 378.123 128.25 421.342 129 464.937 128.25 508.533 126.123 551.752 122.746 594.282 118.118 635.81 115.365 656.079 112.363 675.97 109.11 695.423 105.607 714.44 101.853 732.894 97.9123 750.848 93.7825 768.181 89.402 784.827 84.834 800.846 80.1397 816.181 75.2556 830.708 70.1829 844.423 64.9842 857.326 59.7189 869.298 54.2623 880.336 48.7385 890.443 43.0813 899.494 37.3536 907.488 31.5476 914.43 25.6561 920.195 19.6741 924.776 13.6384 928.115 8.23038 929.714 7.66345 927.796 12.9665 926.228 12.7659 926.312 18.6409 923.062 18.5169 923.143 24.3919 918.644 24.3006 918.723 30.1131 913.035 30.0454 913.108 35.7954 906.233 35.7496 906.292 41.4371 898.355 41.402 898.407 47.027 889.407 46.9975 889.458 52.4975 879.395 52.4785 879.432 57.916 868.432 57.8971 868.472 63.1471 856.535 63.135 856.564 68.3225 843.689 68.3121 843.716 73.3746 830.028 73.3646 830.056 78.2396 815.556 78.2313 815.582 82.9188 800.27 82.9133 800.288 87.4758 784.288 87.4704 784.308 91.8454 767.683 91.8397 767.706 95.9647 750.393 95.9608 750.411 99.8983 732.473 99.8951 732.488 103.645 714.051 103.642 714.069 107.142 695.069 107.139 695.085 110.389 675.648 110.386 675.663 113.386 655.788 113.384 655.803 116.134 635.553 116.131 635.577 120.756 594.077 120.753 594.108 124.128 551.608 124.126 551.638 126.251 508.451 126.25 508.483 127 464.92 127 464.955 126.25 421.392 126.251 421.424 124.126 378.237 124.128 378.268 120.691 335.768 120.694 335.8 116.006 294.362 116.009 294.385 113.259 274.135 113.262 274.152 110.199 254.277 110.201 254.289 106.951 234.789 106.955 234.81 103.392 215.872 103.395 215.886 99.6449 197.386 99.6491 197.406 95.6491 179.531 95.6538 179.551 91.4038 162.238 91.4077 162.254 87.0327 145.566 87.0383 145.587 82.4758 129.587 82.4835 129.612 77.671 114.3 77.6784 114.322 72.7409 99.8223 72.7496 99.8469 67.6871 86.1594 67.6997 86.1917 62.4497 73.3792 62.4606 73.4048 57.1481 61.4048 57.1681 61.4472 51.6681 50.4472 51.6873 50.4838 46.1248 40.4213 46.1547 40.4717 40.4672 31.4717 40.5027 31.5242 34.7527 23.5867 34.7989 23.6456 28.9864 16.7706 29.0545 16.8435 23.1795 11.156 23.271 11.2345 17.3335 6.73447 17.4574 6.81469 11.5199 3.56469 11.6838 3.63618 5.68377 1.63618 5.88616 1.681-0.113838 0.993499ZM9.93331 932.474 1.375 929.875 8.58927 924.588Z" transform="matrix(1 0 0 -1 470 1035.87)"/></g></svg>