<svg width="673" height="1093" xmlns="http://www.w3.org/2000/svg" xmlns:xlink="http://www.w3.org/1999/xlink" overflow="hidden"><defs><clipPath id="clip0"><rect x="583" y="225" width="673" height="1093"/></clipPath></defs><g clip-path="url(#clip0)" transform="translate(-583 -225)"><path d="M673.964 225.724 673.964 409.141" stroke="#000000" stroke-width="2" stroke-linejoin="round" stroke-miterlimit="10" fill="none" fill-rule="evenodd"/><path d="M672.964 272.078 788.35 272.078" stroke="#000000" stroke-width="2" stroke-linejoin="round" stroke-miterlimit="10" fill="none" fill-rule="evenodd"/><path d="M672.964 317.433 788.35 317.433" stroke="#000000" stroke-width="2" stroke-linejoin="round" stroke-miterlimit="10" fill="none" fill-rule="evenodd"/><path d="M672.964 362.787 788.35 362.787" stroke="#000000" stroke-width="2" stroke-linejoin="round" stroke-miterlimit="10" fill="none" fill-rule="evenodd"/><path d="M787.35 225.724 787.35 409.141" stroke="#000000" stroke-width="2" stroke-linejoin="round" stroke-miterlimit="10" fill="none" fill-rule="evenodd"/><path d="M672.964 226.724 788.35 226.724" stroke="#000000" stroke-width="2" stroke-linejoin="round" stroke-miterlimit="10" fill="none" fill-rule="evenodd"/><path d="M672.964 408.141 788.35 408.141" stroke="#000000" stroke-width="2" stroke-linejoin="round" stroke-miterlimit="10" fill="none" fill-rule="evenodd"/><text font-family="Consolas,Consolas_MSFontService,sans-serif" font-weight="400" font-size="24" transform="translate(602.276 258)">d[1]<tspan font-size="24" x="0" y="45">d[2]</tspan><tspan font-size="24" x="0" y="91">d[3]</tspan><tspan font-size="24" x="0" y="136">d[4]</tspan></text><path d="M945.13 362.787 1136.13 362.787" stroke="#000000" stroke-width="2" stroke-linejoin="round" stroke-miterlimit="10" fill="none" fill-rule="evenodd"/><path d="M945.13 408.141 1136.13 408.141" stroke="#000000" stroke-width="2" stroke-linejoin="round" stroke-miterlimit="10" stroke-dasharray="8 6" fill="none" fill-rule="evenodd"/><path d="M945.13 453.496 1136.13 453.496" stroke="#000000" stroke-width="2" stroke-linejoin="round" stroke-miterlimit="10" stroke-dasharray="8 6" fill="none" fill-rule="evenodd"/><path d="M945.13 498.85 1136.13 498.85" stroke="#000000" stroke-width="2" stroke-linejoin="round" stroke-miterlimit="10" fill="none" fill-rule="evenodd"/><path d="M945.13 544.204 1136.13 544.204" stroke="#000000" stroke-width="2" stroke-linejoin="round" stroke-miterlimit="10" stroke-dasharray="8 6" fill="none" fill-rule="evenodd"/><path d="M945.13 589.559 1136.13 589.559" stroke="#000000" stroke-width="2" stroke-linejoin="round" stroke-miterlimit="10" stroke-dasharray="8 6" fill="none" fill-rule="evenodd"/><path d="M945.13 634.913 1136.13 634.913" stroke="#000000" stroke-width="2" stroke-linejoin="round" stroke-miterlimit="10" fill="none" fill-rule="evenodd"/><path d="M945.13 680.267 1136.13 680.267" stroke="#000000" stroke-width="2" stroke-linejoin="round" stroke-miterlimit="10" stroke-dasharray="8 6" fill="none" fill-rule="evenodd"/><path d="M945.13 725.622 1136.13 725.622" stroke="#000000" stroke-width="2" stroke-linejoin="round" stroke-miterlimit="10" stroke-dasharray="8 6" fill="none" fill-rule="evenodd"/><path d="M945.13 770.976 1136.13 770.976" stroke="#000000" stroke-width="2" stroke-linejoin="round" stroke-miterlimit="10" fill="none" fill-rule="evenodd"/><path d="M945.13 816.33 1136.13 816.33" stroke="#000000" stroke-width="2" stroke-linejoin="round" stroke-miterlimit="10" stroke-dasharray="8 6" fill="none" fill-rule="evenodd"/><path d="M945.13 861.685 1136.13 861.685" stroke="#000000" stroke-width="2" stroke-linejoin="round" stroke-miterlimit="10" stroke-dasharray="8 6" fill="none" fill-rule="evenodd"/><path d="M945.13 907.039 1136.13 907.039" stroke="#000000" stroke-width="2" stroke-linejoin="round" stroke-miterlimit="10" fill="none" fill-rule="evenodd"/><path d="M945.13 952.393 1136.13 952.393" stroke="#000000" stroke-width="2" stroke-linejoin="round" stroke-miterlimit="10" stroke-dasharray="8 6" fill="none" fill-rule="evenodd"/><path d="M945.13 997.748 1136.13 997.748" stroke="#000000" stroke-width="2" stroke-linejoin="round" stroke-miterlimit="10" stroke-dasharray="8 6" fill="none" fill-rule="evenodd"/><path d="M945.13 1043.1 1136.13 1043.1" stroke="#000000" stroke-width="2" stroke-linejoin="round" stroke-miterlimit="10" fill="none" fill-rule="evenodd"/><path d="M945.13 1088.46 1136.13 1088.46" stroke="#000000" stroke-width="2" stroke-linejoin="round" stroke-miterlimit="10" stroke-dasharray="8 6" fill="none" fill-rule="evenodd"/><path d="M945.13 1133.81 1136.13 1133.81" stroke="#000000" stroke-width="2" stroke-linejoin="round" stroke-miterlimit="10" stroke-dasharray="8 6" fill="none" fill-rule="evenodd"/><path d="M945.13 1179.16 1136.13 1179.16" stroke="#000000" stroke-width="2" stroke-linejoin="round" stroke-miterlimit="10" fill="none" fill-rule="evenodd"/><path d="M945.13 1224.52 1136.13 1224.52" stroke="#000000" stroke-width="2" stroke-linejoin="round" stroke-miterlimit="10" stroke-dasharray="8 6" fill="none" fill-rule="evenodd"/><path d="M945.13 1269.87 1136.13 1269.87" stroke="#000000" stroke-width="2" stroke-linejoin="round" stroke-miterlimit="10" stroke-dasharray="8 6" fill="none" fill-rule="evenodd"/><path d="M946.13 225.724 946.13 1316.23" stroke="#000000" stroke-width="2" stroke-linejoin="round" stroke-miterlimit="10" fill="none" fill-rule="evenodd"/><path d="M1135.13 225.724 1135.13 1316.23" stroke="#000000" stroke-width="2" stroke-linejoin="round" stroke-miterlimit="10" fill="none" fill-rule="evenodd"/><path d="M945.13 226.724 1136.13 226.724" stroke="#000000" stroke-width="2" stroke-linejoin="round" stroke-miterlimit="10" fill="none" fill-rule="evenodd"/><path d="M945.13 1315.23 1136.13 1315.23" stroke="#000000" stroke-width="2" stroke-linejoin="round" stroke-miterlimit="10" fill="none" fill-rule="evenodd"/><text font-family="Consolas,Consolas_MSFontService,sans-serif" font-weight="400" font-size="24" transform="translate(1014.3 258)">main<tspan font-size="24" x="-19.7499" y="136">fib0(4)</tspan><tspan font-size="24" x="-39.4999" y="181">saved d[2]</tspan><tspan font-size="24" x="-19.7499" y="272">fib1(4)</tspan><tspan font-size="24" x="-39.4999" y="317">saved d[3]</tspan><tspan font-size="24" x="-19.7499" y="408">fib2(4)</tspan><tspan font-size="24" x="-39.4999" y="454">saved d[4]</tspan><tspan font-size="24" x="-19.7499" y="544">fib1(3)</tspan><tspan font-size="24" x="-39.4999" y="590">saved d[3]</tspan><tspan font-size="24" x="-19.7499" y="680">fib0(2)</tspan><tspan font-size="24" x="-39.4999" y="726">saved d[2]</tspan><tspan font-size="24" x="-19.7499" y="816">fib1(2)</tspan><tspan font-size="24" x="-39.4999" y="862">saved d[3]</tspan><tspan font-size="24" x="-19.7499" y="952">fib0(1)</tspan><tspan font-size="24" x="-39.4999" y="998">saved d[2]</tspan></text><path d="M772.031 248 788.311 248.501 804.053 249.944 811.589 251.012 818.805 252.204 825.656 253.586 832.066 255.158 837.923 256.795 843.224 258.625 847.97 260.523 851.992 262.503 855.226 264.572 857.755 266.768 859.369 269.154 859.911 271.458 860.411 273.583 860.266 273.252 861.703 275.377 861.531 275.182 863.906 277.245 863.793 277.16 866.981 279.223 866.879 279.165 870.817 281.103 870.751 281.073 875.376 282.948 875.316 282.926 880.566 284.676 880.526 284.664 886.401 286.351 886.354 286.339 892.729 287.839 892.698 287.832 899.51 289.207 899.475 289.201 906.663 290.388 906.64 290.385 914.14 291.447 914.091 291.442 929.779 292.879 929.718 292.875 939.305 293.17 939.243 295.169 929.626 294.874 913.884 293.431 906.348 292.363 899.132 291.171 892.286 289.79 885.872 288.28 879.954 286.58 874.654 284.814 869.966 282.913 865.943 280.934 862.648 278.801 860.12 276.607 858.506 274.221 857.964 271.917 857.464 269.792 857.609 270.123 856.172 267.998 856.344 268.193 853.969 266.13 854.086 266.217 850.961 264.217 851.058 264.272 847.121 262.335 847.191 262.366 842.504 260.491 842.549 260.508 837.299 258.695 837.356 258.713 831.543 257.088 831.574 257.096 825.199 255.534 825.24 255.543 818.427 254.168 818.462 254.174 811.274 252.987 811.297 252.99 803.797 251.928 803.846 251.933 788.159 250.496 788.219 250.5 771.969 250ZM938.064 290.131 945.938 294.375 937.818 298.127Z"/><path d="M772.121 294.007 777.859 294.709 783.74 296.841 789.515 300.242 795.185 304.957 800.822 310.91 806.311 317.977 811.786 326.158 817.191 335.459 822.464 345.816 827.605 357.102 832.681 369.386 837.567 382.602 842.388 396.626 847.021 411.526 851.527 427.235 855.844 443.628 860.036 460.71 863.978 478.479 867.731 496.87 871.297 515.761 874.612 535.214 877.739 555.165 880.616 575.556 883.181 596.325 887.559 638.849 890.811 682.439 892.875 726.719 893.562 771.301 893.875 815.868 893.875 815.855 894.75 860.105 894.749 860.092 896.187 903.654 896.186 903.642 898.124 946.142 898.123 946.13 899.311 966.88 899.311 966.876 900.561 987.251 900.56 987.243 901.935 1007.12 901.935 1007.11 903.435 1026.55 903.434 1026.54 904.997 1045.48 904.996 1045.47 906.621 1063.85 906.62 1063.84 908.37 1081.53 908.369 1081.52 910.244 1098.64 910.243 1098.63 912.181 1115.01 912.18 1115 914.117 1130.63 914.116 1130.61 916.178 1145.49 916.176 1145.48 918.301 1159.54 918.299 1159.52 920.486 1172.65 920.484 1172.63 922.734 1184.88 922.731 1184.87 924.981 1196.18 924.975 1196.15 927.288 1206.4 927.281 1206.38 929.656 1215.63 929.645 1215.59 932.083 1223.71 932.072 1223.68 934.447 1230.68 934.42 1230.61 936.92 1236.48 936.885 1236.41 939.322 1241.03 939.151 1240.8 941.257 1242.94 939.83 1244.35 937.621 1242.1 935.096 1237.3 932.565 1231.36 930.172 1224.3 927.724 1216.14 925.34 1206.86 923.022 1196.58 920.768 1185.25 918.515 1172.98 916.325 1159.84 914.198 1145.77 912.133 1130.88 910.195 1115.25 908.256 1098.86 906.38 1081.73 904.629 1064.03 903.004 1045.65 901.441 1026.7 899.94 1007.26 898.565 987.378 897.314 966.997 896.126 946.239 894.188 903.727 892.75 860.151 891.875 815.888 891.562 771.32 891.563 771.328 890.875 726.765 890.876 726.797 888.814 682.547 888.815 682.574 885.565 639.012 885.568 639.04 881.193 596.54 881.195 596.56 878.633 575.81 878.635 575.827 875.76 555.452 875.762 555.467 872.637 535.53 872.639 535.543 869.327 516.105 869.33 516.123 865.767 497.248 865.77 497.262 862.02 478.887 862.024 478.904 858.086 461.154 858.091 461.176 853.904 444.113 853.908 444.13 849.595 427.755 849.601 427.776 845.101 412.088 845.108 412.109 840.483 397.234 840.492 397.263 835.679 383.263 835.687 383.284 830.812 370.097 830.826 370.132 825.763 357.882 825.777 357.915 820.652 346.665 820.671 346.704 815.421 336.391 815.448 336.44 810.073 327.19 810.106 327.244 804.669 319.119 804.71 319.176 799.273 312.176 799.336 312.25 793.774 306.375 793.861 306.456 788.298 301.831 788.43 301.924 782.805 298.612 782.972 298.69 777.284 296.628 777.504 296.68 771.879 295.993ZM941.815 1239.62 945.938 1247.56 937.114 1246.1Z"/><path d="M772.135 339.009 776.377 339.588 780.776 341.295 785.058 344.149 789.216 347.988 793.412 352.755 797.463 358.516 801.496 365.195 805.46 372.682 809.292 381.037 813.118 390.258 816.817 400.164 820.452 410.88 823.959 422.278 827.402 434.298 830.721 447.009 833.85 460.277 836.916 474.104 839.857 488.496 842.609 503.387 845.237 518.714 847.677 534.479 849.929 550.621 853.932 583.893 857.184 618.294 859.561 653.57 861.062 689.41 861.562 725.549 862.062 761.674 862.062 761.647 863.499 797.46 863.498 797.435 865.81 832.685 865.809 832.661 868.871 867.036 868.868 867.009 872.743 900.322 872.741 900.303 874.928 916.428 874.926 916.413 877.301 932.163 877.299 932.151 879.799 947.464 879.796 947.446 882.484 962.259 882.481 962.245 885.294 976.62 885.291 976.604 888.228 990.417 888.225 990.401 891.287 1003.71 891.282 1003.69 894.47 1016.32 894.466 1016.3 897.716 1028.36 897.707 1028.34 901.145 1039.71 901.139 1039.69 904.576 1050.32 904.564 1050.28 908.189 1060.22 908.179 1060.19 911.804 1069.32 911.789 1069.28 915.477 1077.59 915.454 1077.55 919.266 1085.05 919.24 1085 923.052 1091.56 923.014 1091.5 926.889 1097.19 926.828 1097.11 930.766 1101.79 930.69 1101.71 934.627 1105.46 934.504 1105.36 938.504 1108.11 938.219 1107.98 939.78 1108.44 939.218 1110.35 937.503 1109.85 933.305 1106.97 929.27 1103.12 925.264 1098.35 921.341 1092.6 917.496 1085.98 913.659 1078.43 909.953 1070.07 906.315 1060.92 902.679 1050.95 899.233 1040.3 895.788 1028.9 892.532 1016.81 889.34 1004.17 886.274 990.841 883.333 977.012 880.517 962.623 877.827 947.795 875.325 932.468 872.948 916.704 870.758 900.562 866.88 867.227 863.815 832.827 861.501 797.553 860.063 761.714 859.563 725.576 859.063 689.451 859.063 689.479 857.563 653.667 857.565 653.692 855.19 618.442 855.192 618.469 851.942 584.094 851.945 584.119 847.945 550.869 847.947 550.888 845.697 534.763 845.699 534.778 843.262 519.028 843.264 519.044 840.639 503.731 840.642 503.744 837.892 488.869 837.895 488.888 834.958 474.513 834.961 474.529 831.899 460.716 831.902 460.73 828.777 447.48 828.782 447.503 825.47 434.815 825.476 434.838 822.039 422.838 822.044 422.857 818.544 411.482 818.553 411.509 814.928 400.821 814.938 400.85 811.251 390.975 811.264 391.008 807.451 381.821 807.466 381.854 803.654 373.542 803.679 373.593 799.741 366.155 799.769 366.204 795.769 359.579 795.807 359.638 791.807 353.95 791.874 354.036 787.749 349.348 787.822 349.422 783.759 345.672 783.883 345.77 779.758 343.02 779.951 343.12 775.763 341.495 775.99 341.553 771.865 340.991ZM939.25 1105.19 945.938 1111.12 937.174 1112.91Z"/><path d="M772.117 384.007 774.339 384.268 776.63 385.009 778.905 386.147 781.078 387.793 783.279 389.8 785.405 392.248 787.441 394.984 789.545 398.109 793.462 405.436 797.239 413.935 800.822 423.616 804.149 434.349 807.222 446.015 809.98 458.488 812.424 471.649 814.429 485.369 816.12 499.588 817.31 514.119 818.125 528.902 818.375 543.796 818.375 543.787 818.562 551.225 818.56 551.175 819.122 558.612 819.115 558.545 821.24 573.295 821.222 573.203 824.722 587.703 824.7 587.624 829.387 601.811 829.358 601.734 835.17 615.422 835.136 615.348 842.011 628.473 841.974 628.409 849.724 640.846 849.674 640.774 858.362 652.337 858.314 652.278 867.689 662.966 867.629 662.902 877.691 672.527 877.625 672.469 888.25 680.969 888.17 680.911 899.232 688.099 899.162 688.057 904.849 691.12 904.795 691.092 910.607 693.78 910.566 693.762 916.378 696.137 916.31 696.112 922.248 698.049 922.192 698.033 928.13 699.595 928.049 699.578 934.049 700.64 933.975 700.63 939.383 701.176 939.182 703.165 933.737 702.616 927.66 701.54 921.655 699.96 915.655 698.002 909.788 695.605 903.928 692.895 898.177 689.798 887.039 682.562 876.341 674.003 866.215 664.317 856.786 653.568 848.049 641.941 840.257 629.435 833.345 616.241 827.501 602.478 822.788 588.212 819.267 573.627 817.13 558.797 816.563 551.3 816.375 543.833 816.125 528.954 816.127 528.992 815.314 514.242 815.316 514.269 814.128 499.769 814.132 499.806 812.445 485.618 812.448 485.645 810.448 471.957 810.454 471.995 808.017 458.87 808.024 458.903 805.274 446.466 805.283 446.505 802.221 434.88 802.232 434.921 798.92 424.234 798.937 424.285 795.375 414.66 795.399 414.719 791.649 406.281 791.681 406.346 787.806 399.096 787.858 399.184 785.796 396.121 785.823 396.16 783.823 393.472 783.87 393.531 781.807 391.156 781.889 391.239 779.764 389.301 779.834 389.36 777.771 387.797 777.928 387.894 775.803 386.832 775.942 386.889 773.817 386.201 774.008 386.243 771.883 385.993ZM938.187 698.099 945.938 702.562 937.716 706.085Z"/><path d="M0.0703382-0.997523 9.89374-0.304848 19.6502 1.84918 29.3265 5.26432 38.6749 9.87538 47.7599 15.5535 56.398 22.237 64.588 29.86 72.2689 38.3594 79.3177 47.548 85.6736 57.3651 91.2749 67.7495 95.9953 78.575 99.8354 89.7804 102.67 101.308 104.371 112.963 105.001 124.747 104.434 136.537 102.67 148.192 99.8994 159.715 96.1221 170.92 91.4645 181.746 85.926 192.131 79.634 201.947 72.7107 211.136 65.1548 219.573 57.0287 227.258 48.5154 233.943 39.5539 239.622 30.2681 244.234 20.7796 247.65 11.1456 249.805 8.09597 250.022 7.95348 248.028 10.9288 247.815 10.7817 247.837 20.2817 245.712 20.1613 245.747 29.5363 242.372 29.4302 242.417 38.6177 237.854 38.5272 237.905 47.4022 232.28 47.3199 232.338 55.7574 225.713 55.6879 225.773 63.7504 218.148 63.6926 218.208 71.1926 209.833 71.1388 209.898 78.0138 200.773 77.9706 200.835 84.2206 191.085 84.1801 191.154 89.6801 180.842 89.6439 180.917 94.2689 170.167 94.2399 170.243 97.9899 159.118 97.9652 159.204 100.715 147.766 100.699 147.85 102.449 136.288 102.439 136.389 103.001 124.702 103.001 124.803 102.376 113.116 102.385 113.207 100.698 101.644 100.716 101.739 97.9039 90.3013 97.929 90.3867 94.1165 79.2617 94.1459 79.3372 89.4584 68.5872 89.4949 68.6622 83.9324 58.3497 83.9731 58.4185 77.6606 48.6685 77.7066 48.7337 70.7066 39.6087 70.7581 39.6705 63.1331 31.233 63.1937 31.2945 55.0687 23.732 55.1381 23.7909 46.5756 17.1659 46.6575 17.223 37.6575 11.598 37.7451 11.6468 28.4951 7.08434 28.6047 7.13049 19.0422 3.75549 19.1594 3.78898 9.53441 1.66398 9.67966 1.68502-0.0703382 0.997523ZM9.63966 252.92 1.375 249.5 9.06968 244.94Z" transform="matrix(1 0 0 -1 1135 1247.48)"/><path d="M0.067263-0.997735 5.69583-0.618281 11.3799 0.5313 17.0549 2.38047 22.6503 4.98741 28.2263 8.21894 33.7365 12.0824 39.1062 16.6309 44.4632 21.7358 49.6927 27.4063 54.7878 33.6337 59.8147 40.3571 64.7162 47.5837 69.425 55.3061 74.0671 63.5239 78.5207 72.1176 82.7856 81.0863 86.86 90.4889 90.8106 100.271 98.0141 120.692 104.404 142.304 109.791 164.854 114.175 188.216 117.37 212.08 119.374 236.382 120.063 260.875 119.374 285.366 117.432 309.606 114.238 333.532 109.916 356.831 104.592 379.381 98.2651 400.993 91.1243 421.475 87.2357 431.197 83.1617 440.599 78.9608 449.565 74.5698 458.158 69.989 466.379 65.2802 474.101 60.4448 481.323 55.5416 488.049 50.4446 494.279 45.2819 499.945 40.0482 505.053 34.6782 509.602 29.2955 513.464 23.7794 516.698 18.246 519.306 12.6194 521.16 8.17484 521.942 7.82823 519.972 12.2017 519.203 12.062 519.238 17.562 517.425 17.4487 517.47 22.8862 514.908 22.8068 514.95 28.2443 511.762 28.167 511.813 33.4795 508 33.4162 508.049 38.7287 503.549 38.6766 503.597 43.8641 498.534 43.8233 498.576 48.9483 492.951 48.9135 492.992 53.976 486.804 53.9419 486.848 58.8169 480.161 58.7941 480.194 63.6066 473.006 63.5837 473.042 68.2712 465.354 68.2515 465.388 72.814 457.201 72.797 457.232 77.172 448.67 77.157 448.701 81.3445 439.763 81.3324 439.79 85.3949 430.415 85.384 430.441 89.259 420.754 89.2432 420.796 96.3682 400.358 96.3528 400.406 102.665 378.844 102.652 378.895 107.964 356.395 107.954 356.443 112.267 333.193 112.259 333.243 115.446 309.368 115.441 309.42 117.378 285.233 117.375 285.284 118.063 260.847 118.063 260.903 117.375 236.466 117.378 236.52 115.378 212.27 115.384 212.32 112.196 188.508 112.205 188.559 107.83 165.247 107.84 165.295 102.465 142.795 102.479 142.846 96.1035 121.284 96.1195 121.333 88.932 100.958 88.9478 100.999 85.0103 91.2495 85.0199 91.2726 80.9574 81.8976 80.9719 81.9294 76.7219 72.9919 76.7371 73.0226 72.2996 64.4601 72.3168 64.4918 67.6918 56.3043 67.7087 56.3331 63.0212 48.6456 63.0474 48.6863 58.1724 41.4988 58.1991 41.5363 53.1991 34.8488 53.226 34.8832 48.1635 28.6957 48.2024 28.7404 43.0149 23.1154 43.0601 23.1614 37.7476 18.0989 37.7912 18.138 32.4787 13.638 32.5509 13.6938 27.1134 9.88129 27.1861 9.9277 21.6861 6.7402 21.7652 6.78145 16.2652 4.21895 16.3777 4.2633 10.8152 2.4508 10.9268 2.48015 5.36427 1.35515 5.49524 1.37274-0.067263 0.997735ZM9.76508 524.787 1.375 521.687 8.8886 516.835Z" transform="matrix(1 0 0 -1 1135 975.633)"/><path d="M0.116228-0.993222 6.10973-0.291855 12.0548 1.90523 17.9487 5.36469 23.6186 10.0153 29.0695 15.7197 34.3156 22.4196 39.2363 30.053 43.8327 38.5532 48.0459 47.734 51.8801 57.5397 55.2105 67.9078 58.0364 78.709 60.36 89.8876 62.0562 101.384 63.0611 113.003 63.438 124.75 63.0611 136.497 62.0564 148.113 60.4234 159.607 58.1626 170.786 55.3995 181.587 52.132 191.955 48.3605 201.761 44.2108 210.94 39.7423 219.374 34.9485 227.069 29.8272 233.771 24.5 239.479 18.8942 244.129 13.1691 247.603 8.23187 249.202 7.61544 247.3 12.4418 245.736 12.2313 245.833 17.7938 242.458 17.674 242.543 23.174 237.98 23.0814 238.068 28.3314 232.443 28.2679 232.518 33.3304 225.893 33.2762 225.971 38.0262 218.346 37.9914 218.407 42.4289 210.032 42.4013 210.088 46.5263 200.963 46.5042 201.016 50.2542 191.266 50.2337 191.324 53.4837 181.012 53.4687 181.065 56.2187 170.315 56.2073 170.364 58.4573 159.239 58.4474 159.297 60.0724 147.859 60.0662 147.914 61.0662 136.351 61.063 136.405 61.438 124.718 61.438 124.782 61.063 113.095 61.0662 113.149 60.0662 101.586 60.0732 101.646 58.3857 90.2085 58.3959 90.266 56.0834 79.141 56.0951 79.1906 53.2826 68.4406 53.2979 68.4933 49.9854 58.1808 50.0062 58.2392 46.1937 48.4892 46.2161 48.5421 42.0286 39.4171 42.0579 39.4757 37.4954 31.0382 37.5345 31.1043 32.6595 23.5418 32.7127 23.6165 27.5252 16.9915 27.5895 17.0659 22.2145 11.4409 22.3033 11.5232 16.7408 6.96068 16.8688 7.04992 11.1188 3.67492 11.2783 3.75049 5.52835 1.62549 5.75877 1.68072-0.116228 0.993222ZM9.98269 251.931 1.375 249.5 8.48408 244.072Z" transform="matrix(1 0 0 -1 1135 1111.48)"/><path d="M0.108271-0.994121 6.53019-0.294704 12.9679 1.89411 19.2344 5.34708 25.3402 9.99002 31.2326 15.6924 36.8578 22.3921 42.156 30.024 47.1311 38.5257 51.6609 47.7111 55.7465 57.5166 59.3909 67.8844 62.4702 78.6933 64.9206 89.8771 66.7424 101.373 67.8734 112.998 68.2505 124.75 67.8734 136.502 66.7426 148.124 64.9837 159.62 62.5339 170.801 59.5809 181.608 55.9993 191.976 52.0394 201.781 47.5717 210.968 42.7231 219.406 37.489 227.1 31.9901 233.799 26.2231 239.503 20.2423 244.148 14.0829 247.612 8.24701 249.389 7.6644 247.476 13.3962 245.731 13.1972 245.816 19.1972 242.441 19.0741 242.523 24.9491 237.96 24.8593 238.039 30.5468 232.414 30.477 232.491 35.9145 225.866 35.8607 225.938 41.0482 218.312 41.0079 218.377 45.8204 210.002 45.7882 210.063 50.2257 200.938 50.1978 201.001 54.1353 191.251 54.1173 191.298 57.6798 180.986 57.6604 181.049 60.5979 170.299 60.5857 170.348 63.0232 159.223 63.0115 159.286 64.7615 147.849 64.7547 147.903 65.8797 136.341 65.8755 136.405 66.2505 124.718 66.2505 124.782 65.8755 113.095 65.8797 113.159 64.7547 101.597 64.7623 101.657 62.9498 90.219 62.9607 90.2765 60.5232 79.1515 60.5383 79.2115 57.4758 68.4615 57.4941 68.5191 53.8691 58.2066 53.8894 58.2596 49.8269 48.5096 49.8531 48.5673 45.3531 39.4423 45.3869 39.5051 40.4494 31.0676 40.491 31.1328 35.241 23.5703 35.2967 23.643 29.7342 17.018 29.8046 17.0936 23.9921 11.4686 24.0822 11.546 18.0822 6.9835 18.2049 7.06334 12.0799 3.68834 12.2406 3.75927 5.9906 1.63427 6.20423 1.68162-0.108271 0.994121ZM9.91212 252.168 1.375 249.5 8.63157 244.271Z" transform="matrix(1 0 0 -1 1135 839.477)"/></g></svg>