<svg width="919" height="134" xmlns="http://www.w3.org/2000/svg" xmlns:xlink="http://www.w3.org/1999/xlink" overflow="hidden"><defs><clipPath id="clip0"><rect x="118" y="137" width="919" height="134"/></clipPath></defs><g clip-path="url(#clip0)" transform="translate(-118 -137)"><path d="M935 231.5C935 210.789 951.789 194 972.5 194 993.211 194 1010 210.789 1010 231.5 1010 252.211 993.211 269 972.5 269 951.789 269 935 252.211 935 231.5Z" stroke="#000000" stroke-width="2" stroke-miterlimit="8" fill="#FFFFFF" fill-rule="evenodd"/><text font-family="Consolas,Consolas_MSFontService,sans-serif" font-weight="400" font-size="24" transform="translate(961.635 240)">q<tspan font-size="16" x="13.1667" y="5">1</tspan></text><path d="M224 231.5C224 214.655 237.655 201 254.5 201 271.345 201 285 214.655 285 231.5 285 248.345 271.345 262 254.5 262 237.655 262 224 248.345 224 231.5Z" stroke="#000000" stroke-width="2" stroke-miterlimit="8" fill="#FFFFFF" fill-rule="evenodd"/><text font-family="Consolas,Consolas_MSFontService,sans-serif" font-weight="400" font-size="24" transform="translate(243.445 240)">q<tspan font-size="16" x="13.1667" y="5">1</tspan></text><path d="M133 230 211.719 230 211.719 232 133 232ZM210.385 224.333 223.719 231 210.385 237.667Z"/><path d="M368 231.5C368 214.655 381.431 201 398 201 414.569 201 428 214.655 428 231.5 428 248.345 414.569 262 398 262 381.431 262 368 248.345 368 231.5Z" stroke="#000000" stroke-width="2" stroke-miterlimit="8" fill="#FFFFFF" fill-rule="evenodd"/><text font-family="Consolas,Consolas_MSFontService,sans-serif" font-weight="400" font-size="24" transform="translate(387.083 240)">q<tspan font-size="16" x="13.1667" y="5">2</tspan></text><path d="M285 230 356.159 230 356.159 232 285 232ZM354.826 224.333 368.159 231 354.826 237.667Z"/><path d="M511 231.5C511 214.655 524.655 201 541.5 201 558.345 201 572 214.655 572 231.5 572 248.345 558.345 262 541.5 262 524.655 262 511 248.345 511 231.5Z" stroke="#000000" stroke-width="2" stroke-miterlimit="8" fill="#FFFFFF" fill-rule="evenodd"/><text font-family="Consolas,Consolas_MSFontService,sans-serif" font-weight="400" font-size="24" transform="translate(530.721 240)">q<tspan font-size="16" x="13.1667" y="5">3</tspan></text><path d="M428 230 499.159 230 499.159 232 428 232ZM497.826 224.333 511.159 231 497.826 237.667Z"/><path d="M655 231.5C655 214.655 668.655 201 685.5 201 702.345 201 716 214.655 716 231.5 716 248.345 702.345 262 685.5 262 668.655 262 655 248.345 655 231.5Z" stroke="#000000" stroke-width="2" stroke-miterlimit="8" fill="#FFFFFF" fill-rule="evenodd"/><text font-family="Consolas,Consolas_MSFontService,sans-serif" font-weight="400" font-size="24" transform="translate(674.359 240)">q<tspan font-size="16" x="13.1667" y="5">4</tspan></text><path d="M572 230 643.159 230 643.159 232 572 232ZM641.826 224.333 655.159 231 641.826 237.667Z"/><path d="M799 231.5C799 214.655 812.431 201 829 201 845.569 201 859 214.655 859 231.5 859 248.345 845.569 262 829 262 812.431 262 799 248.345 799 231.5Z" stroke="#000000" stroke-width="2" stroke-miterlimit="8" fill="#FFFFFF" fill-rule="evenodd"/><text font-family="Consolas,Consolas_MSFontService,sans-serif" font-weight="400" font-size="24" transform="translate(817.997 240)">q<tspan font-size="16" x="13.1667" y="5">5</tspan></text><path d="M716 230 787.159 230 787.159 232 716 232ZM785.826 224.333 799.159 231 785.826 237.667Z"/><path d="M942 231.5C942 214.655 955.655 201 972.5 201 989.345 201 1003 214.655 1003 231.5 1003 248.345 989.345 262 972.5 262 955.655 262 942 248.345 942 231.5Z" stroke="#000000" stroke-width="2" stroke-miterlimit="8" fill="#FFFFFF" fill-rule="evenodd"/><text font-family="Consolas,Consolas_MSFontService,sans-serif" font-weight="400" font-size="24" transform="translate(961.635 240)">q<tspan font-size="16" x="13.1667" y="5">6</tspan></text><path d="M859 230 922.599 230 922.599 232 859 232ZM921.266 224.333 934.599 231 921.266 237.667Z"/><path d="M0.081362-0.996685 6.27931-0.49073 12.3503 0.915184 18.0421 3.02561 23.1759 5.84923 27.4969 9.20281 30.8882 12.9854 33.0584 17.0629 33.6747 19.254 33.883 21.4762 33.1469 25.759 31.02 29.8799 27.7586 33.5979 23.6296 36.9527 18.6646 39.7898 13.4996 41.5697 12.848 39.6788 17.9242 37.9296 17.7539 38.0068 22.5664 35.2568 22.4319 35.3489 26.4319 32.0989 26.3107 32.2156 29.4357 28.6531 29.2989 28.8539 31.2989 24.9789 31.202 25.2681 31.8895 21.2681 31.8794 21.5308 31.6919 19.5308 31.7248 19.7082 31.1623 17.7082 31.2423 17.9073 29.1798 14.0323 29.3179 14.23 26.0679 10.605 26.1994 10.7275 22.0119 7.47749 22.1431 7.56372 17.1431 4.81372 17.2773 4.87512 11.7148 2.81262 11.8369 2.84922 5.89939 1.47422 6.04364 1.49668-0.081362 0.996685ZM15.7005 46.936 1.375 42.8125 13.2691 33.8262Z" transform="matrix(-1.83697e-16 -1 -1 1.83697e-16 276.765 210.333)"/><text font-family="Consolas,Consolas_MSFontService,sans-serif" font-weight="400" font-size="24" transform="translate(229.627 168)">char<tspan font-size="24" x="85.0522" y="53">a</tspan></text><path d="M0.081362-0.996685 6.27931-0.49073 12.3503 0.915184 18.0421 3.02561 23.1759 5.84923 27.4969 9.20281 30.8882 12.9854 33.0584 17.0629 33.6747 19.254 33.883 21.4762 33.1469 25.759 31.02 29.8799 27.7586 33.5979 23.6296 36.9527 18.6646 39.7898 13.4996 41.5697 12.848 39.6788 17.9242 37.9296 17.7539 38.0068 22.5664 35.2568 22.4319 35.3489 26.4319 32.0989 26.3107 32.2156 29.4357 28.6531 29.2989 28.8539 31.2989 24.9789 31.202 25.2681 31.8895 21.2681 31.8794 21.5308 31.6919 19.5308 31.7248 19.7082 31.1623 17.7082 31.2423 17.9073 29.1798 14.0323 29.3179 14.23 26.0679 10.605 26.1994 10.7275 22.0119 7.47749 22.1431 7.56372 17.1431 4.81372 17.2773 4.87512 11.7148 2.81262 11.8369 2.84922 5.89939 1.47422 6.04364 1.49668-0.081362 0.996685ZM15.7005 46.936 1.375 42.8125 13.2691 33.8262Z" transform="matrix(-1.83697e-16 -1 -1 1.83697e-16 419.765 210.333)"/><text font-family="Consolas,Consolas_MSFontService,sans-serif" font-weight="400" font-size="24" transform="translate(356.252 168)">a, char<tspan font-size="24" x="102.065" y="53">e</tspan></text><path d="M0.081362-0.996685 6.27931-0.49073 12.3503 0.915184 18.0421 3.02561 23.1759 5.84923 27.4969 9.20281 30.8882 12.9854 33.0584 17.0629 33.6747 19.254 33.883 21.4762 33.1469 25.759 31.02 29.8799 27.7586 33.5979 23.6296 36.9527 18.6646 39.7898 13.4996 41.5697 12.848 39.6788 17.9242 37.9296 17.7539 38.0068 22.5664 35.2568 22.4319 35.3489 26.4319 32.0989 26.3107 32.2156 29.4357 28.6531 29.2989 28.8539 31.2989 24.9789 31.202 25.2681 31.8895 21.2681 31.8794 21.5308 31.6919 19.5308 31.7248 19.7082 31.1623 17.7082 31.2423 17.9073 29.1798 14.0323 29.3179 14.23 26.0679 10.605 26.1994 10.7275 22.0119 7.47749 22.1431 7.56372 17.1431 4.81372 17.2773 4.87512 11.7148 2.81262 11.8369 2.84922 5.89939 1.47422 6.04364 1.49668-0.081362 0.996685ZM15.7005 46.936 1.375 42.8125 13.2691 33.8262Z" transform="matrix(-1.83697e-16 -1 -1 1.83697e-16 563.765 210.333)"/><text font-family="Consolas,Consolas_MSFontService,sans-serif" font-weight="400" font-size="24" transform="translate(499.89 168)">e, char<tspan font-size="24" x="104.509" y="53">i</tspan></text><path d="M0.081362-0.996685 6.27931-0.49073 12.3503 0.915184 18.0421 3.02561 23.1759 5.84923 27.4969 9.20281 30.8882 12.9854 33.0584 17.0629 33.6747 19.254 33.883 21.4762 33.1469 25.759 31.02 29.8799 27.7586 33.5979 23.6296 36.9527 18.6646 39.7898 13.4996 41.5697 12.848 39.6788 17.9242 37.9296 17.7539 38.0068 22.5664 35.2568 22.4319 35.3489 26.4319 32.0989 26.3107 32.2156 29.4357 28.6531 29.2989 28.8539 31.2989 24.9789 31.202 25.2681 31.8895 21.2681 31.8794 21.5308 31.6919 19.5308 31.7248 19.7082 31.1623 17.7082 31.2423 17.9073 29.1798 14.0323 29.3179 14.23 26.0679 10.605 26.1994 10.7275 22.0119 7.47749 22.1431 7.56372 17.1431 4.81372 17.2773 4.87512 11.7148 2.81262 11.8369 2.84922 5.89939 1.47422 6.04364 1.49668-0.081362 0.996685ZM15.7005 46.936 1.375 42.8125 13.2691 33.8262Z" transform="matrix(-1.83697e-16 -1 -1 1.83697e-16 707.765 210.333)"/><text font-family="Consolas,Consolas_MSFontService,sans-serif" font-weight="400" font-size="24" transform="translate(643.528 168)">i<tspan font-size="24" x="13.1667" y="0">, char</tspan></text><path d="M0.081362-0.996685 6.27931-0.49073 12.3503 0.915184 18.0421 3.02561 23.1759 5.84923 27.4969 9.20281 30.8882 12.9854 33.0584 17.0629 33.6747 19.254 33.883 21.4762 33.1469 25.759 31.02 29.8799 27.7586 33.5979 23.6296 36.9527 18.6646 39.7898 13.4996 41.5697 12.848 39.6788 17.9242 37.9296 17.7539 38.0068 22.5664 35.2568 22.4319 35.3489 26.4319 32.0989 26.3107 32.2156 29.4357 28.6531 29.2989 28.8539 31.2989 24.9789 31.202 25.2681 31.8895 21.2681 31.8794 21.5308 31.6919 19.5308 31.7248 19.7082 31.1623 17.7082 31.2423 17.9073 29.1798 14.0323 29.3179 14.23 26.0679 10.605 26.1994 10.7275 22.0119 7.47749 22.1431 7.56372 17.1431 4.81372 17.2773 4.87512 11.7148 2.81262 11.8369 2.84922 5.89939 1.47422 6.04364 1.49668-0.081362 0.996685ZM15.7005 46.936 1.375 42.8125 13.2691 33.8262Z" transform="matrix(-1.83697e-16 -1 -1 1.83697e-16 850.765 210.333)"/><text font-family="Consolas,Consolas_MSFontService,sans-serif" font-weight="400" font-size="24" transform="translate(786.222 169)">o, char</text><path d="M0.0948091-0.995495 6.74026-0.362595 13.2083 1.36649 19.2893 4.05491 24.7356 7.57899 29.3604 11.7542 32.9866 16.4165 35.2606 21.4191 35.9283 24.0902 36.1278 26.75 35.9292 29.3979 35.3292 32.0647 33.1186 37.071 29.6233 41.7314 25.1902 45.9075 19.9735 49.4497 13.5138 52.0598 12.7645 50.2055 19.1254 47.6353 18.9382 47.7352 24.0007 44.2977 23.8768 44.3971 28.1893 40.3346 28.075 40.4625 31.45 35.9625 31.3352 36.1586 33.4602 31.3461 33.3994 31.5305 33.9619 29.0305 33.9403 29.1752 34.1278 26.6752 34.1278 26.8248 33.9403 24.3248 33.9674 24.4925 33.3424 21.9925 33.4021 22.1638 31.2146 17.3513 31.3356 17.5514 27.8356 13.0514 27.9549 13.1798 23.4549 9.11727 23.5817 9.21457 18.2692 5.77707 18.4081 5.8521 12.4706 3.2271 12.6167 3.27858 6.30424 1.59108 6.46769 1.6205-0.0948091 0.995495ZM15.7615 57.4053 1.375 53.5 13.1311 44.334Z" transform="matrix(-1.83697e-16 -1 -1 1.83697e-16 1000.46 205.333)"/><text font-family="Consolas,Consolas_MSFontService,sans-serif" font-weight="400" font-size="24" transform="translate(929.86 169)">u<tspan font-size="24" x="13.1666" y="0">, char</tspan><tspan font-size="24" x="-184.266" y="52">o</tspan><tspan font-size="24" x="-40.6285" y="52">u</tspan><tspan font-size="24" x="-796.623" y="52">start</tspan></text></g></svg>