<svg width="463" height="196" xmlns="http://www.w3.org/2000/svg" xmlns:xlink="http://www.w3.org/1999/xlink" overflow="hidden"><defs><clipPath id="clip0"><rect x="118" y="137" width="463" height="196"/></clipPath></defs><g clip-path="url(#clip0)" transform="translate(-118 -137)"><path d="M504 231.5C504 210.789 521.013 194 542 194 562.987 194 580 210.789 580 231.5 580 252.211 562.987 269 542 269 521.013 269 504 252.211 504 231.5Z" stroke="#000000" stroke-width="2" stroke-miterlimit="8" fill="#FFFFFF" fill-rule="evenodd"/><text font-family="Consolas,Consolas_MSFontService,sans-serif" font-weight="400" font-size="24" transform="translate(530.721 240)">q<tspan font-size="16" x="13.1667" y="5">3</tspan></text><path d="M224 231.5C224 214.655 237.655 201 254.5 201 271.345 201 285 214.655 285 231.5 285 248.345 271.345 262 254.5 262 237.655 262 224 248.345 224 231.5Z" stroke="#000000" stroke-width="2" stroke-miterlimit="8" fill="#FFFFFF" fill-rule="evenodd"/><text font-family="Consolas,Consolas_MSFontService,sans-serif" font-weight="400" font-size="24" transform="translate(243.445 240)">q<tspan font-size="16" x="13.1667" y="5">1</tspan></text><path d="M133 230 211.719 230 211.719 232 133 232ZM210.385 224.333 223.719 231 210.385 237.667Z"/><path d="M368 231.5C368 214.655 381.431 201 398 201 414.569 201 428 214.655 428 231.5 428 248.345 414.569 262 398 262 381.431 262 368 248.345 368 231.5Z" stroke="#000000" stroke-width="2" stroke-miterlimit="8" fill="#FFFFFF" fill-rule="evenodd"/><text font-family="Consolas,Consolas_MSFontService,sans-serif" font-weight="400" font-size="24" transform="translate(387.083 240)">q<tspan font-size="16" x="13.1667" y="5">2</tspan></text><path d="M285 230 356.159 230 356.159 232 285 232ZM354.826 224.333 368.159 231 354.826 237.667Z"/><path d="M511 231.5C511 214.655 524.655 201 541.5 201 558.345 201 572 214.655 572 231.5 572 248.345 558.345 262 541.5 262 524.655 262 511 248.345 511 231.5Z" stroke="#000000" stroke-width="2" stroke-miterlimit="8" fill="#FFFFFF" fill-rule="evenodd"/><text font-family="Consolas,Consolas_MSFontService,sans-serif" font-weight="400" font-size="24" transform="translate(530.721 240)">q<tspan font-size="16" x="13.1667" y="5">3</tspan></text><path d="M428 230 491.599 230 491.599 232 428 232ZM490.266 224.333 503.599 231 490.266 237.667Z"/><path d="M0.081362-0.996685 6.27931-0.49073 12.3503 0.915184 18.0421 3.02561 23.1759 5.84923 27.4969 9.20281 30.8882 12.9854 33.0584 17.0629 33.6747 19.254 33.883 21.4762 33.1469 25.759 31.02 29.8799 27.7586 33.5979 23.6296 36.9527 18.6646 39.7898 13.4996 41.5697 12.848 39.6788 17.9242 37.9296 17.7539 38.0068 22.5664 35.2568 22.4319 35.3489 26.4319 32.0989 26.3107 32.2156 29.4357 28.6531 29.2989 28.8539 31.2989 24.9789 31.202 25.2681 31.8895 21.2681 31.8794 21.5308 31.6919 19.5308 31.7248 19.7082 31.1623 17.7082 31.2423 17.9073 29.1798 14.0323 29.3179 14.23 26.0679 10.605 26.1994 10.7275 22.0119 7.47749 22.1431 7.56372 17.1431 4.81372 17.2773 4.87512 11.7148 2.81262 11.8369 2.84922 5.89939 1.47422 6.04364 1.49668-0.081362 0.996685ZM15.7005 46.936 1.375 42.8125 13.2691 33.8262Z" transform="matrix(-1.83697e-16 -1 -1 1.83697e-16 276.765 210.333)"/><text font-family="Consolas,Consolas_MSFontService,sans-serif" font-weight="400" font-size="24" transform="translate(249.377 168)">b<tspan font-size="24" x="65.3025" y="53">ε</tspan></text><path d="M0.081362-0.996685 6.27931-0.49073 12.3503 0.915184 18.0421 3.02561 23.1759 5.84923 27.4969 9.20281 30.8882 12.9854 33.0584 17.0629 33.6747 19.254 33.883 21.4762 33.1469 25.759 31.02 29.8799 27.7586 33.5979 23.6296 36.9527 18.6646 39.7898 13.4996 41.5697 12.848 39.6788 17.9242 37.9296 17.7539 38.0068 22.5664 35.2568 22.4319 35.3489 26.4319 32.0989 26.3107 32.2156 29.4357 28.6531 29.2989 28.8539 31.2989 24.9789 31.202 25.2681 31.8895 21.2681 31.8794 21.5308 31.6919 19.5308 31.7248 19.7082 31.1623 17.7082 31.2423 17.9073 29.1798 14.0323 29.3179 14.23 26.0679 10.605 26.1994 10.7275 22.0119 7.47749 22.1431 7.56372 17.1431 4.81372 17.2773 4.87512 11.7148 2.81262 11.8369 2.84922 5.89939 1.47422 6.04364 1.49668-0.081362 0.996685ZM15.7005 46.936 1.375 42.8125 13.2691 33.8262Z" transform="matrix(-1.83697e-16 -1 -1 1.83697e-16 419.765 210.333)"/><text font-family="Consolas,Consolas_MSFontService,sans-serif" font-weight="400" font-size="24" transform="translate(392.722 168)">a<tspan font-size="24" x="52.4292" y="53">b,ε</tspan></text><path d="M0.19087 0.981615-2.05913 1.41912-1.78324 1.32188-4.03324 2.50938-3.83696 2.37359-6.02446 4.31109-5.91025 4.1917-8.03525 6.8167-7.96817 6.72332-10.0307 9.97332-9.98945 9.90205-11.9895 13.7145-11.9559 13.6439-13.8309 18.0189-13.8102 17.9667-15.5602 22.7792-15.5447 22.7332-17.1697 27.9832-17.1561 27.9351-18.5936 33.5601-18.581 33.5038-20.956 45.6913-20.9442 45.6152-22.4442 58.5527-22.4384 58.4793-23.0009 71.9168-23.0013 71.8237-22.3138 85.1987-22.3241 85.0979-20.3241 98.0979-20.3441 98.0004-17.2191 110.125-17.242 110.049-15.3045 115.674-15.3231 115.625-13.1981 120.875-13.2237 120.817-10.9112 125.629-10.9389 125.576-8.50143 129.951-8.55135 129.87-5.92635 133.683-6.04882 133.537-2.27956 137.244-3.68192 138.67-7.51939 134.896-10.2255 130.966-12.7008 126.523-15.0401 121.655-17.1869 116.351-19.1459 110.663-22.2933 98.4513-24.3086 85.352-25.0011 71.8798-24.4351 58.3589-22.9264 45.3465-20.5385 33.0929-19.0877 27.4157-17.4481 22.1186-15.6802 17.2569-13.7787 12.8201-11.7414 8.93646-9.62597 5.60306-7.41259 2.86887-5.07306 0.796718-2.586-0.515895-0.19087-0.981615ZM-0.968519 131.463 7.5625 143.687-7.33589 143.177Z" transform="matrix(-6.12323e-17 -1 -1 6.12323e-17 541.638 269.56)"/><text font-family="Consolas,Consolas_MSFontService,sans-serif" font-weight="400" font-size="24" transform="translate(133.237 221)">start<tspan font-size="24" x="332.64" y="91">ε</tspan></text></g></svg>