<svg width="184" height="141" xmlns="http://www.w3.org/2000/svg" xmlns:xlink="http://www.w3.org/1999/xlink" overflow="hidden"><defs><clipPath id="clip0"><rect x="537" y="183" width="184" height="141"/></clipPath></defs><g clip-path="url(#clip0)" transform="translate(-537 -183)"><text font-family="Consolas,Consolas_MSFontService,sans-serif" font-weight="400" font-size="24" transform="translate(551.737 274)">start</text><path d="M552 283 628.014 283 628.014 285 552 285ZM626.68 277.333 640.014 284 626.68 290.667Z"/><path d="M640 284.5C640 263.789 657.013 247 678 247 698.987 247 716 263.789 716 284.5 716 305.211 698.987 322 678 322 657.013 322 640 305.211 640 284.5Z" stroke="#000000" stroke-width="2" stroke-miterlimit="8" fill="#FFFFFF" fill-rule="evenodd"/><text font-family="Consolas,Consolas_MSFontService,sans-serif" font-weight="400" font-size="24" transform="translate(666.799 293)">q<tspan font-size="16" x="13.1666" y="5">3</tspan></text><path d="M648 284.5C648 267.655 661.431 254 678 254 694.569 254 708 267.655 708 284.5 708 301.345 694.569 315 678 315 661.431 315 648 301.345 648 284.5Z" stroke="#000000" stroke-width="2" stroke-miterlimit="8" fill="#FFFFFF" fill-rule="evenodd"/><text font-family="Consolas,Consolas_MSFontService,sans-serif" font-weight="400" font-size="24" transform="translate(671.216 293)">A</text><path d="M0.0948091-0.995495 6.74026-0.362595 13.2083 1.36649 19.2893 4.05491 24.7356 7.57899 29.3604 11.7542 32.9866 16.4165 35.2606 21.4191 35.9283 24.0902 36.1278 26.75 35.9292 29.3979 35.3292 32.0647 33.1186 37.071 29.6233 41.7314 25.1902 45.9075 19.9735 49.4497 13.5138 52.0598 12.7645 50.2055 19.1254 47.6353 18.9382 47.7352 24.0007 44.2977 23.8768 44.3971 28.1893 40.3346 28.075 40.4625 31.45 35.9625 31.3352 36.1586 33.4602 31.3461 33.3994 31.5305 33.9619 29.0305 33.9403 29.1752 34.1278 26.6752 34.1278 26.8248 33.9403 24.3248 33.9674 24.4925 33.3424 21.9925 33.4021 22.1638 31.2146 17.3513 31.3356 17.5514 27.8356 13.0514 27.9549 13.1798 23.4549 9.11727 23.5817 9.21457 18.2692 5.77707 18.4081 5.8521 12.4706 3.2271 12.6167 3.27858 6.30424 1.59108 6.46769 1.6205-0.0948091 0.995495ZM15.7615 57.4053 1.375 53.5 13.1311 44.334Z" transform="matrix(-1.83697e-16 -1 -1 1.83697e-16 705.457 258.333)"/><text font-family="Consolas,Consolas_MSFontService,sans-serif" font-weight="400" font-size="24" transform="translate(652.688 214)">a, b</text></g></svg>