<svg width="945" height="326" xmlns="http://www.w3.org/2000/svg" xmlns:xlink="http://www.w3.org/1999/xlink" overflow="hidden"><defs><clipPath id="clip0"><rect x="7" y="69" width="945" height="326"/></clipPath></defs><g clip-path="url(#clip0)" transform="translate(-7 -69)"><path d="M874 163.5C874 142.789 891.013 126 912 126 932.987 126 950 142.789 950 163.5 950 184.211 932.987 201 912 201 891.013 201 874 184.211 874 163.5Z" stroke="#000000" stroke-width="2" stroke-miterlimit="8" fill="#FFFFFF" fill-rule="evenodd"/><path d="M746 163.5C746 142.789 762.789 126 783.5 126 804.211 126 821 142.789 821 163.5 821 184.211 804.211 201 783.5 201 762.789 201 746 184.211 746 163.5Z" stroke="#000000" stroke-width="2" stroke-miterlimit="8" fill="#FFFFFF" fill-rule="evenodd"/><path d="M617 163.5C617 142.789 634.013 126 655 126 675.987 126 693 142.789 693 163.5 693 184.211 675.987 201 655 201 634.013 201 617 184.211 617 163.5Z" stroke="#000000" stroke-width="2" stroke-miterlimit="8" fill="#FFFFFF" fill-rule="evenodd"/><path d="M617 292C617 271.013 634.013 254 655 254 675.987 254 693 271.013 693 292 693 312.987 675.987 330 655 330 634.013 330 617 312.987 617 292Z" stroke="#000000" stroke-width="2" stroke-miterlimit="8" fill="#FFFFFF" fill-rule="evenodd"/><path d="M489 163.5C489 142.789 505.789 126 526.5 126 547.211 126 564 142.789 564 163.5 564 184.211 547.211 201 526.5 201 505.789 201 489 184.211 489 163.5Z" stroke="#000000" stroke-width="2" stroke-miterlimit="8" fill="#FFFFFF" fill-rule="evenodd"/><text font-family="Consolas,Consolas_MSFontService,sans-serif" font-weight="400" font-size="24" transform="translate(520.018 172)">E</text><path d="M15 162 98.5736 162 98.5736 164 15 164ZM97.2403 156.333 110.574 163 97.2403 169.667Z"/><text font-family="Consolas,Consolas_MSFontService,sans-serif" font-weight="400" font-size="24" transform="translate(22.5439 153)">start</text><path d="M111 163.5C111 146.655 124.431 133 141 133 157.569 133 171 146.655 171 163.5 171 180.345 157.569 194 141 194 124.431 194 111 180.345 111 163.5Z" stroke="#000000" stroke-width="2" stroke-miterlimit="8" fill="#FFFFFF" fill-rule="evenodd"/><text font-family="Consolas,Consolas_MSFontService,sans-serif" font-weight="400" font-size="24" transform="translate(134.464 172)">A</text><path d="M239 163.5C239 146.655 252.655 133 269.5 133 286.345 133 300 146.655 300 163.5 300 180.345 286.345 194 269.5 194 252.655 194 239 180.345 239 163.5Z" stroke="#000000" stroke-width="2" stroke-miterlimit="8" fill="#FFFFFF" fill-rule="evenodd"/><text font-family="Consolas,Consolas_MSFontService,sans-serif" font-weight="400" font-size="24" transform="translate(262.982 172)">B</text><path d="M239 292C239 275.431 252.655 262 269.5 262 286.345 262 300 275.431 300 292 300 308.569 286.345 322 269.5 322 252.655 322 239 308.569 239 292Z" stroke="#000000" stroke-width="2" stroke-miterlimit="8" fill="#FFFFFF" fill-rule="evenodd"/><text font-family="Consolas,Consolas_MSFontService,sans-serif" font-weight="400" font-size="24" transform="translate(262.982 301)">C</text><path d="M368 163.5C368 146.655 381.431 133 398 133 414.569 133 428 146.655 428 163.5 428 180.345 414.569 194 398 194 381.431 194 368 180.345 368 163.5Z" stroke="#000000" stroke-width="2" stroke-miterlimit="8" fill="#FFFFFF" fill-rule="evenodd"/><text font-family="Consolas,Consolas_MSFontService,sans-serif" font-weight="400" font-size="24" transform="translate(391.5 172)">D</text><path d="M496 163.5C496 146.655 509.655 133 526.5 133 543.345 133 557 146.655 557 163.5 557 180.345 543.345 194 526.5 194 509.655 194 496 180.345 496 163.5Z" stroke="#000000" stroke-width="2" stroke-miterlimit="8" fill="#FFFFFF" fill-rule="evenodd"/><text font-family="Consolas,Consolas_MSFontService,sans-serif" font-weight="400" font-size="24" transform="translate(520.018 172)">E</text><path d="M625 163.5C625 146.655 638.431 133 655 133 671.569 133 685 146.655 685 163.5 685 180.345 671.569 194 655 194 638.431 194 625 180.345 625 163.5Z" stroke="#000000" stroke-width="2" stroke-miterlimit="8" fill="#FFFFFF" fill-rule="evenodd"/><text font-family="Consolas,Consolas_MSFontService,sans-serif" font-weight="400" font-size="24" transform="translate(648.536 172)">F</text><path d="M625 292C625 275.431 638.431 262 655 262 671.569 262 685 275.431 685 292 685 308.569 671.569 322 655 322 638.431 322 625 308.569 625 292Z" stroke="#000000" stroke-width="2" stroke-miterlimit="8" fill="#FFFFFF" fill-rule="evenodd"/><text font-family="Consolas,Consolas_MSFontService,sans-serif" font-weight="400" font-size="24" transform="translate(648.536 301)">G</text><path d="M753 163.5C753 146.655 766.655 133 783.5 133 800.345 133 814 146.655 814 163.5 814 180.345 800.345 194 783.5 194 766.655 194 753 180.345 753 163.5Z" stroke="#000000" stroke-width="2" stroke-miterlimit="8" fill="#FFFFFF" fill-rule="evenodd"/><text font-family="Consolas,Consolas_MSFontService,sans-serif" font-weight="400" font-size="24" transform="translate(777.055 172)">H</text><path d="M882 163.5C882 146.655 895.431 133 912 133 928.569 133 942 146.655 942 163.5 942 180.345 928.569 194 912 194 895.431 194 882 180.345 882 163.5Z" stroke="#000000" stroke-width="2" stroke-miterlimit="8" fill="#FFFFFF" fill-rule="evenodd"/><text font-family="Consolas,Consolas_MSFontService,sans-serif" font-weight="400" font-size="24" transform="translate(905.573 172)">I</text><path d="M171 162 227.039 162 227.039 164 171 164ZM225.706 156.333 239.039 163 225.706 169.667Z"/><text font-family="Consolas,Consolas_MSFontService,sans-serif" font-weight="400" font-size="24" transform="translate(196.164 160)">a</text><path d="M300 162 356.039 162 356.039 164 300 164ZM354.706 156.333 368.039 163 354.706 169.667Z"/><text font-family="Consolas,Consolas_MSFontService,sans-serif" font-weight="400" font-size="24" transform="translate(324.683 160)">b</text><path d="M428 162 476.479 162 476.479 164 428 164ZM475.146 156.333 488.479 163 475.146 169.667Z"/><text font-family="Consolas,Consolas_MSFontService,sans-serif" font-weight="400" font-size="24" transform="translate(453.201 159)">b</text><path d="M564 162 604.919 162 604.919 164 564 164ZM603.586 156.333 616.919 163 603.586 169.667Z"/><text font-family="Consolas,Consolas_MSFontService,sans-serif" font-weight="400" font-size="24" transform="translate(581.719 159)">a</text><path d="M693 162 733.919 162 733.919 164 693 164ZM732.586 156.333 745.919 163 732.586 169.667Z"/><text font-family="Consolas,Consolas_MSFontService,sans-serif" font-weight="400" font-size="24" transform="translate(710.237 159)">b</text><path d="M821 162 861.919 162 861.919 164 821 164ZM860.586 156.333 873.919 163 860.586 169.667Z"/><text font-family="Consolas,Consolas_MSFontService,sans-serif" font-weight="400" font-size="24" transform="translate(838.755 159)">b</text><path d="M162.707 184.293 239.975 261.561 238.561 262.975 161.293 185.707ZM243.039 256.611 247.753 270.753 233.611 266.039Z"/><text font-family="Consolas,Consolas_MSFontService,sans-serif" font-weight="400" font-size="24" transform="translate(181.045 244)">b</text><path d="M0.081362-0.996685 6.27931-0.49073 12.3503 0.915184 18.0421 3.02561 23.1759 5.84923 27.4969 9.20281 30.8882 12.9854 33.0584 17.0629 33.6747 19.254 33.883 21.4762 33.1469 25.759 31.02 29.8799 27.7586 33.5979 23.6296 36.9527 18.6646 39.7898 13.4996 41.5697 12.848 39.6788 17.9242 37.9296 17.7539 38.0068 22.5664 35.2568 22.4319 35.3489 26.4319 32.0989 26.3107 32.2156 29.4357 28.6531 29.2989 28.8539 31.2989 24.9789 31.202 25.2681 31.8895 21.2681 31.8794 21.5308 31.6919 19.5308 31.7248 19.7082 31.1623 17.7082 31.2423 17.9073 29.1798 14.0323 29.3179 14.23 26.0679 10.605 26.1994 10.7275 22.0119 7.47749 22.1431 7.56372 17.1431 4.81372 17.2773 4.87512 11.7148 2.81262 11.8369 2.84922 5.89939 1.47422 6.04364 1.49668-0.081362 0.996685ZM15.7005 46.936 1.375 42.8125 13.2691 33.8262Z" transform="matrix(-1.83697e-16 -1 -1 1.83697e-16 291.765 142.333)"/><text font-family="Consolas,Consolas_MSFontService,sans-serif" font-weight="400" font-size="24" transform="translate(264.203 107)">a</text><path d="M1-1.54304e-06 1.00009 56.0391-0.999914 56.0391-1 1.54304e-06ZM6.66675 54.7057 0.000104987 68.0391-6.66658 54.7057Z" transform="matrix(1 0 0 -1 270 262.039)"/><text font-family="Consolas,Consolas_MSFontService,sans-serif" font-weight="400" font-size="24" transform="translate(254.2 236)">a</text><path d="M292.762 313.081 292.256 319.279 290.85 325.35 288.74 331.042 285.916 336.176 282.562 340.497 278.78 343.888 274.702 346.058 272.511 346.675 270.289 346.883 266.006 346.147 261.885 344.02 258.167 340.759 254.812 336.63 251.975 331.665 250.195 326.5 252.086 325.848 253.836 330.924 253.758 330.754 256.508 335.566 256.416 335.432 259.666 339.432 259.55 339.311 263.112 342.436 262.911 342.299 266.786 344.299 266.497 344.202 270.497 344.889 270.234 344.879 272.234 344.692 272.057 344.725 274.057 344.162 273.858 344.242 277.733 342.18 277.535 342.318 281.16 339.068 281.038 339.199 284.288 335.012 284.201 335.143 286.951 330.143 286.89 330.277 288.953 324.715 288.916 324.837 290.291 318.899 290.268 319.044 290.768 312.919ZM244.829 328.7 248.953 314.375 257.939 326.269Z"/><text font-family="Consolas,Consolas_MSFontService,sans-serif" font-weight="400" font-size="24" transform="translate(264.203 373)">b</text><path d="M378.75 184.081 378.494 187.213 377.774 190.42 376.537 193.545 374.924 196.578 372.924 199.545 370.535 202.322 364.992 207.419 358.356 211.694 350.963 215.008 343.077 217.107 338.971 217.684 334.859 217.877 326.709 217.177 318.805 215.137 311.355 211.953 304.718 207.869 299.173 202.962 296.747 200.273 295.033 197.186 296.781 196.215 298.44 199.202 298.308 199.018 300.62 201.58 300.541 201.501 305.978 206.314 305.84 206.211 312.34 210.211 312.209 210.143 319.521 213.268 319.378 213.219 327.128 215.219 326.964 215.191 334.964 215.879 334.831 215.876 338.831 215.689 338.739 215.697 342.739 215.135 342.621 215.159 350.371 213.096 350.219 213.15 357.469 209.9 357.337 209.972 363.837 205.784 363.701 205.889 369.139 200.889 369.058 200.973 371.37 198.285 371.299 198.379 373.236 195.504 373.183 195.593 374.745 192.655 374.698 192.757 375.886 189.757 375.84 189.906 376.527 186.843 376.506 186.981 376.756 183.919ZM290.056 200.162 291.941 185.375 302.64 195.755Z"/><text font-family="Consolas,Consolas_MSFontService,sans-serif" font-weight="400" font-size="24" transform="translate(329.799 236)">a</text><path d="M553.707 189.293 620.283 255.869 618.869 257.283 552.293 190.707ZM623.348 250.919 628.062 265.062 613.919 260.348Z"/><text font-family="Consolas,Consolas_MSFontService,sans-serif" font-weight="400" font-size="24" transform="translate(567.896 245)">b</text><path d="M0.0948091-0.995495 6.74026-0.362595 13.2083 1.36649 19.2893 4.05491 24.7356 7.57899 29.3604 11.7542 32.9866 16.4165 35.2606 21.4191 35.9283 24.0902 36.1278 26.75 35.9292 29.3979 35.3292 32.0647 33.1186 37.071 29.6233 41.7314 25.1902 45.9075 19.9735 49.4497 13.5138 52.0598 12.7645 50.2055 19.1254 47.6353 18.9382 47.7352 24.0007 44.2977 23.8768 44.3971 28.1893 40.3346 28.075 40.4625 31.45 35.9625 31.3352 36.1586 33.4602 31.3461 33.3994 31.5305 33.9619 29.0305 33.9403 29.1752 34.1278 26.6752 34.1278 26.8248 33.9403 24.3248 33.9674 24.4925 33.3424 21.9925 33.4021 22.1638 31.2146 17.3513 31.3356 17.5514 27.8356 13.0514 27.9549 13.1798 23.4549 9.11727 23.5817 9.21457 18.2692 5.77707 18.4081 5.8521 12.4706 3.2271 12.6167 3.27858 6.30424 1.59108 6.46769 1.6205-0.0948091 0.995495ZM15.7615 57.4053 1.375 53.5 13.1311 44.334Z" transform="matrix(-1.83697e-16 -1 -1 1.83697e-16 682.457 137.333)"/><text font-family="Consolas,Consolas_MSFontService,sans-serif" font-weight="400" font-size="24" transform="translate(649.758 100)">a</text><path d="M1-1.98391e-06 1.00008 40.9193-0.999919 40.9193-1 1.98391e-06ZM6.66675 39.5859 0.000104987 52.9193-6.66659 39.5859Z" transform="matrix(1 0 0 -1 655 253.919)"/><text font-family="Consolas,Consolas_MSFontService,sans-serif" font-weight="400" font-size="24" transform="translate(639.755 237)">a</text><path d="M683.452 318.095 682.819 324.74 681.09 331.208 678.402 337.289 674.878 342.736 670.702 347.36 666.04 350.987 661.037 353.261 658.366 353.928 655.707 354.128 653.059 353.929 650.392 353.329 645.386 351.119 640.725 347.623 636.549 343.19 633.007 337.974 630.397 331.514 632.251 330.765 634.821 337.125 634.721 336.938 638.159 342.001 638.06 341.877 642.122 346.189 641.994 346.075 646.494 349.45 646.298 349.335 651.111 351.46 650.926 351.399 653.426 351.962 653.281 351.94 655.781 352.128 655.632 352.128 658.132 351.94 657.964 351.967 660.464 351.342 660.293 351.402 665.105 349.215 664.905 349.336 669.405 345.836 669.277 345.955 673.339 341.455 673.242 341.582 676.68 336.269 676.604 336.408 679.229 330.471 679.178 330.617 680.866 324.304 680.836 324.468 681.461 317.905ZM625.051 333.761 628.957 319.375 638.123 331.131Z"/><text font-family="Consolas,Consolas_MSFontService,sans-serif" font-weight="400" font-size="24" transform="translate(651.055 374)">b</text><path d="M759.06 190.057 758.868 193.445 758.155 196.816 757.124 200.102 755.698 203.342 751.926 209.417 746.997 214.858 741.179 219.461 734.647 223.047 727.742 225.285 724.114 225.933 720.499 226.126 716.893 225.933 713.268 225.351 706.362 223.176 699.835 219.721 694.015 215.308 689.126 210.098 685.33 203.436 687.068 202.445 690.805 209.005 690.666 208.816 695.416 213.878 695.291 213.766 700.978 218.078 700.842 217.991 707.217 221.366 707.049 221.296 713.799 223.421 713.658 223.388 717.158 223.95 717.053 223.939 720.553 224.126 720.446 224.126 723.946 223.939 723.823 223.953 727.323 223.328 727.191 223.361 733.941 221.174 733.768 221.248 740.143 217.748 740.004 217.841 745.691 213.341 745.57 213.454 750.383 208.141 750.275 208.285 753.962 202.347 753.896 202.472 755.271 199.347 755.232 199.451 756.232 196.263 756.208 196.356 756.896 193.106 756.876 193.256 757.063 189.943ZM680.129 206.003 682.999 191.375 692.979 202.448Z"/><text font-family="Consolas,Consolas_MSFontService,sans-serif" font-weight="400" font-size="24" transform="translate(710.237 243)">a</text><path d="M911.352 126.292 910.664 124.042 910.852 124.39 908.977 122.14 909.172 122.319 906.047 120.132 906.168 120.204 901.981 118.079 902.068 118.118 896.818 116.056 896.873 116.076 890.748 114.076 890.799 114.091 883.799 112.216 883.838 112.225 876.088 110.475 876.119 110.482 867.682 108.857 867.713 108.862 858.713 107.425 858.734 107.428 849.234 106.116 849.264 106.119 839.327 105.057 839.361 105.06 818.549 103.56 818.594 103.562 797.095 103 797.138 103 786.388 103.187 786.429 103.186 775.679 103.811 775.726 103.807 754.976 105.994 755.032 105.987 745.095 107.612 745.126 107.606 735.563 109.481 735.6 109.473 726.6 111.598 726.643 111.587 718.268 113.962 718.31 113.949 710.56 116.512 710.611 116.493 703.611 119.243 703.671 119.218 697.546 122.093 697.625 122.051 692.375 125.114 692.548 124.986 689.373 127.906 688.019 126.434 691.273 123.441 696.655 120.301 702.85 117.394 709.906 114.622 717.702 112.044 726.119 109.657 735.159 107.522 744.756 105.641 754.737 104.008 775.539 101.816 786.333 101.188 797.125 101 818.67 101.563 839.522 103.066 849.492 104.132 859.018 105.448 868.044 106.89 876.513 108.521 884.298 110.279 891.343 112.166 897.521 114.184 902.843 116.274 907.136 118.453 910.428 120.757 912.518 123.265 913.265 125.708ZM694.971 129.786 681.996 137.125 683.91 122.341Z"/><text font-family="Consolas,Consolas_MSFontService,sans-serif" font-weight="400" font-size="24" transform="translate(793.396 100)">a</text><path d="M913.234 201.073 912.916 205.395 911.949 209.782 910.343 214.15 908.168 218.435 905.43 222.702 902.189 226.896 898.385 231.017 894.087 235.062 889.293 239.036 884.065 242.941 878.34 246.779 872.305 250.488 865.772 254.132 858.921 257.651 844.12 264.299 828.006 270.444 810.831 275.96 792.659 280.785 773.677 284.92 754.068 288.24 733.961 290.683 713.537 292.249 705.008 292.457 704.959 290.458 713.463 290.25 713.411 290.253 733.786 288.69 733.741 288.695 753.804 286.257 753.758 286.264 773.32 282.952 773.274 282.96 792.212 278.835 792.168 278.846 810.293 274.033 810.244 274.048 827.369 268.548 827.318 268.566 843.381 262.441 843.327 262.463 858.077 255.838 858.03 255.861 864.842 252.361 864.812 252.377 871.312 248.752 871.276 248.773 877.276 245.086 877.243 245.107 882.93 241.294 882.888 241.324 888.076 237.449 888.036 237.48 892.786 233.543 892.739 233.584 896.989 229.584 896.94 229.634 900.69 225.572 900.633 225.639 903.821 221.514 903.77 221.585 906.458 217.397 906.408 217.485 908.533 213.297 908.486 213.405 910.048 209.155 910.01 209.285 910.948 205.035 910.927 205.177 911.24 200.927ZM706.479 298.09 692.987 291.75 706.154 284.76Z"/><text font-family="Consolas,Consolas_MSFontService,sans-serif" font-weight="400" font-size="24" transform="translate(828.752 290)">b</text></g></svg>