<svg width="794" height="666" xmlns="http://www.w3.org/2000/svg" xmlns:xlink="http://www.w3.org/1999/xlink" overflow="hidden"><defs><clipPath id="clip0"><rect x="7" y="8" width="794" height="666"/></clipPath></defs><g clip-path="url(#clip0)" transform="translate(-7 -8)"><path d="M353 103C353 86.4315 366.431 73 383 73 399.569 73 413 86.4315 413 103 413 119.569 399.569 133 383 133 366.431 133 353 119.569 353 103Z" stroke="#000000" stroke-width="2" stroke-miterlimit="8" fill="#FFFFFF" fill-rule="evenodd"/><text font-family="Consolas,Consolas_MSFontService,sans-serif" font-weight="400" font-size="24" transform="translate(376.38 112)">2</text><path d="M413 102 469.039 102 469.039 104 413 104ZM467.706 96.3334 481.039 103 467.706 109.667Z"/><path d="M481 103C481 86.4315 494.655 73 511.5 73 528.345 73 542 86.4315 542 103 542 119.569 528.345 133 511.5 133 494.655 133 481 119.569 481 103Z" stroke="#000000" stroke-width="2" stroke-miterlimit="8" fill="#FFFFFF" fill-rule="evenodd"/><text font-family="Consolas,Consolas_MSFontService,sans-serif" font-weight="400" font-size="24" transform="translate(504.898 112)">4<tspan font-size="24" x="-66.8174" y="-19">a</tspan></text><path d="M353 224C353 207.431 366.431 194 383 194 399.569 194 413 207.431 413 224 413 240.569 399.569 254 383 254 366.431 254 353 240.569 353 224Z" stroke="#000000" stroke-width="2" stroke-miterlimit="8" fill="#FFFFFF" fill-rule="evenodd"/><text font-family="Consolas,Consolas_MSFontService,sans-serif" font-weight="400" font-size="24" transform="translate(376.38 233)">3</text><path d="M413 223 469.039 223 469.039 225 413 225ZM467.706 217.333 481.039 224 467.706 230.667Z"/><path d="M481 224C481 207.431 494.655 194 511.5 194 528.345 194 542 207.431 542 224 542 240.569 528.345 254 511.5 254 494.655 254 481 240.569 481 224Z" stroke="#000000" stroke-width="2" stroke-miterlimit="8" fill="#FFFFFF" fill-rule="evenodd"/><text font-family="Consolas,Consolas_MSFontService,sans-serif" font-weight="400" font-size="24" transform="translate(504.898 233)">5<tspan font-size="24" x="-66.8174" y="-19">b</tspan></text><path d="M595 163.5C595 146.655 608.431 133 625 133 641.569 133 655 146.655 655 163.5 655 180.345 641.569 194 625 194 608.431 194 595 180.345 595 163.5Z" stroke="#000000" stroke-width="2" stroke-miterlimit="8" fill="#FFFFFF" fill-rule="evenodd"/><text font-family="Consolas,Consolas_MSFontService,sans-serif" font-weight="400" font-size="24" transform="translate(618.297 172)">6</text><path d="M542.535 102.155 594.171 134.834 593.102 136.524 541.465 103.845ZM596.075 129.333 603.776 142.097 588.945 140.6Z"/><text font-family="Consolas,Consolas_MSFontService,sans-serif" font-weight="400" font-size="24" transform="translate(564.156 108)">ε</text><path d="M0.534775-0.844995 52.1711 31.8343 51.1016 33.5243-0.534775 0.844995ZM54.0748 26.333 61.7763 39.0966 46.9445 37.5995Z" transform="matrix(1 0 0 -1 542 224.097)"/><text font-family="Consolas,Consolas_MSFontService,sans-serif" font-weight="400" font-size="24" transform="translate(566.599 229)">ε</text><path d="M239 163.5C239 146.655 252.655 133 269.5 133 286.345 133 300 146.655 300 163.5 300 180.345 286.345 194 269.5 194 252.655 194 239 180.345 239 163.5Z" stroke="#000000" stroke-width="2" stroke-miterlimit="8" fill="#FFFFFF" fill-rule="evenodd"/><text font-family="Consolas,Consolas_MSFontService,sans-serif" font-weight="400" font-size="24" transform="translate(262.982 172)">1</text><path d="M291.535 184.155 343.171 216.834 342.102 218.524 290.465 185.845ZM345.075 211.333 352.776 224.097 337.945 222.6Z"/><text font-family="Consolas,Consolas_MSFontService,sans-serif" font-weight="400" font-size="24" transform="translate(302.003 221)">ε</text><path d="M0.534775-0.844995 52.1711 31.8343 51.1016 33.5243-0.534775 0.844995ZM54.0748 26.333 61.7763 39.0966 46.9445 37.5995Z" transform="matrix(1 0 0 -1 291 142.097)"/><text font-family="Consolas,Consolas_MSFontService,sans-serif" font-weight="400" font-size="24" transform="translate(302.003 122)">ε</text><path d="M655 162 718.599 162 718.599 164 655 164ZM717.266 156.333 730.599 163 717.266 169.667Z"/><text font-family="Consolas,Consolas_MSFontService,sans-serif" font-weight="400" font-size="24" transform="translate(679.998 153)">ε</text><path d="M0.0595954-0.998223 4.30717-0.744636 8.54771 0.0263719 12.7788 1.3085 16.9928 3.09629 21.1972 5.32588 25.2624 7.99367 29.3172 11.0348 33.3082 14.5189 37.2237 18.4345 41.0797 22.6698 48.4427 32.2354 55.4235 43.0525 61.9566 55.1136 67.9836 68.1093 73.3805 82.1035 78.1478 96.8445 82.1618 112.211 85.4229 128.14 87.8059 144.445 89.3111 161.002 89.813 177.687 89.3112 194.371 87.8687 210.928 85.4857 227.233 82.2877 243.161 78.3364 258.527 73.6315 273.269 68.2984 287.198 62.3981 300.253 55.9892 312.317 49.0712 323.134 41.835 332.699 38.0418 336.935 34.189 340.851 30.2607 344.335 26.2656 347.379 22.2026 350.046 18.1009 352.289 13.4858 353.969 12.8014 352.09 17.3453 350.435 17.2077 350.498 21.2077 348.31 21.1388 348.351 25.1388 345.726 25.0815 345.767 29.019 342.767 28.9614 342.814 32.8364 339.377 32.7872 339.424 36.5997 335.549 36.5675 335.583 40.3175 331.395 40.265 331.459 47.4525 321.959 47.4075 322.024 54.2825 311.274 54.2419 311.343 60.6169 299.343 60.5887 299.401 66.4637 286.401 66.4411 286.455 71.7536 272.58 71.7348 272.633 76.4223 257.946 76.4065 258.001 80.344 242.688 80.3321 242.741 83.5196 226.866 83.5105 226.918 85.8855 210.668 85.8788 210.726 87.3163 194.226 87.313 194.282 87.813 177.657 87.813 177.718 87.313 161.093 87.3166 161.153 85.8166 144.653 85.823 144.707 83.448 128.457 83.4578 128.513 80.2078 112.638 80.22 112.69 76.22 97.3777 76.236 97.4327 71.486 82.7452 71.5045 82.7973 66.1295 68.8598 66.1553 68.9207 60.1553 55.9832 60.1832 56.0388 53.6832 44.0388 53.7223 44.1047 46.7848 33.3547 46.8326 33.4225 39.5201 23.9225 39.5731 23.9857 35.7606 19.7982 35.7929 19.8321 31.9179 15.9571 31.9673 16.0033 28.0298 12.5658 28.0875 12.6125 24.0875 9.6125 24.1388 9.64855 20.1388 7.02355 20.219 7.07096 16.094 4.88346 16.1719 4.92058 12.047 3.17058 12.1475 3.20702 8.02249 1.95702 8.13361 1.98387 4.00861 1.23387 4.1279 1.24822-0.0595954 0.998223ZM15.7542 359.307 1.375 355.375 13.1482 346.231Z" transform="matrix(-1.83697e-16 -1 -1 1.83697e-16 625.315 134.333)"/><text font-family="Consolas,Consolas_MSFontService,sans-serif" font-weight="400" font-size="24" transform="translate(443.198 39)">ε</text><path d="M15 162 98.5736 162 98.5736 164 15 164ZM97.2403 156.333 110.574 163 97.2403 169.667Z"/><text font-family="Consolas,Consolas_MSFontService,sans-serif" font-weight="400" font-size="24" transform="translate(22.5439 153)">start</text><path d="M111 163.5C111 146.655 124.431 133 141 133 157.569 133 171 146.655 171 163.5 171 180.345 157.569 194 141 194 124.431 194 111 180.345 111 163.5Z" stroke="#000000" stroke-width="2" stroke-miterlimit="8" fill="#FFFFFF" fill-rule="evenodd"/><text font-family="Consolas,Consolas_MSFontService,sans-serif" font-weight="400" font-size="24" transform="translate(134.464 172)">0</text><path d="M171 162 227.039 162 227.039 164 171 164ZM225.706 156.333 239.039 163 225.706 169.667Z"/><text font-family="Consolas,Consolas_MSFontService,sans-serif" font-weight="400" font-size="24" transform="translate(196.164 153)">ε</text><path d="M731 163.5C731 146.655 744.431 133 761 133 777.569 133 791 146.655 791 163.5 791 180.345 777.569 194 761 194 744.431 194 731 180.345 731 163.5Z" stroke="#000000" stroke-width="2" stroke-miterlimit="8" fill="#FFFFFF" fill-rule="evenodd"/><text font-family="Consolas,Consolas_MSFontService,sans-serif" font-weight="400" font-size="24" transform="translate(754.375 172)">7<tspan font-size="24" x="-308.734" y="125">ε</tspan></text><path d="M0.108727-0.994072 4.2149-0.544959 8.3419 0.830707 12.4237 3.09836 16.4656 6.17793 20.4835 10.0683 24.3535 14.6995 28.2061 20.0679 31.9856 26.1152 35.7605 32.847 39.4066 40.265 42.9205 48.234 46.4325 56.8258 49.8182 66.0426 53.0769 75.6933 56.2088 85.9031 59.2767 96.6096 62.22 107.757 64.9743 119.337 67.6654 131.291 70.1701 143.626 74.6752 169.28 78.492 196.061 81.6205 223.717 83.873 252.123 85.3121 280.966 85.8126 310 85.3121 339.032 83.9356 367.876 81.6831 396.22 78.6173 423.937 74.8631 450.717 70.4203 476.31 67.9165 488.641 65.3504 500.658 62.5955 512.179 59.7156 523.323 56.7095 534.032 53.5778 544.241 50.3827 553.889 47.0597 563.106 43.6105 571.698 40.1594 579.666 36.5762 587.084 32.8643 593.816 29.1478 599.863 25.3583 605.232 21.5515 609.863 17.5683 613.782 13.1919 616.649 12.0959 614.976 16.3895 612.164 16.2362 612.287 20.1112 608.475 20.04 608.552 23.79 603.99 23.7455 604.048 27.4955 598.736 27.4605 598.789 31.148 592.789 31.1243 592.83 34.8118 586.142 34.787 586.19 38.3495 578.815 38.3324 578.853 41.7699 570.915 41.7595 570.94 45.197 562.377 45.1843 562.411 48.4968 553.223 48.4882 553.248 51.6757 543.623 51.669 543.644 54.794 533.457 54.7872 533.48 57.7872 522.792 57.7818 522.812 60.6568 511.687 60.6524 511.705 63.4024 500.205 63.397 500.229 65.9595 488.229 65.9575 488.238 68.4575 475.926 68.4522 475.954 72.8897 450.391 72.8847 450.424 76.6347 423.674 76.6311 423.703 79.6936 396.015 79.6906 396.046 81.9406 367.733 81.9386 367.765 83.3136 338.952 83.3126 338.983 83.8126 309.983 83.8126 310.017 83.3126 281.017 83.3137 281.05 81.8762 252.237 81.8781 252.267 79.6281 223.892 79.6313 223.925 76.5063 196.3 76.51 196.329 72.6975 169.579 72.7026 169.61 68.2026 143.985 68.2075 144.011 65.7075 131.699 65.7119 131.72 63.0244 119.782 63.0271 119.794 60.2771 108.231 60.2831 108.255 57.3456 97.1303 57.3512 97.1505 54.2887 86.463 54.294 86.4808 51.169 76.2933 51.1776 76.3199 47.9276 66.6949 47.9363 66.7198 44.5613 57.5323 44.5743 57.5659 41.0743 49.0034 41.085 49.0285 37.585 41.091 37.6026 41.1286 33.9776 33.7536 34.0028 33.8016 30.2528 27.1141 30.277 27.155 26.527 21.155 26.5626 21.208 22.7501 15.8955 22.7951 15.9537 18.9826 11.3912 19.0544 11.4684 15.1169 7.65592 15.2065 7.73293 11.269 4.73293 11.3894 4.81166 7.45186 2.62416 7.62127 2.69868 3.68377 1.38618 3.89127 1.43157-0.108727 0.994072ZM16.1874 621.615 1.375 619.937 11.6046 609.094Z" transform="matrix(1.83697e-16 1 1 -1.83697e-16 142 193)"/><path d="M595 345C595 328.431 608.431 315 625 315 641.569 315 655 328.431 655 345 655 361.569 641.569 375 625 375 608.431 375 595 361.569 595 345Z" stroke="#000000" stroke-width="2" stroke-miterlimit="8" fill="#FFFFFF" fill-rule="evenodd"/><text font-family="Consolas,Consolas_MSFontService,sans-serif" font-weight="400" font-size="24" transform="translate(618.297 353)">8</text><path d="M239 345C239 328.431 252.655 315 269.5 315 286.345 315 300 328.431 300 345 300 361.569 286.345 375 269.5 375 252.655 375 239 361.569 239 345Z" stroke="#000000" stroke-width="2" stroke-miterlimit="8" fill="#FFFFFF" fill-rule="evenodd"/><text font-family="Consolas,Consolas_MSFontService,sans-serif" font-weight="400" font-size="24" transform="translate(262.982 353)">9</text><path d="M783.22 185.05 782.468 200.096 780.33 215.06 776.873 229.769 772.223 244.159 766.441 258.047 759.593 271.304 751.865 283.932 743.254 295.686 733.887 306.499 723.886 316.248 713.251 324.87 702.239 332.169 696.488 335.329 690.749 338.041 684.881 340.438 679.007 342.396 672.994 343.979 667.089 344.974 666.757 343.001 672.617 342.014 672.529 342.033 678.467 340.47 678.405 340.489 684.217 338.551 684.155 338.574 689.968 336.199 689.919 336.221 695.606 333.533 695.552 333.561 701.24 330.436 701.169 330.479 712.106 323.229 712.029 323.286 722.591 314.723 722.523 314.784 732.461 305.096 732.403 305.158 741.715 294.408 741.664 294.471 750.227 282.784 750.181 282.853 757.868 270.291 757.833 270.354 764.645 257.166 764.61 257.241 770.36 243.428 770.332 243.505 774.957 229.193 774.935 229.271 778.373 214.646 778.356 214.734 780.481 199.859 780.472 199.95 781.222 184.95ZM668.848 350.508 654.971 345.062 667.654 337.228Z"/><text font-family="Consolas,Consolas_MSFontService,sans-serif" font-weight="400" font-size="24" transform="translate(755.597 297)">a</text><path d="M3.56086e-07-1 282.836-0.999899 282.836 1.0001-3.56086e-07 1ZM281.503-6.66657 294.836 0.000104987 281.503 6.66677Z" transform="matrix(-1 0 0 1 594.836 345)"/><text font-family="Consolas,Consolas_MSFontService,sans-serif" font-weight="400" font-size="24" transform="translate(445.641 341)">b</text><path d="M353 459C353 442.431 366.431 429 383 429 399.569 429 413 442.431 413 459 413 475.569 399.569 489 383 489 366.431 489 353 475.569 353 459Z" stroke="#000000" stroke-width="2" stroke-miterlimit="8" fill="#FFFFFF" fill-rule="evenodd"/><text font-family="Consolas,Consolas_MSFontService,sans-serif" font-weight="400" font-size="24" transform="translate(369.797 468)">12</text><path d="M413 458 469.039 458 469.039 460 413 460ZM467.706 452.333 481.039 459 467.706 465.667Z"/><path d="M481 459C481 442.431 494.655 429 511.5 429 528.345 429 542 442.431 542 459 542 475.569 528.345 489 511.5 489 494.655 489 481 475.569 481 459Z" stroke="#000000" stroke-width="2" stroke-miterlimit="8" fill="#FFFFFF" fill-rule="evenodd"/><text font-family="Consolas,Consolas_MSFontService,sans-serif" font-weight="400" font-size="24" transform="translate(498.315 468)">14<tspan font-size="24" x="-60.2341" y="-19">a</tspan></text><path d="M353 580C353 563.431 366.431 550 383 550 399.569 550 413 563.431 413 580 413 596.569 399.569 610 383 610 366.431 610 353 596.569 353 580Z" stroke="#000000" stroke-width="2" stroke-miterlimit="8" fill="#FFFFFF" fill-rule="evenodd"/><text font-family="Consolas,Consolas_MSFontService,sans-serif" font-weight="400" font-size="24" transform="translate(369.797 589)">13</text><path d="M413 579 469.039 579 469.039 581 413 581ZM467.706 573.333 481.039 580 467.706 586.667Z"/><path d="M481 580C481 563.431 494.655 550 511.5 550 528.345 550 542 563.431 542 580 542 596.569 528.345 610 511.5 610 494.655 610 481 596.569 481 580Z" stroke="#000000" stroke-width="2" stroke-miterlimit="8" fill="#FFFFFF" fill-rule="evenodd"/><text font-family="Consolas,Consolas_MSFontService,sans-serif" font-weight="400" font-size="24" transform="translate(498.315 589)">15<tspan font-size="24" x="-60.2341" y="-19">b</tspan></text><path d="M595 519.5C595 502.655 608.431 489 625 489 641.569 489 655 502.655 655 519.5 655 536.345 641.569 550 625 550 608.431 550 595 536.345 595 519.5Z" stroke="#000000" stroke-width="2" stroke-miterlimit="8" fill="#FFFFFF" fill-rule="evenodd"/><text font-family="Consolas,Consolas_MSFontService,sans-serif" font-weight="400" font-size="24" transform="translate(611.714 528)">16</text><path d="M542.535 458.155 594.171 490.834 593.102 492.524 541.465 459.845ZM596.075 485.333 603.776 498.097 588.945 496.6Z"/><text font-family="Consolas,Consolas_MSFontService,sans-serif" font-weight="400" font-size="24" transform="translate(564.156 464)">ε</text><path d="M0.534775-0.844995 52.1711 31.8343 51.1016 33.5243-0.534775 0.844995ZM54.0748 26.333 61.7763 39.0966 46.9445 37.5995Z" transform="matrix(1 0 0 -1 542 580.097)"/><text font-family="Consolas,Consolas_MSFontService,sans-serif" font-weight="400" font-size="24" transform="translate(566.599 585)">ε</text><path d="M239 519.5C239 502.655 252.655 489 269.5 489 286.345 489 300 502.655 300 519.5 300 536.345 286.345 550 269.5 550 252.655 550 239 536.345 239 519.5Z" stroke="#000000" stroke-width="2" stroke-miterlimit="8" fill="#FFFFFF" fill-rule="evenodd"/><text font-family="Consolas,Consolas_MSFontService,sans-serif" font-weight="400" font-size="24" transform="translate(256.398 528)">11</text><path d="M291.535 540.155 343.171 572.834 342.102 574.524 290.465 541.845ZM345.075 567.333 352.776 580.097 337.945 578.6Z"/><text font-family="Consolas,Consolas_MSFontService,sans-serif" font-weight="400" font-size="24" transform="translate(302.003 577)">ε</text><path d="M0.534775-0.844995 52.1711 31.8343 51.1016 33.5243-0.534775 0.844995ZM54.0748 26.333 61.7763 39.0966 46.9445 37.5995Z" transform="matrix(1 0 0 -1 291 498.097)"/><text font-family="Consolas,Consolas_MSFontService,sans-serif" font-weight="400" font-size="24" transform="translate(302.003 479)">ε</text><path d="M655 519 711.039 519 711.039 521 655 521ZM709.706 513.333 723.039 520 709.706 526.667Z"/><text font-family="Consolas,Consolas_MSFontService,sans-serif" font-weight="400" font-size="24" transform="translate(679.998 510)">ε</text><path d="M0.0595954-0.998223 4.30717-0.744636 8.54771 0.0263719 12.7788 1.3085 16.9928 3.09629 21.1972 5.32588 25.2624 7.99367 29.3172 11.0348 33.3082 14.5189 37.2237 18.4345 41.0797 22.6698 48.4427 32.2354 55.4235 43.0525 61.9566 55.1136 67.9836 68.1093 73.3805 82.1035 78.1478 96.8445 82.1618 112.211 85.4229 128.14 87.8059 144.445 89.3111 161.002 89.813 177.687 89.3112 194.371 87.8687 210.928 85.4857 227.233 82.2877 243.161 78.3364 258.527 73.6315 273.269 68.2984 287.198 62.3981 300.253 55.9892 312.317 49.0712 323.134 41.835 332.699 38.0418 336.935 34.189 340.851 30.2607 344.335 26.2656 347.379 22.2026 350.046 18.1009 352.289 13.4858 353.969 12.8014 352.09 17.3453 350.435 17.2077 350.498 21.2077 348.31 21.1388 348.351 25.1388 345.726 25.0815 345.767 29.019 342.767 28.9614 342.814 32.8364 339.377 32.7872 339.424 36.5997 335.549 36.5675 335.583 40.3175 331.395 40.265 331.459 47.4525 321.959 47.4075 322.024 54.2825 311.274 54.2419 311.343 60.6169 299.343 60.5887 299.401 66.4637 286.401 66.4411 286.455 71.7536 272.58 71.7348 272.633 76.4223 257.946 76.4065 258.001 80.344 242.688 80.3321 242.741 83.5196 226.866 83.5105 226.918 85.8855 210.668 85.8788 210.726 87.3163 194.226 87.313 194.282 87.813 177.657 87.813 177.718 87.313 161.093 87.3166 161.153 85.8166 144.653 85.823 144.707 83.448 128.457 83.4578 128.513 80.2078 112.638 80.22 112.69 76.22 97.3777 76.236 97.4327 71.486 82.7452 71.5045 82.7973 66.1295 68.8598 66.1553 68.9207 60.1553 55.9832 60.1832 56.0388 53.6832 44.0388 53.7223 44.1047 46.7848 33.3547 46.8326 33.4225 39.5201 23.9225 39.5731 23.9857 35.7606 19.7982 35.7929 19.8321 31.9179 15.9571 31.9673 16.0033 28.0298 12.5658 28.0875 12.6125 24.0875 9.6125 24.1388 9.64855 20.1388 7.02355 20.219 7.07096 16.094 4.88346 16.1719 4.92058 12.047 3.17058 12.1475 3.20702 8.02249 1.95702 8.13361 1.98387 4.00861 1.23387 4.1279 1.24822-0.0595954 0.998223ZM15.7542 359.307 1.375 355.375 13.1482 346.231Z" transform="matrix(-1.83697e-16 -1 -1 1.83697e-16 625.315 490.333)"/><text font-family="Consolas,Consolas_MSFontService,sans-serif" font-weight="400" font-size="24" transform="translate(443.198 394)">ε</text><path d="M111 519.5C111 502.655 124.431 489 141 489 157.569 489 171 502.655 171 519.5 171 536.345 157.569 550 141 550 124.431 550 111 536.345 111 519.5Z" stroke="#000000" stroke-width="2" stroke-miterlimit="8" fill="#FFFFFF" fill-rule="evenodd"/><text font-family="Consolas,Consolas_MSFontService,sans-serif" font-weight="400" font-size="24" transform="translate(127.88 528)">10</text><path d="M171 519 227.039 519 227.039 521 171 521ZM225.706 513.333 239.039 520 225.706 526.667Z"/><text font-family="Consolas,Consolas_MSFontService,sans-serif" font-weight="400" font-size="24" transform="translate(196.164 510)">ε</text><path d="M723 520C723 499.013 740.013 482 761 482 781.987 482 799 499.013 799 520 799 540.987 781.987 558 761 558 740.013 558 723 540.987 723 520Z" stroke="#000000" stroke-width="2" stroke-miterlimit="8" fill="#FFFFFF" fill-rule="evenodd"/><text font-family="Consolas,Consolas_MSFontService,sans-serif" font-weight="400" font-size="24" transform="translate(749.958 528)">q<tspan font-size="16" x="13.1667" y="5">3</tspan></text><path d="M731 519.5C731 502.655 744.431 489 761 489 777.569 489 791 502.655 791 519.5 791 536.345 777.569 550 761 550 744.431 550 731 536.345 731 519.5Z" stroke="#000000" stroke-width="2" stroke-miterlimit="8" fill="#FFFFFF" fill-rule="evenodd"/><text font-family="Consolas,Consolas_MSFontService,sans-serif" font-weight="400" font-size="24" transform="translate(747.792 528)">17<tspan font-size="24" x="-302.151" y="125">ε</tspan></text><path d="M0.117818-0.993035 3.91693-0.542293 7.80174 0.840437 11.6399 3.1173 15.3711 6.20517 19.0678 10.0931 22.7481 14.7252 26.2875 20.0976 29.8147 26.1441 33.2748 32.8756 36.6663 40.2868 39.9929 48.2579 43.1921 56.852 46.3249 66.0624 49.3946 75.7098 52.3391 85.9217 55.1572 96.6303 57.8487 107.772 60.4776 119.352 62.9189 131.308 65.2348 143.638 69.4891 169.29 73.0556 196.07 75.9337 223.724 77.9983 252.128 79.3121 280.969 79.8126 309.999 79.3747 339.028 78.1861 367.866 76.3094 396.205 73.6818 423.92 70.4287 450.695 66.6751 476.283 64.5467 488.615 62.2942 500.628 59.9787 512.143 57.5372 523.286 54.9698 533.994 52.2768 544.202 49.5214 553.846 46.7023 563.056 43.817 571.649 40.8047 579.619 37.7292 587.025 34.6469 593.756 31.4334 599.805 28.2123 605.173 24.9142 609.803 21.5532 613.746 18.9552 615.565 17.8079 613.927 20.3013 612.181 20.114 612.351 23.364 608.539 23.3105 608.607 26.5605 604.045 26.5175 604.11 29.705 598.798 29.6794 598.843 32.8669 592.843 32.8408 592.896 35.9033 586.209 35.889 586.241 38.9515 578.866 38.9396 578.896 41.9396 570.959 41.927 570.994 44.802 562.432 44.7938 562.457 47.6063 553.27 47.601 553.288 50.351 543.663 50.3456 543.682 53.0331 533.495 53.0276 533.517 55.5901 522.829 55.5857 522.848 58.0232 511.723 58.0196 511.74 60.3321 500.24 60.3296 500.253 62.5796 488.253 62.5771 488.267 64.7021 475.955 64.6981 475.98 68.4481 450.417 68.4448 450.442 71.6948 423.692 71.692 423.718 74.317 396.031 74.3147 396.059 76.1897 367.746 76.1883 367.771 77.3758 338.959 77.3751 338.985 77.8126 309.985 77.8126 310.017 77.3126 281.017 77.3135 281.046 76.001 252.233 76.0026 252.26 73.9401 223.885 73.9429 223.916 71.0679 196.291 71.0713 196.319 67.5088 169.569 67.5135 169.601 63.2635 143.976 63.2672 143.997 60.9547 131.685 60.9577 131.7 58.5202 119.763 58.5248 119.784 55.8998 108.221 55.903 108.235 53.2155 97.1098 53.2204 97.1295 50.4079 86.442 50.4141 86.4646 47.4766 76.2771 47.4846 76.3032 44.4221 66.6782 44.4283 66.697 41.3033 57.5095 41.3128 57.5364 38.1253 48.9739 38.1396 49.0101 34.8271 41.0726 34.8407 41.1036 31.4657 33.7286 31.4856 33.7697 28.0481 27.0822 28.0737 27.1289 24.5737 21.1289 24.6024 21.1752 21.1024 15.8627 21.1545 15.9346 17.5295 11.3721 17.5878 11.4391 13.9628 7.62656 14.0499 7.70789 10.4249 4.70789 10.5523 4.79755 6.8648 2.61005 7.03967 2.6921 3.35218 1.3796 3.56968 1.43054-0.117818 0.993035ZM22.4676 620.18 7.5625 619.937 16.6997 608.159Z" transform="matrix(1.83697e-16 1 1 -1.83697e-16 141 550)"/><path d="M0.0444006-0.999014 5.70312-0.747515 11.3363-0.114569 17.0372 0.962264 22.6057 2.48094 28.1654 4.37629 33.6749 6.65611 44.4497 12.327 54.9111 19.3223 64.8604 27.5714 74.2985 36.9466 83.1015 47.3844 91.21 58.6357 98.5011 70.7037 104.912 83.4619 110.316 96.7843 114.715 110.547 117.984 124.693 119.997 139.031 120.113 141.466 118.115 141.561 118.001 139.173 118.01 139.264 116.01 125.014 116.026 125.1 112.776 111.038 112.797 111.117 108.422 97.4295 108.448 97.5009 103.073 84.2509 103.106 84.324 96.7315 71.6365 96.7691 71.7046 89.5191 59.7046 89.5637 59.7722 81.5012 48.5847 81.5481 48.6447 72.7981 38.2697 72.8578 38.3345 63.4828 29.022 63.5492 29.0823 53.6742 20.8948 53.7566 20.9563 43.3816 14.0188 43.4718 14.0724 32.7843 8.44742 32.8676 8.48652 27.4301 6.23652 27.4898 6.25901 21.9898 4.38401 22.0494 4.40226 16.5494 2.90226 16.6269 2.92012 11.0019 1.85762 11.0758 1.86875 5.51334 1.24375 5.5806 1.24901-0.0444006 0.999014ZM125.71 139.863 119.687 153.5 112.391 140.5Z" transform="matrix(-1 1.22465e-16 1.22465e-16 1 239.661 345)"/><text font-family="Consolas,Consolas_MSFontService,sans-serif" font-weight="400" font-size="24" transform="translate(135.685 403)">b</text></g></svg>