<svg width="567" height="80" xmlns="http://www.w3.org/2000/svg" xmlns:xlink="http://www.w3.org/1999/xlink" overflow="hidden"><defs><clipPath id="clip0"><rect x="7" y="244" width="567" height="80"/></clipPath></defs><g clip-path="url(#clip0)" transform="translate(-7 -244)"><path d="M15 283 98.5736 283 98.5736 285 15 285ZM97.2403 277.333 110.574 284 97.2403 290.667Z"/><text font-family="Consolas,Consolas_MSFontService,sans-serif" font-weight="400" font-size="24" transform="translate(22.5439 274)">start</text><path d="M111 284.5C111 267.655 124.431 254 141 254 157.569 254 171 267.655 171 284.5 171 301.345 157.569 315 141 315 124.431 315 111 301.345 111 284.5Z" stroke="#000000" stroke-width="2" stroke-miterlimit="8" fill="#FFFFFF" fill-rule="evenodd"/><text font-family="Consolas,Consolas_MSFontService,sans-serif" font-weight="400" font-size="24" transform="translate(134.464 293)">0</text><path d="M171 283 227.039 283 227.039 285 171 285ZM225.706 277.333 239.039 284 225.706 290.667Z"/><text font-family="Consolas,Consolas_MSFontService,sans-serif" font-weight="400" font-size="24" transform="translate(196.164 274)">a</text><path d="M496 284.5C496 263.789 513.013 247 534 247 554.987 247 572 263.789 572 284.5 572 305.211 554.987 322 534 322 513.013 322 496 305.211 496 284.5Z" stroke="#000000" stroke-width="2" stroke-miterlimit="8" fill="#FFFFFF" fill-rule="evenodd"/><text font-family="Consolas,Consolas_MSFontService,sans-serif" font-weight="400" font-size="24" transform="translate(523.161 293)">q<tspan font-size="16" x="13.1666" y="5">3</tspan></text><path d="M504 284.5C504 267.655 517.431 254 534 254 550.569 254 564 267.655 564 284.5 564 301.345 550.569 315 534 315 517.431 315 504 301.345 504 284.5Z" stroke="#000000" stroke-width="2" stroke-miterlimit="8" fill="#FFFFFF" fill-rule="evenodd"/><text font-family="Consolas,Consolas_MSFontService,sans-serif" font-weight="400" font-size="24" transform="translate(527.578 293)">3</text><path d="M239 284.5C239 267.655 252.655 254 269.5 254 286.345 254 300 267.655 300 284.5 300 301.345 286.345 315 269.5 315 252.655 315 239 301.345 239 284.5Z" stroke="#000000" stroke-width="2" stroke-miterlimit="8" fill="#FFFFFF" fill-rule="evenodd"/><text font-family="Consolas,Consolas_MSFontService,sans-serif" font-weight="400" font-size="24" transform="translate(262.982 293)">1</text><path d="M300 283 356.039 283 356.039 285 300 285ZM354.706 277.333 368.039 284 354.706 290.667Z"/><text font-family="Consolas,Consolas_MSFontService,sans-serif" font-weight="400" font-size="24" transform="translate(324.683 274)">b</text><path d="M368 284.5C368 267.655 381.431 254 398 254 414.569 254 428 267.655 428 284.5 428 301.345 414.569 315 398 315 381.431 315 368 301.345 368 284.5Z" stroke="#000000" stroke-width="2" stroke-miterlimit="8" fill="#FFFFFF" fill-rule="evenodd"/><text font-family="Consolas,Consolas_MSFontService,sans-serif" font-weight="400" font-size="24" transform="translate(391.5 293)">2</text><path d="M428 283 484.039 283 484.039 285 428 285ZM482.706 277.333 496.039 284 482.706 290.667Z"/><text font-family="Consolas,Consolas_MSFontService,sans-serif" font-weight="400" font-size="24" transform="translate(453.201 274)">b</text></g></svg>