<svg width="559" height="188" xmlns="http://www.w3.org/2000/svg" xmlns:xlink="http://www.w3.org/1999/xlink" overflow="hidden"><defs><clipPath id="clip0"><rect x="7" y="69" width="559" height="188"/></clipPath></defs><g clip-path="url(#clip0)" transform="translate(-7 -69)"><path d="M489 163.5C489 142.789 505.789 126 526.5 126 547.211 126 564 142.789 564 163.5 564 184.211 547.211 201 526.5 201 505.789 201 489 184.211 489 163.5Z" stroke="#000000" stroke-width="2" stroke-miterlimit="8" fill="#FFFFFF" fill-rule="evenodd"/><text font-family="Consolas,Consolas_MSFontService,sans-serif" font-weight="400" font-size="24" transform="translate(520.018 172)">E</text><path d="M15 162 98.5736 162 98.5736 164 15 164ZM97.2403 156.333 110.574 163 97.2403 169.667Z"/><text font-family="Consolas,Consolas_MSFontService,sans-serif" font-weight="400" font-size="24" transform="translate(22.5439 153)">start</text><path d="M111 163.5C111 146.655 124.431 133 141 133 157.569 133 171 146.655 171 163.5 171 180.345 157.569 194 141 194 124.431 194 111 180.345 111 163.5Z" stroke="#000000" stroke-width="2" stroke-miterlimit="8" fill="#FFFFFF" fill-rule="evenodd"/><text font-family="Consolas,Consolas_MSFontService,sans-serif" font-weight="400" font-size="24" transform="translate(134.464 172)">A</text><path d="M239 163.5C239 146.655 252.655 133 269.5 133 286.345 133 300 146.655 300 163.5 300 180.345 286.345 194 269.5 194 252.655 194 239 180.345 239 163.5Z" stroke="#000000" stroke-width="2" stroke-miterlimit="8" fill="#FFFFFF" fill-rule="evenodd"/><text font-family="Consolas,Consolas_MSFontService,sans-serif" font-weight="400" font-size="24" transform="translate(262.982 172)">B</text><path d="M368 163.5C368 146.655 381.431 133 398 133 414.569 133 428 146.655 428 163.5 428 180.345 414.569 194 398 194 381.431 194 368 180.345 368 163.5Z" stroke="#000000" stroke-width="2" stroke-miterlimit="8" fill="#FFFFFF" fill-rule="evenodd"/><text font-family="Consolas,Consolas_MSFontService,sans-serif" font-weight="400" font-size="24" transform="translate(391.5 172)">D</text><path d="M496 163.5C496 146.655 509.655 133 526.5 133 543.345 133 557 146.655 557 163.5 557 180.345 543.345 194 526.5 194 509.655 194 496 180.345 496 163.5Z" stroke="#000000" stroke-width="2" stroke-miterlimit="8" fill="#FFFFFF" fill-rule="evenodd"/><text font-family="Consolas,Consolas_MSFontService,sans-serif" font-weight="400" font-size="24" transform="translate(520.018 172)">E</text><path d="M171 162 227.039 162 227.039 164 171 164ZM225.706 156.333 239.039 163 225.706 169.667Z"/><text font-family="Consolas,Consolas_MSFontService,sans-serif" font-weight="400" font-size="24" transform="translate(196.164 160)">a</text><path d="M300 162 356.039 162 356.039 164 300 164ZM354.706 156.333 368.039 163 354.706 169.667Z"/><text font-family="Consolas,Consolas_MSFontService,sans-serif" font-weight="400" font-size="24" transform="translate(324.683 160)">b</text><path d="M428 162 476.479 162 476.479 164 428 164ZM475.146 156.333 488.479 163 475.146 169.667Z"/><text font-family="Consolas,Consolas_MSFontService,sans-serif" font-weight="400" font-size="24" transform="translate(453.201 159)">b</text><path d="M0.081362-0.996685 6.27931-0.49073 12.3503 0.915184 18.0421 3.02561 23.1759 5.84923 27.4969 9.20281 30.8882 12.9854 33.0584 17.0629 33.6747 19.254 33.883 21.4762 33.1469 25.759 31.02 29.8799 27.7586 33.5979 23.6296 36.9527 18.6646 39.7898 13.4996 41.5697 12.848 39.6788 17.9242 37.9296 17.7539 38.0068 22.5664 35.2568 22.4319 35.3489 26.4319 32.0989 26.3107 32.2156 29.4357 28.6531 29.2989 28.8539 31.2989 24.9789 31.202 25.2681 31.8895 21.2681 31.8794 21.5308 31.6919 19.5308 31.7248 19.7082 31.1623 17.7082 31.2423 17.9073 29.1798 14.0323 29.3179 14.23 26.0679 10.605 26.1994 10.7275 22.0119 7.47749 22.1431 7.56372 17.1431 4.81372 17.2773 4.87512 11.7148 2.81262 11.8369 2.84922 5.89939 1.47422 6.04364 1.49668-0.081362 0.996685ZM15.7005 46.936 1.375 42.8125 13.2691 33.8262Z" transform="matrix(-1.83697e-16 -1 -1 1.83697e-16 291.765 142.333)"/><text font-family="Consolas,Consolas_MSFontService,sans-serif" font-weight="400" font-size="24" transform="translate(264.203 107)">a</text><path d="M378.75 184.081 378.494 187.213 377.774 190.42 376.537 193.545 374.924 196.578 372.924 199.545 370.535 202.322 364.992 207.419 358.356 211.694 350.963 215.008 343.077 217.107 338.971 217.684 334.859 217.877 326.709 217.177 318.805 215.137 311.355 211.953 304.718 207.869 299.173 202.962 296.747 200.273 295.033 197.186 296.781 196.215 298.44 199.202 298.308 199.018 300.62 201.58 300.541 201.501 305.978 206.314 305.84 206.211 312.34 210.211 312.209 210.143 319.521 213.268 319.378 213.219 327.128 215.219 326.964 215.191 334.964 215.879 334.831 215.876 338.831 215.689 338.739 215.697 342.739 215.135 342.621 215.159 350.371 213.096 350.219 213.15 357.469 209.9 357.337 209.972 363.837 205.784 363.701 205.889 369.139 200.889 369.058 200.973 371.37 198.285 371.299 198.379 373.236 195.504 373.183 195.593 374.745 192.655 374.698 192.757 375.886 189.757 375.84 189.906 376.527 186.843 376.506 186.981 376.756 183.919ZM290.056 200.162 291.941 185.375 302.64 195.755Z"/><text font-family="Consolas,Consolas_MSFontService,sans-serif" font-weight="400" font-size="24" transform="translate(329.799 236)">a</text><path d="M0.081362-0.996685 6.27931-0.49073 12.3503 0.915184 18.0421 3.02561 23.1759 5.84923 27.4969 9.20281 30.8882 12.9854 33.0584 17.0629 33.6747 19.254 33.883 21.4762 33.1469 25.759 31.02 29.8799 27.7586 33.5979 23.6296 36.9527 18.6646 39.7898 13.4996 41.5697 12.848 39.6788 17.9242 37.9296 17.7539 38.0068 22.5664 35.2568 22.4319 35.3489 26.4319 32.0989 26.3107 32.2156 29.4357 28.6531 29.2989 28.8539 31.2989 24.9789 31.202 25.2681 31.8895 21.2681 31.8794 21.5308 31.6919 19.5308 31.7248 19.7082 31.1623 17.7082 31.2423 17.9073 29.1798 14.0323 29.3179 14.23 26.0679 10.605 26.1994 10.7275 22.0119 7.47749 22.1431 7.56372 17.1431 4.81372 17.2773 4.87512 11.7148 2.81262 11.8369 2.84922 5.89939 1.47422 6.04364 1.49668-0.081362 0.996685ZM15.7005 46.936 1.375 42.8125 13.2691 33.8262Z" transform="matrix(-1.83697e-16 -1 -1 1.83697e-16 162.765 142.333)"/><text font-family="Consolas,Consolas_MSFontService,sans-serif" font-weight="400" font-size="24" transform="translate(135.685 107)">b</text><path d="M0.104685-0.994505 6.13223-0.360027 12.0503 1.3768 17.5733 4.07408 22.5839 7.6072 26.7704 11.7936 30.0042 16.4504 32.1598 21.4801 32.8844 26.75 32.1613 32.0087 30.1392 37.0315 27.0337 41.6897 23.0398 45.8768 18.2543 49.4336 13.4231 51.536 12.625 49.7021 17.351 47.6456 17.1535 47.7599 21.7785 44.3224 21.6514 44.4348 25.5264 40.3723 25.4179 40.5078 28.4179 36.0078 28.3224 36.189 30.2599 31.3765 30.1968 31.6138 30.8843 26.6138 30.8843 26.8862 30.1968 21.8862 30.2684 22.1439 28.2059 17.3314 28.3036 17.5079 25.1786 13.0079 25.2929 13.1446 21.2304 9.08211 21.3612 9.19226 16.4862 5.75476 16.6237 5.83607 11.2487 3.21107 11.4059 3.27203 5.6559 1.58453 5.83282 1.61951-0.104685 0.994505ZM15.9189 56.7707 1.375 53.5 12.7179 43.8273Z" transform="matrix(-1.83697e-16 -1 -1 1.83697e-16 554.457 137.333)"/><text font-family="Consolas,Consolas_MSFontService,sans-serif" font-weight="400" font-size="24" transform="translate(505.63 100)">a,b</text></g></svg>