<svg width="596" height="194" xmlns="http://www.w3.org/2000/svg" xmlns:xlink="http://www.w3.org/1999/xlink" overflow="hidden"><defs><clipPath id="clip0"><rect x="53" y="183" width="596" height="194"/></clipPath></defs><g clip-path="url(#clip0)" transform="translate(-53 -183)"><path d="M300 224C300 207.431 313.431 194 330 194 346.569 194 360 207.431 360 224 360 240.569 346.569 254 330 254 313.431 254 300 240.569 300 224Z" stroke="#000000" stroke-width="2" stroke-miterlimit="8" fill="#FFFFFF" fill-rule="evenodd"/><text font-family="Consolas,Consolas_MSFontService,sans-serif" font-weight="400" font-size="24" transform="translate(323.461 233)">1</text><path d="M360 223 438.719 223 438.719 225 360 225ZM437.385 217.333 450.719 224 437.385 230.667Z"/><path d="M451 224C451 207.431 464.431 194 481 194 497.569 194 511 207.431 511 224 511 240.569 497.569 254 481 254 464.431 254 451 240.569 451 224Z" stroke="#000000" stroke-width="2" stroke-miterlimit="8" fill="#FFFFFF" fill-rule="evenodd"/><text font-family="Consolas,Consolas_MSFontService,sans-serif" font-weight="400" font-size="24" transform="translate(474.659 233)">3<tspan font-size="24" x="-84.3802" y="-19">ε</tspan></text><path d="M300 345C300 328.431 313.431 315 330 315 346.569 315 360 328.431 360 345 360 361.569 346.569 375 330 375 313.431 375 300 361.569 300 345Z" stroke="#000000" stroke-width="2" stroke-miterlimit="8" fill="#FFFFFF" fill-rule="evenodd"/><text font-family="Consolas,Consolas_MSFontService,sans-serif" font-weight="400" font-size="24" transform="translate(323.461 353)">2</text><path d="M68 283 151.574 283 151.574 285 68 285ZM150.24 277.333 163.574 284 150.24 290.667Z"/><path d="M360 344 438.719 344 438.719 346 360 346ZM437.385 338.333 450.719 345 437.385 351.667Z"/><path d="M451 345C451 328.431 464.431 315 481 315 497.569 315 511 328.431 511 345 511 361.569 497.569 375 481 375 464.431 375 451 361.569 451 345Z" stroke="#000000" stroke-width="2" stroke-miterlimit="8" fill="#FFFFFF" fill-rule="evenodd"/><text font-family="Consolas,Consolas_MSFontService,sans-serif" font-weight="400" font-size="24" transform="translate(474.659 353)">4<tspan font-size="24" x="-84.3802" y="-18">a</tspan><tspan font-size="24" x="-406.756" y="-79">start</tspan></text><path d="M572 284.5C572 263.789 589.013 247 610 247 630.987 247 648 263.789 648 284.5 648 305.211 630.987 322 610 322 589.013 322 572 305.211 572 284.5Z" stroke="#000000" stroke-width="2" stroke-miterlimit="8" fill="#FFFFFF" fill-rule="evenodd"/><text font-family="Consolas,Consolas_MSFontService,sans-serif" font-weight="400" font-size="24" transform="translate(598.76 293)">q<tspan font-size="16" x="13.1666" y="5">3</tspan></text><path d="M580 284.5C580 267.655 593.431 254 610 254 626.569 254 640 267.655 640 284.5 640 301.345 626.569 315 610 315 593.431 315 580 301.345 580 284.5Z" stroke="#000000" stroke-width="2" stroke-miterlimit="8" fill="#FFFFFF" fill-rule="evenodd"/><text font-family="Consolas,Consolas_MSFontService,sans-serif" font-weight="400" font-size="24" transform="translate(603.177 293)">5</text><path d="M511.427 223.096 572.124 251.727 571.271 253.536 510.573 224.904ZM573.335 246.033 582.55 257.751 567.647 258.092Z"/><text font-family="Consolas,Consolas_MSFontService,sans-serif" font-weight="400" font-size="24" transform="translate(536.36 229)">ε</text><path d="M0.426626-0.904428 61.1238 27.7269 60.2706 29.5358-0.426626 0.904428ZM62.3355 22.033 71.5503 33.7509 56.6471 34.092Z" transform="matrix(1 0 0 -1 511 344.751)"/><text font-family="Consolas,Consolas_MSFontService,sans-serif" font-weight="400" font-size="24" transform="translate(536.36 350)">ε</text><path d="M164 284.5C164 267.655 177.431 254 194 254 210.569 254 224 267.655 224 284.5 224 301.345 210.569 315 194 315 177.431 315 164 301.345 164 284.5Z" stroke="#000000" stroke-width="2" stroke-miterlimit="8" fill="#FFFFFF" fill-rule="evenodd"/><text font-family="Consolas,Consolas_MSFontService,sans-serif" font-weight="400" font-size="24" transform="translate(187.383 293)">0</text><path d="M215.42 305.093 288.986 339.148 288.146 340.963 214.58 306.907ZM290.157 333.445 299.456 345.097 284.556 345.545Z"/><text font-family="Consolas,Consolas_MSFontService,sans-serif" font-weight="400" font-size="24" transform="translate(249.084 311)">ε</text><path d="M0.420094-0.907481 73.9863 33.148 73.1461 34.9629-0.420094 0.907481ZM75.1568 27.4455 84.456 39.0966 69.5556 39.5452Z" transform="matrix(1 0 0 -1 215 263.097)"/><text font-family="Consolas,Consolas_MSFontService,sans-serif" font-weight="400" font-size="24" transform="translate(249.084 236)">ε</text></g></svg>