<svg width="921" height="203" xmlns="http://www.w3.org/2000/svg" xmlns:xlink="http://www.w3.org/1999/xlink" overflow="hidden"><defs><clipPath id="clip0"><rect x="53" y="183" width="921" height="203"/></clipPath></defs><g clip-path="url(#clip0)" transform="translate(-53 -183)"><path d="M277 224C277 207.431 290.655 194 307.5 194 324.345 194 338 207.431 338 224 338 240.569 324.345 254 307.5 254 290.655 254 277 240.569 277 224Z" stroke="#000000" stroke-width="2" stroke-miterlimit="8" fill="#FFFFFF" fill-rule="evenodd"/><text font-family="Consolas,Consolas_MSFontService,sans-serif" font-weight="400" font-size="24" transform="translate(300.781 233)">1</text><path d="M338 223 394.039 223 394.039 225 338 225ZM392.706 217.333 406.039 224 392.706 230.667Z"/><path d="M406 224C406 207.431 419.431 194 436 194 452.569 194 466 207.431 466 224 466 240.569 452.569 254 436 254 419.431 254 406 240.569 406 224Z" stroke="#000000" stroke-width="2" stroke-miterlimit="8" fill="#FFFFFF" fill-rule="evenodd"/><text font-family="Consolas,Consolas_MSFontService,sans-serif" font-weight="400" font-size="24" transform="translate(429.299 233)">3<tspan font-size="24" x="-66.8174" y="-19">ε</tspan></text><path d="M277 345C277 328.431 290.655 315 307.5 315 324.345 315 338 328.431 338 345 338 361.569 324.345 375 307.5 375 290.655 375 277 361.569 277 345Z" stroke="#000000" stroke-width="2" stroke-miterlimit="8" fill="#FFFFFF" fill-rule="evenodd"/><text font-family="Consolas,Consolas_MSFontService,sans-serif" font-weight="400" font-size="24" transform="translate(300.781 353)">2</text><path d="M68 283 151.574 283 151.574 285 68 285ZM150.24 277.333 163.574 284 150.24 290.667Z"/><path d="M338 344 394.039 344 394.039 346 338 346ZM392.706 338.333 406.039 345 392.706 351.667Z"/><path d="M406 345C406 328.431 419.431 315 436 315 452.569 315 466 328.431 466 345 466 361.569 452.569 375 436 375 419.431 375 406 361.569 406 345Z" stroke="#000000" stroke-width="2" stroke-miterlimit="8" fill="#FFFFFF" fill-rule="evenodd"/><text font-family="Consolas,Consolas_MSFontService,sans-serif" font-weight="400" font-size="24" transform="translate(429.299 353)">4<tspan font-size="24" x="-66.8174" y="-18">a</tspan><tspan font-size="24" x="-361.396" y="-79">start</tspan></text><path d="M519 284.5C519 267.655 532.655 254 549.5 254 566.345 254 580 267.655 580 284.5 580 301.345 566.345 315 549.5 315 532.655 315 519 301.345 519 284.5Z" stroke="#000000" stroke-width="2" stroke-miterlimit="8" fill="#FFFFFF" fill-rule="evenodd"/><text font-family="Consolas,Consolas_MSFontService,sans-serif" font-weight="400" font-size="24" transform="translate(542.698 293)">5</text><path d="M466.535 223.155 518.171 255.834 517.102 257.524 465.465 224.845ZM520.075 250.333 527.776 263.097 512.945 261.6Z"/><text font-family="Consolas,Consolas_MSFontService,sans-serif" font-weight="400" font-size="24" transform="translate(488.557 229)">ε</text><path d="M0.534775-0.844995 52.1711 31.8343 51.1016 33.5243-0.534775 0.844995ZM54.0748 26.333 61.7763 39.0966 46.9445 37.5995Z" transform="matrix(1 0 0 -1 466 345.097)"/><text font-family="Consolas,Consolas_MSFontService,sans-serif" font-weight="400" font-size="24" transform="translate(491 350)">ε</text><path d="M164 284.5C164 267.655 177.431 254 194 254 210.569 254 224 267.655 224 284.5 224 301.345 210.569 315 194 315 177.431 315 164 301.345 164 284.5Z" stroke="#000000" stroke-width="2" stroke-miterlimit="8" fill="#FFFFFF" fill-rule="evenodd"/><text font-family="Consolas,Consolas_MSFontService,sans-serif" font-weight="400" font-size="24" transform="translate(187.383 293)">0</text><path d="M215.535 305.155 267.171 337.834 266.102 339.524 214.465 306.845ZM269.075 332.333 276.776 345.097 261.945 343.6Z"/><text font-family="Consolas,Consolas_MSFontService,sans-serif" font-weight="400" font-size="24" transform="translate(231.521 311)">ε</text><path d="M0.534775-0.844995 52.1711 31.8343 51.1016 33.5243-0.534775 0.844995ZM54.0748 26.333 61.7763 39.0966 46.9445 37.5995Z" transform="matrix(1 0 0 -1 215 263.097)"/><text font-family="Consolas,Consolas_MSFontService,sans-serif" font-weight="400" font-size="24" transform="translate(231.521 236)">ε</text><path d="M580 283 636.039 283 636.039 285 580 285ZM634.706 277.333 648.039 284 634.706 290.667Z"/><path d="M648 284.5C648 267.655 661.431 254 678 254 694.569 254 708 267.655 708 284.5 708 301.345 694.569 315 678 315 661.431 315 648 301.345 648 284.5Z" stroke="#000000" stroke-width="2" stroke-miterlimit="8" fill="#FFFFFF" fill-rule="evenodd"/><text font-family="Consolas,Consolas_MSFontService,sans-serif" font-weight="400" font-size="24" transform="translate(671.216 293)">6<tspan font-size="24" x="-66.8174" y="-19">ε</tspan></text><path d="M897 284.5C897 263.789 914.013 247 935 247 955.987 247 973 263.789 973 284.5 973 305.211 955.987 322 935 322 914.013 322 897 305.211 897 284.5Z" stroke="#000000" stroke-width="2" stroke-miterlimit="8" fill="#FFFFFF" fill-rule="evenodd"/><text font-family="Consolas,Consolas_MSFontService,sans-serif" font-weight="400" font-size="24" transform="translate(923.836 293)">q<tspan font-size="16" x="13.1667" y="5">3</tspan></text><path d="M837 283 885.479 283 885.479 285 837 285ZM884.146 277.333 897.479 284 884.146 290.667Z"/><path d="M905 284.5C905 267.655 918.431 254 935 254 951.569 254 965 267.655 965 284.5 965 301.345 951.569 315 935 315 918.431 315 905 301.345 905 284.5Z" stroke="#000000" stroke-width="2" stroke-miterlimit="8" fill="#FFFFFF" fill-rule="evenodd"/><text font-family="Consolas,Consolas_MSFontService,sans-serif" font-weight="400" font-size="24" transform="translate(928.253 293)">8<tspan font-size="24" x="-74.3773" y="-19">ε</tspan></text><path d="M708 283 764.039 283 764.039 285 708 285ZM762.706 277.333 776.039 284 762.706 290.667Z"/><path d="M776 284.5C776 267.655 789.655 254 806.5 254 823.345 254 837 267.655 837 284.5 837 301.345 823.345 315 806.5 315 789.655 315 776 301.345 776 284.5Z" stroke="#000000" stroke-width="2" stroke-miterlimit="8" fill="#FFFFFF" fill-rule="evenodd"/><text font-family="Consolas,Consolas_MSFontService,sans-serif" font-weight="400" font-size="24" transform="translate(799.734 293)">7</text><path d="M0.164399-0.986394 2.55141-0.588559 5.03309 0.583345 7.37722 2.45865 9.59365 4.93584 11.7154 7.89336 13.7601 11.4078 15.6655 15.4092 17.4364 19.773 19.0792 24.5119 20.5327 29.6309 22.9236 40.5159 24.4345 52.225 25.001 64.3099 24.4974 76.3951 23.0499 88.0383 20.7856 98.9826 19.3967 104.096 17.8803 108.835 16.1719 113.201 14.3758 117.178 11.454 121.482 9.79924 120.358 12.6726 116.126 12.5886 116.276 14.3386 112.401 14.3188 112.448 16.0063 108.136 15.9851 108.195 17.4851 103.508 17.4725 103.55 18.8475 98.4879 18.8332 98.5474 21.0832 87.6724 21.0701 87.7516 22.5076 76.1891 22.5009 76.2709 23.0009 64.2709 23.0011 64.3593 22.4386 52.3593 22.4457 52.4405 20.9457 40.8155 20.9608 40.902 18.5858 30.0895 18.6005 30.1482 17.163 25.0857 17.1802 25.14 15.5552 20.4525 15.5734 20.501 13.8234 16.1885 13.8471 16.2424 11.9721 12.3049 12.0107 12.3779 10.0107 8.94039 10.0625 9.02041 7.99996 6.14541 8.06726 6.22929 5.94226 3.8543 6.0628 3.96837 3.8753 2.21837 4.07299 2.34175 1.82299 1.27925 2.0856 1.36139-0.164399 0.986394ZM15.9004 125.211 1.375 128.562 7.40871 114.931Z" transform="matrix(-1.83697e-16 -1 -1 1.83697e-16 806.518 254.333)"/><text font-family="Consolas,Consolas_MSFontService,sans-serif" font-weight="400" font-size="24" transform="translate(732.917 221)">ε</text><path d="M0.164399-0.986394 1.85494-0.704637 3.53111 0.315638 5.17071 1.75029 6.69624 3.74011 8.24712 6.19568 9.72111 9.14365 11.1151 12.4386 12.5675 16.2273 13.9559 20.4557 15.2763 25.0458 16.594 30.0029 17.913 35.4042 20.3569 47.1224 22.6743 60.0876 24.803 74.2368 26.7433 89.321 28.433 105.279 29.8722 121.924 30.9985 139.194 31.812 156.842 32.5627 192.81 31.9997 228.776 31.3741 246.418 30.4984 263.62 29.4349 280.323 28.1211 296.213 26.6821 311.355 25.0548 325.437 23.3019 338.458 21.4227 350.172 20.419 355.504 19.416 360.456 18.4108 365.043 17.3409 369.259 16.2541 373.095 14.9828 375.895 13.1617 375.068 14.402 372.337 14.3504 372.477 15.4129 368.727 15.4057 368.754 16.4682 364.567 16.4607 364.598 17.4607 360.036 17.4574 360.051 18.4574 355.114 18.4548 355.128 19.4548 349.815 19.4501 349.842 21.3251 338.154 21.3214 338.179 23.0714 325.179 23.0691 325.198 24.6941 311.135 24.692 311.155 26.1295 296.03 26.1284 296.043 27.4409 280.168 27.4395 280.186 28.502 263.499 28.5013 263.512 29.3763 246.324 29.3756 246.34 30.0006 228.715 30.0001 228.734 30.5626 192.797 30.5627 192.833 29.8127 156.896 29.8136 156.921 29.0011 139.296 29.0021 139.315 27.8771 122.065 27.8787 122.086 26.4412 105.461 26.4431 105.48 24.7556 89.5428 24.7582 89.5651 22.8207 74.5026 22.8236 74.5238 20.6986 60.3988 20.7031 60.426 18.3906 47.4885 18.3961 47.5167 15.9586 35.8292 15.966 35.8622 14.6535 30.4872 14.6586 30.5069 13.3461 25.5694 13.3515 25.589 12.039 21.0265 12.0499 21.062 10.6749 16.8745 10.6913 16.9204 9.25375 13.1704 9.26653 13.2021 7.89153 9.95214 7.91807 10.0097 6.48057 7.13471 6.52951 7.22149 5.02951 4.84649 5.08139 4.92093 3.64389 3.04593 3.779 3.19008 2.279 1.87758 2.41755 1.9792 0.980053 1.1042 1.3356 1.23639-0.164399 0.986394ZM20.396 377.978 7.5625 385.562 9.19512 370.745Z" transform="matrix(1.83697e-16 1 1 -1.83697e-16 549 315)"/><text font-family="Consolas,Consolas_MSFontService,sans-serif" font-weight="400" font-size="24" transform="translate(730.474 365)">ε<tspan font-size="24" x="2.4433" y="-91">b</tspan></text></g></svg>