<svg width="408" height="370" xmlns="http://www.w3.org/2000/svg" xmlns:xlink="http://www.w3.org/1999/xlink" overflow="hidden"><defs><clipPath id="clip0"><rect x="7" y="183" width="408" height="370"/></clipPath></defs><g clip-path="url(#clip0)" transform="translate(-7 -183)"><text font-family="Consolas,Consolas_MSFontService,sans-serif" font-weight="400" font-size="24" transform="translate(22.5439 274)">start</text><path d="M0.0948091-0.995495 6.74026-0.362595 13.2083 1.36649 19.2893 4.05491 24.7356 7.57899 29.3604 11.7542 32.9866 16.4165 35.2606 21.4191 35.9283 24.0902 36.1278 26.75 35.9292 29.3979 35.3292 32.0647 33.1186 37.071 29.6233 41.7314 25.1902 45.9075 19.9735 49.4497 13.5138 52.0598 12.7645 50.2055 19.1254 47.6353 18.9382 47.7352 24.0007 44.2977 23.8768 44.3971 28.1893 40.3346 28.075 40.4625 31.45 35.9625 31.3352 36.1586 33.4602 31.3461 33.3994 31.5305 33.9619 29.0305 33.9403 29.1752 34.1278 26.6752 34.1278 26.8248 33.9403 24.3248 33.9674 24.4925 33.3424 21.9925 33.4021 22.1638 31.2146 17.3513 31.3356 17.5514 27.8356 13.0514 27.9549 13.1798 23.4549 9.11727 23.5817 9.21457 18.2692 5.77707 18.4081 5.8521 12.4706 3.2271 12.6167 3.27858 6.30424 1.59108 6.46769 1.6205-0.0948091 0.995495ZM15.7615 57.4053 1.375 53.5 13.1311 44.334Z" transform="matrix(-1.83697e-16 -1 -1 1.83697e-16 402.457 258.333)"/><path d="M23 283 99.0137 283 99.0137 285 23 285ZM97.6804 277.333 111.014 284 97.6804 290.667Z"/><path d="M186 283 325.198 283 325.198 285 186 285ZM323.865 277.333 337.198 284 323.865 290.667Z"/><text font-family="Consolas,Consolas_MSFontService,sans-serif" font-weight="400" font-size="24" transform="translate(249.084 274)">a</text><path d="M224 443C224 422.013 241.013 405 262 405 282.987 405 300 422.013 300 443 300 463.987 282.987 481 262 481 241.013 481 224 463.987 224 443Z" stroke="#000000" stroke-width="2" stroke-miterlimit="8" fill="#FFFFFF" fill-rule="evenodd"/><text font-family="Consolas,Consolas_MSFontService,sans-serif" font-weight="400" font-size="24" transform="translate(251.005 452)">q<tspan font-size="16" x="13.1667" y="5">3</tspan></text><path d="M232 443C232 426.431 245.431 413 262 413 278.569 413 292 426.431 292 443 292 459.569 278.569 473 262 473 245.431 473 232 459.569 232 443Z" stroke="#000000" stroke-width="2" stroke-miterlimit="8" fill="#FFFFFF" fill-rule="evenodd"/><text font-family="Consolas,Consolas_MSFontService,sans-serif" font-weight="400" font-size="24" transform="translate(255.422 452)">C</text><path d="M111 284.5C111 263.789 127.789 247 148.5 247 169.211 247 186 263.789 186 284.5 186 305.211 169.211 322 148.5 322 127.789 322 111 305.211 111 284.5Z" stroke="#000000" stroke-width="2" stroke-miterlimit="8" fill="#FFFFFF" fill-rule="evenodd"/><text font-family="Consolas,Consolas_MSFontService,sans-serif" font-weight="400" font-size="24" transform="translate(137.607 293)">q<tspan font-size="16" x="13.1667" y="5">3</tspan></text><path d="M118 284.5C118 267.655 131.655 254 148.5 254 165.345 254 179 267.655 179 284.5 179 301.345 165.345 315 148.5 315 131.655 315 118 301.345 118 284.5Z" stroke="#000000" stroke-width="2" stroke-miterlimit="8" fill="#FFFFFF" fill-rule="evenodd"/><text font-family="Consolas,Consolas_MSFontService,sans-serif" font-weight="400" font-size="24" transform="translate(142.023 293)">A</text><path d="M338 284.5C338 263.789 354.789 247 375.5 247 396.211 247 413 263.789 413 284.5 413 305.211 396.211 322 375.5 322 354.789 322 338 305.211 338 284.5Z" stroke="#000000" stroke-width="2" stroke-miterlimit="8" fill="#FFFFFF" fill-rule="evenodd"/><text font-family="Consolas,Consolas_MSFontService,sans-serif" font-weight="400" font-size="24" transform="translate(364.404 293)">q<tspan font-size="16" x="13.1667" y="5">3</tspan></text><path d="M345 284.5C345 267.655 358.655 254 375.5 254 392.345 254 406 267.655 406 284.5 406 301.345 392.345 315 375.5 315 358.655 315 345 301.345 345 284.5Z" stroke="#000000" stroke-width="2" stroke-miterlimit="8" fill="#FFFFFF" fill-rule="evenodd"/><text font-family="Consolas,Consolas_MSFontService,sans-serif" font-weight="400" font-size="24" transform="translate(368.82 293)">B</text><path d="M149.848 321.47 219.087 432.252 217.391 433.312 148.152 322.53ZM223.186 428.118 224.599 442.958 211.879 435.185Z"/><text font-family="Consolas,Consolas_MSFontService,sans-serif" font-weight="400" font-size="24" transform="translate(158.365 388)">b<tspan font-size="24" x="209.234" y="-174">a</tspan><tspan font-size="24" x="181.437" y="7">b</tspan></text><path d="M290.452 469.095 289.819 475.74 288.09 482.208 285.402 488.289 281.878 493.736 277.702 498.36 273.04 501.987 268.037 504.261 265.366 504.928 262.707 505.128 260.059 504.929 257.392 504.329 252.386 502.119 247.725 498.623 243.549 494.19 240.007 488.974 237.397 482.514 239.251 481.765 241.821 488.125 241.721 487.938 245.159 493.001 245.059 492.877 249.122 497.189 248.994 497.075 253.494 500.45 253.298 500.335 258.111 502.46 257.926 502.399 260.426 502.962 260.281 502.94 262.781 503.128 262.632 503.128 265.132 502.94 264.964 502.967 267.464 502.342 267.293 502.402 272.105 500.215 271.905 500.336 276.405 496.836 276.277 496.955 280.339 492.455 280.242 492.582 283.68 487.269 283.604 487.408 286.229 481.471 286.178 481.617 287.866 475.304 287.836 475.468 288.461 468.905ZM232.051 484.761 235.957 470.375 245.123 482.131Z"/><text font-family="Consolas,Consolas_MSFontService,sans-serif" font-weight="400" font-size="24" transform="translate(256.644 531)">b</text><path d="M0.736015-0.676966 79.2825 84.7209 77.8105 86.0748-0.736015 0.676966ZM82.5507 79.9034 86.6701 94.23 72.7372 88.9296Z" transform="matrix(1 0 0 -1 262 405.23)"/><path d="M0.736015-0.676966 79.2825 84.7209 77.8105 86.0748-0.736015 0.676966ZM82.5507 79.9034 86.6701 94.23 72.7372 88.9296Z" transform="matrix(-1 0 0 1 375.67 322)"/><text font-family="Consolas,Consolas_MSFontService,sans-serif" font-weight="400" font-size="24" transform="translate(286.883 358)">a</text></g></svg>