<svg width="1179" height="362" xmlns="http://www.w3.org/2000/svg" xmlns:xlink="http://www.w3.org/1999/xlink" overflow="hidden"><defs><clipPath id="clip0"><rect x="7" y="92" width="1179" height="362"/></clipPath></defs><g clip-path="url(#clip0)" transform="translate(-7 -92)"><path d="M353 224C353 207.431 366.431 194 383 194 399.569 194 413 207.431 413 224 413 240.569 399.569 254 383 254 366.431 254 353 240.569 353 224Z" stroke="#000000" stroke-width="2" stroke-miterlimit="8" fill="#FFFFFF" fill-rule="evenodd"/><text font-family="Consolas,Consolas_MSFontService,sans-serif" font-weight="400" font-size="24" transform="translate(376.38 233)">2</text><path d="M413 223 469.039 223 469.039 225 413 225ZM467.706 217.333 481.039 224 467.706 230.667Z"/><path d="M481 224C481 207.431 494.655 194 511.5 194 528.345 194 542 207.431 542 224 542 240.569 528.345 254 511.5 254 494.655 254 481 240.569 481 224Z" stroke="#000000" stroke-width="2" stroke-miterlimit="8" fill="#FFFFFF" fill-rule="evenodd"/><text font-family="Consolas,Consolas_MSFontService,sans-serif" font-weight="400" font-size="24" transform="translate(504.898 233)">4<tspan font-size="24" x="-66.8174" y="-19">ε</tspan></text><path d="M353 345C353 328.431 366.431 315 383 315 399.569 315 413 328.431 413 345 413 361.569 399.569 375 383 375 366.431 375 353 361.569 353 345Z" stroke="#000000" stroke-width="2" stroke-miterlimit="8" fill="#FFFFFF" fill-rule="evenodd"/><text font-family="Consolas,Consolas_MSFontService,sans-serif" font-weight="400" font-size="24" transform="translate(376.38 353)">3</text><path d="M413 344 469.039 344 469.039 346 413 346ZM467.706 338.333 481.039 345 467.706 351.667Z"/><path d="M481 345C481 328.431 494.655 315 511.5 315 528.345 315 542 328.431 542 345 542 361.569 528.345 375 511.5 375 494.655 375 481 361.569 481 345Z" stroke="#000000" stroke-width="2" stroke-miterlimit="8" fill="#FFFFFF" fill-rule="evenodd"/><text font-family="Consolas,Consolas_MSFontService,sans-serif" font-weight="400" font-size="24" transform="translate(504.898 353)">5<tspan font-size="24" x="-66.8174" y="-18">a</tspan></text><path d="M595 284.5C595 267.655 608.431 254 625 254 641.569 254 655 267.655 655 284.5 655 301.345 641.569 315 625 315 608.431 315 595 301.345 595 284.5Z" stroke="#000000" stroke-width="2" stroke-miterlimit="8" fill="#FFFFFF" fill-rule="evenodd"/><text font-family="Consolas,Consolas_MSFontService,sans-serif" font-weight="400" font-size="24" transform="translate(618.297 293)">6</text><path d="M542.535 223.155 594.171 255.834 593.102 257.524 541.465 224.845ZM596.075 250.333 603.776 263.097 588.945 261.6Z"/><text font-family="Consolas,Consolas_MSFontService,sans-serif" font-weight="400" font-size="24" transform="translate(564.156 229)">ε</text><path d="M0.534775-0.844995 52.1711 31.8343 51.1016 33.5243-0.534775 0.844995ZM54.0748 26.333 61.7763 39.0966 46.9445 37.5995Z" transform="matrix(1 0 0 -1 542 345.097)"/><text font-family="Consolas,Consolas_MSFontService,sans-serif" font-weight="400" font-size="24" transform="translate(566.599 350)">ε</text><path d="M239 284.5C239 267.655 252.655 254 269.5 254 286.345 254 300 267.655 300 284.5 300 301.345 286.345 315 269.5 315 252.655 315 239 301.345 239 284.5Z" stroke="#000000" stroke-width="2" stroke-miterlimit="8" fill="#FFFFFF" fill-rule="evenodd"/><text font-family="Consolas,Consolas_MSFontService,sans-serif" font-weight="400" font-size="24" transform="translate(262.982 293)">1</text><path d="M291.535 305.155 343.171 337.834 342.102 339.524 290.465 306.845ZM345.075 332.333 352.776 345.097 337.945 343.6Z"/><text font-family="Consolas,Consolas_MSFontService,sans-serif" font-weight="400" font-size="24" transform="translate(307.12 312)">ε</text><path d="M0.534775-0.844995 52.1711 31.8343 51.1016 33.5243-0.534775 0.844995ZM54.0748 26.333 61.7763 39.0966 46.9445 37.5995Z" transform="matrix(1 0 0 -1 291 263.097)"/><text font-family="Consolas,Consolas_MSFontService,sans-serif" font-weight="400" font-size="24" transform="translate(307.12 236)">ε</text><path d="M655 283 711.039 283 711.039 285 655 285ZM709.706 277.333 723.039 284 709.706 290.667Z"/><path d="M723 284.5C723 267.655 736.655 254 753.5 254 770.345 254 784 267.655 784 284.5 784 301.345 770.345 315 753.5 315 736.655 315 723 301.345 723 284.5Z" stroke="#000000" stroke-width="2" stroke-miterlimit="8" fill="#FFFFFF" fill-rule="evenodd"/><text font-family="Consolas,Consolas_MSFontService,sans-serif" font-weight="400" font-size="24" transform="translate(746.815 293)">7<tspan font-size="24" x="-66.8174" y="-19">ε</tspan></text><path d="M912 283 968.039 283 968.039 285 912 285ZM966.706 277.333 980.039 284 966.706 290.667Z"/><path d="M980 284.5C980 267.655 993.655 254 1010.5 254 1027.34 254 1041 267.655 1041 284.5 1041 301.345 1027.34 315 1010.5 315 993.655 315 980 301.345 980 284.5Z" stroke="#000000" stroke-width="2" stroke-miterlimit="8" fill="#FFFFFF" fill-rule="evenodd"/><text font-family="Consolas,Consolas_MSFontService,sans-serif" font-weight="400" font-size="24" transform="translate(1003.85 293)">9<tspan font-size="24" x="-66.8174" y="-19">ε</tspan></text><path d="M784 283 840.039 283 840.039 285 784 285ZM838.706 277.333 852.039 284 838.706 290.667Z"/><path d="M852 284.5C852 267.655 865.431 254 882 254 898.569 254 912 267.655 912 284.5 912 301.345 898.569 315 882 315 865.431 315 852 301.345 852 284.5Z" stroke="#000000" stroke-width="2" stroke-miterlimit="8" fill="#FFFFFF" fill-rule="evenodd"/><text font-family="Consolas,Consolas_MSFontService,sans-serif" font-weight="400" font-size="24" transform="translate(875.333 293)">8</text><path d="M0.164399-0.986394 2.55141-0.588559 5.03309 0.583345 7.37722 2.45865 9.59365 4.93584 11.7154 7.89336 13.7601 11.4078 15.6655 15.4092 17.4364 19.773 19.0792 24.5119 20.5327 29.6309 22.9236 40.5159 24.4345 52.225 25.001 64.3099 24.4974 76.3951 23.0499 88.0383 20.7856 98.9826 19.3967 104.096 17.8803 108.835 16.1719 113.201 14.3758 117.178 11.454 121.482 9.79924 120.358 12.6726 116.126 12.5886 116.276 14.3386 112.401 14.3188 112.448 16.0063 108.136 15.9851 108.195 17.4851 103.508 17.4725 103.55 18.8475 98.4879 18.8332 98.5474 21.0832 87.6724 21.0701 87.7516 22.5076 76.1891 22.5009 76.2709 23.0009 64.2709 23.0011 64.3593 22.4386 52.3593 22.4457 52.4405 20.9457 40.8155 20.9608 40.902 18.5858 30.0895 18.6005 30.1482 17.163 25.0857 17.1802 25.14 15.5552 20.4525 15.5734 20.501 13.8234 16.1885 13.8471 16.2424 11.9721 12.3049 12.0107 12.3779 10.0107 8.94039 10.0625 9.02041 7.99996 6.14541 8.06726 6.22929 5.94226 3.8543 6.0628 3.96837 3.8753 2.21837 4.07299 2.34175 1.82299 1.27925 2.0856 1.36139-0.164399 0.986394ZM15.9004 125.211 1.375 128.562 7.40871 114.931Z" transform="matrix(-1.83697e-16 -1 -1 1.83697e-16 882.518 254.333)"/><text font-family="Consolas,Consolas_MSFontService,sans-serif" font-weight="400" font-size="24" transform="translate(808.516 221)">ε</text><path d="M0.21693-0.976187 1.56144-0.677407 2.94359 0.397597 4.18912 1.85072 5.38834 3.84941 6.48505 6.3009 7.62913 9.22466 8.70669 12.5207 9.77839 16.3032 10.8483 20.5199 11.8535 25.1062 12.8567 30.0593 13.8604 35.4543 15.7393 47.1663 17.4923 60.1258 19.1196 74.2703 20.5586 89.349 21.8724 105.302 22.9359 121.943 23.8116 139.207 24.4372 156.849 25.0001 192.812 24.4998 228.775 23.8742 246.416 23.061 263.618 21.9976 280.319 20.8091 296.208 19.4327 311.348 17.9306 325.43 16.2404 338.451 14.487 350.161 13.5462 355.493 12.606 360.444 11.6638 365.029 10.6571 369.245 9.63413 373.081 8.49264 375.69 6.66036 374.888 7.77136 372.349 7.72126 372.492 8.72126 368.742 8.71485 368.768 9.71485 364.58 9.70796 364.611 10.6455 360.049 10.6426 360.063 11.5801 355.126 11.5777 355.139 12.5152 349.826 12.511 349.852 14.261 338.164 14.2583 338.184 15.9458 325.184 15.9431 325.206 17.4431 311.144 17.4416 311.159 18.8166 296.034 18.8153 296.05 20.0028 280.175 20.002 280.186 21.0645 263.499 21.0636 263.515 21.8761 246.328 21.8756 246.34 22.5006 228.715 22.5001 228.736 23.0001 192.799 23.0001 192.828 22.4376 156.891 22.4381 156.91 21.8131 139.285 21.8138 139.301 20.9388 122.051 20.9395 122.064 19.877 105.439 19.8784 105.457 18.5659 89.5196 18.567 89.5325 17.1295 74.47 17.1316 74.4893 15.5066 60.3643 15.509 60.384 13.759 47.4465 13.7626 47.4709 11.8876 35.7834 11.8919 35.8079 10.8919 30.4329 10.8949 30.4485 9.8949 25.511 9.89819 25.5266 8.89819 20.9641 8.90571 20.9959 7.84321 16.8084 7.85037 16.8351 6.78787 13.0851 6.7995 13.1232 5.737 9.87324 5.75626 9.9269 4.63126 7.0519 4.64968 7.09587 3.58718 4.72087 3.64251 4.827 2.51751 2.952 2.61574 3.08829 1.49074 1.77579 1.63606 1.91435 0.511059 1.03935 0.908069 1.22619-0.21693 0.976187ZM13.973 377.593 1.375 385.562 2.55816 370.702Z" transform="matrix(1.83697e-16 1 1 -1.83697e-16 626 314)"/><text font-family="Consolas,Consolas_MSFontService,sans-serif" font-weight="400" font-size="24" transform="translate(806.073 365)">ε<tspan font-size="24" x="2.4433" y="-91">b</tspan></text><path d="M0.0984209-0.995145 5.8719-0.424142 11.6601 1.1837 17.4184 3.87091 23.1493 7.50046 28.7973 12.1331 34.2959 17.6317 39.7802 23.9985 45.1942 31.2382 50.4744 39.2842 55.685 48.136 60.7671 57.6727 65.7219 67.9587 70.4846 78.9254 75.1823 90.5131 79.6926 102.666 84.0132 115.44 88.208 128.775 92.152 142.611 95.907 156.88 99.474 171.586 102.854 186.732 105.921 202.256 111.426 234.287 115.806 267.387 119.06 301.235 121.124 335.71 121.813 370.437 121.124 405.164 119.122 439.638 115.931 473.55 111.551 506.65 106.109 538.618 103.042 554.141 99.7249 569.285 96.2206 583.991 92.5275 598.325 88.5834 612.098 84.4514 625.433 80.1311 638.206 75.6851 650.417 71.1111 662.009 66.3475 672.915 61.4569 683.198 56.4376 692.734 51.2897 701.586 46.0724 709.632 40.7212 716.872 35.2979 723.241 29.8012 728.738 24.281 733.37 18.5879 737.016 13.4507 739.12 12.6928 737.269 17.7461 735.2 17.5857 735.283 23.1482 731.72 23.0447 731.796 28.4822 727.234 28.4179 727.293 33.8554 721.855 33.8011 721.914 39.1761 715.602 39.1333 715.656 44.4458 708.468 44.411 708.518 49.5985 700.518 49.5731 700.56 54.6981 691.747 54.6776 691.784 59.6776 682.284 59.6594 682.32 64.5344 672.07 64.5211 672.1 69.2711 661.225 69.2573 661.258 73.8198 649.695 73.8103 649.72 78.2478 637.533 78.2402 637.555 82.5527 624.805 82.5448 624.829 86.6698 611.517 86.6636 611.537 90.6011 597.787 90.5941 597.813 94.2816 583.5 94.2772 583.518 97.7772 568.831 97.7731 568.849 101.086 553.724 101.081 553.744 104.144 538.244 104.139 538.27 109.577 506.332 109.571 506.369 113.946 473.306 113.942 473.344 117.129 439.469 117.127 439.504 119.127 405.067 119.125 405.105 119.813 370.418 119.813 370.457 119.125 335.77 119.127 335.81 117.064 301.372 117.067 301.408 113.817 267.596 113.821 267.631 109.446 234.569 109.452 234.607 103.952 202.607 103.956 202.631 100.894 187.131 100.899 187.155 97.524 172.03 97.5282 172.048 93.9657 157.361 93.9704 157.379 90.2204 143.129 90.2258 143.149 86.2883 129.337 86.2961 129.363 82.1086 116.05 82.1152 116.07 77.8027 103.32 77.8125 103.348 73.3125 91.2229 73.3233 91.2507 68.6358 79.6882 68.6453 79.7108 63.8953 68.7733 63.9116 68.809 58.9741 58.559 58.9925 58.5953 53.93 49.0953 53.9507 49.1323 48.7632 40.3198 48.789 40.3612 43.539 32.3612 43.5742 32.4114 38.1992 25.2239 38.2423 25.2776 32.8048 18.9651 32.8554 19.0196 27.4179 13.5821 27.4908 13.6482 21.9283 9.08568 22.0274 9.15732 16.4024 5.59482 16.5146 5.65618 10.8896 3.03118 11.0449 3.08852 5.41986 1.52602 5.58908 1.55764-0.0984209 0.995145ZM15.8607 744.395 1.375 740.875 12.8821 731.398Z" transform="matrix(-1.83697e-16 -1 -1 1.83697e-16 1010.87 254.333)"/><text font-family="Consolas,Consolas_MSFontService,sans-serif" font-weight="400" font-size="24" transform="translate(634.638 123)">ε</text><path d="M15 283 98.5736 283 98.5736 285 15 285ZM97.2403 277.333 110.574 284 97.2403 290.667Z"/><text font-family="Consolas,Consolas_MSFontService,sans-serif" font-weight="400" font-size="24" transform="translate(22.5439 274)">start</text><path d="M111 284.5C111 267.655 124.431 254 141 254 157.569 254 171 267.655 171 284.5 171 301.345 157.569 315 141 315 124.431 315 111 301.345 111 284.5Z" stroke="#000000" stroke-width="2" stroke-miterlimit="8" fill="#FFFFFF" fill-rule="evenodd"/><text font-family="Consolas,Consolas_MSFontService,sans-serif" font-weight="400" font-size="24" transform="translate(134.464 293)">0</text><path d="M171 283 227.039 283 227.039 285 171 285ZM225.706 277.333 239.039 284 225.706 290.667Z"/><text font-family="Consolas,Consolas_MSFontService,sans-serif" font-weight="400" font-size="24" transform="translate(196.164 274)">ε</text><path d="M1109 284.5C1109 263.789 1125.79 247 1146.5 247 1167.21 247 1184 263.789 1184 284.5 1184 305.211 1167.21 322 1146.5 322 1125.79 322 1109 305.211 1109 284.5Z" stroke="#000000" stroke-width="2" stroke-miterlimit="8" fill="#FFFFFF" fill-rule="evenodd"/><text font-family="Consolas,Consolas_MSFontService,sans-serif" font-weight="400" font-size="24" transform="translate(1135.51 293)">q<tspan font-size="16" x="13.1667" y="5">3</tspan></text><path d="M1116 284.5C1116 267.655 1129.66 254 1146.5 254 1163.34 254 1177 267.655 1177 284.5 1177 301.345 1163.34 315 1146.5 315 1129.66 315 1116 301.345 1116 284.5Z" stroke="#000000" stroke-width="2" stroke-miterlimit="8" fill="#FFFFFF" fill-rule="evenodd"/><text font-family="Consolas,Consolas_MSFontService,sans-serif" font-weight="400" font-size="24" transform="translate(1133.35 293)">10<tspan font-size="24" x="-498.708" y="140">ε</tspan></text><path d="M0.164399-0.986394 4.80414-0.213105 9.4704 2.02145 14.1249 5.70627 18.5916 10.6835 23.0896 16.8919 27.4424 24.3989 31.7806 33.0125 36.0514 42.8102 40.1903 53.7218 44.3253 65.6883 48.3344 78.5927 52.216 92.5539 56.0336 107.386 59.726 123.094 63.2296 139.611 66.6697 156.937 69.985 174.952 73.1123 193.716 76.1143 213.104 78.9286 233.054 81.5552 253.629 83.9938 274.639 86.3075 296.15 88.3714 318.04 91.8104 362.934 94.374 408.955 95.9998 455.664 96.5626 502.749 96.0623 549.834 94.5617 596.542 92.1857 642.561 88.997 687.453 87.1208 709.342 84.9947 730.852 82.7437 751.862 80.305 772.435 77.741 792.384 74.9891 811.773 72.0497 830.534 69.0475 848.548 65.8573 865.875 62.6045 882.389 59.2255 898.095 55.7206 912.928 52.0903 926.886 48.4579 939.788 44.6358 951.755 40.8119 962.663 36.9184 972.459 32.8941 981.074 28.8605 988.574 24.8034 994.786 20.5334 999.832 18.7726 1000.9 17.7334 999.195 19.3554 998.208 19.1116 998.416 23.2366 993.541 23.1627 993.641 27.1627 987.516 27.1193 987.589 31.1193 980.151 31.094 980.202 35.094 971.639 35.0707 971.693 38.9457 961.943 38.9313 961.982 42.7438 951.107 42.7349 951.133 46.5474 939.196 46.5374 939.229 50.1624 926.354 50.1572 926.373 53.7822 912.436 53.7768 912.458 57.2768 897.645 57.2724 897.665 60.6474 881.977 60.6438 881.994 63.8938 865.494 63.8915 865.506 67.079 848.194 67.0761 848.211 70.0761 830.211 70.0746 830.22 73.0121 811.47 73.0099 811.484 75.7599 792.109 75.7582 792.122 78.3207 772.185 78.3195 772.195 80.757 751.632 80.7557 751.643 83.0057 730.643 83.0048 730.652 85.1298 709.152 85.1287 709.165 87.0037 687.29 87.0025 687.304 90.19 642.429 90.1888 642.448 92.5638 596.448 92.563 596.468 94.063 549.78 94.0626 549.802 94.5626 502.739 94.5626 502.762 94.0001 455.699 94.0006 455.722 92.3756 409.035 92.3765 409.056 89.814 363.056 89.8154 363.076 86.3779 318.201 86.3794 318.219 84.3169 296.344 84.3182 296.357 82.0057 274.857 82.0067 274.865 79.5692 253.865 79.5705 253.877 76.9455 233.314 76.9473 233.327 74.1348 213.39 74.1368 213.403 71.1368 194.028 71.1386 194.039 68.0136 175.289 68.0165 175.306 64.704 157.306 64.7066 157.32 61.2691 140.007 61.2718 140.02 57.7718 123.52 57.7765 123.541 54.089 107.854 54.0941 107.874 50.2816 93.0618 50.2865 93.0804 46.4115 79.1429 46.42 79.1717 42.42 66.2967 42.4298 66.3266 38.3048 54.3891 38.315 54.4172 34.19 43.5422 34.2083 43.5871 29.9583 33.8371 29.9819 33.8873 25.6694 25.3248 25.6974 25.3766 21.3849 17.9391 21.4402 18.0242 17.0027 11.8992 17.0683 11.9804 12.6933 7.10541 12.8168 7.22155 8.3168 3.65905 8.5056 3.77692 4.06809 1.65192 4.3356 1.73639-0.164399 0.986394ZM22.4692 1005.38 7.5625 1005.5 16.4125 993.504Z" transform="matrix(1.83697e-16 1 1 -1.83697e-16 141 315)"/><path d="M1041 283 1097.04 283 1097.04 285 1041 285ZM1095.71 277.333 1109.04 284 1095.71 290.667Z"/><text font-family="Consolas,Consolas_MSFontService,sans-serif" font-weight="400" font-size="24" transform="translate(1065.55 274)">ε</text></g></svg>