<svg width="794" height="339" xmlns="http://www.w3.org/2000/svg" xmlns:xlink="http://www.w3.org/1999/xlink" overflow="hidden"><defs><clipPath id="clip0"><rect x="7" y="107" width="794" height="339"/></clipPath></defs><g clip-path="url(#clip0)" transform="translate(-7 -107)"><path d="M353 224C353 207.431 366.431 194 383 194 399.569 194 413 207.431 413 224 413 240.569 399.569 254 383 254 366.431 254 353 240.569 353 224Z" stroke="#000000" stroke-width="2" stroke-miterlimit="8" fill="#FFFFFF" fill-rule="evenodd"/><text font-family="Consolas,Consolas_MSFontService,sans-serif" font-weight="400" font-size="24" transform="translate(376.38 233)">2</text><path d="M413 223 469.039 223 469.039 225 413 225ZM467.706 217.333 481.039 224 467.706 230.667Z"/><path d="M481 224C481 207.431 494.655 194 511.5 194 528.345 194 542 207.431 542 224 542 240.569 528.345 254 511.5 254 494.655 254 481 240.569 481 224Z" stroke="#000000" stroke-width="2" stroke-miterlimit="8" fill="#FFFFFF" fill-rule="evenodd"/><text font-family="Consolas,Consolas_MSFontService,sans-serif" font-weight="400" font-size="24" transform="translate(504.898 233)">4<tspan font-size="24" x="-66.8174" y="-19">a</tspan></text><path d="M353 345C353 328.431 366.431 315 383 315 399.569 315 413 328.431 413 345 413 361.569 399.569 375 383 375 366.431 375 353 361.569 353 345Z" stroke="#000000" stroke-width="2" stroke-miterlimit="8" fill="#FFFFFF" fill-rule="evenodd"/><text font-family="Consolas,Consolas_MSFontService,sans-serif" font-weight="400" font-size="24" transform="translate(376.38 353)">3</text><path d="M413 344 469.039 344 469.039 346 413 346ZM467.706 338.333 481.039 345 467.706 351.667Z"/><path d="M481 345C481 328.431 494.655 315 511.5 315 528.345 315 542 328.431 542 345 542 361.569 528.345 375 511.5 375 494.655 375 481 361.569 481 345Z" stroke="#000000" stroke-width="2" stroke-miterlimit="8" fill="#FFFFFF" fill-rule="evenodd"/><text font-family="Consolas,Consolas_MSFontService,sans-serif" font-weight="400" font-size="24" transform="translate(504.898 353)">5<tspan font-size="24" x="-66.8174" y="-18">b</tspan></text><path d="M595 284.5C595 267.655 608.431 254 625 254 641.569 254 655 267.655 655 284.5 655 301.345 641.569 315 625 315 608.431 315 595 301.345 595 284.5Z" stroke="#000000" stroke-width="2" stroke-miterlimit="8" fill="#FFFFFF" fill-rule="evenodd"/><text font-family="Consolas,Consolas_MSFontService,sans-serif" font-weight="400" font-size="24" transform="translate(618.297 293)">6</text><path d="M542.535 223.155 594.171 255.834 593.102 257.524 541.465 224.845ZM596.075 250.333 603.776 263.097 588.945 261.6Z"/><text font-family="Consolas,Consolas_MSFontService,sans-serif" font-weight="400" font-size="24" transform="translate(564.156 229)">ε</text><path d="M0.534775-0.844995 52.1711 31.8343 51.1016 33.5243-0.534775 0.844995ZM54.0748 26.333 61.7763 39.0966 46.9445 37.5995Z" transform="matrix(1 0 0 -1 542 345.097)"/><text font-family="Consolas,Consolas_MSFontService,sans-serif" font-weight="400" font-size="24" transform="translate(566.599 350)">ε</text><path d="M239 284.5C239 267.655 252.655 254 269.5 254 286.345 254 300 267.655 300 284.5 300 301.345 286.345 315 269.5 315 252.655 315 239 301.345 239 284.5Z" stroke="#000000" stroke-width="2" stroke-miterlimit="8" fill="#FFFFFF" fill-rule="evenodd"/><text font-family="Consolas,Consolas_MSFontService,sans-serif" font-weight="400" font-size="24" transform="translate(262.982 293)">1</text><path d="M291.535 305.155 343.171 337.834 342.102 339.524 290.465 306.845ZM345.075 332.333 352.776 345.097 337.945 343.6Z"/><text font-family="Consolas,Consolas_MSFontService,sans-serif" font-weight="400" font-size="24" transform="translate(302.003 341)">ε</text><path d="M0.534775-0.844995 52.1711 31.8343 51.1016 33.5243-0.534775 0.844995ZM54.0748 26.333 61.7763 39.0966 46.9445 37.5995Z" transform="matrix(1 0 0 -1 291 263.097)"/><text font-family="Consolas,Consolas_MSFontService,sans-serif" font-weight="400" font-size="24" transform="translate(302.003 243)">ε</text><path d="M655 283 711.039 283 711.039 285 655 285ZM709.706 277.333 723.039 284 709.706 290.667Z"/><text font-family="Consolas,Consolas_MSFontService,sans-serif" font-weight="400" font-size="24" transform="translate(679.998 274)">ε</text><path d="M0.0505681-0.998721 5.03812-0.746186 10.0733 0.0186456 15.1048 1.29246 20.0617 3.07184 25.0073 5.29103 29.8819 7.94992 34.6884 10.9856 39.4326 14.4647 44.0396 18.3775 48.5844 22.6067 57.391 32.1681 65.693 42.9859 73.4851 55.051 80.5813 68.0503 87.0469 82.0486 92.6948 96.796 97.5268 112.17 101.354 128.108 104.241 144.422 105.998 160.991 106.626 177.687 105.998 194.382 104.304 210.949 101.48 227.265 97.6522 243.203 92.8835 258.576 87.2987 273.322 80.9588 287.257 73.9259 300.318 66.2588 312.385 58.0194 323.203 49.3394 332.763 44.8548 336.995 40.2501 340.906 35.6337 344.384 30.8869 347.422 26.0744 350.082 21.1908 352.301 16.2713 354.09 13.4523 354.659 13.0568 352.699 15.8022 352.145 15.6583 352.185 20.4708 350.435 20.3987 350.465 25.2112 348.277 25.1413 348.312 29.8913 345.687 29.8359 345.72 34.5234 342.72 34.4608 342.764 39.0233 339.326 38.9777 339.363 43.5402 335.488 43.5012 335.523 47.9387 331.335 47.8846 331.39 56.5096 321.89 56.4545 321.957 64.642 311.207 64.5935 311.276 72.2185 299.276 72.182 299.338 79.182 286.338 79.1523 286.398 85.4648 272.523 85.4398 272.583 91.0023 257.896 90.9824 257.954 95.7324 242.641 95.7151 242.704 99.5276 226.829 99.5146 226.892 102.327 210.642 102.318 210.711 104.005 194.211 104.001 194.275 104.626 177.65 104.626 177.725 104.001 161.1 104.006 161.168 102.256 144.668 102.265 144.737 99.3903 128.487 99.4026 128.546 95.5901 112.671 95.6085 112.737 90.796 97.4248 90.8161 97.4826 85.1911 82.7951 85.2172 82.8568 78.7797 68.9193 78.8098 68.9791 71.7473 56.0416 71.785 56.105 64.035 44.105 64.0817 44.1713 55.8317 33.4213 55.8895 33.49 47.1395 23.99 47.1938 24.0446 42.6938 19.8571 42.7277 19.8872 38.1652 16.0122 38.2211 16.0564 33.5336 12.6189 33.591 12.658 28.841 9.65799 28.8961 9.6904 24.0836 7.0654 24.1531 7.09986 19.2781 4.91236 19.3496 4.94119 14.4746 3.19119 14.5671 3.21942 9.62958 1.96942 9.72482 1.98866 4.78732 1.23866 4.88693 1.24872-0.0505681 0.998721ZM15.5167 360.09 1.375 355.375 13.6322 346.891Z" transform="matrix(-1.83697e-16 -1 -1 1.83697e-16 625.315 254.333)"/><text font-family="Consolas,Consolas_MSFontService,sans-serif" font-weight="400" font-size="24" transform="translate(443.198 138)">ε</text><path d="M15 283 98.5736 283 98.5736 285 15 285ZM97.2403 277.333 110.574 284 97.2403 290.667Z"/><text font-family="Consolas,Consolas_MSFontService,sans-serif" font-weight="400" font-size="24" transform="translate(22.5439 274)">start</text><path d="M111 284.5C111 267.655 124.431 254 141 254 157.569 254 171 267.655 171 284.5 171 301.345 157.569 315 141 315 124.431 315 111 301.345 111 284.5Z" stroke="#000000" stroke-width="2" stroke-miterlimit="8" fill="#FFFFFF" fill-rule="evenodd"/><text font-family="Consolas,Consolas_MSFontService,sans-serif" font-weight="400" font-size="24" transform="translate(134.464 293)">0</text><path d="M171 283 227.039 283 227.039 285 171 285ZM225.706 277.333 239.039 284 225.706 290.667Z"/><text font-family="Consolas,Consolas_MSFontService,sans-serif" font-weight="400" font-size="24" transform="translate(196.164 274)">ε</text><path d="M723 284.5C723 263.789 740.013 247 761 247 781.987 247 799 263.789 799 284.5 799 305.211 781.987 322 761 322 740.013 322 723 305.211 723 284.5Z" stroke="#000000" stroke-width="2" stroke-miterlimit="8" fill="#FFFFFF" fill-rule="evenodd"/><text font-family="Consolas,Consolas_MSFontService,sans-serif" font-weight="400" font-size="24" transform="translate(749.958 293)">q<tspan font-size="16" x="13.1667" y="5">3</tspan></text><path d="M731 284.5C731 267.655 744.431 254 761 254 777.569 254 791 267.655 791 284.5 791 301.345 777.569 315 761 315 744.431 315 731 301.345 731 284.5Z" stroke="#000000" stroke-width="2" stroke-miterlimit="8" fill="#FFFFFF" fill-rule="evenodd"/><text font-family="Consolas,Consolas_MSFontService,sans-serif" font-weight="400" font-size="24" transform="translate(754.375 293)">7<tspan font-size="24" x="-308.734" y="132">ε</tspan></text><path d="M0.110432-0.993884 4.15322-0.544685 8.2794 0.830707 12.3612 3.09836 16.4063 6.18036 20.3611 10.0714 24.2285 14.6995 28.0811 20.0679 31.8625 26.1182 35.5762 32.8533 39.1566 40.2652 42.733 48.2338 46.1847 56.8315 49.5067 66.0454 52.7635 75.6907 55.9588 85.903 58.9649 96.6122 61.9075 107.757 64.6623 119.339 67.2909 131.293 69.7951 143.626 74.3002 169.28 78.1172 196.062 81.1831 223.718 83.4355 252.123 84.8746 280.966 85.3751 309.999 84.9372 339.03 83.6233 367.872 81.5588 396.212 78.7435 423.927 75.3023 450.706 71.1731 476.295 68.9199 488.624 66.5412 500.643 63.9747 512.161 61.346 523.302 58.5906 534.01 55.7095 544.219 52.7652 553.867 49.6942 563.08 46.5589 571.67 43.358 579.641 40.0279 587.055 36.6326 593.783 33.2314 599.83 29.7553 605.202 26.2013 609.835 22.5309 613.763 19.1711 616.066 18.0401 614.417 21.3095 612.175 21.1443 612.317 24.7068 608.505 24.6441 608.579 28.1441 604.016 28.0979 604.082 31.5354 598.769 31.5034 598.822 34.8784 592.822 34.8572 592.862 38.2322 586.174 38.2128 586.215 41.5253 578.84 41.5095 578.877 44.697 570.94 44.6856 570.97 47.8106 562.407 47.8013 562.434 50.8638 553.246 50.8561 553.271 53.7936 543.646 53.7876 543.666 56.6626 533.478 56.6565 533.501 59.4065 522.813 59.4017 522.833 62.0267 511.708 62.0239 511.72 64.5864 500.22 64.5815 500.243 66.9565 488.243 66.9538 488.258 69.2038 475.945 69.2003 475.966 73.3253 450.403 73.3207 450.435 76.7582 423.685 76.7551 423.711 79.5676 396.024 79.5651 396.052 81.6276 367.74 81.626 367.767 82.9385 338.954 82.9376 338.985 83.3751 309.985 83.3751 310.017 82.8751 281.017 82.8762 281.05 81.4387 252.237 81.4406 252.267 79.1906 223.892 79.1936 223.923 76.1311 196.298 76.135 196.329 72.3225 169.579 72.3276 169.61 67.8276 143.985 67.8325 144.011 65.3325 131.699 65.3358 131.715 62.7108 119.777 62.7146 119.794 59.9646 108.231 59.9706 108.255 57.0331 97.1303 57.0372 97.1453 54.0372 86.4578 54.0456 86.4861 50.8581 76.2986 50.8651 76.3199 47.6151 66.6949 47.6218 66.7142 44.3093 57.5267 44.322 57.5601 40.8845 48.9976 40.9002 49.0345 37.3377 41.097 37.3495 41.1225 33.787 33.7475 33.8118 33.7954 30.1243 27.1079 30.152 27.155 26.402 21.155 26.4376 21.208 22.6251 15.8955 22.6701 15.9537 18.8576 11.3912 18.9237 11.4628 15.0487 7.65033 15.144 7.73293 11.2065 4.73293 11.3269 4.81166 7.38936 2.62416 7.55877 2.69868 3.62127 1.38618 3.82707 1.43138-0.110432 0.993884ZM22.4414 620.855 7.5625 619.937 17.2238 608.585Z" transform="matrix(1.83697e-16 1 1 -1.83697e-16 141 315)"/></g></svg>