<svg width="327" height="80" xmlns="http://www.w3.org/2000/svg" xmlns:xlink="http://www.w3.org/1999/xlink" overflow="hidden"><defs><clipPath id="clip0"><rect x="118" y="191" width="327" height="80"/></clipPath></defs><g clip-path="url(#clip0)" transform="translate(-118 -191)"><path d="M368 231.5C368 210.789 384.789 194 405.5 194 426.211 194 443 210.789 443 231.5 443 252.211 426.211 269 405.5 269 384.789 269 368 252.211 368 231.5Z" stroke="#000000" stroke-width="2" stroke-miterlimit="8" fill="#FFFFFF" fill-rule="evenodd"/><text font-family="Consolas,Consolas_MSFontService,sans-serif" font-weight="400" font-size="24" transform="translate(394.643 240)">q<tspan font-size="16" x="13.1667" y="5">3</tspan></text><path d="M224 231.5C224 214.655 237.655 201 254.5 201 271.345 201 285 214.655 285 231.5 285 248.345 271.345 262 254.5 262 237.655 262 224 248.345 224 231.5Z" stroke="#000000" stroke-width="2" stroke-miterlimit="8" fill="#FFFFFF" fill-rule="evenodd"/><text font-family="Consolas,Consolas_MSFontService,sans-serif" font-weight="400" font-size="24" transform="translate(247.862 240)">0</text><path d="M133 230 211.719 230 211.719 232 133 232ZM210.385 224.333 223.719 231 210.385 237.667Z"/><path d="M285 230 356.159 230 356.159 232 285 232ZM354.826 224.333 368.159 231 354.826 237.667Z"/><path d="M375 231.5C375 214.655 388.655 201 405.5 201 422.345 201 436 214.655 436 231.5 436 248.345 422.345 262 405.5 262 388.655 262 375 248.345 375 231.5Z" stroke="#000000" stroke-width="2" stroke-miterlimit="8" fill="#FFFFFF" fill-rule="evenodd"/><text font-family="Consolas,Consolas_MSFontService,sans-serif" font-weight="400" font-size="24" transform="translate(399.06 240)">1<tspan font-size="24" x="-84.3803" y="-19">b</tspan><tspan font-size="24" x="-265.823" y="-19">start</tspan></text></g></svg>