<svg width="630" height="196" xmlns="http://www.w3.org/2000/svg" xmlns:xlink="http://www.w3.org/1999/xlink" overflow="hidden"><defs><clipPath id="clip0"><rect x="118" y="115" width="630" height="196"/></clipPath></defs><g clip-path="url(#clip0)" transform="translate(-118 -115)"><path d="M224 209C224 192.431 237.655 179 254.5 179 271.345 179 285 192.431 285 209 285 225.569 271.345 239 254.5 239 237.655 239 224 225.569 224 209Z" stroke="#000000" stroke-width="2" stroke-miterlimit="8" fill="#FFFFFF" fill-rule="evenodd"/><text font-family="Consolas,Consolas_MSFontService,sans-serif" font-weight="400" font-size="24" transform="translate(247.862 217)">0</text><path d="M133 208 211.719 208 211.719 210 133 210ZM210.385 202.333 223.719 209 210.385 215.667Z"/><path d="M285 208 363.719 208 363.719 210 285 210ZM362.385 202.333 375.719 209 362.385 215.667Z"/><path d="M375 209C375 192.431 388.655 179 405.5 179 422.345 179 436 192.431 436 209 436 225.569 422.345 239 405.5 239 388.655 239 375 225.569 375 209Z" stroke="#000000" stroke-width="2" stroke-miterlimit="8" fill="#FFFFFF" fill-rule="evenodd"/><text font-family="Consolas,Consolas_MSFontService,sans-serif" font-weight="400" font-size="24" transform="translate(399.06 217)">1<tspan font-size="24" x="-84.3803" y="-18">ε</tspan><tspan font-size="24" x="-265.823" y="-18">start</tspan></text><path d="M670 209C670 188.013 687.013 171 708 171 728.987 171 746 188.013 746 209 746 229.987 728.987 247 708 247 687.013 247 670 229.987 670 209Z" stroke="#000000" stroke-width="2" stroke-miterlimit="8" fill="#FFFFFF" fill-rule="evenodd"/><text font-family="Consolas,Consolas_MSFontService,sans-serif" font-weight="400" font-size="24" transform="translate(697.039 217)">q<tspan font-size="16" x="13.1667" y="5">3</tspan></text><path d="M587 208 658.159 208 658.159 210 587 210ZM656.826 202.333 670.159 209 656.826 215.667Z"/><path d="M678 209C678 192.431 691.431 179 708 179 724.569 179 738 192.431 738 209 738 225.569 724.569 239 708 239 691.431 239 678 225.569 678 209Z" stroke="#000000" stroke-width="2" stroke-miterlimit="8" fill="#FFFFFF" fill-rule="evenodd"/><text font-family="Consolas,Consolas_MSFontService,sans-serif" font-weight="400" font-size="24" transform="translate(701.456 217)">3<tspan font-size="24" x="-84.3802" y="-18">ε</tspan></text><path d="M436 208 514.719 208 514.719 210 436 210ZM513.385 202.333 526.719 209 513.385 215.667Z"/><path d="M527 209C527 192.431 540.431 179 557 179 573.569 179 587 192.431 587 209 587 225.569 573.569 239 557 239 540.431 239 527 225.569 527 209Z" stroke="#000000" stroke-width="2" stroke-miterlimit="8" fill="#FFFFFF" fill-rule="evenodd"/><text font-family="Consolas,Consolas_MSFontService,sans-serif" font-weight="400" font-size="24" transform="translate(550.258 217)">2</text><path d="M0.19087-0.981615 2.59679-0.513797 5.095 0.874094 7.43071 3.07634 9.63974 5.93508 11.7523 9.45593 13.787 13.5254 15.6866 18.2111 17.4531 23.3213 19.0911 28.9283 20.5406 34.8524 22.9275 47.729 24.4353 61.4253 25.0007 75.6228 24.4981 89.8202 23.0534 103.514 20.7926 116.388 19.4074 122.307 17.8954 127.914 16.1924 133.023 14.4217 137.702 12.4766 141.852 10.9348 143.717 9.39329 142.443 10.8543 140.675 10.7195 140.888 12.5945 136.888 12.5647 136.959 14.3147 132.334 14.3013 132.371 15.9888 127.309 15.972 127.365 17.472 121.802 17.4638 121.835 18.8388 115.96 18.8276 116.015 21.0776 103.202 21.068 103.27 22.5055 89.6451 22.5006 89.7146 23.0006 75.5896 23.0008 75.6648 22.4383 61.5398 22.4435 61.6094 20.9435 47.9844 20.9543 48.0573 18.5793 35.2448 18.5912 35.3002 17.1537 29.4252 17.1651 29.4679 15.5401 23.9054 15.5549 23.9517 13.8049 18.8892 13.8233 18.9382 11.9483 14.3132 11.9806 14.3847 9.98057 10.3847 10.0175 10.452 7.95501 7.0145 8.02121 7.11145 5.89621 4.36145 6.00149 4.47759 3.81399 2.41509 4.01436 2.56166 1.76436 1.31166 2.05913 1.41912-0.19087 0.981615ZM15.6796 147.055 1.375 151.25 6.60156 137.289Z" transform="matrix(-1.83697e-16 -1 -1 1.83697e-16 557.198 179.333)"/><text font-family="Consolas,Consolas_MSFontService,sans-serif" font-weight="400" font-size="24" transform="translate(475.88 146)">ε</text><path d="M0.203954-0.97898 1.90363-0.624881 3.5901 0.548316 5.22714 2.25356 6.73633 4.61577 8.27444 7.43564 9.74447 10.8231 11.1346 14.8041 12.5817 19.2081 13.9673 24.1206 15.2863 29.5224 16.6023 35.4132 17.9184 41.6804 19.1721 48.3877 20.3625 55.4671 22.6779 70.7366 24.8056 87.3823 26.7451 105.151 28.4342 123.856 29.873 143.498 30.9989 163.703 31.8122 184.472 32.5626 226.81 31.9998 269.147 31.3743 289.912 30.4988 310.174 29.4356 329.749 28.1222 348.513 26.6835 366.277 25.0569 382.856 23.305 398.123 22.3658 405.198 21.4266 411.898 20.4241 418.225 19.4219 424.051 18.4178 429.448 17.3499 434.348 16.2731 438.845 14.5988 443.618 12.7115 442.956 14.3689 438.231 14.34 438.33 15.4025 433.892 15.3979 433.912 16.4604 429.037 16.4544 429.067 17.4544 423.692 17.452 423.705 18.452 417.893 18.4498 417.906 19.4498 411.594 19.4472 411.611 20.3847 404.924 20.3837 404.931 21.3212 397.868 21.319 397.886 23.069 382.636 23.0673 382.652 24.6923 366.09 24.6908 366.107 26.1283 348.357 26.1274 348.368 27.4399 329.618 27.439 329.633 28.5015 310.071 28.5009 310.082 29.3759 289.832 29.3755 289.845 30.0005 269.095 30.0001 269.112 30.5626 226.799 30.5627 226.83 29.8127 184.518 29.8133 184.539 29.0008 163.789 29.0015 163.806 27.8765 143.618 27.8777 143.636 26.4402 124.011 26.4416 124.027 24.7541 105.34 24.7559 105.359 22.8184 87.6085 22.8206 87.6268 20.6956 71.0018 20.6988 71.0249 18.3863 55.7749 18.3888 55.7908 17.2013 48.7283 17.2045 48.7462 15.9545 42.0587 15.9588 42.0805 14.6463 35.8305 14.6491 35.843 13.3366 29.968 13.341 29.9872 12.0285 24.6122 12.0375 24.6465 10.6625 19.7715 10.675 19.8122 9.23747 15.4372 9.24341 15.4547 7.86841 11.5172 7.89515 11.5856 6.45765 8.27309 6.4971 8.35385 4.9971 5.60385 5.0323 5.66339 3.5948 3.41339 3.71611 3.56753 2.21611 2.00503 2.36644 2.1334 0.928936 1.13341 1.29605 1.29148-0.203954 0.97898ZM20.0756 445.523 7.5625 453.625 8.58862 438.753Z" transform="matrix(1.83697e-16 1 1 -1.83697e-16 254 239)"/><text font-family="Consolas,Consolas_MSFontService,sans-serif" font-weight="400" font-size="24" transform="translate(468.321 290)">ε<tspan font-size="24" x="0" y="-91">b</tspan></text></g></svg>