<svg width="463" height="204" xmlns="http://www.w3.org/2000/svg" xmlns:xlink="http://www.w3.org/1999/xlink" overflow="hidden"><defs><clipPath id="clip0"><rect x="118" y="129" width="463" height="204"/></clipPath></defs><g clip-path="url(#clip0)" transform="translate(-118 -129)"><path d="M504 231.5C504 210.789 521.013 194 542 194 562.987 194 580 210.789 580 231.5 580 252.211 562.987 269 542 269 521.013 269 504 252.211 504 231.5Z" stroke="#000000" stroke-width="2" stroke-miterlimit="8" fill="#FFFFFF" fill-rule="evenodd"/><text font-family="Consolas,Consolas_MSFontService,sans-serif" font-weight="400" font-size="24" transform="translate(530.721 240)">q<tspan font-size="16" x="13.1667" y="5">3</tspan></text><path d="M360 231.5C360 210.789 377.013 194 398 194 418.987 194 436 210.789 436 231.5 436 252.211 418.987 269 398 269 377.013 269 360 252.211 360 231.5Z" stroke="#000000" stroke-width="2" stroke-miterlimit="8" fill="#FFFFFF" fill-rule="evenodd"/><text font-family="Consolas,Consolas_MSFontService,sans-serif" font-weight="400" font-size="24" transform="translate(387.083 240)">q<tspan font-size="16" x="13.1667" y="5">2</tspan></text><path d="M217 231.5C217 210.789 233.789 194 254.5 194 275.211 194 292 210.789 292 231.5 292 252.211 275.211 269 254.5 269 233.789 269 217 252.211 217 231.5Z" stroke="#000000" stroke-width="2" stroke-miterlimit="8" fill="#FFFFFF" fill-rule="evenodd"/><text font-family="Consolas,Consolas_MSFontService,sans-serif" font-weight="400" font-size="24" transform="translate(243.445 240)">q<tspan font-size="16" x="13.1667" y="5">1</tspan></text><path d="M224 231.5C224 214.655 237.655 201 254.5 201 271.345 201 285 214.655 285 231.5 285 248.345 271.345 262 254.5 262 237.655 262 224 248.345 224 231.5Z" stroke="#000000" stroke-width="2" stroke-miterlimit="8" fill="#FFFFFF" fill-rule="evenodd"/><text font-family="Consolas,Consolas_MSFontService,sans-serif" font-weight="400" font-size="24" transform="translate(243.445 240)">q<tspan font-size="16" x="13.1667" y="5">1</tspan></text><path d="M133 230 204.159 230 204.159 232 133 232ZM202.826 224.333 216.159 231 202.826 237.667Z"/><path d="M368 231.5C368 214.655 381.431 201 398 201 414.569 201 428 214.655 428 231.5 428 248.345 414.569 262 398 262 381.431 262 368 248.345 368 231.5Z" stroke="#000000" stroke-width="2" stroke-miterlimit="8" fill="#FFFFFF" fill-rule="evenodd"/><text font-family="Consolas,Consolas_MSFontService,sans-serif" font-weight="400" font-size="24" transform="translate(387.083 240)">q<tspan font-size="16" x="13.1667" y="5">2</tspan></text><path d="M292 230 348.039 230 348.039 232 292 232ZM346.706 224.333 360.039 231 346.706 237.667Z"/><path d="M511 231.5C511 214.655 524.655 201 541.5 201 558.345 201 572 214.655 572 231.5 572 248.345 558.345 262 541.5 262 524.655 262 511 248.345 511 231.5Z" stroke="#000000" stroke-width="2" stroke-miterlimit="8" fill="#FFFFFF" fill-rule="evenodd"/><text font-family="Consolas,Consolas_MSFontService,sans-serif" font-weight="400" font-size="24" transform="translate(530.721 240)">q<tspan font-size="16" x="13.1667" y="5">3</tspan></text><path d="M436 230 492.039 230 492.039 232 436 232ZM490.706 224.333 504.039 231 490.706 237.667Z"/><path d="M0.0948091-0.995495 6.74026-0.362595 13.2083 1.36649 19.2893 4.05491 24.7356 7.57899 29.3604 11.7542 32.9866 16.4165 35.2606 21.4191 35.9283 24.0902 36.1278 26.75 35.9292 29.3979 35.3292 32.0647 33.1186 37.071 29.6233 41.7314 25.1902 45.9075 19.9735 49.4497 13.5138 52.0598 12.7645 50.2055 19.1254 47.6353 18.9382 47.7352 24.0007 44.2977 23.8768 44.3971 28.1893 40.3346 28.075 40.4625 31.45 35.9625 31.3352 36.1586 33.4602 31.3461 33.3994 31.5305 33.9619 29.0305 33.9403 29.1752 34.1278 26.6752 34.1278 26.8248 33.9403 24.3248 33.9674 24.4925 33.3424 21.9925 33.4021 22.1638 31.2146 17.3513 31.3356 17.5514 27.8356 13.0514 27.9549 13.1798 23.4549 9.11727 23.5817 9.21457 18.2692 5.77707 18.4081 5.8521 12.4706 3.2271 12.6167 3.27858 6.30424 1.59108 6.46769 1.6205-0.0948091 0.995495ZM15.7615 57.4053 1.375 53.5 13.1311 44.334Z" transform="matrix(-1.83697e-16 -1 -1 1.83697e-16 281.457 205.333)"/><text font-family="Consolas,Consolas_MSFontService,sans-serif" font-weight="400" font-size="24" transform="translate(249.377 161)">b<tspan font-size="24" x="65.3022" y="60">a</tspan></text><path d="M0.0948091-0.995495 6.74026-0.362595 13.2083 1.36649 19.2893 4.05491 24.7356 7.57899 29.3604 11.7542 32.9866 16.4165 35.2606 21.4191 35.9283 24.0902 36.1278 26.75 35.9292 29.3979 35.3292 32.0647 33.1186 37.071 29.6233 41.7314 25.1902 45.9075 19.9735 49.4497 13.5138 52.0598 12.7645 50.2055 19.1254 47.6353 18.9382 47.7352 24.0007 44.2977 23.8768 44.3971 28.1893 40.3346 28.075 40.4625 31.45 35.9625 31.3352 36.1586 33.4602 31.3461 33.3994 31.5305 33.9619 29.0305 33.9403 29.1752 34.1278 26.6752 34.1278 26.8248 33.9403 24.3248 33.9674 24.4925 33.3424 21.9925 33.4021 22.1638 31.2146 17.3513 31.3356 17.5514 27.8356 13.0514 27.9549 13.1798 23.4549 9.11727 23.5817 9.21457 18.2692 5.77707 18.4081 5.8521 12.4706 3.2271 12.6167 3.27858 6.30424 1.59108 6.46769 1.6205-0.0948091 0.995495ZM15.7615 57.4053 1.375 53.5 13.1311 44.334Z" transform="matrix(-1.83697e-16 -1 -1 1.83697e-16 425.457 205.333)"/><text font-family="Consolas,Consolas_MSFontService,sans-serif" font-weight="400" font-size="24" transform="translate(392.722 160)">a<tspan font-size="24" x="65.5958" y="61">b</tspan></text><path d="M543.62 269.191 543.154 271.586 541.841 274.073 539.769 276.413 537.035 278.626 533.702 280.741 529.818 282.779 525.381 284.68 520.519 286.448 515.222 288.088 509.545 289.539 497.291 291.926 484.279 293.435 470.765 294.001 457.314 293.498 444.242 292.052 432.053 289.791 426.382 288.404 421.085 286.891 416.224 285.187 411.794 283.414 407.817 281.459 406.283 280.047 407.637 278.575 409.065 279.889 408.829 279.728 412.642 281.603 412.572 281.572 416.947 283.322 416.906 283.306 421.719 284.994 421.663 284.976 426.913 286.476 426.875 286.466 432.5 287.841 432.445 287.829 444.57 290.079 444.498 290.069 457.498 291.506 457.425 291.501 470.8 292.001 470.721 292.001 484.159 291.438 484.085 291.444 497.023 289.944 496.947 289.956 509.134 287.581 509.078 287.594 514.703 286.156 514.655 286.17 519.905 284.545 519.859 284.56 524.671 282.81 524.619 282.831 528.994 280.956 528.923 280.989 532.736 278.989 532.665 279.031 535.915 276.968 535.821 277.035 538.446 274.91 538.327 275.024 540.264 272.837 540.129 273.033 541.316 270.783 541.219 271.059 541.656 268.809ZM402.885 284.754 398.951 270.375 412.814 275.854Z"/><text font-family="Consolas,Consolas_MSFontService,sans-serif" font-weight="400" font-size="24" transform="translate(133.237 221)">start<tspan font-size="24" x="332.64" y="91">a</tspan></text></g></svg>