<svg width="258" height="510" xmlns="http://www.w3.org/2000/svg" xmlns:xlink="http://www.w3.org/1999/xlink" overflow="hidden"><defs><clipPath id="clip0"><rect x="637" y="193" width="258" height="510"/></clipPath></defs><g clip-path="url(#clip0)" transform="translate(-637 -193)"><text font-family="Consolas,Consolas_MSFontService,sans-serif" font-weight="400" font-size="24" transform="translate(717.614 568)">+</text><path d="M743 579 818.979 653.843" stroke="#000000" stroke-width="2" stroke-miterlimit="8" fill="none" fill-rule="evenodd"/><text font-family="Consolas,Consolas_MSFontService,sans-serif" font-weight="400" font-size="24" transform="translate(831.012 568)">-<tspan font-size="24" x="-113.398" y="113">x</tspan><tspan font-size="24" x="0" y="113">y</tspan></text><path d="M0 0 75.9788 74.8434" stroke="#000000" stroke-width="2" stroke-miterlimit="8" fill="none" fill-rule="evenodd" transform="matrix(-1 0 0 1 818.979 579)"/><text font-family="Consolas,Consolas_MSFontService,sans-serif" font-weight="400" font-size="24" transform="translate(831.012 455)">*</text><path d="M0 0 75.9788 74.8434" stroke="#000000" stroke-width="2" stroke-miterlimit="8" fill="none" fill-rule="evenodd" transform="matrix(-1 0 0 1 818.979 465)"/><text font-family="Consolas,Consolas_MSFontService,sans-serif" font-weight="400" font-size="24" transform="translate(717.614 341)">-</text><path d="M743 352 818.979 426.843" stroke="#000000" stroke-width="2" stroke-miterlimit="8" fill="none" fill-rule="evenodd"/><path d="M742 240 837.772 418.651" stroke="#000000" stroke-width="2" stroke-miterlimit="8" fill="none" fill-rule="evenodd"/><path d="M705 237C686.168 253.658 667.336 270.317 667.003 284.817 666.67 299.317 693.779 316.916 703 324" stroke="#000000" stroke-width="2" stroke-miterlimit="8" fill="none" fill-rule="evenodd"/><path d="M700.684 353C669.569 385.167 638.455 417.333 639.007 449.5 639.56 481.667 686.978 532.135 704 546" stroke="#000000" stroke-width="2" stroke-miterlimit="8" fill="none" fill-rule="evenodd"/><path d="M706 572C686.673 588.658 667.345 605.317 667.003 619.817 666.661 634.317 694.483 651.916 703.948 659" stroke="#000000" stroke-width="2" stroke-miterlimit="8" fill="none" fill-rule="evenodd"/><path d="M37 0C18.6637 16.6584 0.3275 33.3168 0.00296426 47.8168-0.321571 62.3168 26.0739 79.9161 35.0528 87" stroke="#000000" stroke-width="2" stroke-miterlimit="8" fill="none" fill-rule="evenodd" transform="matrix(-1 0 0 1 893 572)"/><path d="M37 0C18.6637 16.8499 0.3275 33.6997 0.00296426 48.3664-0.321571 63.0331 26.0739 80.8346 35.0528 88" stroke="#000000" stroke-width="2" stroke-miterlimit="8" fill="none" fill-rule="evenodd" transform="matrix(-1 0 0 1 893 458)"/><text font-family="Consolas,Consolas_MSFontService,sans-serif" font-weight="400" font-size="24" transform="translate(716.53 229)">+</text></g></svg>