<svg width="459" height="509" xmlns="http://www.w3.org/2000/svg" xmlns:xlink="http://www.w3.org/1999/xlink" overflow="hidden"><defs><clipPath id="clip0"><rect x="301" y="91" width="459" height="509"/></clipPath></defs><g clip-path="url(#clip0)" transform="translate(-301 -91)"><text font-family="Consolas,Consolas_MSFontService,sans-serif" font-weight="400" font-size="24" transform="translate(527.532 220)">M<tspan font-size="24" x="-207.22" y="-2">i</tspan><tspan font-size="24" x="-194.053" y="-2">d</tspan><tspan font-size="24" x="-105.838" y="-92">E</tspan></text><path d="M445 138 518.341 191.769" stroke="#000000" stroke-width="2" stroke-miterlimit="8" fill="none" fill-rule="evenodd"/><path d="M0 0 55.6906 52.1637" stroke="#000000" stroke-width="2" stroke-miterlimit="8" fill="none" fill-rule="evenodd" transform="matrix(-1 0 0 1 411.691 138)"/><text font-family="Consolas,Consolas_MSFontService,sans-serif" font-weight="400" font-size="24" transform="translate(421.694 220)">=</text><path d="M428 146 428 183.799" stroke="#000000" stroke-width="2" stroke-miterlimit="8" fill="none" fill-rule="evenodd"/><text font-family="Consolas,Consolas_MSFontService,sans-serif" font-weight="400" font-size="24" transform="translate(444.374 301)">-<tspan font-size="24" x="169.798" y="0">B</tspan></text><path d="M0 0 50.6615 42.998" stroke="#000000" stroke-width="2" stroke-miterlimit="8" fill="none" fill-rule="evenodd" transform="matrix(-1 0 0 1 517.661 231)"/><path d="M550 231 604.142 273.998" stroke="#000000" stroke-width="2" stroke-miterlimit="8" fill="none" fill-rule="evenodd"/><text font-family="Consolas,Consolas_MSFontService,sans-serif" font-weight="400" font-size="24" transform="translate(716.53 390)">)<tspan font-size="24" x="-204.117" y="-2">(</tspan></text><path d="M637 312 706.861 361.846" stroke="#000000" stroke-width="2" stroke-miterlimit="8" fill="none" fill-rule="evenodd"/><path d="M0 0 69.2618 48.2404" stroke="#000000" stroke-width="2" stroke-miterlimit="8" fill="none" fill-rule="evenodd" transform="matrix(-1 0 0 1 604.262 312)"/><text font-family="Consolas,Consolas_MSFontService,sans-serif" font-weight="400" font-size="24" transform="translate(614.172 390)">P</text><path d="M621 320 621 353.876" stroke="#000000" stroke-width="2" stroke-miterlimit="8" fill="none" fill-rule="evenodd"/><text font-family="Consolas,Consolas_MSFontService,sans-serif" font-weight="400" font-size="24" transform="translate(326.896 309)">a</text><path d="M0 0 0.000104987 36.1937" stroke="#000000" stroke-width="2" stroke-miterlimit="8" fill="none" fill-rule="evenodd" transform="matrix(-1 0 0 1 333 237)"/><text font-family="Consolas,Consolas_MSFontService,sans-serif" font-weight="400" font-size="24" transform="translate(713.427 485)">id<tspan font-size="24" x="-204.117" y="-2">i</tspan><tspan font-size="24" x="-190.95" y="-2">d</tspan></text><path d="M637 401 703.731 457.512" stroke="#000000" stroke-width="2" stroke-miterlimit="8" fill="none" fill-rule="evenodd"/><path d="M0 0 59.1711 54.9062" stroke="#000000" stroke-width="2" stroke-miterlimit="8" fill="none" fill-rule="evenodd" transform="matrix(-1 0 0 1 604.171 401)"/><text font-family="Consolas,Consolas_MSFontService,sans-serif" font-weight="400" font-size="24" transform="translate(614.172 485)">+</text><path d="M621 409 621 449.542" stroke="#000000" stroke-width="2" stroke-miterlimit="8" fill="none" fill-rule="evenodd"/><text font-family="Consolas,Consolas_MSFontService,sans-serif" font-weight="400" font-size="24" transform="translate(515.893 577)">b</text><path d="M0 0 0.000104987 39.4052" stroke="#000000" stroke-width="2" stroke-miterlimit="8" fill="none" fill-rule="evenodd" transform="matrix(-1 0 0 1 522 502)"/><text font-family="Consolas,Consolas_MSFontService,sans-serif" font-weight="400" font-size="24" transform="translate(720.01 579)">c</text><path d="M727 504 727 543.405" stroke="#000000" stroke-width="2" stroke-miterlimit="8" fill="none" fill-rule="evenodd"/></g></svg>