<svg width="252" height="282" xmlns="http://www.w3.org/2000/svg" xmlns:xlink="http://www.w3.org/1999/xlink" overflow="hidden"><defs><clipPath id="clip0"><rect x="340" y="91" width="252" height="282"/></clipPath></defs><g clip-path="url(#clip0)" transform="translate(-340 -91)"><text font-family="Consolas,Consolas_MSFontService,sans-serif" font-weight="400" font-size="24" transform="translate(459.321 199)">minu<tspan font-size="24" x="52.6667" y="0">s</tspan><tspan font-size="24" x="-102.185" y="0">a</tspan><tspan font-size="24" x="-37.6266" y="-71">=</tspan></text><path d="M445 138 477.891 163.136" stroke="#000000" stroke-width="2" stroke-miterlimit="8" fill="none" fill-rule="evenodd"/><path d="M0 0 32.0611 33.1206" stroke="#000000" stroke-width="2" stroke-miterlimit="8" fill="none" fill-rule="evenodd" transform="matrix(-1 0 0 1 412.061 138)"/><path d="M0 0 0.000314961 23.1048" stroke="#000000" stroke-width="2" stroke-miterlimit="8" fill="none" fill-rule="evenodd" transform="matrix(-1 0 0 1 492 218)"/><text font-family="Consolas,Consolas_MSFontService,sans-serif" font-weight="400" font-size="24" transform="translate(485.654 277)">+<tspan font-size="24" x="75.5989" y="75">c</tspan><tspan font-size="24" x="-70.4259" y="73">b</tspan></text><path d="M508 288 551.102 324.619" stroke="#000000" stroke-width="2" stroke-miterlimit="8" fill="none" fill-rule="evenodd"/><path d="M0 0 37.9285 35.013" stroke="#000000" stroke-width="2" stroke-miterlimit="8" fill="none" fill-rule="evenodd" transform="matrix(-1 0 0 1 475.928 288)"/></g></svg>