<svg width="1519" height="896" xmlns="http://www.w3.org/2000/svg" xmlns:xlink="http://www.w3.org/1999/xlink" overflow="hidden"><defs><clipPath id="clip0"><rect x="128" y="178" width="1519" height="896"/></clipPath></defs><g clip-path="url(#clip0)" transform="translate(-128 -178)"><text font-family="Consolas,Consolas_MSFontService,sans-serif" font-weight="400" font-size="24" transform="translate(983.029 209)">S<tspan font-size="24" x="-68.0391" y="76">x</tspan><tspan font-size="24" x="0" y="76">=</tspan><tspan font-size="24" x="90.3775" y="77">E.addr</tspan>=t10</text><path d="M0 0 68.0391 36.8239" stroke="#000000" stroke-width="2" stroke-miterlimit="8" fill="none" fill-rule="evenodd" transform="matrix(-1 0 0 1 990.039 220)"/><path d="M990 220 990 256.824" stroke="#000000" stroke-width="2" stroke-miterlimit="8" fill="none" fill-rule="evenodd"/><path d="M990 220 1139.63 258.43" stroke="#000000" stroke-width="2" stroke-miterlimit="8" fill="none" fill-rule="evenodd"/><text font-family="Consolas,Consolas_MSFontService,sans-serif" font-weight="400" font-size="24" transform="translate(1086.65 348)">L.array<tspan font-size="24" x="92.1666" y="0">=a</tspan><tspan font-size="24" x="-19.7467" y="28">L.type</tspan>=<tspan font-size="24" x="72.42" y="28">atype</tspan><tspan font-size="24" x="0" y="57">L.addr</tspan>=t9</text><path d="M1139 297 1145.67 319.68" stroke="#000000" stroke-width="2" stroke-miterlimit="8" fill="none" fill-rule="evenodd"/><path d="M1146 417 1459.34 456.141" stroke="#000000" stroke-width="2" stroke-miterlimit="8" fill="none" fill-rule="evenodd"/><text font-family="Consolas,Consolas_MSFontService,sans-serif" font-weight="400" font-size="24" transform="translate(769.14 484)">L.array<tspan font-size="24" x="92.1666" y="0">=a</tspan><tspan font-size="24" x="-131.667" y="28">L.type</tspan>=array(<tspan font-size="24" x="39.5" y="28">cklength</tspan><tspan font-size="24" x="144.833" y="28">, </tspan><tspan font-size="24" x="171.167" y="28">atype</tspan><tspan font-size="24" x="237" y="28">)</tspan><tspan font-size="24" x="0" y="57">L.addr</tspan>=t5</text><path d="M1146 417 1278.17 456.141" stroke="#000000" stroke-width="2" stroke-miterlimit="8" fill="none" fill-rule="evenodd"/><path d="M0 0 29.7161 39.1406" stroke="#000000" stroke-width="2" stroke-miterlimit="8" fill="none" fill-rule="evenodd" transform="matrix(-1 0 0 1 1145.72 417)"/><text font-family="Consolas,Consolas_MSFontService,sans-serif" font-weight="400" font-size="24" transform="translate(1109.61 484)">[<tspan font-size="24" x="343.059" y="0">]</tspan><tspan font-size="24" x="109.217" y="0">E.Addr</tspan>=t7</text><path d="M0 0 317.515 39.1406" stroke="#000000" stroke-width="2" stroke-miterlimit="8" fill="none" fill-rule="evenodd" transform="matrix(-1 0 0 1 1145.52 417)"/><text font-family="Consolas,Consolas_MSFontService,sans-serif" font-weight="400" font-size="24" transform="translate(1329.21 537)">L.array<tspan font-size="24" x="92.1667" y="0">=c</tspan><tspan font-size="24" x="-19.7466" y="28">L.type</tspan>=<tspan font-size="24" x="72.42" y="28">ctype</tspan><tspan font-size="24" x="0" y="57">L.addr</tspan>=t6</text><path d="M1278 495 1388.39 509.144" stroke="#000000" stroke-width="2" stroke-miterlimit="8" fill="none" fill-rule="evenodd"/><path d="M1388 606 1624.83 646.482" stroke="#000000" stroke-width="2" stroke-miterlimit="8" fill="none" fill-rule="evenodd"/><text font-family="Consolas,Consolas_MSFontService,sans-serif" font-weight="400" font-size="24" transform="translate(1010.54 674)">c.type<tspan font-size="24" x="78.9999" y="0">=array(</tspan><tspan font-size="24" x="171.167" y="0">clength</tspan><tspan font-size="24" x="263.333" y="0">, </tspan><tspan font-size="24" x="289.667" y="0">ctype</tspan><tspan font-size="24" x="355.5" y="0">)</tspan><tspan font-size="24" x="419.175" y="0">[</tspan><tspan font-size="24" x="608.172" y="0">]</tspan><tspan font-size="24" x="469.189" y="0">E.Addr</tspan>=<tspan font-size="24" x="561.356" y="0">k</tspan></text><path d="M0 0 193.591 40.4817" stroke="#000000" stroke-width="2" stroke-miterlimit="8" fill="none" fill-rule="evenodd" transform="matrix(-1 0 0 1 1388.59 606)"/><path d="M1388 606 1531.93 646.482" stroke="#000000" stroke-width="2" stroke-miterlimit="8" fill="none" fill-rule="evenodd"/><path d="M1388 606 1435.83 646.482" stroke="#000000" stroke-width="2" stroke-miterlimit="8" fill="none" fill-rule="evenodd"/><text font-family="Consolas,Consolas_MSFontService,sans-serif" font-weight="400" font-size="24" transform="translate(1528.05 731)">k</text><path d="M1532 685 1534.23 702.782" stroke="#000000" stroke-width="2" stroke-miterlimit="8" fill="none" fill-rule="evenodd"/><path d="M828 553 893.775 604.679" stroke="#000000" stroke-width="2" stroke-miterlimit="8" fill="none" fill-rule="evenodd"/><text font-family="Consolas,Consolas_MSFontService,sans-serif" font-weight="400" font-size="24" transform="translate(244.921 632)">a.type<tspan font-size="24" x="79" y="0">=array(</tspan><tspan font-size="24" x="171.167" y="0">bijlength</tspan><tspan font-size="24" x="289.667" y="0">, </tspan><tspan font-size="24" x="6.58667" y="28">array(</tspan><tspan font-size="24" x="85.5867" y="28">cklength</tspan><tspan font-size="24" x="190.92" y="28">, </tspan><tspan font-size="24" x="217.253" y="28">atype</tspan>)<tspan font-size="24" x="296.253" y="28">)</tspan><tspan font-size="24" x="453.663" y="1">[</tspan><tspan font-size="24" x="642.661" y="1">]</tspan><tspan font-size="24" x="497.094" y="1">E.Addr</tspan>=t4</text><path d="M0 0 425.469 51.1973" stroke="#000000" stroke-width="2" stroke-miterlimit="8" fill="none" fill-rule="evenodd" transform="matrix(-1 0 0 1 828.469 553)"/><path d="M0 0 27.1247 51.6791" stroke="#000000" stroke-width="2" stroke-miterlimit="8" fill="none" fill-rule="evenodd" transform="matrix(-1 0 0 1 828.125 553)"/><path d="M0 0 123.222 51.6791" stroke="#000000" stroke-width="2" stroke-miterlimit="8" fill="none" fill-rule="evenodd" transform="matrix(-1 0 0 1 828.222 553)"/><path d="M0 0 15.0504 50.6229" stroke="#000000" stroke-width="2" stroke-miterlimit="8" fill="none" fill-rule="evenodd" transform="matrix(-1 0 0 1 793.05 747)"/><path d="M793 747 870.85 797.623" stroke="#000000" stroke-width="2" stroke-miterlimit="8" fill="none" fill-rule="evenodd"/><text font-family="Consolas,Consolas_MSFontService,sans-serif" font-weight="400" font-size="24" transform="translate(320.646 825)">L.array<tspan font-size="24" x="92.1667" y="0">=b</tspan><tspan font-size="24" x="-131.667" y="28">L.type</tspan>=array(<tspan font-size="24" x="39.5" y="28">bjlength</tspan><tspan font-size="24" x="144.833" y="28">,</tspan><tspan font-size="24" x="171.167" y="28">btype</tspan><tspan font-size="24" x="237" y="28">)</tspan><tspan font-size="24" x="0" y="57">L.addr</tspan>=t1<tspan font-size="24" x="354.913" y="0">[</tspan><tspan font-size="24" x="543.91" y="0">]</tspan><tspan font-size="24" x="404.927" y="0">E.Addr</tspan><tspan font-size="24" x="483.927" y="0">=j</tspan></text><path d="M0 0 413.394 50.1411" stroke="#000000" stroke-width="2" stroke-miterlimit="8" fill="none" fill-rule="evenodd" transform="matrix(-1 0 0 1 793.394 747)"/><path d="M0 0 111.147 50.6229" stroke="#000000" stroke-width="2" stroke-miterlimit="8" fill="none" fill-rule="evenodd" transform="matrix(-1 0 0 1 793.148 747)"/><path d="M778 836 787.176 861.342" stroke="#000000" stroke-width="2" stroke-miterlimit="8" fill="none" fill-rule="evenodd"/><text font-family="Consolas,Consolas_MSFontService,sans-serif" font-weight="400" font-size="24" transform="translate(734.037 678)">L.array<tspan font-size="24" x="92.1667" y="0">=b</tspan><tspan font-size="24" x="-19.7466" y="28">L.type</tspan>=<tspan font-size="24" x="72.42" y="28">atype</tspan><tspan font-size="24" x="0" y="57">L.addr</tspan>=<tspan font-size="24" x="92.1667" y="57">t3</tspan><tspan font-size="24" x="46.796" y="212">j</tspan></text><path d="M380 894 650.485 960.421" stroke="#000000" stroke-width="2" stroke-miterlimit="8" fill="none" fill-rule="evenodd"/><path d="M380 894 743.385 960.421" stroke="#000000" stroke-width="2" stroke-miterlimit="8" fill="none" fill-rule="evenodd"/><text font-family="Consolas,Consolas_MSFontService,sans-serif" font-weight="400" font-size="24" transform="translate(142.694 988)">b.type=array(bilength, <tspan font-size="24" x="0" y="28">array(</tspan>bjlength<tspan font-size="24" x="184.333" y="28">, </tspan><tspan font-size="24" x="210.667" y="28">btype</tspan>))<tspan font-size="24" x="405.007" y="0">[</tspan><tspan font-size="24" x="594.004" y="0">]</tspan><tspan font-size="24" x="455.02" y="0">E.Addr</tspan><tspan font-size="24" x="534.02" y="0">=</tspan><tspan font-size="24" x="547.187" y="0">i</tspan></text><path d="M0 0 85.7852 65.9395" stroke="#000000" stroke-width="2" stroke-miterlimit="8" fill="none" fill-rule="evenodd" transform="matrix(-1 0 0 1 379.785 894)"/><path d="M380 894 554.388 960.421" stroke="#000000" stroke-width="2" stroke-miterlimit="8" fill="none" fill-rule="evenodd"/><path d="M650 999 659.176 1024.34" stroke="#000000" stroke-width="2" stroke-miterlimit="8" fill="none" fill-rule="evenodd"/><text font-family="Consolas,Consolas_MSFontService,sans-serif" font-weight="400" font-size="24" transform="translate(652.974 1052)">i</text></g></svg>