<svg width="1397" height="475" xmlns="http://www.w3.org/2000/svg" xmlns:xlink="http://www.w3.org/1999/xlink" overflow="hidden"><defs><clipPath id="clip0"><rect x="371" y="163" width="1397" height="475"/></clipPath></defs><g clip-path="url(#clip0)" transform="translate(-371 -163)"><text font-family="Consolas,Consolas_MSFontService,sans-serif" font-weight="400" font-size="24" transform="translate(825.03 194)">B7.truelist = {102, 104} <tspan font-size="24" x="0" y="28">B7.falselist = {100, 105}</tspan><tspan font-size="24" x="32.6439" y="91">&amp;&amp;</tspan><tspan font-size="24" x="105.333" y="91">M.instr</tspan><tspan font-size="24" x="210.666" y="91">=</tspan><tspan font-size="24" x="144.833" y="119">102</tspan></text><path d="M0 0 118.773 22.8625" stroke="#000000" stroke-width="2" stroke-miterlimit="8" fill="none" fill-rule="evenodd" transform="matrix(-1 0 0 1 989.773 234)"/><path d="M0 0 0.000314961 22.8625" stroke="#000000" stroke-width="2" stroke-miterlimit="8" fill="none" fill-rule="evenodd" transform="matrix(-1 0 0 1 990 234)"/><path d="M990 234 1281.16 264.422" stroke="#000000" stroke-width="2" stroke-miterlimit="8" fill="none" fill-rule="evenodd"/><text font-family="Consolas,Consolas_MSFontService,sans-serif" font-weight="400" font-size="24" transform="translate(460.14 289)">B2.truelist = {101} <tspan font-size="24" x="0" y="28">B2.falselist = {100}</tspan></text><path d="M0 0 397.806 26.7338" stroke="#000000" stroke-width="2" stroke-miterlimit="8" fill="none" fill-rule="evenodd" transform="matrix(-1 0 0 1 989.806 234)"/><text font-family="Consolas,Consolas_MSFontService,sans-serif" font-weight="400" font-size="24" transform="translate(1116.19 292)">B6.truelist = {102, 104} <tspan font-size="24" x="32.9133" y="28">B6.falselist = {105}</tspan><tspan font-size="24" x="-729.736" y="121">!</tspan><tspan font-size="24" x="-653.145" y="114">B1'.truelist = {100} </tspan><tspan font-size="24" x="-653.145" y="142">B1'.falselist = {101}</tspan></text><path d="M0 0 198.771 56.7907" stroke="#000000" stroke-width="2" stroke-miterlimit="8" fill="none" fill-rule="evenodd" transform="matrix(-1 0 0 1 591.771 329)"/><path d="M592 329 601.487 378.231" stroke="#000000" stroke-width="2" stroke-miterlimit="8" fill="none" fill-rule="evenodd"/><text font-family="Consolas,Consolas_MSFontService,sans-serif" font-weight="400" font-size="24" transform="translate(468.715 512)">B1.truelist = {100} <tspan font-size="24" x="0" y="28">B1.falselist = {101}</tspan><tspan font-size="24" x="-72.2592" y="-1">(</tspan></text><path d="M0 0 198.255 37.5859" stroke="#000000" stroke-width="2" stroke-miterlimit="8" fill="none" fill-rule="evenodd" transform="matrix(-1 0 0 1 601.255 446)"/><text font-family="Consolas,Consolas_MSFontService,sans-serif" font-weight="400" font-size="24" transform="translate(779.567 513)">)</text><path d="M601 446 785.857 485.261" stroke="#000000" stroke-width="2" stroke-miterlimit="8" fill="none" fill-rule="evenodd"/><path d="M0 0 0.912021 37.9823" stroke="#000000" stroke-width="2" stroke-miterlimit="8" fill="none" fill-rule="evenodd" transform="matrix(-1 0 0 1 600.912 446)"/><text font-family="Consolas,Consolas_MSFontService,sans-serif" font-weight="400" font-size="24" transform="translate(577.569 617)">==<tspan font-size="24" x="-51.6824" y="-1">a</tspan></text><path d="M0 0 67.912 37.0067" stroke="#000000" stroke-width="2" stroke-miterlimit="8" fill="none" fill-rule="evenodd" transform="matrix(-1 0 0 1 599.912 552)"/><text font-family="Consolas,Consolas_MSFontService,sans-serif" font-weight="400" font-size="24" transform="translate(654.405 617)">b</text><path d="M600 552 660.606 589.938" stroke="#000000" stroke-width="2" stroke-miterlimit="8" fill="none" fill-rule="evenodd"/><path d="M0 0 9.64619 37.9823" stroke="#000000" stroke-width="2" stroke-miterlimit="8" fill="none" fill-rule="evenodd" transform="matrix(-1 0 0 1 600.646 552)"/><text font-family="Consolas,Consolas_MSFontService,sans-serif" font-weight="400" font-size="24" transform="translate(1105.27 398)">B5.truelist = {102, 104} <tspan font-size="24" x="32.9133" y="28">B5.falselist = {105}</tspan><tspan font-size="24" x="-114.029" y="0">(</tspan></text><path d="M0 0 282.945 37.7687" stroke="#000000" stroke-width="2" stroke-miterlimit="8" fill="none" fill-rule="evenodd" transform="matrix(-1 0 0 1 1280.94 332)"/><text font-family="Consolas,Consolas_MSFontService,sans-serif" font-weight="400" font-size="24" transform="translate(1512.88 400)">)</text><path d="M1281 332 1519.69 371.444" stroke="#000000" stroke-width="2" stroke-miterlimit="8" fill="none" fill-rule="evenodd"/><path d="M0 0 10.9154 38.165" stroke="#000000" stroke-width="2" stroke-miterlimit="8" fill="none" fill-rule="evenodd" transform="matrix(-1 0 0 1 1280.92 332)"/><text font-family="Consolas,Consolas_MSFontService,sans-serif" font-weight="400" font-size="24" transform="translate(1197.87 496)">|<tspan font-size="24" x="13.1666" y="0">|</tspan><tspan font-size="24" x="72.6891" y="0">M.instr</tspan><tspan font-size="24" x="178.022" y="0">=</tspan><tspan font-size="24" x="112.189" y="28">104</tspan></text><path d="M0 0 58.8211 30.2396" stroke="#000000" stroke-width="2" stroke-miterlimit="8" fill="none" fill-rule="evenodd" transform="matrix(-1 0 0 1 1269.82 438)"/><path d="M1270 438 1621.11 475.799" stroke="#000000" stroke-width="2" stroke-miterlimit="8" fill="none" fill-rule="evenodd"/><text font-family="Consolas,Consolas_MSFontService,sans-serif" font-weight="400" font-size="24" transform="translate(883.494 500)">B3.truelist = {102} <tspan font-size="24" x="0" y="28">B3.falselist = {103}</tspan></text><path d="M0 0 254.696 34.1109" stroke="#000000" stroke-width="2" stroke-miterlimit="8" fill="none" fill-rule="evenodd" transform="matrix(-1 0 0 1 1269.7 438)"/><text font-family="Consolas,Consolas_MSFontService,sans-serif" font-weight="400" font-size="24" transform="translate(1489.3 504)">B4.truelist = {104} <tspan font-size="24" x="0" y="28">B4.falselist = {105}</tspan></text><path d="M1270 438 1329.95 468.24" stroke="#000000" stroke-width="2" stroke-miterlimit="8" fill="none" fill-rule="evenodd"/><text font-family="Consolas,Consolas_MSFontService,sans-serif" font-weight="400" font-size="24" transform="translate(984.891 602)">==<tspan font-size="24" x="-51.6824" y="-1">a</tspan></text><path d="M0 0 75.3691 33.1797" stroke="#000000" stroke-width="2" stroke-miterlimit="8" fill="none" fill-rule="evenodd" transform="matrix(-1 0 0 1 1015.37 540)"/><text font-family="Consolas,Consolas_MSFontService,sans-serif" font-weight="400" font-size="24" transform="translate(1061.73 602)">b</text><path d="M1015 540 1068.15 574.111" stroke="#000000" stroke-width="2" stroke-miterlimit="8" fill="none" fill-rule="evenodd"/><path d="M0 0 17.1033 34.1553" stroke="#000000" stroke-width="2" stroke-miterlimit="8" fill="none" fill-rule="evenodd" transform="matrix(-1 0 0 1 1015.1 540)"/><text font-family="Consolas,Consolas_MSFontService,sans-serif" font-weight="400" font-size="24" transform="translate(1589.68 610)">==<tspan font-size="24" x="-51.6825" y="-1">a</tspan></text><path d="M0 0 76.3839 37.051" stroke="#000000" stroke-width="2" stroke-miterlimit="8" fill="none" fill-rule="evenodd" transform="matrix(-1 0 0 1 1621.38 544)"/><text font-family="Consolas,Consolas_MSFontService,sans-serif" font-weight="400" font-size="24" transform="translate(1666.52 610)">b</text><path d="M1621 544 1673.13 581.982" stroke="#000000" stroke-width="2" stroke-miterlimit="8" fill="none" fill-rule="evenodd"/><path d="M0 0 18.1181 38.0266" stroke="#000000" stroke-width="2" stroke-miterlimit="8" fill="none" fill-rule="evenodd" transform="matrix(-1 0 0 1 1621.12 544)"/></g></svg>