<svg width="757" height="1980" xmlns="http://www.w3.org/2000/svg" xmlns:xlink="http://www.w3.org/1999/xlink" overflow="hidden"><defs><clipPath id="clip0"><rect x="128" y="261" width="757" height="1980"/></clipPath></defs><g clip-path="url(#clip0)" transform="translate(-128 -261)"><rect x="372" y="264" width="272" height="38" stroke="#000000" stroke-width="2" stroke-miterlimit="8" fill="#FFFFFF"/><text font-family="Consolas,Consolas_MSFontService,sans-serif" font-weight="400" font-size="24" transform="translate(474.74 292)">ENTRY</text><rect x="372" y="340" width="272" height="38" stroke="#000000" stroke-width="2" stroke-miterlimit="8" fill="#FFFFFF"/><text font-family="Consolas,Consolas_MSFontService,sans-serif" font-weight="400" font-size="24" transform="translate(381.178 368)">i<tspan font-size="24" x="26.3333" y="0">= 0</tspan></text><path d="M642.045 604.001 646.214 604.191 650.512 604.768 658.835 607.055 667.087 610.673 675.133 615.551 682.846 621.62 690.227 628.749 697.221 636.815 703.769 645.819 709.746 655.57 715.153 665.944 719.932 676.948 723.955 688.452 727.224 700.333 729.613 712.468 731.123 724.857 731.626 737.312 731.123 749.766 729.676 762.154 727.287 774.352 724.081 786.232 720.121 797.673 715.407 808.673 710.125 819.111 704.21 828.864 697.787 837.806 690.856 845.871 683.602 852.999 676.014 859.069 668.093 863.949 659.95 867.575 655.457 868.672 654.982 866.729 659.388 865.654 659.218 865.711 667.218 862.149 667.101 862.211 674.913 857.399 674.813 857.469 682.313 851.469 682.237 851.537 689.424 844.474 689.367 844.536 696.242 836.536 696.188 836.604 702.563 827.729 702.52 827.794 708.395 818.106 708.358 818.173 713.608 807.798 713.581 807.856 718.268 796.919 718.242 796.985 722.18 785.61 722.16 785.677 725.347 773.865 725.331 773.933 727.706 761.808 727.694 761.884 729.132 749.572 729.126 749.647 729.626 737.272 729.626 737.353 729.126 724.978 729.132 725.058 727.632 712.746 727.644 712.818 725.269 700.756 725.286 700.828 722.036 689.015 722.056 689.08 718.056 677.643 718.083 677.711 713.333 666.773 713.363 666.837 707.988 656.525 708.022 656.585 702.085 646.898 702.129 646.963 695.629 638.026 695.682 638.093 688.745 630.093 688.805 630.157 681.493 623.094 681.569 623.161 673.944 617.161 674.044 617.23 666.107 612.418 666.223 612.478 658.098 608.916 658.235 608.964 650.047 606.714 650.179 606.741 645.992 606.179 646.08 606.186 641.955 605.999ZM657.177 871.435 643.375 869.625 655.894 863.539Z"/><rect x="372" y="416" width="272" height="37" stroke="#000000" stroke-width="2" stroke-miterlimit="8" fill="#FFFFFF"/><text font-family="Consolas,Consolas_MSFontService,sans-serif" font-weight="400" font-size="24" transform="translate(381.178 443)">if i<tspan font-size="24" x="65.8333" y="0">&gt;= n </tspan>goto<tspan font-size="24" x="197.5" y="0">B</tspan><tspan font-size="24" x="210.667" y="0">7</tspan></text><rect x="372" y="491" width="272" height="38" stroke="#000000" stroke-width="2" stroke-miterlimit="8" fill="#FFFFFF"/><text font-family="Consolas,Consolas_MSFontService,sans-serif" font-weight="400" font-size="24" transform="translate(381.178 519)">j = 0</text><rect x="372" y="567" width="272" height="38" stroke="#000000" stroke-width="2" stroke-miterlimit="8" fill="#FFFFFF"/><text font-family="Consolas,Consolas_MSFontService,sans-serif" font-weight="400" font-size="24" transform="translate(381.178 594)">if j &gt;= n <tspan font-size="24" x="131.667" y="0">goto</tspan><tspan font-size="24" x="197.5" y="0">B6</tspan></text><rect x="372" y="642" width="272" height="189" stroke="#000000" stroke-width="2" stroke-miterlimit="8" fill="#FFFFFF"/><text font-family="Consolas,Consolas_MSFontService,sans-serif" font-weight="400" font-size="24" transform="translate(381.178 674)">t1 = <tspan font-size="24" x="65.8333" y="0">i</tspan><tspan font-size="24" x="92.1667" y="0">* n</tspan><tspan font-size="24" x="0" y="28">t2 = t1 + j</tspan><tspan font-size="24" x="0" y="57">t3 = t2 * 8</tspan><tspan font-size="24" x="0" y="86">c[t3] = 0.0</tspan><tspan font-size="24" x="0" y="115">j = j + 1</tspan><tspan font-size="24" x="0" y="144">goto</tspan><tspan font-size="24" x="65.8333" y="144">B</tspan><tspan font-size="24" x="79" y="144">4</tspan></text><rect x="372" y="869" width="272" height="76" stroke="#000000" stroke-width="2" stroke-miterlimit="8" fill="#FFFFFF"/><text font-family="Consolas,Consolas_MSFontService,sans-serif" font-weight="400" font-size="24" transform="translate(381.178 901)">i = i + 1<tspan font-size="24" x="0" y="28">goto </tspan><tspan font-size="24" x="65.8333" y="28">B</tspan><tspan font-size="24" x="79" y="28">2</tspan></text><rect x="372" y="983" width="272" height="37" stroke="#000000" stroke-width="2" stroke-miterlimit="8" fill="#FFFFFF"/><text font-family="Consolas,Consolas_MSFontService,sans-serif" font-weight="400" font-size="24" transform="translate(381.178 1010)">i<tspan font-size="24" x="26.3333" y="0">= 0</tspan></text><rect x="372" y="1058" width="272" height="38" stroke="#000000" stroke-width="2" stroke-miterlimit="8" fill="#FFFFFF"/><text font-family="Consolas,Consolas_MSFontService,sans-serif" font-weight="400" font-size="24" transform="translate(381.178 1086)">if i<tspan font-size="24" x="65.8333" y="0">&gt;= n </tspan>goto<tspan font-size="24" x="197.5" y="0">EXI</tspan>T</text><rect x="372" y="1134" width="272" height="38" stroke="#000000" stroke-width="2" stroke-miterlimit="8" fill="#FFFFFF"/><text font-family="Consolas,Consolas_MSFontService,sans-serif" font-weight="400" font-size="24" transform="translate(381.178 1161)">j = 0</text><rect x="372" y="1209" width="272" height="38" stroke="#000000" stroke-width="2" stroke-miterlimit="8" fill="#FFFFFF"/><text font-family="Consolas,Consolas_MSFontService,sans-serif" font-weight="400" font-size="24" transform="translate(381.178 1237)">if j &gt;= n <tspan font-size="24" x="131.667" y="0">goto</tspan><tspan font-size="24" x="197.5" y="0">B1</tspan><tspan font-size="24" x="223.833" y="0">5</tspan></text><rect x="372" y="1285" width="272" height="38" stroke="#000000" stroke-width="2" stroke-miterlimit="8" fill="#FFFFFF"/><text font-family="Consolas,Consolas_MSFontService,sans-serif" font-weight="400" font-size="24" transform="translate(381.178 1313)">k = 0</text><rect x="372" y="1361" width="272" height="37" stroke="#000000" stroke-width="2" stroke-miterlimit="8" fill="#FFFFFF"/><text font-family="Consolas,Consolas_MSFontService,sans-serif" font-weight="400" font-size="24" transform="translate(381.178 1388)">if k &gt;= n <tspan font-size="24" x="131.667" y="0">goto</tspan><tspan font-size="24" x="197.5" y="0">B1</tspan><tspan font-size="24" x="223.833" y="0">4</tspan></text><rect x="372" y="1436" width="272" height="492" stroke="#000000" stroke-width="2" stroke-miterlimit="8" fill="#FFFFFF"/><text font-family="Consolas,Consolas_MSFontService,sans-serif" font-weight="400" font-size="24" transform="translate(381.178 1460)">t4 = <tspan font-size="24" x="65.8333" y="0">i</tspan><tspan font-size="24" x="92.1667" y="0">* n</tspan><tspan font-size="24" x="0" y="28">t5 = t4 + j</tspan><tspan font-size="24" x="0" y="57">t6 = t5 * 8</tspan><tspan font-size="24" x="0" y="86">t7 = c[t6]</tspan><tspan font-size="24" x="0" y="115">t8 = </tspan><tspan font-size="24" x="65.8333" y="115">i</tspan><tspan font-size="24" x="92.1667" y="115">* n</tspan><tspan font-size="24" x="0" y="144">t9 = t8 + k</tspan><tspan font-size="24" x="0" y="172">t10 = t9 * 8</tspan><tspan font-size="24" x="0" y="201">t11 = a[t10]</tspan><tspan font-size="24" x="0" y="230">t12 = k * n</tspan><tspan font-size="24" x="0" y="259">t13 = t12 + j</tspan><tspan font-size="24" x="0" y="288">t14 = t13 * 8</tspan><tspan font-size="24" x="0" y="316">t15 = b[t14]</tspan><tspan font-size="24" x="0" y="345">t16 = t11 * t15</tspan><tspan font-size="24" x="0" y="374">t17 = t7 + t16</tspan><tspan font-size="24" x="0" y="403">c[t6] = t17</tspan><tspan font-size="24" x="0" y="432">k = k + 1</tspan><tspan font-size="24" x="0" y="460">goto</tspan><tspan font-size="24" x="65.8333" y="460">B12</tspan></text><rect x="372" y="1965" width="272" height="76" stroke="#000000" stroke-width="2" stroke-miterlimit="8" fill="#FFFFFF"/><text font-family="Consolas,Consolas_MSFontService,sans-serif" font-weight="400" font-size="24" transform="translate(381.178 1997)">j<tspan font-size="24" x="26.3333" y="0">= </tspan><tspan font-size="24" x="52.6667" y="0">j</tspan><tspan font-size="24" x="79" y="0">+ 1</tspan><tspan font-size="24" x="0" y="28">goto </tspan><tspan font-size="24" x="65.8333" y="28">B10</tspan></text><rect x="372" y="2079" width="272" height="75" stroke="#000000" stroke-width="2" stroke-miterlimit="8" fill="#FFFFFF"/><text font-family="Consolas,Consolas_MSFontService,sans-serif" font-weight="400" font-size="24" transform="translate(381.178 2111)">i = i + 1<tspan font-size="24" x="0" y="28">goto </tspan><tspan font-size="24" x="65.8333" y="28">B8</tspan></text><rect x="372" y="2192" width="272" height="38" stroke="#000000" stroke-width="2" stroke-miterlimit="8" fill="#FFFFFF"/><text font-family="Consolas,Consolas_MSFontService,sans-serif" font-weight="400" font-size="24" transform="translate(481.323 2220)">EXIT<tspan font-size="24" x="-145.744" y="-1852">B1</tspan><tspan font-size="24" x="-145.744" y="-1777">B2</tspan><tspan font-size="24" x="-145.744" y="-1701">B3</tspan><tspan font-size="24" x="-145.744" y="-1626">B4</tspan><tspan font-size="24" x="-145.744" y="-1474">B5</tspan><tspan font-size="24" x="-145.744" y="-1308">B6</tspan><tspan font-size="24" x="-145.744" y="-1210">B7</tspan><tspan font-size="24" x="-145.744" y="-1134">B8</tspan><tspan font-size="24" x="-145.744" y="-1059">B9</tspan><tspan font-size="24" x="-158.91" y="-983">B10</tspan><tspan font-size="24" x="-158.91" y="-907">B11</tspan><tspan font-size="24" x="-158.91" y="-832">B12</tspan><tspan font-size="24" x="-158.91" y="-529">B13</tspan><tspan font-size="24" x="-158.91" y="-212">B14</tspan><tspan font-size="24" x="-158.91" y="-99">B15</tspan></text><path d="M509 378 509 403.799 507 403.799 507 378ZM512 402.466 508 415.799 504 402.466Z"/><path d="M509 302 509 327.799 507 327.799 507 302ZM512 326.466 508 339.799 504 326.466Z"/><path d="M509 453 509 478.799 507 478.799 507 453ZM512 477.466 508 490.799 504 477.466Z"/><path d="M509 529 509 554.799 507 554.799 507 529ZM512 553.466 508 566.799 504 553.466Z"/><path d="M509 605 509 630.799 507 630.799 507 605ZM512 629.466 508 642.799 504 629.466Z"/><path d="M509 1020 509 1045.8 507 1045.8 507 1020ZM512 1044.47 508 1057.8 504 1044.47Z"/><path d="M509 1096 509 1121.8 507 1121.8 507 1096ZM512 1120.47 508 1133.8 504 1120.47Z"/><path d="M509 1172 509 1197.8 507 1197.8 507 1172ZM512 1196.47 508 1209.8 504 1196.47Z"/><path d="M509 1247 509 1272.8 507 1272.8 507 1247ZM512 1271.47 508 1284.8 504 1271.47Z"/><path d="M509 1323 509 1348.8 507 1348.8 507 1323ZM512 1347.47 508 1360.8 504 1347.47Z"/><path d="M509 1398 509 1423.8 507 1423.8 507 1398ZM512 1422.47 508 1435.8 504 1422.47Z"/><path d="M642.048 452.001 649.846 452.378 657.69 453.517 665.526 455.413 673.292 458.002 680.987 461.281 688.615 465.19 696.11 469.788 703.534 474.947 710.767 480.671 717.931 487.017 724.904 493.802 731.688 501.151 738.277 508.996 744.741 517.279 750.889 526 756.91 535.156 762.617 544.689 768.076 554.602 778.164 575.343 787.064 597.28 794.583 620.15 797.781 631.939 800.664 643.846 803.109 655.945 805.114 668.103 806.744 680.389 807.872 692.737 808.624 705.147 808.875 717.625 808.624 730.038 807.935 742.451 806.744 754.861 805.177 767.145 803.171 779.305 800.727 791.402 797.907 803.309 794.709 815.099 787.253 837.967 778.415 859.904 768.452 880.646 762.992 890.561 757.287 900.09 751.392 909.246 745.244 917.967 738.904 926.252 732.313 934.036 725.596 941.38 718.686 948.228 711.582 954.578 704.349 960.301 697.052 965.459 689.618 970.058 682.052 973.967 674.42 977.247 666.712 979.838 658.93 981.672 655.453 982.127 655.193 980.144 658.62 979.696 658.521 979.714 666.208 977.902 666.119 977.927 673.744 975.365 673.668 975.394 681.23 972.144 681.166 972.174 688.666 968.299 688.599 968.337 695.974 963.775 695.923 963.808 703.173 958.683 703.129 958.716 710.317 953.028 710.271 953.067 717.334 946.754 717.296 946.79 724.171 939.977 724.137 940.013 730.825 932.7 730.799 932.729 737.362 924.979 737.331 925.017 743.643 916.767 743.62 916.799 749.745 908.111 749.722 908.146 755.597 899.021 755.579 899.049 761.267 889.549 761.249 889.58 766.687 879.705 766.661 879.755 776.599 859.067 776.572 859.126 785.385 837.251 785.362 837.315 792.799 814.503 792.785 814.551 795.972 802.801 795.964 802.832 798.777 790.957 798.77 790.989 801.207 778.927 801.201 778.962 803.201 766.837 803.196 766.873 804.758 754.623 804.755 754.654 805.942 742.279 805.939 742.32 806.627 729.945 806.625 729.98 806.875 717.605 806.875 717.645 806.625 705.208 806.627 705.248 805.877 692.873 805.879 692.904 804.754 680.591 804.759 680.631 803.134 668.381 803.138 668.413 801.138 656.288 801.145 656.323 798.707 644.261 798.716 644.298 795.841 632.423 795.847 632.449 792.66 620.699 792.675 620.75 785.175 597.937 785.198 598.001 776.323 576.126 776.351 576.187 766.288 555.5 766.312 555.545 760.874 545.67 760.892 545.701 755.204 536.201 755.227 536.237 749.227 527.112 749.245 527.139 743.12 518.451 743.149 518.49 736.712 510.24 736.734 510.268 730.172 502.456 730.203 502.491 723.453 495.178 723.49 495.217 716.553 488.467 716.587 488.499 709.462 482.186 709.504 482.222 702.317 476.534 702.367 476.571 694.992 471.446 695.04 471.477 687.602 466.915 687.669 466.952 680.107 463.077 680.17 463.107 672.545 459.857 672.621 459.886 664.934 457.324 665.015 457.347 657.265 455.472 657.356 455.49 649.606 454.365 649.702 454.374 641.952 453.999ZM657.022 984.994 643.375 982.25 656.279 977.029Z"/><path d="M371.289 832.595 367.057 832.406 362.76 831.829 354.313 829.542 346.06 825.924 337.953 821.047 330.18 814.98 322.674 807.852 315.614 799.783 309.065 790.779 303.027 781.031 297.556 770.654 292.777 759.651 288.691 748.147 285.423 736.266 282.97 724.131 281.461 711.74 280.958 699.284 281.461 686.828 282.97 674.44 285.359 662.245 288.565 650.362 292.589 638.921 297.303 627.921 302.648 617.481 308.626 607.728 315.111 598.788 322.041 590.723 329.361 583.593 337.074 577.524 345.055 572.647 353.197 569.021 357.873 567.89 358.343 569.834 353.756 570.943 353.928 570.885 345.928 574.447 346.042 574.387 338.167 579.2 338.264 579.132 330.639 585.132 330.719 585.063 323.469 592.125 323.529 592.061 316.654 600.061 316.705 599.996 310.268 608.871 310.311 608.806 304.373 618.494 304.411 618.427 299.098 628.802 299.128 628.74 294.44 639.678 294.464 639.616 290.464 650.991 290.486 650.919 287.299 662.732 287.315 662.664 284.94 674.789 284.951 674.717 283.451 687.03 283.458 686.949 282.958 699.324 282.958 699.243 283.458 711.618 283.451 711.538 284.951 723.85 284.939 723.773 287.376 735.836 287.36 735.769 290.61 747.581 290.588 747.512 294.651 758.949 294.626 758.885 299.376 769.823 299.343 769.755 304.78 780.067 304.746 780.007 310.746 789.695 310.705 789.633 317.205 798.571 317.148 798.5 324.148 806.5 324.084 806.434 331.522 813.496 331.449 813.433 339.136 819.433 339.036 819.364 347.036 824.177 346.922 824.118 355.047 827.68 354.907 827.631 363.22 829.881 363.091 829.855 367.279 830.418 367.191 830.41 371.378 830.597ZM356.161 565.122 369.958 566.971 357.422 573.023Z"/><path d="M371.285 946.191 363.488 945.814 355.581 944.676 347.806 942.779 340.041 940.191 332.346 936.911 324.72 933.003 317.161 928.405 309.8 923.246 302.503 917.522 295.403 911.176 288.368 904.392 281.583 897.041 274.994 889.197 268.531 880.916 262.319 872.193 256.36 863.035 250.655 853.505 245.134 843.592 235.044 822.849 226.207 800.912 218.625 778.044 215.427 766.254 212.544 754.347 210.1 742.248 208.094 730.09 206.465 717.806 205.274 705.456 204.584 693.043 204.333 680.568 204.584 668.155 205.274 655.742 206.464 643.332 208.031 631.048 210.037 618.887 212.481 606.791 215.301 594.884 218.5 583.093 226.018 560.225 234.793 538.289 244.82 517.546 250.277 507.634 255.921 498.103 261.88 488.944 268.027 480.225 274.367 471.94 280.958 464.157 287.676 456.81 294.648 449.964 301.688 443.616 308.923 437.89 316.283 432.732 323.715 428.134 331.281 424.225 338.914 420.945 346.621 418.355 354.403 416.52 357.881 416.065 358.14 418.049 354.713 418.497 354.813 418.479 347.125 420.291 347.214 420.266 339.589 422.828 339.666 422.799 332.103 426.049 332.167 426.019 324.667 429.894 324.734 429.856 317.359 434.418 317.407 434.387 310.095 439.512 310.141 439.477 302.954 445.164 303.003 445.123 296.003 451.435 296.034 451.406 289.096 458.219 289.134 458.18 282.446 465.493 282.471 465.464 275.909 473.214 275.94 473.175 269.628 481.425 269.651 481.394 263.526 490.081 263.547 490.051 257.609 499.176 257.631 499.14 252.006 508.64 252.022 508.612 246.584 518.487 246.609 518.44 236.609 539.128 236.637 539.064 227.887 560.939 227.908 560.88 220.408 583.692 220.423 583.642 217.236 595.392 217.244 595.361 214.431 607.236 214.439 607.203 212.001 619.266 212.008 619.23 210.008 631.355 210.013 631.319 208.45 643.569 208.454 643.538 207.266 655.913 207.269 655.873 206.582 668.248 206.583 668.213 206.333 680.588 206.333 680.548 206.583 692.985 206.582 692.95 207.269 705.325 207.266 705.284 208.454 717.597 208.45 717.561 210.075 729.811 210.07 729.78 212.07 741.905 212.064 741.87 214.501 753.932 214.493 753.895 217.368 765.77 217.361 765.743 220.548 777.493 220.533 777.44 228.095 800.253 228.073 800.194 236.886 822.069 236.858 822.005 246.92 842.693 246.894 842.644 252.394 852.519 252.379 852.491 258.066 861.991 258.047 861.96 263.984 871.085 263.96 871.05 270.148 879.737 270.122 879.702 276.559 887.952 276.537 887.924 283.099 895.737 283.068 895.702 289.818 903.014 289.777 902.973 296.777 909.723 296.75 909.697 303.812 916.01 303.763 915.968 311.013 921.656 310.97 921.624 318.282 926.749 318.228 926.713 325.728 931.276 325.664 931.24 333.227 935.115 333.163 935.085 340.788 938.335 340.712 938.306 348.4 940.869 348.32 940.846 356.008 942.721 355.913 942.703 363.726 943.828 363.632 943.819 371.382 944.194ZM356.311 413.198 369.958 415.943 357.054 421.164Z"/><path d="M644.033 1095 649.697 1095.19 655.388 1095.82 661.076 1096.77 666.769 1098.16 672.391 1099.93 678.02 1102.08 689.225 1107.43 700.372 1114.17 711.315 1122.35 722.182 1131.77 732.854 1142.44 743.33 1154.3 753.612 1167.34 763.702 1181.44 773.539 1196.6 783.059 1212.82 792.325 1229.91 801.278 1247.94 809.916 1266.85 818.178 1286.56 826.063 1306.96 833.572 1328.12 840.643 1349.89 847.275 1372.29 853.469 1395.19 859.162 1418.65 864.355 1442.55 868.984 1466.82 873.113 1491.47 876.679 1516.43 879.62 1541.58 881.934 1566.98 883.624 1592.51 884.625 1618.16 885 1643.87 884.625 1669.84 883.624 1695.49 881.934 1721.08 879.62 1746.48 876.679 1771.69 873.176 1796.65 869.11 1821.3 864.48 1845.57 859.287 1869.47 853.657 1892.93 847.525 1915.9 840.893 1938.3 833.885 1960.07 826.438 1981.22 818.553 2001.62 810.355 2021.34 801.779 2040.24 792.889 2058.27 783.684 2075.37 774.164 2091.59 764.391 2106.75 754.364 2120.85 744.145 2133.89 733.731 2145.75 723.122 2156.42 712.315 2165.84 701.374 2173.95 690.355 2180.75 679.208 2186.11 673.574 2188.26 667.953 2189.96 662.322 2191.36 657.48 2192.11 657.174 2190.13 661.972 2189.39 661.885 2189.4 667.448 2188.03 667.397 2188.04 672.96 2186.36 672.893 2186.38 678.456 2184.25 678.38 2184.29 689.442 2178.97 689.35 2179.02 700.287 2172.27 700.217 2172.32 711.092 2164.26 711.03 2164.31 721.78 2154.93 721.728 2154.98 732.291 2144.36 732.249 2144.4 742.624 2132.59 742.588 2132.63 752.775 2119.63 752.748 2119.67 762.748 2105.61 762.722 2105.65 772.472 2090.52 772.45 2090.56 781.95 2074.37 781.932 2074.4 791.12 2057.34 791.103 2057.37 799.978 2039.37 799.964 2039.4 808.527 2020.52 808.514 2020.55 816.702 2000.87 816.692 2000.89 824.567 1980.51 824.557 1980.54 831.994 1959.42 831.986 1959.44 838.986 1937.69 838.979 1937.72 845.604 1915.34 845.596 1915.37 851.721 1892.43 851.715 1892.45 857.34 1869.02 857.335 1869.04 862.523 1845.16 862.518 1845.19 867.143 1820.94 867.138 1820.96 871.201 1796.34 871.197 1796.36 874.697 1771.42 874.694 1771.45 877.632 1746.26 877.629 1746.28 879.942 1720.91 879.94 1720.93 881.627 1695.37 881.626 1695.4 882.626 1669.77 882.625 1669.8 883 1643.86 883 1643.89 882.625 1618.2 882.626 1618.23 881.626 1592.6 881.627 1592.63 879.94 1567.13 879.942 1567.15 877.629 1541.78 877.632 1541.8 874.694 1516.68 874.698 1516.7 871.135 1491.77 871.139 1491.79 867.014 1467.17 867.018 1467.19 862.393 1442.94 862.398 1442.96 857.21 1419.09 857.216 1419.11 851.528 1395.67 851.535 1395.7 845.347 1372.82 845.354 1372.85 838.729 1350.47 838.736 1350.5 831.674 1328.75 831.683 1328.77 824.183 1307.65 824.192 1307.67 816.317 1287.3 816.328 1287.32 808.078 1267.64 808.09 1267.67 799.465 1248.79 799.479 1248.82 790.542 1230.82 790.558 1230.85 781.308 1213.79 781.325 1213.82 771.825 1197.63 771.849 1197.67 762.036 1182.54 762.062 1182.58 751.999 1168.52 752.027 1168.56 741.777 1155.56 741.813 1155.6 731.376 1143.79 731.418 1143.83 720.793 1133.21 720.845 1133.26 710.032 1123.88 710.089 1123.93 699.214 1115.8 699.295 1115.86 688.233 1109.17 688.319 1109.21 677.194 1103.9 677.268 1103.93 671.706 1101.81 671.762 1101.83 666.2 1100.08 666.263 1100.1 660.638 1098.72 660.711 1098.74 655.086 1097.8 655.14 1097.81 649.515 1097.18 649.592 1097.19 643.967 1097ZM659.012 2194.98 645.375 2192.19 658.299 2187.01Z"/><path d="M644.08 1246 651.902 1246.63 659.728 1248.42 667.537 1251.4 675.264 1255.45 682.91 1260.63 690.476 1266.81 697.969 1273.99 705.262 1282.1 712.484 1291.08 719.578 1301 726.477 1311.73 733.247 1323.26 739.828 1335.55 746.155 1348.57 752.356 1362.23 758.242 1376.57 763.94 1391.53 769.323 1407.06 774.518 1423.08 779.338 1439.61 783.906 1456.63 788.162 1474.02 792.042 1491.8 795.608 1509.94 798.8 1528.4 801.615 1547.11 804.056 1566.07 806.121 1585.16 807.685 1604.43 808.874 1623.83 809.562 1643.29 809.813 1662.81 809.562 1682.34 808.874 1701.8 807.748 1721.2 806.121 1740.47 804.118 1759.61 801.741 1778.51 798.925 1797.22 795.734 1815.68 792.23 1833.83 788.35 1851.6 784.157 1869.06 779.588 1886.02 774.769 1902.54 769.699 1918.63 764.315 1934.09 758.681 1949.05 752.795 1963.39 746.719 1977.11 740.391 1990.08 733.874 2002.36 727.167 2013.9 720.33 2024.62 713.299 2034.54 706.14 2043.52 698.909 2051.63 691.479 2058.81 683.974 2064.99 676.393 2070.11 668.73 2074.22 660.966 2077.21 657.446 2077.91 657.061 2075.94 660.495 2075.27 660.328 2075.32 667.953 2072.38 667.839 2072.43 675.402 2068.37 675.316 2068.42 682.816 2063.36 682.739 2063.42 690.177 2057.29 690.118 2057.34 697.493 2050.22 697.441 2050.27 704.629 2042.21 704.593 2042.25 711.718 2033.31 711.684 2033.36 718.684 2023.48 718.657 2023.52 725.469 2012.84 725.448 2012.87 732.136 2001.37 732.117 2001.41 738.617 1989.16 738.601 1989.19 744.914 1976.25 744.898 1976.28 750.961 1962.59 750.95 1962.62 756.825 1948.31 756.814 1948.33 762.439 1933.4 762.431 1933.42 767.806 1917.98 767.796 1918.01 772.859 1901.95 772.852 1901.97 777.665 1885.47 777.659 1885.49 782.222 1868.55 782.215 1868.58 786.403 1851.14 786.398 1851.16 790.273 1833.41 790.268 1833.44 793.768 1815.31 793.765 1815.33 796.952 1796.89 796.949 1796.91 799.761 1778.23 799.758 1778.25 802.133 1759.38 802.13 1759.4 804.13 1740.27 804.129 1740.29 805.754 1721.04 805.752 1721.07 806.877 1701.69 806.876 1701.71 807.563 1682.28 807.563 1682.3 807.813 1662.8 807.813 1662.83 807.563 1643.33 807.563 1643.35 806.876 1623.91 806.877 1623.94 805.689 1604.56 805.691 1604.58 804.128 1585.33 804.131 1585.36 802.068 1566.3 802.071 1566.32 799.633 1547.38 799.636 1547.4 796.824 1528.71 796.827 1528.73 793.64 1510.3 793.644 1510.32 790.081 1492.19 790.086 1492.21 786.211 1474.46 786.216 1474.49 781.966 1457.11 781.972 1457.13 777.409 1440.13 777.415 1440.16 772.602 1423.66 772.611 1423.68 767.424 1407.68 767.43 1407.7 762.055 1392.2 762.065 1392.23 756.378 1377.29 756.387 1377.32 750.512 1363 750.527 1363.04 744.339 1349.41 744.35 1349.44 738.038 1336.44 738.056 1336.47 731.494 1324.22 731.513 1324.26 724.763 1312.76 724.784 1312.79 717.909 1302.1 717.937 1302.14 710.874 1292.27 710.908 1292.31 703.721 1283.38 703.756 1283.42 696.506 1275.36 696.558 1275.41 689.121 1268.28 689.18 1268.34 681.68 1262.21 681.752 1262.27 674.189 1257.14 674.285 1257.2 666.66 1253.2 666.768 1253.25 659.081 1250.31 659.216 1250.35 651.528 1248.6 651.67 1248.62 643.92 1248ZM659.141 2080.69 645.375 2078.62 658.007 2072.78Z"/><path d="M644.102 1397.01 648.435 1397.45 652.911 1398.68 657.302 1400.75 661.593 1403.57 665.86 1407.07 670.114 1411.32 674.224 1416.26 678.321 1421.8 682.352 1427.98 686.251 1434.71 690.082 1442.05 693.847 1449.9 697.486 1458.3 700.997 1467.15 704.381 1476.48 707.702 1486.26 710.834 1496.47 713.841 1507.05 719.413 1529.28 724.233 1552.75 728.426 1577.23 731.744 1602.58 734.185 1628.55 735.749 1654.9 736.25 1681.5 735.749 1708.1 734.247 1734.45 731.806 1760.42 728.489 1785.77 724.421 1810.24 719.663 1833.72 714.155 1855.94 711.211 1866.53 708.141 1876.74 704.882 1886.52 701.499 1895.85 698.051 1904.69 694.475 1913.1 690.772 1920.94 687.005 1928.29 683.168 1935.02 679.201 1941.19 675.167 1946.74 671.119 1951.67 666.928 1955.92 662.699 1959.45 657.392 1962.5 656.395 1960.77 661.626 1957.76 661.485 1957.86 665.61 1954.42 665.538 1954.49 669.663 1950.3 669.602 1950.37 673.602 1945.49 673.566 1945.54 677.566 1940.04 677.534 1940.08 681.471 1933.96 681.444 1934 685.256 1927.32 685.235 1927.36 688.985 1920.04 688.971 1920.07 692.658 1912.26 692.642 1912.3 696.205 1903.92 696.193 1903.95 699.631 1895.14 699.622 1895.16 702.997 1885.85 702.989 1885.87 706.239 1876.12 706.23 1876.15 709.292 1865.96 709.287 1865.98 712.224 1855.42 712.217 1855.45 717.717 1833.26 717.707 1833.3 722.457 1809.86 722.451 1809.9 726.514 1785.46 726.508 1785.5 729.821 1760.18 729.817 1760.22 732.254 1734.28 732.252 1734.32 733.752 1708.01 733.75 1708.04 734.25 1681.48 734.25 1681.52 733.75 1654.96 733.752 1655 732.189 1628.68 732.192 1628.72 729.754 1602.78 729.758 1602.82 726.446 1577.5 726.452 1577.54 722.264 1553.11 722.27 1553.14 717.458 1529.7 717.468 1529.74 711.905 1507.56 711.913 1507.59 708.913 1497.02 708.919 1497.04 705.794 1486.86 705.803 1486.88 702.491 1477.13 702.497 1477.15 699.122 1467.84 699.133 1467.87 695.633 1459.06 695.645 1459.08 692.02 1450.71 692.036 1450.75 688.286 1442.93 688.301 1442.96 684.488 1435.65 684.51 1435.69 680.635 1429 680.663 1429.05 676.663 1422.92 676.696 1422.97 672.633 1417.47 672.669 1417.52 668.607 1412.64 668.668 1412.71 664.48 1408.52 664.553 1408.59 660.365 1405.15 660.451 1405.21 656.264 1402.46 656.387 1402.53 652.137 1400.53 652.297 1400.59 647.984 1399.4 648.148 1399.43 643.898 1398.99ZM659.295 1965.1 645.375 1965 657.051 1957.42Z"/><path d="M373.234 1928.99 368.775 1928.54 364.3 1927.31 359.852 1925.25 355.436 1922.43 351.104 1918.93 346.789 1914.68 342.551 1909.74 338.451 1904.19 334.362 1898.03 330.337 1891.3 326.44 1883.94 322.675 1876.1 318.976 1867.7 315.339 1858.86 311.891 1849.51 308.57 1839.74 305.376 1829.53 302.306 1818.94 296.672 1796.72 291.726 1773.24 287.532 1748.77 284.152 1723.42 281.649 1697.44 280.084 1671.09 279.521 1644.49 280.021 1617.89 281.586 1591.54 284.027 1565.57 287.407 1540.22 291.538 1515.74 296.421 1492.27 301.992 1470.05 304.999 1459.46 308.131 1449.25 311.39 1439.47 314.837 1430.13 318.347 1421.3 321.986 1412.89 325.751 1405.04 329.584 1397.69 333.546 1390.96 337.572 1384.8 341.609 1379.25 345.784 1374.31 350.036 1370.06 354.329 1366.54 359.923 1363.39 360.903 1365.14 355.386 1368.24 355.53 1368.14 351.343 1371.58 351.415 1371.51 347.228 1375.7 347.284 1375.64 343.159 1380.51 343.205 1380.46 339.205 1385.96 339.233 1385.91 335.233 1392.04 335.258 1392 331.32 1398.69 331.345 1398.64 327.533 1405.95 327.547 1405.92 323.797 1413.74 323.814 1413.7 320.189 1422.08 320.2 1422.05 316.7 1430.86 316.709 1430.84 313.271 1440.15 313.282 1440.12 310.032 1449.87 310.039 1449.85 306.914 1460.04 306.92 1460.02 303.92 1470.58 303.928 1470.55 298.366 1492.74 298.375 1492.7 293.5 1516.13 293.507 1516.1 289.382 1540.53 289.387 1540.5 286.012 1565.81 286.016 1565.77 283.579 1591.71 283.582 1591.68 282.019 1617.99 282.021 1617.95 281.521 1644.51 281.521 1644.47 282.083 1671.03 282.082 1671 283.644 1697.31 283.641 1697.27 286.141 1723.21 286.137 1723.17 289.512 1748.48 289.506 1748.45 293.694 1772.89 293.687 1772.85 298.624 1796.29 298.615 1796.25 304.24 1818.43 304.231 1818.4 307.294 1828.96 307.288 1828.94 310.475 1839.13 310.468 1839.11 313.78 1848.86 313.771 1848.83 317.209 1858.15 317.196 1858.11 320.821 1866.92 320.811 1866.9 324.499 1875.28 324.485 1875.25 328.235 1883.06 328.217 1883.02 332.092 1890.34 332.067 1890.29 336.067 1896.98 336.042 1896.94 340.104 1903.06 340.075 1903.02 344.138 1908.52 344.092 1908.47 348.279 1913.34 348.223 1913.28 352.473 1917.47 352.4 1917.4 356.65 1920.84 356.559 1920.77 360.871 1923.52 360.754 1923.46 365.067 1925.46 364.911 1925.4 369.224 1926.59 369.058 1926.56 373.433 1927ZM358.04 1360.78 371.958 1360.99 360.221 1368.48Z"/><path d="M373.254 2041.59 365.31 2040.95 357.297 2039.17 349.364 2036.19 341.514 2032.14 333.681 2026.96 325.989 2020.78 318.372 2013.6 310.891 2005.49 303.541 1996.51 296.323 1986.59 289.298 1975.87 282.402 1964.33 275.696 1952.05 269.244 1939.02 262.918 1925.37 256.905 1911.02 251.146 1896.06 245.575 1880.54 240.317 1864.51 235.372 1847.99 230.74 1830.97 226.423 1813.57 222.418 1795.8 218.788 1777.65 215.534 1759.19 212.656 1740.48 210.153 1721.52 208.088 1702.43 206.461 1683.16 205.272 1663.76 204.584 1644.3 204.333 1624.78 204.584 1605.25 205.272 1585.79 206.461 1566.39 208.088 1547.12 210.153 1527.97 212.593 1509.08 215.409 1490.36 218.663 1471.9 222.292 1453.76 226.234 1435.99 230.49 1418.53 235.122 1401.56 240.066 1385.04 245.261 1368.96 250.707 1353.49 256.468 1338.53 262.479 1324.19 268.68 1310.47 275.133 1297.5 281.776 1285.22 288.608 1273.69 295.57 1262.96 302.726 1253.04 310.013 1244.06 317.432 1235.95 324.986 1228.77 332.617 1222.59 340.386 1217.48 348.172 1213.36 356.122 1210.37 359.882 1209.64 360.265 1211.6 356.587 1212.32 356.748 1212.27 348.935 1215.21 349.051 1215.16 341.363 1219.22 341.446 1219.17 333.758 1224.24 333.838 1224.18 326.275 1230.3 326.335 1230.25 318.835 1237.38 318.884 1237.33 311.509 1245.39 311.547 1245.34 304.297 1254.28 304.332 1254.24 297.207 1264.11 297.235 1264.07 290.297 1274.76 290.319 1274.72 283.506 1286.22 283.525 1286.19 276.9 1298.44 276.916 1298.41 270.479 1311.35 270.495 1311.31 264.307 1325 264.318 1324.98 258.318 1339.29 258.329 1339.26 252.579 1354.2 252.589 1354.17 247.152 1369.61 247.16 1369.58 241.972 1385.65 241.979 1385.63 237.041 1402.13 237.048 1402.1 232.423 1419.04 232.43 1419.01 228.18 1436.45 228.185 1436.43 224.247 1454.18 224.251 1454.16 220.626 1472.28 220.631 1472.26 217.381 1490.7 217.385 1490.67 214.572 1509.36 214.575 1509.34 212.138 1528.22 212.14 1528.2 210.078 1547.32 210.08 1547.3 208.455 1566.55 208.456 1566.52 207.269 1585.9 207.27 1585.87 206.583 1605.31 206.583 1605.29 206.333 1624.79 206.333 1624.76 206.583 1644.26 206.583 1644.24 207.27 1663.68 207.269 1663.65 208.456 1683.03 208.455 1683 210.08 1702.25 210.078 1702.23 212.14 1721.29 212.137 1721.27 214.637 1740.21 214.634 1740.19 217.509 1758.87 217.506 1758.85 220.756 1777.29 220.751 1777.27 224.376 1795.39 224.371 1795.37 228.371 1813.12 228.366 1813.1 232.679 1830.47 232.673 1830.45 237.298 1847.45 237.291 1847.43 242.229 1863.93 242.221 1863.9 247.471 1879.9 247.462 1879.88 253.025 1895.38 253.017 1895.35 258.767 1910.29 258.756 1910.26 264.756 1924.58 264.741 1924.54 271.053 1938.17 271.042 1938.14 277.479 1951.14 277.461 1951.11 284.149 1963.36 284.129 1963.33 291.004 1974.83 290.982 1974.79 297.982 1985.48 297.954 1985.44 305.142 1995.31 305.107 1995.27 312.42 2004.21 312.381 2004.16 319.818 2012.22 319.769 2012.17 327.332 2019.3 327.272 2019.25 334.897 2025.37 334.822 2025.32 342.572 2030.44 342.479 2030.39 350.229 2034.39 350.123 2034.34 357.935 2037.28 357.8 2037.24 365.675 2038.99 365.537 2038.97 373.412 2039.59ZM358.2 1206.84 371.958 1208.96 359.306 1214.77Z"/><path d="M373.3 2155.18 367.575 2155 361.822 2154.36 356.072 2153.42 350.319 2152.02 344.574 2150.26 338.819 2148.11 327.487 2142.76 316.217 2136.02 305.086 2127.84 294.093 2118.42 283.297 2107.75 272.633 2095.89 262.225 2082.85 252.01 2068.75 242.048 2053.59 232.403 2037.37 223.011 2020.28 213.933 2002.25 205.169 1983.34 196.782 1963.62 188.835 1943.22 181.2 1922.07 174.067 1900.3 167.31 1877.9 161.053 1855 155.297 1831.54 150.042 1807.64 145.287 1783.36 141.158 1758.71 137.592 1733.75 134.589 1708.6 132.211 1683.2 130.522 1657.68 129.459 1632.02 129.146 1606.31 129.459 1580.35 130.46 1554.69 132.149 1529.11 134.526 1503.71 137.467 1478.49 141.033 1453.53 145.224 1428.88 149.916 1404.61 155.109 1380.71 160.865 1357.25 167.059 1334.29 173.754 1311.89 180.887 1290.11 188.459 1268.96 196.407 1248.56 204.731 1228.84 213.432 1209.94 222.448 1191.91 231.839 1174.81 241.421 1158.59 251.321 1143.43 261.474 1129.33 271.881 1116.29 282.42 1104.43 293.216 1093.76 304.085 1084.34 315.215 1076.23 326.358 1069.43 337.693 1064.08 343.388 1061.92 349.071 1060.22 354.764 1058.83 359.853 1058.05 360.155 1060.03 355.109 1060.8 355.196 1060.78 349.571 1062.16 349.621 1062.14 343.996 1063.83 344.062 1063.81 338.437 1065.93 338.51 1065.9 327.26 1071.21 327.354 1071.16 316.292 1077.91 316.36 1077.87 305.297 1085.93 305.363 1085.88 294.551 1095.25 294.599 1095.21 283.849 1105.83 283.893 1105.79 273.393 1117.6 273.427 1117.56 263.052 1130.56 263.082 1130.52 252.957 1144.58 252.983 1144.54 243.108 1159.67 243.132 1159.63 233.569 1175.82 233.585 1175.79 224.21 1192.85 224.228 1192.82 215.228 1210.82 215.242 1210.79 206.554 1229.67 206.567 1229.64 198.255 1249.32 198.265 1249.3 190.328 1269.67 190.337 1269.65 182.775 1290.77 182.784 1290.75 175.659 1312.5 175.666 1312.47 168.979 1334.85 168.986 1334.82 162.799 1357.76 162.805 1357.74 157.055 1381.17 157.061 1381.15 151.873 1405.02 151.878 1405 147.19 1429.25 147.194 1429.23 143.007 1453.85 143.011 1453.83 139.448 1478.76 139.452 1478.74 136.514 1503.93 136.516 1503.9 134.142 1529.28 134.144 1529.25 132.456 1554.81 132.458 1554.79 131.458 1580.41 131.458 1580.38 131.146 1606.32 131.146 1606.3 131.458 1631.99 131.458 1631.96 132.52 1657.58 132.519 1657.56 134.206 1683.06 134.204 1683.03 136.579 1708.4 136.576 1708.38 139.576 1733.5 139.573 1733.48 143.136 1758.42 143.132 1758.39 147.257 1783.02 147.252 1782.99 152.002 1807.24 151.998 1807.22 157.248 1831.1 157.242 1831.07 162.992 1854.51 162.986 1854.48 169.236 1877.36 169.228 1877.33 175.978 1899.71 175.971 1899.69 183.096 1921.44 183.086 1921.41 190.711 1942.53 190.703 1942.51 198.64 1962.88 198.629 1962.86 207.004 1982.54 206.991 1982.51 215.741 2001.39 215.727 2001.36 224.789 2019.36 224.772 2019.33 234.147 2036.39 234.13 2036.36 243.755 2052.55 243.732 2052.51 253.669 2067.64 253.643 2067.6 263.831 2081.66 263.802 2081.62 274.177 2094.62 274.139 2094.58 284.764 2106.39 284.724 2106.35 295.474 2116.97 295.422 2116.93 306.359 2126.3 306.3 2126.25 317.363 2134.38 317.284 2134.33 328.471 2141.01 328.385 2140.97 339.635 2146.28 339.558 2146.25 345.246 2148.37 345.19 2148.35 350.877 2150.1 350.818 2150.09 356.506 2151.46 356.433 2151.45 362.121 2152.39 362.068 2152.38 367.755 2153 367.679 2153 373.366 2153.19ZM358.328 1055.17 371.958 1058 359.023 1063.14Z"/></g></svg>