<svg width="313" height="278" xmlns="http://www.w3.org/2000/svg" xmlns:xlink="http://www.w3.org/1999/xlink" overflow="hidden"><defs><clipPath id="clip0"><rect x="198" y="1093" width="313" height="278"/></clipPath></defs><g clip-path="url(#clip0)" transform="translate(-198 -1093)"><path d="M319.5 1228.5C319.5 1218.01 327.783 1209.5 338 1209.5 348.217 1209.5 356.5 1218.01 356.5 1228.5 356.5 1238.99 348.217 1247.5 338 1247.5 327.783 1247.5 319.5 1238.99 319.5 1228.5Z" stroke="#000000" stroke-width="1.33333" stroke-miterlimit="8" fill="#FFFFFF" fill-rule="evenodd"/><text font-family="Consolas,Consolas_MSFontService,sans-serif" font-weight="400" font-size="24" transform="translate(330.975 1237)">+<tspan font-size="24" x="-117.815" y="113">a</tspan><tspan font-size="16" x="-104.648" y="118">0</tspan><tspan font-size="24" x="-4.41672" y="113">b</tspan><tspan font-size="16" x="8.74997" y="118">0</tspan><tspan font-size="24" x="108.982" y="113">c</tspan><tspan font-size="16" x="122.148" y="118">0</tspan></text><path d="M0 0 0.000104987 75.5989" stroke="#000000" stroke-width="1.33333" stroke-miterlimit="8" fill="none" fill-rule="evenodd" transform="matrix(1 0 0 -1 338.5 1323.1)"/><path d="M438.17 1329.17 351.5 1242.5" stroke="#000000" stroke-width="1.33333" stroke-miterlimit="8" fill="none" fill-rule="evenodd"/><path d="M205.5 1228.5C205.5 1218.01 214.007 1209.5 224.5 1209.5 234.993 1209.5 243.5 1218.01 243.5 1228.5 243.5 1238.99 234.993 1247.5 224.5 1247.5 214.007 1247.5 205.5 1238.99 205.5 1228.5Z" stroke="#000000" stroke-width="1.33333" stroke-miterlimit="8" fill="#FFFFFF" fill-rule="evenodd"/><text font-family="Consolas,Consolas_MSFontService,sans-serif" font-weight="400" font-size="24" transform="translate(217.577 1237)">+</text><path d="M0 0 0.000104987 75.5989" stroke="#000000" stroke-width="1.33333" stroke-miterlimit="8" fill="none" fill-rule="evenodd" transform="matrix(1 0 0 -1 224.5 1323.1)"/><path d="M325.17 1329.17 238.5 1242.5" stroke="#000000" stroke-width="1.33333" stroke-miterlimit="8" fill="none" fill-rule="evenodd"/><path d="M432.5 1228.5C432.5 1218.01 441.007 1209.5 451.5 1209.5 461.993 1209.5 470.5 1218.01 470.5 1228.5 470.5 1238.99 461.993 1247.5 451.5 1247.5 441.007 1247.5 432.5 1238.99 432.5 1228.5Z" stroke="#000000" stroke-width="1.33333" stroke-miterlimit="8" fill="#FFFFFF" fill-rule="evenodd"/><text font-family="Consolas,Consolas_MSFontService,sans-serif" font-weight="400" font-size="24" transform="translate(444.374 1237)">*</text><path d="M0 0 86.6702 86.6702" stroke="#000000" stroke-width="1.33333" stroke-miterlimit="8" fill="none" fill-rule="evenodd" transform="matrix(1 0 0 -1 351.5 1329.17)"/><path d="M0 0 0.000104987 75.5989" stroke="#000000" stroke-width="1.33333" stroke-miterlimit="8" fill="none" fill-rule="evenodd" transform="matrix(1 0 0 -1 451.5 1323.1)"/><path d="M205.5 1115.5C205.5 1105.01 214.007 1096.5 224.5 1096.5 234.993 1096.5 243.5 1105.01 243.5 1115.5 243.5 1125.99 234.993 1134.5 224.5 1134.5 214.007 1134.5 205.5 1125.99 205.5 1115.5Z" stroke="#000000" stroke-width="1.33333" stroke-miterlimit="8" fill="#FFFFFF" fill-rule="evenodd"/><text font-family="Consolas,Consolas_MSFontService,sans-serif" font-weight="400" font-size="24" transform="translate(217.577 1124)">-</text><path d="M0 0 0.000104987 75.5989" stroke="#000000" stroke-width="1.33333" stroke-miterlimit="8" fill="none" fill-rule="evenodd" transform="matrix(1 0 0 -1 224.5 1210.1)"/><path d="M325.17 1215.17 238.5 1128.5" stroke="#000000" stroke-width="1.33333" stroke-miterlimit="8" fill="none" fill-rule="evenodd"/><text font-family="Consolas,Consolas_MSFontService,sans-serif" font-weight="400" font-size="24" transform="translate(255.376 1124)">a<tspan font-size="24" x="0" y="113">e</tspan><tspan font-size="24" x="113.398" y="113">d</tspan><tspan font-size="24" x="226.797" y="113">b</tspan></text></g></svg>