<svg width="669" height="694" xmlns="http://www.w3.org/2000/svg" xmlns:xlink="http://www.w3.org/1999/xlink" overflow="hidden"><defs><clipPath id="clip0"><rect x="566" y="4018" width="669" height="694"/></clipPath></defs><g clip-path="url(#clip0)" transform="translate(-566 -4018)"><path d="M576.5 4352.5C576.5 4316.6 605.601 4287.5 641.5 4287.5 677.398 4287.5 706.5 4316.6 706.5 4352.5 706.5 4388.4 677.398 4417.5 641.5 4417.5 605.601 4417.5 576.5 4388.4 576.5 4352.5Z" stroke="#000000" stroke-width="4.58333" stroke-miterlimit="8" fill="#FFFFFF" fill-rule="evenodd"/><text font-family="Courier New,Courier New_MSFontService,sans-serif" font-weight="700" font-size="83" transform="matrix(1 0 0 1 615.98 4376)">f</text><path d="M706.5 4092.5C706.5 4056.6 735.601 4027.5 771.5 4027.5 807.398 4027.5 836.5 4056.6 836.5 4092.5 836.5 4128.4 807.398 4157.5 771.5 4157.5 735.601 4157.5 706.5 4128.4 706.5 4092.5Z" stroke="#000000" stroke-width="4.58333" stroke-miterlimit="8" fill="#FFFFFF" fill-rule="evenodd"/><text font-family="Courier New,Courier New_MSFontService,sans-serif" font-weight="700" font-size="83" transform="matrix(1 0 0 1 745.915 4116)">a</text><path d="M965.5 4092.5C965.5 4056.6 994.602 4027.5 1030.5 4027.5 1066.4 4027.5 1095.5 4056.6 1095.5 4092.5 1095.5 4128.4 1066.4 4157.5 1030.5 4157.5 994.602 4157.5 965.5 4128.4 965.5 4092.5Z" stroke="#000000" stroke-width="4.58333" stroke-miterlimit="8" fill="#FFFFFF" fill-rule="evenodd"/><text font-family="Courier New,Courier New_MSFontService,sans-serif" font-weight="700" font-size="83" transform="matrix(1 0 0 1 1005.79 4116)">b</text><path d="M1095.5 4352.5C1095.5 4316.6 1124.6 4287.5 1160.5 4287.5 1196.4 4287.5 1225.5 4316.6 1225.5 4352.5 1225.5 4388.4 1196.4 4417.5 1160.5 4417.5 1124.6 4417.5 1095.5 4388.4 1095.5 4352.5Z" stroke="#000000" stroke-width="4.58333" stroke-miterlimit="8" fill="#FFFFFF" fill-rule="evenodd"/><text font-family="Courier New,Courier New_MSFontService,sans-serif" font-weight="700" font-size="83" transform="matrix(1 0 0 1 1135.72 4376)">c</text><path d="M965.5 4612.5C965.5 4576.6 994.602 4547.5 1030.5 4547.5 1066.4 4547.5 1095.5 4576.6 1095.5 4612.5 1095.5 4648.4 1066.4 4677.5 1030.5 4677.5 994.602 4677.5 965.5 4648.4 965.5 4612.5Z" stroke="#000000" stroke-width="4.58333" stroke-miterlimit="8" fill="#FFFFFF" fill-rule="evenodd"/><text font-family="Courier New,Courier New_MSFontService,sans-serif" font-weight="700" font-size="83" transform="matrix(1 0 0 1 1005.79 4636)">d</text><path d="M706.5 4612.5C706.5 4576.6 735.601 4547.5 771.5 4547.5 807.398 4547.5 836.5 4576.6 836.5 4612.5 836.5 4648.4 807.398 4677.5 771.5 4677.5 735.601 4677.5 706.5 4648.4 706.5 4612.5Z" stroke="#000000" stroke-width="4.58333" stroke-miterlimit="8" fill="#FFFFFF" fill-rule="evenodd"/><text font-family="Courier New,Courier New_MSFontService,sans-serif" font-weight="700" font-size="83" transform="matrix(1 0 0 1 745.915 4636)">e</text><path d="M771.5 4157.5 771.5 4547.31" stroke="#000000" stroke-width="4.58333" stroke-miterlimit="8" fill="none" fill-rule="evenodd"/><path d="M1030.5 4157.5 1030.5 4547.31" stroke="#000000" stroke-width="4.58333" stroke-miterlimit="8" fill="none" fill-rule="evenodd"/><path d="M836.5 4092.5 966.436 4092.5" stroke="#000000" stroke-width="4.58333" stroke-miterlimit="8" fill="none" fill-rule="evenodd"/><path d="M836.5 4612.5 966.436 4612.5" stroke="#000000" stroke-width="4.58333" stroke-miterlimit="8" fill="none" fill-rule="evenodd"/><path d="M641.5 4417.5 725.497 4566.46" stroke="#000000" stroke-width="4.58333" stroke-miterlimit="8" fill="none" fill-rule="evenodd"/><path d="M0 0 83.9966 148.964" stroke="#000000" stroke-width="4.58333" stroke-miterlimit="8" fill="none" fill-rule="evenodd" transform="matrix(1 0 0 -1 641.5 4287.46)"/><path d="M706.5 4352.5 1096.31 4352.5" stroke="#000000" stroke-width="4.58333" stroke-miterlimit="8" fill="none" fill-rule="evenodd"/><path d="M1076.5 4138.5 1160.5 4287.46" stroke="#000000" stroke-width="4.58333" stroke-miterlimit="8" fill="none" fill-rule="evenodd"/><path d="M0 0 83.9966 148.964" stroke="#000000" stroke-width="4.58333" stroke-miterlimit="8" fill="none" fill-rule="evenodd" transform="matrix(-1 0 0 1 1160.5 4417.5)"/><path d="M0 0 167.993 427.865" stroke="#000000" stroke-width="4.58333" stroke-miterlimit="8" fill="none" fill-rule="evenodd" transform="matrix(1 0 0 -1 816.5 4566.36)"/><path d="M984.493 4566.36 816.5 4138.5" stroke="#000000" stroke-width="4.58333" stroke-miterlimit="8" fill="none" fill-rule="evenodd"/></g></svg>