<svg width="635" height="426" xmlns="http://www.w3.org/2000/svg" xmlns:xlink="http://www.w3.org/1999/xlink" overflow="hidden"><defs><clipPath id="clip0"><rect x="200" y="28" width="635" height="426"/></clipPath></defs><g clip-path="url(#clip0)" transform="translate(-200 -28)"><rect x="213" y="88" width="106" height="30" stroke="#000000" stroke-width="2" stroke-miterlimit="8" fill="#FFFFFF"/><text font-family="Consolas,Consolas_MSFontService,sans-serif" font-weight="400" font-size="24" transform="translate(259.156 112)">S</text><rect x="213" y="118" width="106" height="30" stroke="#000000" stroke-width="2" stroke-miterlimit="8" fill="#FFFFFF"/><text font-family="Consolas,Consolas_MSFontService,sans-serif" font-weight="400" font-size="24" transform="translate(226.24 142)">next=x</text><path d="M267 65 267 75.6797 265 75.6797 265 65ZM272.667 74.3463 266 87.6797 259.333 74.3464Z"/><text font-family="Consolas,Consolas_MSFontService,sans-serif" font-weight="400" font-size="24" transform="translate(245.99 59)">top</text><rect x="251" y="284" width="37" height="31" stroke="#000000" stroke-width="2" stroke-miterlimit="8" fill="#FFFFFF"/><text font-family="Consolas,Consolas_MSFontService,sans-serif" font-weight="400" font-size="24" transform="translate(262.936 308)">{</text><path d="M267 262 267 272.68 265 272.68 265 262ZM272.667 271.346 266 284.68 259.333 271.346Z"/><text font-family="Consolas,Consolas_MSFontService,sans-serif" font-weight="400" font-size="24" transform="translate(245.99 255)">top</text><rect x="334" y="88" width="106" height="30" stroke="#000000" stroke-width="2" stroke-miterlimit="8" fill="#FFFFFF"/><text font-family="Consolas,Consolas_MSFontService,sans-serif" font-weight="400" font-size="24" transform="translate(347.198 112)">S.code</text><rect x="334" y="118" width="106" height="30" stroke="#000000" stroke-width="2" stroke-miterlimit="8" fill="#FFFFFF"/><text font-family="Consolas,Consolas_MSFontService,sans-serif" font-weight="400" font-size="24" transform="translate(347.198 142)">code=?</text><rect x="424" y="284" width="106" height="31" stroke="#000000" stroke-width="2" stroke-miterlimit="8" fill="#FFFFFF"/><text font-family="Consolas,Consolas_MSFontService,sans-serif" font-weight="400" font-size="24" transform="translate(470.833 308)">L</text><rect x="545" y="284" width="106" height="31" stroke="#000000" stroke-width="2" stroke-miterlimit="8" fill="#FFFFFF"/><text font-family="Consolas,Consolas_MSFontService,sans-serif" font-weight="400" font-size="24" transform="translate(558.875 308)">L.<tspan font-size="24" x="26.3334" y="0">code</tspan></text><rect x="719" y="284" width="106" height="31" stroke="#000000" stroke-width="2" stroke-miterlimit="8" fill="#FFFFFF"/><text font-family="Consolas,Consolas_MSFontService,sans-serif" font-weight="400" font-size="24" transform="translate(732.753 308)">S.code</text><rect x="334" y="148" width="106" height="31" stroke="#000000" stroke-width="2" stroke-miterlimit="8" fill="#FFFFFF"/><text font-family="Consolas,Consolas_MSFontService,sans-serif" font-weight="400" font-size="24" transform="translate(360.365 172)">data</text><rect x="719" y="315" width="106" height="30" stroke="#000000" stroke-width="2" stroke-miterlimit="8" fill="#FFFFFF"/><text font-family="Consolas,Consolas_MSFontService,sans-serif" font-weight="400" font-size="24" transform="translate(732.753 338)">code=?</text><rect x="719" y="345" width="106" height="30" stroke="#000000" stroke-width="2" stroke-miterlimit="8" fill="#FFFFFF"/><text font-family="Consolas,Consolas_MSFontService,sans-serif" font-weight="400" font-size="24" transform="translate(745.919 369)">data</text><rect x="545" y="315" width="106" height="30" stroke="#000000" stroke-width="2" stroke-miterlimit="8" fill="#FFFFFF"/><text font-family="Consolas,Consolas_MSFontService,sans-serif" font-weight="400" font-size="24" transform="translate(558.875 338)">code=?</text><rect x="666" y="284" width="38" height="31" stroke="#000000" stroke-width="2" stroke-miterlimit="8" fill="#FFFFFF"/><text font-family="Consolas,Consolas_MSFontService,sans-serif" font-weight="400" font-size="24" transform="translate(678.73 308)">}</text><rect x="424" y="315" width="106" height="30" stroke="#000000" stroke-width="2" stroke-miterlimit="8" fill="#FFFFFF"/><text font-family="Consolas,Consolas_MSFontService,sans-serif" font-weight="400" font-size="24" transform="translate(437.917 338)">next=?</text><rect x="205" y="405" width="280" height="38" stroke="#000000" stroke-width="2" stroke-miterlimit="8" fill="#FFFFFF"/><text font-family="Consolas,Consolas_MSFontService,sans-serif" font-weight="400" font-size="24" transform="translate(214.86 433)">stack[top<tspan font-size="24" x="118.5" y="0">-</tspan><tspan font-size="24" x="131.667" y="0">1].next=x;</tspan></text><path d="M356 315 356 405.719" stroke="#000000" stroke-width="2" stroke-miterlimit="8" stroke-dasharray="8 6" fill="none" fill-rule="evenodd"/><rect x="304" y="284" width="105" height="31" stroke="#000000" stroke-width="2" stroke-miterlimit="8" fill="#FFFFFF"/><text font-family="Consolas,Consolas_MSFontService,sans-serif" font-weight="400" font-size="24" transform="translate(316.958 308)">Actio<tspan font-size="24" x="65.8333" y="0">n</tspan></text><rect x="508" y="405" width="325" height="38" stroke="#000000" stroke-width="2" stroke-miterlimit="8" fill="#FFFFFF"/><text font-family="Consolas,Consolas_MSFontService,sans-serif" font-weight="400" font-size="24" transform="translate(517.256 433)">stack[top<tspan font-size="24" x="118.5" y="0">-</tspan><tspan font-size="24" x="131.667" y="0">2].code=cod</tspan><tspan font-size="24" x="276.5" y="0">e</tspan><tspan font-size="24" x="289.667" y="0">;</tspan></text><path d="M598 345 598 405.479" stroke="#000000" stroke-width="2" stroke-miterlimit="8" stroke-dasharray="8 6" fill="none" fill-rule="evenodd"/></g></svg>