<svg width="468" height="540" xmlns="http://www.w3.org/2000/svg" xmlns:xlink="http://www.w3.org/1999/xlink" overflow="hidden"><defs><clipPath id="clip0"><rect x="170" y="28" width="468" height="540"/></clipPath></defs><g clip-path="url(#clip0)" transform="translate(-170 -28)"><rect x="213" y="88" width="106" height="30" stroke="#000000" stroke-width="2" stroke-miterlimit="8" fill="#FFFFFF"/><text font-family="Consolas,Consolas_MSFontService,sans-serif" font-weight="400" font-size="24" transform="translate(259.156 112)">L</text><rect x="213" y="118" width="106" height="30" stroke="#000000" stroke-width="2" stroke-miterlimit="8" fill="#FFFFFF"/><text font-family="Consolas,Consolas_MSFontService,sans-serif" font-weight="400" font-size="24" transform="translate(226.24 142)">next=x</text><path d="M267 65 267 75.6797 265 75.6797 265 65ZM272.667 74.3463 266 87.6797 259.333 74.3464Z"/><text font-family="Consolas,Consolas_MSFontService,sans-serif" font-weight="400" font-size="24" transform="translate(245.99 59)">top</text><path d="M267 262 267 272.68 265 272.68 265 262ZM272.667 271.346 266 284.68 259.333 271.346Z"/><text font-family="Consolas,Consolas_MSFontService,sans-serif" font-weight="400" font-size="24" transform="translate(245.99 255)">top</text><rect x="334" y="88" width="106" height="30" stroke="#000000" stroke-width="2" stroke-miterlimit="8" fill="#FFFFFF"/><text font-family="Consolas,Consolas_MSFontService,sans-serif" font-weight="400" font-size="24" transform="translate(347.198 112)">L.<tspan font-size="24" x="26.3333" y="0">code</tspan></text><rect x="334" y="118" width="106" height="30" stroke="#000000" stroke-width="2" stroke-miterlimit="8" fill="#FFFFFF"/><text font-family="Consolas,Consolas_MSFontService,sans-serif" font-weight="400" font-size="24" transform="translate(347.198 142)">code=?</text><rect x="334" y="284" width="106" height="31" stroke="#000000" stroke-width="2" stroke-miterlimit="8" fill="#FFFFFF"/><text font-family="Consolas,Consolas_MSFontService,sans-serif" font-weight="400" font-size="24" transform="translate(380.115 308)">ε</text><rect x="334" y="148" width="106" height="31" stroke="#000000" stroke-width="2" stroke-miterlimit="8" fill="#FFFFFF"/><text font-family="Consolas,Consolas_MSFontService,sans-serif" font-weight="400" font-size="24" transform="translate(360.365 172)">data</text><rect x="175" y="405" width="461" height="152" stroke="#000000" stroke-width="2" stroke-miterlimit="8" fill="#FFFFFF"/><text font-family="Consolas,Consolas_MSFontService,sans-serif" font-weight="400" font-size="24" transform="translate(184.621 432)">if (x) { <tspan font-size="24" x="26.3333" y="28">stack[top</tspan><tspan font-size="24" x="144.833" y="28">-</tspan><tspan font-size="24" x="158" y="28">2].code= "</tspan>goto<tspan font-size="24" x="342.333" y="28">" || x;</tspan><tspan font-size="24" x="0" y="57">}</tspan><tspan font-size="24" x="26.3333" y="57">else</tspan><tspan font-size="24" x="92.1667" y="57">{</tspan><tspan font-size="24" x="26.3333" y="86">stack[top</tspan><tspan font-size="24" x="144.833" y="86">-</tspan><tspan font-size="24" x="158" y="86">2].code= "";</tspan><tspan font-size="24" x="0" y="115">}</tspan></text><path d="M266 315 266 405.719" stroke="#000000" stroke-width="2" stroke-miterlimit="8" stroke-dasharray="8 6" fill="none" fill-rule="evenodd"/><rect x="213" y="284" width="106" height="31" stroke="#000000" stroke-width="2" stroke-miterlimit="8" fill="#FFFFFF"/><text font-family="Consolas,Consolas_MSFontService,sans-serif" font-weight="400" font-size="24" transform="translate(226.24 308)">Actio<tspan font-size="24" x="65.8333" y="0">n</tspan></text><rect x="462" y="284" width="106" height="31" stroke="#000000" stroke-width="2" stroke-miterlimit="8" fill="#FFFFFF"/><text font-family="Consolas,Consolas_MSFontService,sans-serif" font-weight="400" font-size="24" transform="translate(475.716 308)">L.code</text><rect x="462" y="315" width="106" height="30" stroke="#000000" stroke-width="2" stroke-miterlimit="8" fill="#FFFFFF"/><text font-family="Consolas,Consolas_MSFontService,sans-serif" font-weight="400" font-size="24" transform="translate(475.716 338)">code=?</text><rect x="462" y="345" width="106" height="30" stroke="#000000" stroke-width="2" stroke-miterlimit="8" fill="#FFFFFF"/><text font-family="Consolas,Consolas_MSFontService,sans-serif" font-weight="400" font-size="24" transform="translate(488.883 369)">data</text></g></svg>