<svg width="1141" height="552" xmlns="http://www.w3.org/2000/svg" xmlns:xlink="http://www.w3.org/1999/xlink" overflow="hidden"><defs><clipPath id="clip0"><rect x="170" y="28" width="1141" height="552"/></clipPath></defs><g clip-path="url(#clip0)" transform="translate(-170 -28)"><rect x="213" y="88" width="106" height="30" stroke="#000000" stroke-width="2" stroke-miterlimit="8" fill="#FFFFFF"/><text font-family="Consolas,Consolas_MSFontService,sans-serif" font-weight="400" font-size="24" transform="translate(259.156 112)">S</text><rect x="213" y="118" width="106" height="30" stroke="#000000" stroke-width="2" stroke-miterlimit="8" fill="#FFFFFF"/><text font-family="Consolas,Consolas_MSFontService,sans-serif" font-weight="400" font-size="24" transform="translate(226.24 142)">next=x</text><path d="M267 65 267 75.6797 265 75.6797 265 65ZM272.667 74.3463 266 87.6797 259.333 74.3464Z"/><text font-family="Consolas,Consolas_MSFontService,sans-serif" font-weight="400" font-size="24" transform="translate(245.99 59)">top</text><rect x="213" y="284" width="106" height="31" stroke="#000000" stroke-width="2" stroke-miterlimit="8" fill="#FFFFFF"/><text font-family="Consolas,Consolas_MSFontService,sans-serif" font-weight="400" font-size="24" transform="translate(252.573 308)">do</text><rect x="334" y="284" width="106" height="31" stroke="#000000" stroke-width="2" stroke-miterlimit="8" fill="#FFFFFF"/><text font-family="Consolas,Consolas_MSFontService,sans-serif" font-weight="400" font-size="24" transform="translate(347.198 308)">Action</text><rect x="455" y="284" width="106" height="31" stroke="#000000" stroke-width="2" stroke-miterlimit="8" fill="#FFFFFF"/><text font-family="Consolas,Consolas_MSFontService,sans-serif" font-weight="400" font-size="24" transform="translate(496.656 308)">S<tspan font-size="16" x="13.1667" y="5">1</tspan></text><rect x="818" y="284" width="37" height="31" stroke="#000000" stroke-width="2" stroke-miterlimit="8" fill="#FFFFFF"/><text font-family="Consolas,Consolas_MSFontService,sans-serif" font-weight="400" font-size="24" transform="translate(829.928 308)">(</text><rect x="697" y="284" width="105" height="31" stroke="#000000" stroke-width="2" stroke-miterlimit="8" fill="#FFFFFF"/><text font-family="Consolas,Consolas_MSFontService,sans-serif" font-weight="400" font-size="24" transform="translate(716.656 308)">while</text><path d="M267 262 267 272.68 265 272.68 265 262ZM272.667 271.346 266 284.68 259.333 271.346Z"/><text font-family="Consolas,Consolas_MSFontService,sans-serif" font-weight="400" font-size="24" transform="translate(245.99 255)">top</text><rect x="334" y="315" width="106" height="30" stroke="#000000" stroke-width="2" stroke-miterlimit="8" fill="#FFFFFF"/><text font-family="Consolas,Consolas_MSFontService,sans-serif" font-weight="400" font-size="24" transform="translate(360.365 338)">L1=?</text><rect x="334" y="345" width="106" height="30" stroke="#000000" stroke-width="2" stroke-miterlimit="8" fill="#FFFFFF"/><text font-family="Consolas,Consolas_MSFontService,sans-serif" font-weight="400" font-size="24" transform="translate(340.615 369)">false=?</text><rect x="334" y="88" width="106" height="30" stroke="#000000" stroke-width="2" stroke-miterlimit="8" fill="#FFFFFF"/><text font-family="Consolas,Consolas_MSFontService,sans-serif" font-weight="400" font-size="24" transform="translate(347.198 112)">S.code</text><rect x="334" y="118" width="106" height="30" stroke="#000000" stroke-width="2" stroke-miterlimit="8" fill="#FFFFFF"/><text font-family="Consolas,Consolas_MSFontService,sans-serif" font-weight="400" font-size="24" transform="translate(347.198 142)">code=?</text><rect x="576" y="284" width="106" height="31" stroke="#000000" stroke-width="2" stroke-miterlimit="8" fill="#FFFFFF"/><text font-family="Consolas,Consolas_MSFontService,sans-serif" font-weight="400" font-size="24" transform="translate(584.698 308)">S<tspan font-size="16" x="13.1667" y="5">1</tspan><tspan font-size="24" x="22" y="0">.</tspan><tspan font-size="24" x="35.1667" y="0">code</tspan></text><rect x="576" y="315" width="106" height="30" stroke="#000000" stroke-width="2" stroke-miterlimit="8" fill="#FFFFFF"/><text font-family="Consolas,Consolas_MSFontService,sans-serif" font-weight="400" font-size="24" transform="translate(589.115 338)">code=?</text><rect x="871" y="284" width="105" height="31" stroke="#000000" stroke-width="2" stroke-miterlimit="8" fill="#FFFFFF"/><text font-family="Consolas,Consolas_MSFontService,sans-serif" font-weight="400" font-size="24" transform="translate(916.867 308)">C</text><rect x="991" y="284" width="106" height="31" stroke="#000000" stroke-width="2" stroke-miterlimit="8" fill="#FFFFFF"/><text font-family="Consolas,Consolas_MSFontService,sans-serif" font-weight="400" font-size="24" transform="translate(1004.91 308)">C.<tspan font-size="24" x="26.3334" y="0">code</tspan></text><rect x="1165" y="284" width="106" height="31" stroke="#000000" stroke-width="2" stroke-miterlimit="8" fill="#FFFFFF"/><text font-family="Consolas,Consolas_MSFontService,sans-serif" font-weight="400" font-size="24" transform="translate(1178.79 308)">S.code</text><rect x="334" y="148" width="106" height="31" stroke="#000000" stroke-width="2" stroke-miterlimit="8" fill="#FFFFFF"/><text font-family="Consolas,Consolas_MSFontService,sans-serif" font-weight="400" font-size="24" transform="translate(360.365 172)">data</text><rect x="175" y="443" width="302" height="129" stroke="#000000" stroke-width="2" stroke-miterlimit="8" fill="#FFFFFF"/><text font-family="Consolas,Consolas_MSFontService,sans-serif" font-weight="400" font-size="24" transform="translate(184.621 473)">L1 = new();<tspan font-size="24" x="0" y="28">stack[top</tspan><tspan font-size="24" x="118.5" y="28">-</tspan><tspan font-size="24" x="131.667" y="28">5].false=x;</tspan><tspan font-size="24" x="0" y="57">stack[top</tspan><tspan font-size="24" x="118.5" y="57">-</tspan><tspan font-size="24" x="131.667" y="57">5].true=L</tspan><tspan font-size="24" x="250.167" y="57">1</tspan><tspan font-size="24" x="263.333" y="57">;</tspan><tspan font-size="24" x="0" y="86">stack[top</tspan><tspan font-size="24" x="118.5" y="86">-</tspan><tspan font-size="24" x="131.667" y="86">6].l1=L1;</tspan></text><rect x="1165" y="315" width="106" height="30" stroke="#000000" stroke-width="2" stroke-miterlimit="8" fill="#FFFFFF"/><text font-family="Consolas,Consolas_MSFontService,sans-serif" font-weight="400" font-size="24" transform="translate(1178.79 338)">code=?</text><rect x="1165" y="345" width="106" height="30" stroke="#000000" stroke-width="2" stroke-miterlimit="8" fill="#FFFFFF"/><text font-family="Consolas,Consolas_MSFontService,sans-serif" font-weight="400" font-size="24" transform="translate(1191.95 369)">data</text><rect x="991" y="315" width="106" height="30" stroke="#000000" stroke-width="2" stroke-miterlimit="8" fill="#FFFFFF"/><text font-family="Consolas,Consolas_MSFontService,sans-serif" font-weight="400" font-size="24" transform="translate(1004.91 338)">code=?</text><path d="M387 375 387 443.039" stroke="#000000" stroke-width="2" stroke-miterlimit="8" stroke-dasharray="8 6" fill="none" fill-rule="evenodd"/><rect x="991" y="375" width="106" height="30" stroke="#000000" stroke-width="2" stroke-miterlimit="8" fill="#FFFFFF"/><text font-family="Consolas,Consolas_MSFontService,sans-serif" font-weight="400" font-size="24" transform="translate(1018.08 399)">l<tspan font-size="24" x="13.1666" y="0">1</tspan><tspan font-size="24" x="26.3334" y="0">=?</tspan></text><rect x="991" y="345" width="106" height="30" stroke="#000000" stroke-width="2" stroke-miterlimit="8" fill="#FFFFFF"/><text font-family="Consolas,Consolas_MSFontService,sans-serif" font-weight="400" font-size="24" transform="translate(991.742 369)">S1code<tspan font-size="24" x="79.0001" y="0">=?</tspan></text><rect x="1112" y="284" width="38" height="31" stroke="#000000" stroke-width="2" stroke-miterlimit="8" fill="#FFFFFF"/><text font-family="Consolas,Consolas_MSFontService,sans-serif" font-weight="400" font-size="24" transform="translate(1124.76 308)">)</text><rect x="871" y="315" width="105" height="30" stroke="#000000" stroke-width="2" stroke-miterlimit="8" fill="#FFFFFF"/><text font-family="Consolas,Consolas_MSFontService,sans-serif" font-weight="400" font-size="24" transform="translate(877.367 338)">false=?</text><rect x="871" y="345" width="105" height="30" stroke="#000000" stroke-width="2" stroke-miterlimit="8" fill="#FFFFFF"/><text font-family="Consolas,Consolas_MSFontService,sans-serif" font-weight="400" font-size="24" transform="translate(883.951 369)">true=?</text><rect x="500" y="443" width="348" height="46" stroke="#000000" stroke-width="2" stroke-miterlimit="8" fill="#FFFFFF"/><text font-family="Consolas,Consolas_MSFontService,sans-serif" font-weight="400" font-size="24" transform="translate(509.696 474)">stack[top<tspan font-size="24" x="118.5" y="0">-</tspan><tspan font-size="24" x="131.667" y="0">4].S</tspan><tspan font-size="24" x="184.333" y="0">1</tspan><tspan font-size="24" x="197.5" y="0">code=code;</tspan></text><path d="M629 345 629 443.279" stroke="#000000" stroke-width="2" stroke-miterlimit="8" stroke-dasharray="8 6" fill="none" fill-rule="evenodd"/><rect x="455" y="315" width="106" height="30" stroke="#000000" stroke-width="2" stroke-miterlimit="8" fill="#FFFFFF"/><text font-family="Consolas,Consolas_MSFontService,sans-serif" font-weight="400" font-size="24" transform="translate(468.156 338)">next=?</text><rect x="863" y="443" width="446" height="91" stroke="#000000" stroke-width="2" stroke-miterlimit="8" fill="#FFFFFF"/><text font-family="Consolas,Consolas_MSFontService,sans-serif" font-weight="400" font-size="24" transform="translate(872.571 483)">stack[top<tspan font-size="24" x="118.5" y="0">-</tspan><tspan font-size="24" x="131.667" y="0">2].code=</tspan><tspan font-size="24" x="0" y="28">"label" || l1 || S1code || code;</tspan></text><path d="M1044 405 1044 442.799" stroke="#000000" stroke-width="2" stroke-miterlimit="8" stroke-dasharray="8 6" fill="none" fill-rule="evenodd"/></g></svg>