<svg width="801" height="486" xmlns="http://www.w3.org/2000/svg" xmlns:xlink="http://www.w3.org/1999/xlink" overflow="hidden"><defs><clipPath id="clip0"><rect x="170" y="28" width="801" height="486"/></clipPath></defs><g clip-path="url(#clip0)" transform="translate(-170 -28)"><rect x="213" y="88" width="106" height="30" stroke="#000000" stroke-width="2" stroke-miterlimit="8" fill="#FFFFFF"/><text font-family="Consolas,Consolas_MSFontService,sans-serif" font-weight="400" font-size="24" transform="translate(259.156 112)">L</text><rect x="213" y="118" width="106" height="30" stroke="#000000" stroke-width="2" stroke-miterlimit="8" fill="#FFFFFF"/><text font-family="Consolas,Consolas_MSFontService,sans-serif" font-weight="400" font-size="24" transform="translate(226.24 142)">next=x</text><path d="M267 65 267 75.6797 265 75.6797 265 65ZM272.667 74.3463 266 87.6797 259.333 74.3464Z"/><text font-family="Consolas,Consolas_MSFontService,sans-serif" font-weight="400" font-size="24" transform="translate(245.99 59)">top</text><path d="M267 262 267 272.68 265 272.68 265 262ZM272.667 271.346 266 284.68 259.333 271.346Z"/><text font-family="Consolas,Consolas_MSFontService,sans-serif" font-weight="400" font-size="24" transform="translate(245.99 255)">top</text><rect x="334" y="88" width="106" height="30" stroke="#000000" stroke-width="2" stroke-miterlimit="8" fill="#FFFFFF"/><text font-family="Consolas,Consolas_MSFontService,sans-serif" font-weight="400" font-size="24" transform="translate(347.198 112)">L.<tspan font-size="24" x="26.3333" y="0">code</tspan></text><rect x="334" y="118" width="106" height="30" stroke="#000000" stroke-width="2" stroke-miterlimit="8" fill="#FFFFFF"/><text font-family="Consolas,Consolas_MSFontService,sans-serif" font-weight="400" font-size="24" transform="translate(347.198 142)">code=?</text><rect x="334" y="284" width="106" height="31" stroke="#000000" stroke-width="2" stroke-miterlimit="8" fill="#FFFFFF"/><text font-family="Consolas,Consolas_MSFontService,sans-serif" font-weight="400" font-size="24" transform="translate(380.115 308)">L</text><rect x="455" y="284" width="106" height="31" stroke="#000000" stroke-width="2" stroke-miterlimit="8" fill="#FFFFFF"/><text font-family="Consolas,Consolas_MSFontService,sans-serif" font-weight="400" font-size="24" transform="translate(468.156 308)">L.<tspan font-size="24" x="26.3333" y="0">code</tspan></text><rect x="697" y="284" width="105" height="31" stroke="#000000" stroke-width="2" stroke-miterlimit="8" fill="#FFFFFF"/><text font-family="Consolas,Consolas_MSFontService,sans-serif" font-weight="400" font-size="24" transform="translate(710.073 308)">S.code</text><rect x="334" y="148" width="106" height="31" stroke="#000000" stroke-width="2" stroke-miterlimit="8" fill="#FFFFFF"/><text font-family="Consolas,Consolas_MSFontService,sans-serif" font-weight="400" font-size="24" transform="translate(360.365 172)">data</text><rect x="697" y="315" width="105" height="30" stroke="#000000" stroke-width="2" stroke-miterlimit="8" fill="#FFFFFF"/><text font-family="Consolas,Consolas_MSFontService,sans-serif" font-weight="400" font-size="24" transform="translate(710.073 338)">code=?</text><rect x="455" y="315" width="106" height="30" stroke="#000000" stroke-width="2" stroke-miterlimit="8" fill="#FFFFFF"/><text font-family="Consolas,Consolas_MSFontService,sans-serif" font-weight="400" font-size="24" transform="translate(468.156 338)">code=?</text><rect x="334" y="315" width="106" height="30" stroke="#000000" stroke-width="2" stroke-miterlimit="8" fill="#FFFFFF"/><text font-family="Consolas,Consolas_MSFontService,sans-serif" font-weight="400" font-size="24" transform="translate(347.198 338)">next=?</text><rect x="175" y="405" width="280" height="38" stroke="#000000" stroke-width="2" stroke-miterlimit="8" fill="#FFFFFF"/><text font-family="Consolas,Consolas_MSFontService,sans-serif" font-weight="400" font-size="24" transform="translate(184.621 433)">stack[top<tspan font-size="24" x="118.5" y="0">-</tspan><tspan font-size="24" x="131.667" y="0">3].next=x;</tspan></text><path d="M266 315 266 405.719" stroke="#000000" stroke-width="2" stroke-miterlimit="8" stroke-dasharray="8 6" fill="none" fill-rule="evenodd"/><rect x="213" y="284" width="106" height="31" stroke="#000000" stroke-width="2" stroke-miterlimit="8" fill="#FFFFFF"/><text font-family="Consolas,Consolas_MSFontService,sans-serif" font-weight="400" font-size="24" transform="translate(226.24 308)">Actio<tspan font-size="24" x="65.8333" y="0">n</tspan></text><rect x="258" y="466" width="325" height="38" stroke="#000000" stroke-width="2" stroke-miterlimit="8" fill="#FFFFFF"/><text font-family="Consolas,Consolas_MSFontService,sans-serif" font-weight="400" font-size="24" transform="translate(267.78 493)">stack[top<tspan font-size="24" x="118.5" y="0">-</tspan><tspan font-size="24" x="131.667" y="0">2].</tspan>Lcode=code<tspan font-size="24" x="302.833" y="0">;</tspan></text><path d="M508 345 508 465.958" stroke="#000000" stroke-width="2" stroke-miterlimit="8" stroke-dasharray="8 6" fill="none" fill-rule="evenodd"/><rect x="576" y="284" width="106" height="31" stroke="#000000" stroke-width="2" stroke-miterlimit="8" fill="#FFFFFF"/><text font-family="Consolas,Consolas_MSFontService,sans-serif" font-weight="400" font-size="24" transform="translate(622.031 308)">S</text><rect x="576" y="315" width="106" height="30" stroke="#000000" stroke-width="2" stroke-miterlimit="8" fill="#FFFFFF"/><text font-family="Consolas,Consolas_MSFontService,sans-serif" font-weight="400" font-size="24" transform="translate(589.115 338)">next=?</text><rect x="538" y="405" width="423" height="38" stroke="#000000" stroke-width="2" stroke-miterlimit="8" fill="#FFFFFF"/><text font-family="Consolas,Consolas_MSFontService,sans-serif" font-weight="400" font-size="24" transform="translate(547.496 433)">stack[top<tspan font-size="24" x="118.5" y="0">-</tspan><tspan font-size="24" x="131.667" y="0">1].code= code||</tspan>Lcode<tspan font-size="24" x="395" y="0">;</tspan></text><rect x="818" y="284" width="105" height="31" stroke="#000000" stroke-width="2" stroke-miterlimit="8" fill="#FFFFFF"/><text font-family="Consolas,Consolas_MSFontService,sans-serif" font-weight="400" font-size="24" transform="translate(831.031 308)">L.code</text><rect x="818" y="315" width="105" height="30" stroke="#000000" stroke-width="2" stroke-miterlimit="8" fill="#FFFFFF"/><text font-family="Consolas,Consolas_MSFontService,sans-serif" font-weight="400" font-size="24" transform="translate(831.031 338)">code=?</text><rect x="818" y="345" width="105" height="30" stroke="#000000" stroke-width="2" stroke-miterlimit="8" fill="#FFFFFF"/><text font-family="Consolas,Consolas_MSFontService,sans-serif" font-weight="400" font-size="24" transform="translate(844.198 369)">data</text><path d="M750 375 750 405.24" stroke="#000000" stroke-width="2" stroke-miterlimit="8" stroke-dasharray="8 6" fill="none" fill-rule="evenodd"/><rect x="697" y="345" width="105" height="30" stroke="#000000" stroke-width="2" stroke-miterlimit="8" fill="#FFFFFF"/><text font-family="Consolas,Consolas_MSFontService,sans-serif" font-weight="400" font-size="24" transform="translate(703.49 369)">Lcode<tspan font-size="24" x="65.8333" y="0">=?</tspan></text></g></svg>