<svg width="1345" height="557" xmlns="http://www.w3.org/2000/svg" xmlns:xlink="http://www.w3.org/1999/xlink" overflow="hidden"><defs><clipPath id="clip0"><rect x="170" y="28" width="1345" height="557"/></clipPath></defs><g clip-path="url(#clip0)" transform="translate(-170 -28)"><rect x="213" y="88" width="106" height="30" stroke="#000000" stroke-width="2" stroke-miterlimit="8" fill="#FFFFFF"/><text font-family="Consolas,Consolas_MSFontService,sans-serif" font-weight="400" font-size="24" transform="translate(259.156 112)">S</text><rect x="213" y="118" width="106" height="30" stroke="#000000" stroke-width="2" stroke-miterlimit="8" fill="#FFFFFF"/><text font-family="Consolas,Consolas_MSFontService,sans-serif" font-weight="400" font-size="24" transform="translate(226.24 142)">next=x</text><path d="M267 65 267 75.6797 265 75.6797 265 65ZM272.667 74.3463 266 87.6797 259.333 74.3464Z"/><text font-family="Consolas,Consolas_MSFontService,sans-serif" font-weight="400" font-size="24" transform="translate(245.99 59)">top</text><rect x="213" y="284" width="106" height="31" stroke="#000000" stroke-width="2" stroke-miterlimit="8" fill="#FFFFFF"/><text font-family="Consolas,Consolas_MSFontService,sans-serif" font-weight="400" font-size="24" transform="translate(252.573 308)">if</text><rect x="334" y="284" width="38" height="31" stroke="#000000" stroke-width="2" stroke-miterlimit="8" fill="#FFFFFF"/><text font-family="Consolas,Consolas_MSFontService,sans-serif" font-weight="400" font-size="24" transform="translate(346.095 308)">(</text><rect x="387" y="284" width="106" height="31" stroke="#000000" stroke-width="2" stroke-miterlimit="8" fill="#FFFFFF"/><text font-family="Consolas,Consolas_MSFontService,sans-serif" font-weight="400" font-size="24" transform="translate(400.117 308)">Action</text><rect x="508" y="284" width="105" height="31" stroke="#000000" stroke-width="2" stroke-miterlimit="8" fill="#FFFFFF"/><text font-family="Consolas,Consolas_MSFontService,sans-serif" font-weight="400" font-size="24" transform="translate(553.992 308)">C</text><rect x="750" y="284" width="37" height="31" stroke="#000000" stroke-width="2" stroke-miterlimit="8" fill="#FFFFFF"/><text font-family="Consolas,Consolas_MSFontService,sans-serif" font-weight="400" font-size="24" transform="translate(761.889 308)">)</text><rect x="802" y="284" width="106" height="31" stroke="#000000" stroke-width="2" stroke-miterlimit="8" fill="#FFFFFF"/><text font-family="Consolas,Consolas_MSFontService,sans-serif" font-weight="400" font-size="24" transform="translate(844.411 308)">S<tspan font-size="16" x="13.1667" y="5">1</tspan></text><rect x="1044" y="284" width="106" height="31" stroke="#000000" stroke-width="2" stroke-miterlimit="8" fill="#FFFFFF"/><text font-family="Consolas,Consolas_MSFontService,sans-serif" font-weight="400" font-size="24" transform="translate(1070.99 308)">else</text><rect x="1165" y="284" width="106" height="31" stroke="#000000" stroke-width="2" stroke-miterlimit="8" fill="#FFFFFF"/><text font-family="Consolas,Consolas_MSFontService,sans-serif" font-weight="400" font-size="24" transform="translate(1207.29 308)">S<tspan font-size="16" x="13.1666" y="5">2</tspan></text><path d="M267 262 267 272.68 265 272.68 265 262ZM272.667 271.346 266 284.68 259.333 271.346Z"/><text font-family="Consolas,Consolas_MSFontService,sans-serif" font-weight="400" font-size="24" transform="translate(245.99 255)">top</text><rect x="508" y="315" width="105" height="30" stroke="#000000" stroke-width="2" stroke-miterlimit="8" fill="#FFFFFF"/><text font-family="Consolas,Consolas_MSFontService,sans-serif" font-weight="400" font-size="24" transform="translate(514.492 338)">false=?</text><rect x="508" y="345" width="105" height="30" stroke="#000000" stroke-width="2" stroke-miterlimit="8" fill="#FFFFFF"/><text font-family="Consolas,Consolas_MSFontService,sans-serif" font-weight="400" font-size="24" transform="translate(521.076 369)">true=?</text><rect x="387" y="315" width="106" height="30" stroke="#000000" stroke-width="2" stroke-miterlimit="8" fill="#FFFFFF"/><text font-family="Consolas,Consolas_MSFontService,sans-serif" font-weight="400" font-size="24" transform="translate(413.284 338)">L1=?</text><rect x="387" y="345" width="106" height="30" stroke="#000000" stroke-width="2" stroke-miterlimit="8" fill="#FFFFFF"/><text font-family="Consolas,Consolas_MSFontService,sans-serif" font-weight="400" font-size="24" transform="translate(393.534 369)">false=?</text><rect x="802" y="315" width="106" height="30" stroke="#000000" stroke-width="2" stroke-miterlimit="8" fill="#FFFFFF"/><text font-family="Consolas,Consolas_MSFontService,sans-serif" font-weight="400" font-size="24" transform="translate(815.911 338)">next=?</text><rect x="1165" y="315" width="106" height="30" stroke="#000000" stroke-width="2" stroke-miterlimit="8" fill="#FFFFFF"/><text font-family="Consolas,Consolas_MSFontService,sans-serif" font-weight="400" font-size="24" transform="translate(1178.79 338)">next=?</text><rect x="334" y="88" width="106" height="30" stroke="#000000" stroke-width="2" stroke-miterlimit="8" fill="#FFFFFF"/><text font-family="Consolas,Consolas_MSFontService,sans-serif" font-weight="400" font-size="24" transform="translate(347.198 112)">S.code</text><rect x="334" y="118" width="106" height="30" stroke="#000000" stroke-width="2" stroke-miterlimit="8" fill="#FFFFFF"/><text font-family="Consolas,Consolas_MSFontService,sans-serif" font-weight="400" font-size="24" transform="translate(347.198 142)">code=?</text><rect x="629" y="284" width="105" height="31" stroke="#000000" stroke-width="2" stroke-miterlimit="8" fill="#FFFFFF"/><text font-family="Consolas,Consolas_MSFontService,sans-serif" font-weight="400" font-size="24" transform="translate(642.034 308)">C.code</text><rect x="629" y="315" width="105" height="30" stroke="#000000" stroke-width="2" stroke-miterlimit="8" fill="#FFFFFF"/><text font-family="Consolas,Consolas_MSFontService,sans-serif" font-weight="400" font-size="24" transform="translate(642.034 338)">code=?</text><rect x="923" y="284" width="106" height="31" stroke="#000000" stroke-width="2" stroke-miterlimit="8" fill="#FFFFFF"/><text font-family="Consolas,Consolas_MSFontService,sans-serif" font-weight="400" font-size="24" transform="translate(932.453 308)">S<tspan font-size="16" x="13.1667" y="5">1</tspan><tspan font-size="24" x="22" y="0">.code</tspan></text><rect x="1286" y="284" width="106" height="31" stroke="#000000" stroke-width="2" stroke-miterlimit="8" fill="#FFFFFF"/><text font-family="Consolas,Consolas_MSFontService,sans-serif" font-weight="400" font-size="24" transform="translate(1295.33 308)">S<tspan font-size="16" x="13.1667" y="5">2</tspan><tspan font-size="24" x="22" y="0">.code</tspan></text><rect x="1407" y="284" width="106" height="31" stroke="#000000" stroke-width="2" stroke-miterlimit="8" fill="#FFFFFF"/><text font-family="Consolas,Consolas_MSFontService,sans-serif" font-weight="400" font-size="24" transform="translate(1420.7 308)">S.code</text><rect x="334" y="148" width="106" height="31" stroke="#000000" stroke-width="2" stroke-miterlimit="8" fill="#FFFFFF"/><text font-family="Consolas,Consolas_MSFontService,sans-serif" font-weight="400" font-size="24" transform="translate(360.365 172)">data</text><rect x="175" y="413" width="318" height="166" stroke="#000000" stroke-width="2" stroke-miterlimit="8" fill="#FFFFFF"/><text font-family="Consolas,Consolas_MSFontService,sans-serif" font-weight="400" font-size="24" transform="translate(184.621 447)">L1 = new();<tspan font-size="24" x="0" y="28">stack[top</tspan><tspan font-size="24" x="118.5" y="28">-</tspan><tspan font-size="24" x="131.667" y="28">1].false=L1;</tspan><tspan font-size="24" x="0" y="57">stack[top</tspan><tspan font-size="24" x="118.5" y="57">-</tspan><tspan font-size="24" x="131.667" y="57">4].next=x;</tspan><tspan font-size="24" x="0" y="86">stack[top</tspan><tspan font-size="24" x="118.5" y="86">-</tspan><tspan font-size="24" x="131.667" y="86">7].next=x;</tspan><tspan font-size="24" x="0" y="115">stack[top</tspan><tspan font-size="24" x="118.5" y="115">-</tspan><tspan font-size="24" x="131.667" y="115">8].l1=L1;</tspan></text><rect x="923" y="315" width="106" height="30" stroke="#000000" stroke-width="2" stroke-miterlimit="8" fill="#FFFFFF"/><text font-family="Consolas,Consolas_MSFontService,sans-serif" font-weight="400" font-size="24" transform="translate(936.87 338)">code=?</text><rect x="1407" y="315" width="106" height="30" stroke="#000000" stroke-width="2" stroke-miterlimit="8" fill="#FFFFFF"/><text font-family="Consolas,Consolas_MSFontService,sans-serif" font-weight="400" font-size="24" transform="translate(1420.7 338)">code=?</text><rect x="1407" y="345" width="106" height="30" stroke="#000000" stroke-width="2" stroke-miterlimit="8" fill="#FFFFFF"/><text font-family="Consolas,Consolas_MSFontService,sans-serif" font-weight="400" font-size="24" transform="translate(1433.87 369)">data</text><rect x="1286" y="315" width="106" height="30" stroke="#000000" stroke-width="2" stroke-miterlimit="8" fill="#FFFFFF"/><text font-family="Consolas,Consolas_MSFontService,sans-serif" font-weight="400" font-size="24" transform="translate(1299.74 338)">code=?</text><rect x="508" y="413" width="332" height="45" stroke="#000000" stroke-width="2" stroke-miterlimit="8" fill="#FFFFFF"/><text font-family="Consolas,Consolas_MSFontService,sans-serif" font-weight="400" font-size="24" transform="translate(517.256 444)">stack[top<tspan font-size="24" x="118.5" y="0">-</tspan><tspan font-size="24" x="131.667" y="0">6].</tspan><tspan font-size="24" x="171.167" y="0">Ccode</tspan><tspan font-size="24" x="237" y="0">=code;</tspan></text><path d="M440 375 440 412.799" stroke="#000000" stroke-width="2" stroke-miterlimit="8" stroke-dasharray="8 6" fill="none" fill-rule="evenodd"/><path d="M682 345 682 413.039" stroke="#000000" stroke-width="2" stroke-miterlimit="8" stroke-dasharray="8 6" fill="none" fill-rule="evenodd"/><rect x="1060" y="481" width="378" height="91" stroke="#000000" stroke-width="2" stroke-miterlimit="8" fill="#FFFFFF"/><text font-family="Consolas,Consolas_MSFontService,sans-serif" font-weight="400" font-size="24" transform="translate(1069.13 506)">stack[top<tspan font-size="24" x="118.5" y="0">-</tspan><tspan font-size="24" x="131.667" y="0">1].code=</tspan><tspan font-size="24" x="0" y="28">Ccode</tspan><tspan font-size="24" x="79" y="28">|| S1code || "label"</tspan><tspan font-size="24" x="0" y="57">||</tspan><tspan font-size="24" x="39.5" y="57">l1 || code;</tspan></text><path d="M1339 436 1339 481.359" stroke="#000000" stroke-width="2" stroke-miterlimit="8" stroke-dasharray="8 6" fill="none" fill-rule="evenodd"/><rect x="1286" y="375" width="106" height="30" stroke="#000000" stroke-width="2" stroke-miterlimit="8" fill="#FFFFFF"/><text font-family="Consolas,Consolas_MSFontService,sans-serif" font-weight="400" font-size="24" transform="translate(1293.16 399)">Ccode<tspan font-size="24" x="65.8334" y="0">=?</tspan></text><rect x="1286" y="345" width="106" height="30" stroke="#000000" stroke-width="2" stroke-miterlimit="8" fill="#FFFFFF"/><text font-family="Consolas,Consolas_MSFontService,sans-serif" font-weight="400" font-size="24" transform="translate(1286.58 369)">S<tspan font-size="24" x="13.1667" y="0">1</tspan><tspan font-size="24" x="26.3334" y="0">code</tspan><tspan font-size="24" x="79" y="0">=?</tspan></text><rect x="689" y="481" width="340" height="45" stroke="#000000" stroke-width="2" stroke-miterlimit="8" fill="#FFFFFF"/><text font-family="Consolas,Consolas_MSFontService,sans-serif" font-weight="400" font-size="24" transform="translate(698.694 512)">stack[top<tspan font-size="24" x="118.5" y="0">-</tspan><tspan font-size="24" x="131.667" y="0">3].S</tspan><tspan font-size="24" x="184.333" y="0">1</tspan><tspan font-size="24" x="197.5" y="0">code=code;</tspan></text><path d="M976 345 976 481.078" stroke="#000000" stroke-width="2" stroke-miterlimit="8" stroke-dasharray="8 6" fill="none" fill-rule="evenodd"/><rect x="1286" y="405" width="106" height="31" stroke="#000000" stroke-width="2" stroke-miterlimit="8" fill="#FFFFFF"/><text font-family="Consolas,Consolas_MSFontService,sans-serif" font-weight="400" font-size="24" transform="translate(1312.91 429)">l1=?</text></g></svg>