<svg width="1217" height="403" xmlns="http://www.w3.org/2000/svg" xmlns:xlink="http://www.w3.org/1999/xlink" overflow="hidden"><defs><clipPath id="clip0"><rect x="128" y="224" width="1217" height="403"/></clipPath></defs><g clip-path="url(#clip0)" transform="translate(-128 -224)"><rect x="251" y="284" width="105" height="31" stroke="#000000" stroke-width="2" stroke-miterlimit="8" fill="#FFFFFF"/><text font-family="Consolas,Consolas_MSFontService,sans-serif" font-weight="400" font-size="24" transform="translate(290.372 308)">d<tspan font-size="24" x="13.1667" y="0">o</tspan></text><rect x="734" y="284" width="38" height="31" stroke="#000000" stroke-width="2" stroke-miterlimit="8" fill="#FFFFFF"/><text font-family="Consolas,Consolas_MSFontService,sans-serif" font-weight="400" font-size="24" transform="translate(746.77 308)">(</text><rect x="372" y="284" width="105" height="31" stroke="#000000" stroke-width="2" stroke-miterlimit="8" fill="#FFFFFF"/><text font-family="Consolas,Consolas_MSFontService,sans-serif" font-weight="400" font-size="24" transform="translate(411.331 308)">M1</text><rect x="908" y="284" width="106" height="31" stroke="#000000" stroke-width="2" stroke-miterlimit="8" fill="#FFFFFF"/><text font-family="Consolas,Consolas_MSFontService,sans-serif" font-weight="400" font-size="24" transform="translate(954.667 308)">C</text><rect x="1029" y="284" width="38" height="31" stroke="#000000" stroke-width="2" stroke-miterlimit="8" fill="#FFFFFF"/><text font-family="Consolas,Consolas_MSFontService,sans-serif" font-weight="400" font-size="24" transform="translate(1041.61 308)">)</text><rect x="493" y="284" width="105" height="31" stroke="#000000" stroke-width="2" stroke-miterlimit="8" fill="#FFFFFF"/><text font-family="Consolas,Consolas_MSFontService,sans-serif" font-weight="400" font-size="24" transform="translate(534.456 308)">S<tspan font-size="16" x="13.1667" y="5">1</tspan></text><rect x="613" y="284" width="106" height="31" stroke="#000000" stroke-width="2" stroke-miterlimit="8" fill="#FFFFFF"/><text font-family="Consolas,Consolas_MSFontService,sans-serif" font-weight="400" font-size="24" transform="translate(633.497 308)">while</text><path d="M1053 262 1053 272.68 1051 272.68 1051 262ZM1058.67 271.346 1052 284.68 1045.33 271.346Z"/><text font-family="Consolas,Consolas_MSFontService,sans-serif" font-weight="400" font-size="24" transform="translate(1032.22 255)">top</text><rect x="493" y="315" width="105" height="30" stroke="#000000" stroke-width="2" stroke-miterlimit="8" fill="#FFFFFF"/><text font-family="Consolas,Consolas_MSFontService,sans-serif" font-weight="400" font-size="24" transform="translate(501.539 338)">S<tspan font-size="16" x="13.1667" y="5">1</tspan><tspan font-size="24" x="22" y="0">.code</tspan></text><rect x="372" y="315" width="105" height="30" stroke="#000000" stroke-width="2" stroke-miterlimit="8" fill="#FFFFFF"/><text font-family="Consolas,Consolas_MSFontService,sans-serif" font-weight="400" font-size="24" transform="translate(380.581 338)">S<tspan font-size="16" x="13.1667" y="5">1</tspan><tspan font-size="24" x="22" y="0">.next</tspan></text><rect x="787" y="284" width="106" height="31" stroke="#000000" stroke-width="2" stroke-miterlimit="8" fill="#FFFFFF"/><text font-family="Consolas,Consolas_MSFontService,sans-serif" font-weight="400" font-size="24" transform="translate(827.125 308)">M2</text><rect x="130" y="284" width="106" height="31" stroke="#000000" stroke-width="2" stroke-miterlimit="8" fill="#FFFFFF"/><text font-family="Consolas,Consolas_MSFontService,sans-serif" font-weight="400" font-size="24" transform="translate(175.997 308)">?</text><rect x="130" y="315" width="106" height="30" stroke="#000000" stroke-width="2" stroke-miterlimit="8" fill="#FFFFFF"/><text font-family="Consolas,Consolas_MSFontService,sans-serif" font-weight="400" font-size="24" transform="translate(143.081 338)">S.next</text><rect x="787" y="375" width="106" height="30" stroke="#000000" stroke-width="2" stroke-miterlimit="8" fill="#FFFFFF"/><text font-family="Consolas,Consolas_MSFontService,sans-serif" font-weight="400" font-size="24" transform="translate(827.125 399)">L<tspan font-size="24" x="13.1666" y="0">1</tspan></text><rect x="908" y="315" width="106" height="30" stroke="#000000" stroke-width="2" stroke-miterlimit="8" fill="#FFFFFF"/><text font-family="Consolas,Consolas_MSFontService,sans-serif" font-weight="400" font-size="24" transform="translate(921.75 338)">C<tspan font-size="24" x="13.1666" y="0">.code</tspan></text><rect x="523" y="451" width="375" height="128" stroke="#000000" stroke-width="2" stroke-miterlimit="8" fill="#FFFFFF"/><text font-family="Consolas,Consolas_MSFontService,sans-serif" font-weight="400" font-size="24" transform="translate(532.376 480)">reduction of ε to<tspan font-size="24" x="237" y="0">M1:</tspan><tspan font-size="24" x="0" y="28">L1=new();</tspan><tspan font-size="24" x="0" y="57">C.tru</tspan><tspan font-size="24" x="65.8334" y="57">e</tspan><tspan font-size="24" x="79" y="57">=L1;</tspan><tspan font-size="24" x="0" y="86">C.false</tspan><tspan font-size="24" x="92.1667" y="86">=stack[top</tspan><tspan font-size="24" x="223.833" y="86">-</tspan><tspan font-size="24" x="237" y="86">6].next;</tspan></text><rect x="939" y="398" width="400" height="227" stroke="#000000" stroke-width="2" stroke-miterlimit="8" fill="#FFFFFF"/><text font-family="Consolas,Consolas_MSFontService,sans-serif" font-weight="400" font-size="24" transform="translate(948.17 433)">reduction of S:<tspan font-size="24" x="0" y="28">tempCode</tspan><tspan font-size="24" x="118.5" y="28">=</tspan><tspan font-size="24" x="0" y="57">"label" || stack[top</tspan>-<tspan font-size="24" x="276.5" y="57">2].L1 ||</tspan><tspan font-size="24" x="0" y="86">stack[top</tspan><tspan font-size="24" x="118.5" y="86">-</tspan><tspan font-size="24" x="131.667" y="86">5].code ||</tspan><tspan font-size="24" x="0" y="115">stack[top</tspan><tspan font-size="24" x="118.5" y="115">-</tspan><tspan font-size="24" x="131.667" y="115">1].code;</tspan><tspan font-size="24" x="0" y="144">top</tspan><tspan font-size="24" x="52.6667" y="144">=</tspan><tspan font-size="24" x="79" y="144">top</tspan><tspan font-size="24" x="131.667" y="144">–</tspan><tspan font-size="24" x="158" y="144">7;</tspan><tspan font-size="24" x="0" y="172">stack[top].code</tspan><tspan font-size="24" x="210.667" y="172">=</tspan><tspan font-size="24" x="237" y="172">tempCode</tspan><tspan font-size="24" x="342.333" y="172">;</tspan></text><path d="M840 405 840 450.359" stroke="#000000" stroke-width="2" stroke-miterlimit="8" stroke-dasharray="8 6" fill="none" fill-rule="evenodd"/><path d="M855 322 855 374.919" stroke="#000000" stroke-width="2" stroke-miterlimit="8" stroke-dasharray="8 6" fill="none" fill-rule="evenodd"/><path d="M1048 315 1048 398.159" stroke="#000000" stroke-width="2" stroke-miterlimit="8" stroke-dasharray="8 6" fill="none" fill-rule="evenodd"/><rect x="787" y="315" width="106" height="30" stroke="#000000" stroke-width="2" stroke-miterlimit="8" fill="#FFFFFF"/><text font-family="Consolas,Consolas_MSFontService,sans-serif" font-weight="400" font-size="24" transform="translate(800.792 338)">C.true</text><rect x="787" y="345" width="106" height="30" stroke="#000000" stroke-width="2" stroke-miterlimit="8" fill="#FFFFFF"/><text font-family="Consolas,Consolas_MSFontService,sans-serif" font-weight="400" font-size="24" transform="translate(794.208 369)">C.false</text></g></svg>