<svg width="461" height="400" xmlns="http://www.w3.org/2000/svg" xmlns:xlink="http://www.w3.org/1999/xlink" overflow="hidden"><defs><clipPath id="clip0"><rect x="124" y="224" width="461" height="400"/></clipPath></defs><g clip-path="url(#clip0)" transform="translate(-124 -224)"><path d="M184 262 184 272.68 182 272.68 182 262ZM189.667 271.346 183 284.68 176.333 271.346Z"/><text font-family="Consolas,Consolas_MSFontService,sans-serif" font-weight="400" font-size="24" transform="translate(161.963 255)">top</text><rect x="130" y="284" width="104" height="31" stroke="#000000" stroke-width="2" stroke-miterlimit="8" fill="#FFFFFF"/><text font-family="Consolas,Consolas_MSFontService,sans-serif" font-weight="400" font-size="24" transform="translate(175.13 308)">?</text><rect x="130" y="315" width="104" height="30" stroke="#000000" stroke-width="2" stroke-miterlimit="8" fill="#FFFFFF"/><text font-family="Consolas,Consolas_MSFontService,sans-serif" font-weight="400" font-size="24" transform="translate(142.213 338)">S.next</text><rect x="130" y="428" width="453" height="189" stroke="#000000" stroke-width="2" stroke-miterlimit="8" fill="#FFFFFF"/><text font-family="Consolas,Consolas_MSFontService,sans-serif" font-weight="400" font-size="24" transform="translate(139.262 459)">reduction of L:<tspan font-size="24" x="0" y="28">if (x) { </tspan><tspan font-size="24" x="26.3333" y="57">stack[top].code= "</tspan><tspan font-size="24" x="263.333" y="57">goto</tspan><tspan font-size="24" x="316" y="57">" || x;</tspan><tspan font-size="24" x="0" y="86">}</tspan><tspan font-size="24" x="26.3333" y="86">else</tspan><tspan font-size="24" x="92.1667" y="86">{</tspan><tspan font-size="24" x="26.3333" y="115">stack[top].code= "";</tspan><tspan font-size="24" x="0" y="144">}</tspan></text></g></svg>