<svg width="911" height="348" xmlns="http://www.w3.org/2000/svg" xmlns:xlink="http://www.w3.org/1999/xlink" overflow="hidden"><defs><clipPath id="clip0"><rect x="173" y="224" width="911" height="348"/></clipPath></defs><g clip-path="url(#clip0)" transform="translate(-173 -224)"><path d="M728 262 728 272.68 726 272.68 726 262ZM733.667 271.346 727 284.68 720.333 271.346Z"/><text font-family="Consolas,Consolas_MSFontService,sans-serif" font-weight="400" font-size="24" transform="translate(707.143 255)">top</text><rect x="424" y="284" width="106" height="31" stroke="#000000" stroke-width="2" stroke-miterlimit="8" fill="#FFFFFF"/><text font-family="Consolas,Consolas_MSFontService,sans-serif" font-weight="400" font-size="24" transform="translate(464.25 308)">L1</text><rect x="424" y="315" width="106" height="30" stroke="#000000" stroke-width="2" stroke-miterlimit="8" fill="#FFFFFF"/><text font-family="Consolas,Consolas_MSFontService,sans-serif" font-weight="400" font-size="24" transform="translate(431.333 338)">L1.code</text><rect x="175" y="284" width="106" height="31" stroke="#000000" stroke-width="2" stroke-miterlimit="8" fill="#FFFFFF"/><text font-family="Consolas,Consolas_MSFontService,sans-serif" font-weight="400" font-size="24" transform="translate(221.357 308)">?</text><rect x="304" y="315" width="105" height="30" stroke="#000000" stroke-width="2" stroke-miterlimit="8" fill="#FFFFFF"/><text font-family="Consolas,Consolas_MSFontService,sans-serif" font-weight="400" font-size="24" transform="translate(310.375 338)">L1.next</text><rect x="304" y="284" width="105" height="31" stroke="#000000" stroke-width="2" stroke-miterlimit="8" fill="#FFFFFF"/><text font-family="Consolas,Consolas_MSFontService,sans-serif" font-weight="400" font-size="24" transform="translate(343.292 308)">M1</text><path d="M606 345 606 405.479" stroke="#000000" stroke-width="2" stroke-miterlimit="8" stroke-dasharray="8 6" fill="none" fill-rule="evenodd"/><rect x="175" y="315" width="106" height="30" stroke="#000000" stroke-width="2" stroke-miterlimit="8" fill="#FFFFFF"/><text font-family="Consolas,Consolas_MSFontService,sans-serif" font-weight="400" font-size="24" transform="translate(188.44 338)">S.next</text><rect x="689" y="405" width="393" height="159" stroke="#000000" stroke-width="2" stroke-miterlimit="8" fill="#FFFFFF"/><text font-family="Consolas,Consolas_MSFontService,sans-serif" font-weight="400" font-size="24" transform="translate(698.694 436)">reduction of L:<tspan font-size="24" x="0" y="28">tempCode</tspan><tspan font-size="24" x="118.5" y="28">=</tspan><tspan font-size="24" x="144.833" y="28">stack[top].code</tspan><tspan font-size="24" x="0" y="57">||</tspan><tspan font-size="24" x="39.5" y="57">stack[top</tspan><tspan font-size="24" x="158" y="57">-</tspan><tspan font-size="24" x="171.167" y="57">2].cod</tspan>e<tspan font-size="24" x="263.333" y="57">;</tspan><tspan font-size="24" x="0" y="86">top</tspan><tspan font-size="24" x="52.6667" y="86">=</tspan><tspan font-size="24" x="79" y="86">top</tspan><tspan font-size="24" x="131.667" y="86">–</tspan><tspan font-size="24" x="158" y="86">3;</tspan><tspan font-size="24" x="0" y="115">stack[top].code</tspan><tspan font-size="24" x="210.667" y="115">=</tspan><tspan font-size="24" x="237" y="115">tempCode</tspan>;</text><rect x="674" y="284" width="106" height="31" stroke="#000000" stroke-width="2" stroke-miterlimit="8" fill="#FFFFFF"/><text font-family="Consolas,Consolas_MSFontService,sans-serif" font-weight="400" font-size="24" transform="translate(720.31 308)">S</text><rect x="674" y="315" width="106" height="30" stroke="#000000" stroke-width="2" stroke-miterlimit="8" fill="#FFFFFF"/><text font-family="Consolas,Consolas_MSFontService,sans-serif" font-weight="400" font-size="24" transform="translate(687.393 338)">S<tspan font-size="24" x="13.1666" y="0">.</tspan><tspan font-size="24" x="26.3333" y="0">code</tspan></text><rect x="553" y="315" width="106" height="30" stroke="#000000" stroke-width="2" stroke-miterlimit="8" fill="#FFFFFF"/><text font-family="Consolas,Consolas_MSFontService,sans-serif" font-weight="400" font-size="24" transform="translate(566.435 338)">S<tspan font-size="24" x="13.1666" y="0">.next</tspan></text><rect x="553" y="284" width="106" height="31" stroke="#000000" stroke-width="2" stroke-miterlimit="8" fill="#FFFFFF"/><text font-family="Consolas,Consolas_MSFontService,sans-serif" font-weight="400" font-size="24" transform="translate(592.768 308)">M2</text><rect x="288" y="405" width="376" height="84" stroke="#000000" stroke-width="2" stroke-miterlimit="8" fill="#FFFFFF"/><text font-family="Consolas,Consolas_MSFontService,sans-serif" font-weight="400" font-size="24" transform="translate(298.019 441)">reduction of ε to<tspan font-size="24" x="237" y="0">M:</tspan><tspan font-size="24" x="0" y="28">S</tspan><tspan font-size="24" x="13.1667" y="28">.next</tspan><tspan font-size="24" x="79" y="28">=stack[top</tspan>-<tspan font-size="24" x="223.833" y="28">3].next;</tspan></text><path d="M727 345 727 405.479" stroke="#000000" stroke-width="2" stroke-miterlimit="8" stroke-dasharray="8 6" fill="none" fill-rule="evenodd"/></g></svg>