<svg width="850" height="327" xmlns="http://www.w3.org/2000/svg" xmlns:xlink="http://www.w3.org/1999/xlink" overflow="hidden"><defs><clipPath id="clip0"><rect x="49" y="224" width="850" height="327"/></clipPath></defs><g clip-path="url(#clip0)" transform="translate(-49 -224)"><rect x="251" y="284" width="37" height="31" stroke="#000000" stroke-width="2" stroke-miterlimit="8" fill="#FFFFFF"/><text font-family="Consolas,Consolas_MSFontService,sans-serif" font-weight="400" font-size="24" transform="translate(262.936 308)">{</text><path d="M577 262 577 272.68 575 272.68 575 262ZM582.667 271.346 576 284.68 569.333 271.346Z"/><text font-family="Consolas,Consolas_MSFontService,sans-serif" font-weight="400" font-size="24" transform="translate(540.826 255)">top</text><rect x="424" y="284" width="106" height="31" stroke="#000000" stroke-width="2" stroke-miterlimit="8" fill="#FFFFFF"/><text font-family="Consolas,Consolas_MSFontService,sans-serif" font-weight="400" font-size="24" transform="translate(470.833 308)">L</text><rect x="424" y="315" width="106" height="30" stroke="#000000" stroke-width="2" stroke-miterlimit="8" fill="#FFFFFF"/><text font-family="Consolas,Consolas_MSFontService,sans-serif" font-weight="400" font-size="24" transform="translate(437.917 338)">L.<tspan font-size="24" x="26.3333" y="0">code</tspan></text><rect x="130" y="284" width="106" height="31" stroke="#000000" stroke-width="2" stroke-miterlimit="8" fill="#FFFFFF"/><text font-family="Consolas,Consolas_MSFontService,sans-serif" font-weight="400" font-size="24" transform="translate(175.997 308)">?</text><rect x="553" y="284" width="38" height="31" stroke="#000000" stroke-width="2" stroke-miterlimit="8" fill="#FFFFFF"/><text font-family="Consolas,Consolas_MSFontService,sans-serif" font-weight="400" font-size="24" transform="translate(565.332 308)">}</text><rect x="304" y="315" width="105" height="30" stroke="#000000" stroke-width="2" stroke-miterlimit="8" fill="#FFFFFF"/><text font-family="Consolas,Consolas_MSFontService,sans-serif" font-weight="400" font-size="24" transform="translate(316.958 338)">L.next</text><path d="M356 345 356 405.479" stroke="#000000" stroke-width="2" stroke-miterlimit="8" stroke-dasharray="8 6" fill="none" fill-rule="evenodd"/><rect x="304" y="284" width="105" height="31" stroke="#000000" stroke-width="2" stroke-miterlimit="8" fill="#FFFFFF"/><text font-family="Consolas,Consolas_MSFontService,sans-serif" font-weight="400" font-size="24" transform="translate(349.875 308)">M</text><path d="M572 315 572 405.719" stroke="#000000" stroke-width="2" stroke-miterlimit="8" stroke-dasharray="8 6" fill="none" fill-rule="evenodd"/><rect x="130" y="315" width="106" height="30" stroke="#000000" stroke-width="2" stroke-miterlimit="8" fill="#FFFFFF"/><text font-family="Consolas,Consolas_MSFontService,sans-serif" font-weight="400" font-size="24" transform="translate(143.081 338)">S.next</text><rect x="54" y="405" width="376" height="129" stroke="#000000" stroke-width="2" stroke-miterlimit="8" fill="#FFFFFF"/><text font-family="Consolas,Consolas_MSFontService,sans-serif" font-weight="400" font-size="24" transform="translate(63.6626 464)">reduction of ε to<tspan font-size="24" x="237" y="0">M:</tspan><tspan font-size="24" x="0" y="28">L.next</tspan>=stack[top<tspan font-size="24" x="210.667" y="28">-</tspan><tspan font-size="24" x="223.833" y="28">2].next;</tspan></text><rect x="493" y="405" width="393" height="144" stroke="#000000" stroke-width="2" stroke-miterlimit="8" fill="#FFFFFF"/><text font-family="Consolas,Consolas_MSFontService,sans-serif" font-weight="400" font-size="24" transform="translate(502.136 443)">reduction of S:<tspan font-size="24" x="0" y="28">tempCode</tspan><tspan font-size="24" x="118.5" y="28">=</tspan><tspan font-size="24" x="144.833" y="28">stack[top</tspan>-<tspan font-size="24" x="276.5" y="28">1].code;</tspan><tspan font-size="24" x="0" y="57">top</tspan><tspan font-size="24" x="52.6667" y="57">=</tspan><tspan font-size="24" x="79" y="57">top</tspan><tspan font-size="24" x="131.667" y="57">–</tspan><tspan font-size="24" x="158" y="57">3;</tspan><tspan font-size="24" x="0" y="86">stack[top].code</tspan><tspan font-size="24" x="210.667" y="86">=</tspan><tspan font-size="24" x="237" y="86">tempCode</tspan><tspan font-size="24" x="342.333" y="86">;</tspan></text></g></svg>