<svg width="1446" height="429" xmlns="http://www.w3.org/2000/svg" xmlns:xlink="http://www.w3.org/1999/xlink" overflow="hidden"><defs><clipPath id="clip0"><rect x="52" y="224" width="1446" height="429"/></clipPath></defs><g clip-path="url(#clip0)" transform="translate(-52 -224)"><rect x="175" y="284" width="106" height="31" stroke="#000000" stroke-width="2" stroke-miterlimit="8" fill="#FFFFFF"/><text font-family="Consolas,Consolas_MSFontService,sans-serif" font-weight="400" font-size="24" transform="translate(214.773 308)">if</text><rect x="296" y="284" width="38" height="31" stroke="#000000" stroke-width="2" stroke-miterlimit="8" fill="#FFFFFF"/><text font-family="Consolas,Consolas_MSFontService,sans-serif" font-weight="400" font-size="24" transform="translate(308.296 308)">(</text><rect x="349" y="284" width="106" height="31" stroke="#000000" stroke-width="2" stroke-miterlimit="8" fill="#FFFFFF"/><text font-family="Consolas,Consolas_MSFontService,sans-serif" font-weight="400" font-size="24" transform="translate(388.651 308)">M1</text><rect x="470" y="284" width="106" height="31" stroke="#000000" stroke-width="2" stroke-miterlimit="8" fill="#FFFFFF"/><text font-family="Consolas,Consolas_MSFontService,sans-serif" font-weight="400" font-size="24" transform="translate(516.193 308)">C</text><rect x="591" y="284" width="38" height="31" stroke="#000000" stroke-width="2" stroke-miterlimit="8" fill="#FFFFFF"/><text font-family="Consolas,Consolas_MSFontService,sans-serif" font-weight="400" font-size="24" transform="translate(603.131 308)">)</text><rect x="765" y="284" width="106" height="31" stroke="#000000" stroke-width="2" stroke-miterlimit="8" fill="#FFFFFF"/><text font-family="Consolas,Consolas_MSFontService,sans-serif" font-weight="400" font-size="24" transform="translate(806.612 308)">S<tspan font-size="16" x="13.1666" y="5">1</tspan></text><rect x="886" y="284" width="105" height="31" stroke="#000000" stroke-width="2" stroke-miterlimit="8" fill="#FFFFFF"/><text font-family="Consolas,Consolas_MSFontService,sans-serif" font-weight="400" font-size="24" transform="translate(912.237 308)">else</text><rect x="1128" y="284" width="105" height="31" stroke="#000000" stroke-width="2" stroke-miterlimit="8" fill="#FFFFFF"/><text font-family="Consolas,Consolas_MSFontService,sans-serif" font-weight="400" font-size="24" transform="translate(1169.49 308)">S<tspan font-size="16" x="13.1667" y="5">2</tspan></text><path d="M1181 262 1181 272.68 1179 272.68 1179 262ZM1186.67 271.346 1180 284.68 1173.33 271.346Z"/><text font-family="Consolas,Consolas_MSFontService,sans-serif" font-weight="400" font-size="24" transform="translate(1160.74 255)">top</text><rect x="470" y="315" width="106" height="30" stroke="#000000" stroke-width="2" stroke-miterlimit="8" fill="#FFFFFF"/><text font-family="Consolas,Consolas_MSFontService,sans-serif" font-weight="400" font-size="24" transform="translate(483.276 338)">C.code</text><rect x="349" y="315" width="106" height="30" stroke="#000000" stroke-width="2" stroke-miterlimit="8" fill="#FFFFFF"/><text font-family="Consolas,Consolas_MSFontService,sans-serif" font-weight="400" font-size="24" transform="translate(362.318 338)">C.true</text><rect x="349" y="345" width="106" height="30" stroke="#000000" stroke-width="2" stroke-miterlimit="8" fill="#FFFFFF"/><text font-family="Consolas,Consolas_MSFontService,sans-serif" font-weight="400" font-size="24" transform="translate(355.734 369)">C.false</text><rect x="644" y="315" width="106" height="30" stroke="#000000" stroke-width="2" stroke-miterlimit="8" fill="#FFFFFF"/><text font-family="Consolas,Consolas_MSFontService,sans-serif" font-weight="400" font-size="24" transform="translate(652.737 338)">S<tspan font-size="16" x="13.1667" y="5">1</tspan><tspan font-size="24" x="22" y="0">.next</tspan></text><rect x="1128" y="315" width="105" height="30" stroke="#000000" stroke-width="2" stroke-miterlimit="8" fill="#FFFFFF"/><text font-family="Consolas,Consolas_MSFontService,sans-serif" font-weight="400" font-size="24" transform="translate(1136.57 338)">S<tspan font-size="16" x="13.1667" y="5">2</tspan><tspan font-size="24" x="22" y="0">.cod</tspan><tspan font-size="24" x="74.6667" y="0">e</tspan></text><rect x="644" y="284" width="106" height="31" stroke="#000000" stroke-width="2" stroke-miterlimit="8" fill="#FFFFFF"/><text font-family="Consolas,Consolas_MSFontService,sans-serif" font-weight="400" font-size="24" transform="translate(683.487 308)">M2</text><rect x="1007" y="284" width="105" height="31" stroke="#000000" stroke-width="2" stroke-miterlimit="8" fill="#FFFFFF"/><text font-family="Consolas,Consolas_MSFontService,sans-serif" font-weight="400" font-size="24" transform="translate(1046.36 308)">M3</text><rect x="54" y="284" width="106" height="31" stroke="#000000" stroke-width="2" stroke-miterlimit="8" fill="#FFFFFF"/><text font-family="Consolas,Consolas_MSFontService,sans-serif" font-weight="400" font-size="24" transform="translate(100.398 308)">?</text><rect x="54" y="315" width="106" height="30" stroke="#000000" stroke-width="2" stroke-miterlimit="8" fill="#FFFFFF"/><text font-family="Consolas,Consolas_MSFontService,sans-serif" font-weight="400" font-size="24" transform="translate(67.4818 338)">S.next</text><rect x="349" y="375" width="106" height="30" stroke="#000000" stroke-width="2" stroke-miterlimit="8" fill="#FFFFFF"/><text font-family="Consolas,Consolas_MSFontService,sans-serif" font-weight="400" font-size="24" transform="translate(388.651 399)">L<tspan font-size="24" x="13.1667" y="0">1</tspan></text><rect x="765" y="315" width="106" height="30" stroke="#000000" stroke-width="2" stroke-miterlimit="8" fill="#FFFFFF"/><text font-family="Consolas,Consolas_MSFontService,sans-serif" font-weight="400" font-size="24" transform="translate(773.695 338)">S<tspan font-size="16" x="13.1667" y="5">1</tspan><tspan font-size="24" x="22" y="0">.code</tspan></text><rect x="1007" y="315" width="105" height="30" stroke="#000000" stroke-width="2" stroke-miterlimit="8" fill="#FFFFFF"/><text font-family="Consolas,Consolas_MSFontService,sans-serif" font-weight="400" font-size="24" transform="translate(1015.61 338)">S<tspan font-size="16" x="13.1666" y="5">2</tspan><tspan font-size="24" x="22" y="0">.next</tspan></text><rect x="190" y="489" width="293" height="98" stroke="#000000" stroke-width="2" stroke-miterlimit="8" fill="#FFFFFF"/><text font-family="Consolas,Consolas_MSFontService,sans-serif" font-weight="400" font-size="24" transform="translate(199.741 517)">reduction of ε to<tspan font-size="24" x="237" y="0">M1:</tspan><tspan font-size="24" x="0" y="28">L1=new();</tspan><tspan font-size="24" x="0" y="57">C.false</tspan><tspan font-size="24" x="92.1667" y="57">=L1</tspan>;</text><rect x="485" y="398" width="355" height="75" stroke="#000000" stroke-width="2" stroke-miterlimit="8" fill="#FFFFFF"/><text font-family="Consolas,Consolas_MSFontService,sans-serif" font-weight="400" font-size="24" transform="translate(494.577 430)">reduction of ε to<tspan font-size="24" x="237" y="0">M2:</tspan><tspan font-size="24" x="0" y="28">S</tspan><tspan font-size="16" x="13.1667" y="33">1</tspan><tspan font-size="24" x="22" y="28">.next=stack[top</tspan><tspan font-size="24" x="219.5" y="28">-</tspan><tspan font-size="24" x="232.667" y="28">6].next;</tspan></text><rect x="727" y="496" width="355" height="76" stroke="#000000" stroke-width="2" stroke-miterlimit="8" fill="#FFFFFF"/><text font-family="Consolas,Consolas_MSFontService,sans-serif" font-weight="400" font-size="24" transform="translate(736.493 528)">reduction of ε to<tspan font-size="24" x="237" y="0">M3:</tspan><tspan font-size="24" x="0" y="28">S</tspan><tspan font-size="16" x="13.1667" y="33">2</tspan><tspan font-size="24" x="22" y="28">.next=stack[top</tspan><tspan font-size="24" x="219.5" y="28">-</tspan><tspan font-size="24" x="232.667" y="28">9].next;</tspan></text><rect x="1105" y="398" width="385" height="249" stroke="#000000" stroke-width="2" stroke-miterlimit="8" fill="#FFFFFF"/><text font-family="Consolas,Consolas_MSFontService,sans-serif" font-weight="400" font-size="24" transform="translate(1114.49 430)">reduction of S:<tspan font-size="24" x="0" y="28">tempCode</tspan><tspan font-size="24" x="118.5" y="28">=</tspan><tspan font-size="24" x="0" y="57">stack[top</tspan><tspan font-size="24" x="118.5" y="57">-</tspan><tspan font-size="24" x="131.667" y="57">6].code ||</tspan><tspan font-size="24" x="0" y="86">stack[top</tspan><tspan font-size="24" x="118.5" y="86">-</tspan><tspan font-size="24" x="131.667" y="86">3].code ||</tspan><tspan font-size="24" x="0" y="115">"label"|| stack[top</tspan><tspan font-size="24" x="250.167" y="115">-</tspan><tspan font-size="24" x="263.333" y="115">7].L1 ||</tspan><tspan font-size="24" x="0" y="144">stack[top].code;</tspan><tspan font-size="24" x="0" y="172">top</tspan><tspan font-size="24" x="52.6666" y="172">= top </tspan>–<tspan font-size="24" x="158" y="172">9;</tspan><tspan font-size="24" x="0" y="201">stack[top].code=</tspan><tspan font-size="24" x="210.667" y="201">tempCode</tspan></text><path d="M402 405 402 488.159" stroke="#000000" stroke-width="2" stroke-miterlimit="8" stroke-dasharray="8 6" fill="none" fill-rule="evenodd"/><path d="M697 345 697 397.919" stroke="#000000" stroke-width="2" stroke-miterlimit="8" stroke-dasharray="8 6" fill="none" fill-rule="evenodd"/><path d="M1060 345 1060 496.198" stroke="#000000" stroke-width="2" stroke-miterlimit="8" stroke-dasharray="8 6" fill="none" fill-rule="evenodd"/><path d="M1180 345 1180 397.919" stroke="#000000" stroke-width="2" stroke-miterlimit="8" stroke-dasharray="8 6" fill="none" fill-rule="evenodd"/></g></svg>